<svg xmlns="http://www.w3.org/2000/svg" width="156" height="32"><path fill="#184785" d="M141.871 12.673l.26 1.992s-1.732-.852-3.811-.736c-1.227.072-2.021.505-2.699 1.039v10.104h-2.815V12.587l2.815-.361v1.212c.548-.361 1.487-.982 2.8-1.068 1.588-.115 3.175.245 3.45.303zM67.767 23.989c1.083-.087 2.973-.318 2.973-2.093 0-.606-.404-1.083-1.097-1.472-.938-.534-2.079-.953-2.54-1.155-1.848-.751-3.825-1.645-3.825-3.479 0-2.122 1.559-3.594 5.355-3.594 1.689 0 3.71.476 3.71.476v1.949s-2.18-1.097-4.027-1.097c-1.342 0-2.454.404-2.454 1.53 0 .592.404 1.039 1.083 1.4.953.52 2.079.895 2.54 1.083 1.862.736 3.839 1.703 3.839 3.868 0 2.757-2.555 3.912-5.831 3.912-2.656 0-4.287-.491-4.287-.491v-1.054c-.014-.014 2.742.346 4.561.216zm18.865-9.382s-2.122-1.097-3.94-1.097c-3.406 0-4.099 2.526-4.099 3.955 0 1.617.087 3.204 1.155 4.446 1.039 1.184 3.19 2.079 5.24 2.079.852 0 1.92-.188 1.92-.188v1.054s-1.458.462-3.58.462c-5.687 0-7.794-2.887-7.794-6.943 0-3.363 1.718-6.178 6.438-6.178 2.843 0 4.677.476 4.677.476v1.934zm40.401 1.963c0-1.573-1.054-3.06-2.8-3.06-2.555 0-3.147 2.064-3.291 3.06h6.091zm2.742 8.213s-1.516.52-4.114.52c-4.778 0-7.578-2.483-7.578-6.943 0-3.839 1.79-6.178 6.567-6.178 3.089 0 5.514 1.819 5.514 5.037v.549h-9.267c0 1.328.216 3.074 1.328 4.287 1.068 1.169 3.017 1.92 5.138 1.92 1.039 0 2.439-.361 2.439-.361v1.169zm-26.298-11.951l2.815-.375 4.561 9.396 4.301-9.396h2.107l-6.019 12.832h-1.703l-6.062-12.456zm-7.823 11.143c3.406 0 3.695-3.118 3.695-5.167 0-2.208-.534-5.297-3.753-5.297-3.536 0-3.724 3.089-3.724 5.297 0 2.021.592 5.167 3.782 5.167zm-6.842-5.168c0-3.912 1.977-6.625 6.755-6.625 4.287 0 6.842 2.598 6.842 6.596 0 4.027-2.208 6.524-6.784 6.524-4.388 0-6.813-2.67-6.813-6.495zM56.379 8.328c0-.895.88-1.631 1.992-1.631 1.054 0 1.963.722 1.963 1.631 0 .953-.909 1.631-1.963 1.631-1.111-.014-1.992-.736-1.992-1.631zm.693 4.201l2.815-.375v12.861h-2.815V12.53zM43.475 6.986c2.901 0 5.687.693 7.65 2.223 2.107 1.645 3.262 4.215 3.262 6.784 0 2.598-1.111 5.167-3.233 6.813C49.205 24.322 46.348 25 43.461 25h-5.297V6.986h5.312zM41.31 8.343v15.343c2.05 0 3.969-.159 5.283-.736 2.901-1.299 4.345-4.027 4.345-6.928 0-2.916-1.443-5.629-4.345-6.928-1.313-.606-3.233-.751-5.283-.751zm102.423 4.171l2.699-.346 3.681 9.238 4.186-9.238h2.078l-5.918 13.063c-.982 2.078-2.728 4.835-5.875 4.835h-.476v-1.934c3.161.202 4.46-2.151 4.46-3.089 0-.722-.361-1.501-.361-1.501l-4.475-11.027z"/><path fill="#ba8c60" d="M10.753 8.949a52.48 52.48 0 00-2.324 2.41c2.454 2.67 4.98 5.254 7.563 7.794 2.584-2.54 5.124-5.124 7.563-7.794a60.722 60.722 0 00-2.324-2.382 289.596 289.596 0 00-5.239 5.066 249.752 249.752 0 00-5.239-5.095zm2.425-2.151a77.084 77.084 0 012.829 2.454 90.331 90.331 0 012.815-2.454 46.234 46.234 0 00-2.829-2.194 46.255 46.255 0 00-2.815 2.194zm-6.841 6.943a38.8 38.8 0 00-1.732 2.309 48.865 48.865 0 0011.388 11.287 48.192 48.192 0 0011.345-11.302 37.513 37.513 0 00-1.689-2.281c-2.887 3.608-6.149 6.914-9.627 9.959-3.507-3.06-6.77-6.365-9.685-9.974zM1.92 16.007C1.906 8.415 8.3 1.919 15.906 1.905c7.621 0 14.015 6.51 14.001 14.102 0 7.592-6.394 14.073-14.001 14.073-7.592 0-13.972-6.481-13.986-14.073zm-1.92 0C0 7.159 7.13 0 15.921 0s15.921 7.159 15.921 16.007c0 8.834-7.13 16.007-15.921 16.007C7.131 32 0 24.84 0 16.007zm1.083 0c0 8.242 6.64 14.91 14.838 14.91s14.838-6.683 14.838-14.91c0-8.242-6.64-14.91-14.838-14.91-8.198-.014-14.838 6.668-14.838 14.91z"/></svg>