<?xml version="1.0" encoding="utf-8"?>
<svg viewBox="0 0 32 32" width="32" height="32" xmlns="http://www.w3.org/2000/svg">
  <g transform="matrix(0.778336, 0, 0, 0.778336, -160.872543, 7.092983)">
    <path id="a" fill="#fff" d="M 229.792 14.961 C 229.792 16.52 228.755 17.349 227.077 17.349 C 225.4 17.349 224.478 16.366 224.478 14.961 C 224.478 14.961 225.4 16.263 227.077 16.263 C 228.755 16.263 229.792 14.961 229.792 14.961 Z"/>
    <path fill="#E2F5FC" d="M 227.244 21.04 C 235.421 21.04 242.051 14.406 242.051 6.222 C 242.051 -1.961 235.421 -8.595 227.244 -8.595 C 219.067 -8.595 212.438 -1.961 212.438 6.222 C 212.438 14.406 219.067 21.04 227.244 21.04 Z"/>
    <path fill="#CDECF6" d="M 227.244 18.62 C 233.928 18.62 239.346 13.197 239.346 6.509 C 239.346 -0.181 233.928 -5.602 227.244 -5.602 C 220.56 -5.602 215.142 -0.181 215.142 6.509 C 215.142 13.197 220.56 18.62 227.244 18.62 Z"/>
    <path fill="#fff" d="M 222.718 -4.1 C 223.268 -4.1 223.612 -4.697 223.336 -5.173 C 223.209 -5.394 222.973 -5.53 222.718 -5.53 C 222.167 -5.53 221.824 -4.935 222.099 -4.458 C 222.226 -4.237 222.462 -4.1 222.718 -4.1 Z M 217.399 13.844 C 217.509 14 217.747 13.977 217.827 13.804 C 217.867 13.716 217.852 13.612 217.789 13.539 C 212.953 7.359 215.743 -0.651 221.231 -3.795 C 221.392 -3.898 221.382 -4.136 221.212 -4.224 C 221.141 -4.262 221.057 -4.262 220.985 -4.225 C 215.278 -0.957 212.348 7.389 217.399 13.844 Z"/>
    <path fill="#B5D2F3" d="M 212.306 3.281 C 212.306 3.133 212.145 3.04 212.016 3.114 C 211.957 3.148 211.92 3.212 211.92 3.281 L 212.306 3.281 Z M 211.92 9.085 C 211.92 9.233 212.08 9.326 212.209 9.252 C 212.269 9.218 212.306 9.154 212.306 9.085 L 211.92 9.085 Z M 242.491 3.254 C 242.491 3.105 242.33 3.012 242.202 3.087 C 242.142 3.121 242.105 3.185 242.105 3.254 L 242.491 3.254 Z M 242.105 9.057 C 242.105 9.205 242.266 9.299 242.394 9.224 C 242.454 9.19 242.491 9.126 242.491 9.057 L 242.105 9.057 Z M 227.205 21.48 C 235.647 21.48 242.491 14.631 242.491 6.184 L 242.105 6.184 C 242.105 14.418 235.434 21.094 227.205 21.094 L 227.205 21.48 Z M 242.491 6.184 C 242.491 -2.265 235.647 -9.113 227.205 -9.113 L 227.205 -8.728 C 235.434 -8.728 242.105 -2.052 242.105 6.184 L 242.491 6.184 Z M 227.205 -9.113 C 218.763 -9.113 211.92 -2.264 211.92 6.184 L 212.306 6.184 C 212.306 -2.052 218.977 -8.728 227.205 -8.728 L 227.205 -9.113 Z M 211.92 6.184 C 211.92 14.631 218.763 21.48 227.205 21.48 L 227.205 21.094 C 218.977 21.094 212.306 14.419 212.306 6.184 L 211.92 6.184 Z M 211.92 3.281 L 211.92 9.085 L 212.306 9.085 L 212.306 3.281 L 211.92 3.281 Z M 242.105 3.254 L 242.105 9.057 L 242.491 9.057 L 242.491 3.254 L 242.105 3.254 Z"/>
    <path fill="#B5D2F3" d="M 212.438 3.292 C 212.458 2.832 211.973 2.524 211.565 2.737 C 211.36 2.844 211.235 3.06 211.245 3.292 L 211.245 9.153 C 211.225 9.612 211.71 9.92 212.118 9.708 C 212.323 9.601 212.448 9.385 212.438 9.153 L 212.438 3.292 Z M 243.244 3.292 C 243.263 2.832 242.778 2.524 242.371 2.737 C 242.166 2.844 242.04 3.06 242.051 3.292 L 242.051 9.153 C 242.031 9.612 242.516 9.92 242.923 9.708 C 243.129 9.601 243.253 9.385 243.244 9.153 L 243.244 3.292 Z"/>
    <path fill="#FE733E" d="M 220.672 28.738 C 221.362 28.457 221.222 28.176 221.222 28.036 L 220.886 22.939 L 220.59 20.389 L 220.143 4.468 C 220.143 0.691 222.937 -2.841 227.154 -2.841 C 231.371 -2.841 234.355 0.558 234.362 4.471 C 234.241 12.03 234.037 14.906 233.752 20.334 C 233.718 21.076 233.621 22.199 233.59 22.885 C 233.431 26.281 233.251 27.945 233.251 28.036 C 233.251 28.177 233.111 28.457 233.801 28.738 C 234.49 29.019 236.084 29.383 236.084 29.472 C 236.084 29.56 233.392 29.472 233.392 29.472 C 231.849 29.472 231.849 28.317 231.849 28.036 C 231.849 27.755 231.427 22.936 231.427 22.936 L 231.287 29.159 C 231.287 29.44 231.427 29.861 232.41 30.142 C 232.41 30.142 234.553 30.466 234.553 30.583 C 234.553 30.7 231.989 30.583 231.989 30.583 C 230.037 30.583 230.037 29.44 230.037 29.44 L 229.616 24.34 C 229.616 24.34 229.475 29.44 229.475 30.141 C 229.475 30.692 229.57 31.112 231.102 31.393 C 231.841 31.599 233.335 31.853 233.335 31.955 C 233.335 32.057 229.927 31.955 229.927 31.955 C 228.104 31.814 227.931 30.55 227.931 30.55 L 227.24 28.009 L 226.552 30.551 C 226.552 30.551 226.272 31.814 224.448 31.955 C 224.448 31.955 221.355 32.057 221.355 31.955 C 221.355 31.853 222.594 31.625 223.382 31.393 C 224.448 31.08 225.009 30.692 225.009 30.141 C 225.009 29.44 224.869 24.339 224.869 24.339 L 224.448 29.439 C 224.448 29.439 224.448 30.692 222.496 30.692 C 222.496 30.692 219.715 30.7 219.715 30.582 C 219.715 30.465 222.063 30.142 222.063 30.142 C 223.045 29.861 223.185 29.44 223.185 29.159 L 223.045 22.935 C 223.045 22.935 222.624 27.755 222.624 28.035 C 222.624 28.316 222.624 29.58 221.081 29.58 C 221.081 29.58 218.485 29.452 218.485 29.362 C 218.485 29.274 219.982 29.018 220.672 28.737 L 220.672 28.738 Z"/>
    <path fill="#FE6446" d="M 220.59 20.388 C 220.59 20.388 220.302 21.094 219.651 21.473 C 219 21.854 218.246 21.977 217.536 22.071 C 217.536 22.071 218.512 22.559 219.706 22.45 C 220.453 22.39 220.768 22.581 220.885 22.939 L 220.59 20.389 L 220.59 20.388 Z M 233.752 20.334 C 233.752 20.334 234.173 21.039 234.824 21.419 C 235.474 21.799 236.229 21.923 236.938 22.017 C 236.938 22.017 235.963 22.505 234.77 22.396 C 234.022 22.336 233.707 22.526 233.59 22.885 L 233.752 20.334 Z"/>
    <path fill="#FE6446" d="M 233.76 20.214 L 233.815 19.332 C 230.369 20.959 227.167 20.788 227.167 20.788 C 227.167 20.788 223.946 20.923 220.563 19.324 L 220.584 20.182 C 220.584 20.182 222.998 21.666 227.167 21.666 C 231.336 21.666 233.76 20.214 233.76 20.214 Z" opacity=".3"/>
    <path fill="#FEA777" d="M 224.396 1.558 C 225.152 1.576 225.644 0.768 225.281 0.104 C 225.104 -0.218 224.763 -0.416 224.395 -0.407 C 223.639 -0.389 223.186 0.441 223.58 1.087 C 223.754 1.373 224.061 1.55 224.396 1.558 Z" opacity=".5"/>
    <path fill="#FE6B3C" d="M 234.349 4.576 C 234.349 4.576 234.452 3.346 233.915 1.881 C 232.44 -2.14 228.817 -2.949 226.864 -2.836 C 226.864 -2.836 229.633 -1.527 229.762 2.661 C 229.82 4.518 229.82 4.576 229.82 4.576 L 234.349 4.576 Z"/>
    <path fill="#fff" d="M 229.792 14.961 C 229.792 16.52 228.755 17.349 227.077 17.349 C 225.4 17.349 224.478 16.366 224.478 14.961 C 224.478 14.961 225.4 16.263 227.077 16.263 C 228.755 16.263 229.792 14.961 229.792 14.961 Z"/>
    <path fill="#fff" d="M 229.792 14.961 C 229.792 16.52 228.755 17.349 227.077 17.349 C 225.4 17.349 224.478 16.366 224.478 14.961 C 224.478 14.961 225.4 16.263 227.077 16.263 C 228.755 16.263 229.792 14.961 229.792 14.961 Z"/>
    <path fill="#fff" d="M 229.792 14.961 C 229.792 16.52 229.165 18.977 227.077 18.977 C 224.99 18.977 224.478 16.366 224.478 14.961 C 224.478 14.961 224.478 17.349 227.077 17.349 C 229.92 17.349 229.792 14.961 229.792 14.961 Z"/>
    <path fill="#070909" d="M 229.792 14.961 C 229.792 16.52 229.165 18.977 227.077 18.977 C 224.99 18.977 224.478 16.366 224.478 14.961 C 224.478 14.961 224.478 17.349 227.077 17.349 C 229.92 17.349 229.792 14.961 229.792 14.961 Z"/>
    <path fill="#FE6446" d="M 222.146 12.573 C 224.513 12.572 226.431 10.653 226.431 8.285 C 226.431 5.917 224.513 3.998 222.146 3.998 C 219.779 3.998 217.86 5.918 217.861 8.285 C 217.861 10.653 219.78 12.573 222.146 12.573 Z"/>
    <path fill="#fff" d="M 222.135 11.695 C 223.988 11.695 225.49 10.192 225.49 8.338 C 225.491 6.484 223.988 4.981 222.135 4.98 C 220.281 4.981 218.779 6.484 218.78 8.338 C 218.779 10.192 220.281 11.695 222.135 11.695 Z"/>
    <path fill="#090B0B" d="M 222.038 8.774 C 222.831 8.774 223.327 7.914 222.93 7.227 C 222.745 6.908 222.405 6.712 222.037 6.712 C 221.243 6.712 220.748 7.571 221.145 8.259 C 221.328 8.577 221.669 8.774 222.038 8.774 Z"/>
    <path fill="#FE6446" d="M 232.234 12.573 C 234.601 12.572 236.519 10.652 236.518 8.285 C 236.518 5.917 234.6 3.998 232.234 3.998 C 229.866 3.998 227.948 5.918 227.949 8.285 C 227.949 10.653 229.868 12.573 232.234 12.573 Z"/>
    <path fill="#fff" d="M 232.063 11.69 C 233.917 11.689 235.42 10.186 235.419 8.332 C 235.42 6.478 233.917 4.975 232.063 4.975 C 230.209 4.975 228.707 6.479 228.708 8.332 C 228.707 10.186 230.209 11.689 232.063 11.69 Z"/>
    <path fill="#090B0B" d="M 232.126 8.774 C 232.919 8.773 233.415 7.914 233.017 7.227 C 232.833 6.908 232.492 6.712 232.124 6.712 C 231.331 6.712 230.835 7.571 231.232 8.259 C 231.416 8.577 231.756 8.774 232.125 8.774 L 232.126 8.774 Z"/>
  </g>
</svg>