<svg xmlns="http://www.w3.org/2000/svg" xmlns:xlink="http://www.w3.org/1999/xlink" viewBox="0,0,256,256" width="64px" height="64px"><g fill="none" fill-rule="nonzero" stroke="none" stroke-width="1" stroke-linecap="butt" stroke-linejoin="miter" stroke-miterlimit="10" stroke-dasharray="" stroke-dashoffset="0" font-family="none" font-weight="none" font-size="none" text-anchor="none" style="mix-blend-mode: normal"><g transform="scale(2,2)"><path d="M108.9,117.2v0c-2.3,2.3 -6.1,2.3 -8.5,0l-12.7,-12.7c-2.3,-2.3 -2.3,-6.1 0,-8.5v0c2.3,-2.3 6.1,-2.3 8.5,0l12.7,12.7c2.3,2.4 2.3,6.2 0,8.5z" fill="#f5fafe"></path><path d="M52.3,25.7c-19.32997,0 -35,15.67003 -35,35c0,19.32997 15.67003,35 35,35c19.32997,0 35,-15.67003 35,-35c0,-19.32997 -15.67003,-35 -35,-35z" fill="#ffffff"></path><path d="M52.3,25.7c-19.32997,0 -35,15.67003 -35,35c0,19.32997 15.67003,35 35,35c19.32997,0 35,-15.67003 35,-35c0,-19.32997 -15.67003,-35 -35,-35z" fill="#ffffff"></path><path d="M52.3,98.7c-10.2,0 -19.7,-4 -26.9,-11.1c-14.8,-14.8 -14.8,-38.9 0,-53.7c7.2,-7.2 16.7,-11.1 26.9,-11.1c10.2,0 19.7,4 26.9,11.1c14.8,14.7 14.8,38.8 0,53.6c-7.2,7.2 -16.7,11.2 -26.9,11.2zM52.3,28.7c-8.5,0 -16.6,3.3 -22.6,9.4c-12.5,12.5 -12.5,32.8 0,45.3c6,6 14.1,9.4 22.6,9.4c8.5,0 16.6,-3.3 22.6,-9.4c12.5,-12.6 12.5,-32.9 0.1,-45.4c-6.1,-6 -14.1,-9.3 -22.7,-9.3zM104.7,122c-2.4,0 -4.7,-0.9 -6.4,-2.6l-12.7,-12.7c-3.5,-3.5 -3.5,-9.2 0,-12.7c1.7,-1.7 4,-2.6 6.4,-2.6c2.4,0 4.7,0.9 6.4,2.6l12.7,12.7c1.7,1.7 2.6,4 2.6,6.4c0,2.4 -0.9,4.7 -2.6,6.4c-1.8,1.6 -4,2.5 -6.4,2.5zM91.9,97.3c-0.8,0 -1.6,0.3 -2.1,0.9c-1.2,1.2 -1.2,3.1 0,4.2l12.7,12.7c1.1,1.1 3.1,1.1 4.2,0c0.6,-0.6 0.9,-1.3 0.9,-2.1c0,-0.8 -0.3,-1.6 -0.9,-2.1l-12.6,-12.7c-0.6,-0.6 -1.4,-0.9 -2.2,-0.9z" fill="#454b54"></path><path d="M87.7,99c-0.8,0 -1.5,-0.3 -2.1,-0.9l-10.6,-10.6c-1.2,-1.2 -1.2,-3.1 0,-4.2c1.2,-1.2 3.1,-1.2 4.2,0l10.6,10.6c1.2,1.2 1.2,3.1 0,4.2c-0.6,0.6 -1.3,0.9 -2.1,0.9z" fill="#454b54"></path><path d="M116.3,63.7h-16c-1.3,0 -2.4,-0.8 -2.8,-2l-14,-41.1l-1.3,4.3c-0.5,1.6 -2.1,2.5 -3.7,2c-1.6,-0.5 -2.5,-2.1 -2,-3.7l4,-13.2c0.4,-1.2 1.5,-2.1 2.8,-2.1c0,0 0,0 0.1,0c1.3,0 2.4,0.8 2.8,2l16.3,48h13.9c1.7,0 3,1.3 3,3c0,1.7 -1.4,2.8 -3.1,2.8zM51.3,83.7c-1.3,0 -2.4,-0.8 -2.8,-2l-6.3,-18h-4.9c-1.7,0 -3,-1.3 -3,-3c0,-1.7 1.3,-3 3,-3h7c1.3,0 2.4,0.8 2.8,2l4.2,11.9l4.2,-11.9c0.4,-1.2 1.6,-2 2.8,-2h7.8l3.9,-13c0.5,-1.6 2.1,-2.5 3.7,-2c1.6,0.5 2.5,2.1 2,3.7l-4.5,15.1c-0.4,1.3 -1.5,2.1 -2.9,2.1h-7.9l-6.3,18c-0.4,1.3 -1.5,2.1 -2.8,2.1zM27.3,63.7c-0.8,0 -1.6,-0.3 -2.1,-0.9c-0.6,-0.6 -0.9,-1.3 -0.9,-2.1c0,-0.8 0.3,-1.6 0.9,-2.1c1.1,-1.1 3.1,-1.1 4.2,0c0.6,0.6 0.9,1.3 0.9,2.1c0,0.8 -0.3,1.6 -0.9,2.1c-0.5,0.6 -1.3,0.9 -2.1,0.9z" fill="#d5dfea"></path></g></g></svg>