<?xml version="1.0" encoding="utf-8"?>
<svg width="93.99222px" height="83px" viewBox="0 0 93.99222 83" version="1.1" xmlns:xlink="http://www.w3.org/1999/xlink" xmlns="http://www.w3.org/2000/svg">
  <defs>
    <path d="M48 0L48 0L48 48L0 48L0 0L48 0Z" id="path_1" />
    <clipPath id="clip_1">
      <use xlink:href="#path_1" clip-rule="evenodd" fill-rule="evenodd" />
    </clipPath>
  </defs>
  <g id="Javascript" clip-path="url(#clip_1)">
    <path d="M48 0L48 0L48 48L0 48L0 0L48 0Z" id="Javascript" fill="none" stroke="none" />
    <path d="M6 42L6 6L42 6L42 42L6 42L6 42Z" id="Shape" fill="#FFD600" stroke="none" />
    <path d="M29.538 32.947C30.23 34.071 30.982 35.148 32.575 35.148C33.913 35.148 34.615 34.483 34.615 33.563C34.615 32.462 33.889 32.071 32.417 31.43L31.61 31.086C29.281 30.098 27.732 28.86 27.732 26.245C27.732 23.835 29.577 22.001 32.46 22.001C34.513 22.001 35.988 22.712 37.052 24.574L34.538 26.181C33.985 25.193 33.387 24.804 32.46 24.804C31.514 24.804 30.915 25.401 30.915 26.181C30.915 27.145 31.515 27.535 32.9 28.132L33.707 28.476C36.452 29.645 38 30.839 38 33.523C38 36.415 35.716 38 32.65 38C29.651 38 27.948 36.495 27 34.632L29.538 32.947L29.538 32.947ZM17.952 33.029C18.458 33.935 19.227 34.632 20.333 34.632C21.391 34.632 22 34.214 22 32.589L22 22L25.333 22L25.333 33.101C25.333 36.468 23.38 38 20.528 38C17.951 38 16.091 36.254 15.333 34.632L17.952 33.029L17.952 33.029Z" id="Shape" fill="#000001" fill-rule="evenodd" stroke="none" />
    <g id="Golang" clip-path="url(#clip_1)" transform="translate(48 48)">
      <path d="M48 0L48 0L48 48L0 48L0 0L48 0Z" id="Golang" fill="none" stroke="none" />
      <path d="M35.547 42.431L32.365 39.249L30.244 41.37L33.426 44.552C34.012 45.138 34.962 45.138 35.547 44.552C36.132 43.966 36.133 43.017 35.547 42.431L35.547 42.431ZM38.547 24.431L35.365 21.249L33.244 23.37L36.426 26.552C37.012 27.138 37.962 27.138 38.547 26.552C39.132 25.966 39.133 25.017 38.547 24.431L38.547 24.431ZM12.683 42.431L15.865 39.249L17.986 41.37L14.804 44.552C14.218 45.138 13.268 45.138 12.683 44.552C12.098 43.966 12.097 43.017 12.683 42.431L12.683 42.431ZM9.433 24.431L12.615 21.249L14.736 23.37L11.554 26.552C10.968 27.138 10.018 27.138 9.433 26.552C8.848 25.966 8.847 25.017 9.433 24.431L9.433 24.431Z" id="Shape" fill="#FFCC80" fill-rule="evenodd" stroke="none" />
      <path d="M38 8C38 6.067 36.851 5 34.769 5C32.687 5 31 7.567 31 9.5C31 10.5 32.923 11 34 11C36.082 11 38 9.933 38 8L38 8ZM10 8C10 6.067 11.149 5 13.231 5C15.313 5 17 7.567 17 9.5C17 10.5 15.077 11 14 11C11.918 11 10 9.933 10 8L10 8Z" id="Shape" fill="#4DD0E1" fill-rule="evenodd" stroke="none" />
      <path d="M35 7C34.6427 7 34.3126 7.1906 34.134 7.5C33.9553 7.8094 33.9553 8.1906 34.134 8.5C34.3126 8.8094 34.6427 9 35 9C35.3573 9 35.6874 8.8094 35.866 8.5C36.0447 8.1906 36.0447 7.8094 35.866 7.5C35.6874 7.1906 35.3573 7 35 7L35 7ZM13 7C12.6427 7 12.3126 7.1906 12.134 7.5C11.9553 7.8094 11.9553 8.1906 12.134 8.5C12.3126 8.8094 12.6427 9 13 9C13.3573 9 13.6874 8.8094 13.866 8.5C14.0447 8.1906 14.0447 7.8094 13.866 7.5C13.6874 7.1906 13.3573 7 13 7L13 7Z" id="Shape" fill="#424242" fill-rule="evenodd" stroke="none" />
      <path d="M37 34C37 38.774 33.781 44 23.69 44C15.568 44 11 38.774 11 34C11 29 12 28.194 12 24C12 19.312 12 17 12 14C12 9.226 15.076 3 23.69 3C32.304 3 36 6.991 36 13C36 16 35.763 18.453 36 23C36.186 26.562 37 31 37 34L37 34Z" id="Shape" fill="#4DD0E1" stroke="none" />
      <path d="M28.9997 6C27.5706 6 26.2502 6.76238 25.5356 7.99995C24.8211 9.23752 24.8211 10.7623 25.5356 11.9999C26.2502 13.2374 27.5706 13.9998 28.9997 13.9998C30.4287 13.9998 31.7492 13.2374 32.4637 11.9999C33.1782 10.7623 33.1782 9.23752 32.4637 7.99995C31.7492 6.76237 30.4287 6 28.9997 6L28.9997 6ZM18.9999 6C17.5709 6 16.2504 6.76238 15.5359 7.99995C14.8214 9.23752 14.8214 10.7623 15.5359 11.9999C16.2504 13.2374 17.5709 13.9998 18.9999 13.9998C20.4289 13.9998 21.7494 13.2374 22.4639 11.9999C23.1784 10.7623 23.1784 9.23752 22.4639 7.99995C21.7494 6.76237 20.4289 6 18.9999 6L18.9999 6Z" id="Group" fill="#F5F5F5" fill-rule="evenodd" stroke="none" />
      <path d="M24 19.9999C24 20.5519 24.4479 20.9999 24.9999 20.9999C25.5519 20.9999 25.9999 20.5519 25.9999 19.9999L25.9999 17L24 17L24 19.9999L24 19.9999ZM22 19.9999C22 20.5519 22.448 20.9999 23 20.9999C23.552 20.9999 24 20.5519 24 19.9999L24 17L22 17L22 19.9999L22 19.9999Z" id="Group" fill="#EEEEEE" fill-rule="evenodd" stroke="none" />
      <path d="M26.5 18C26.088 18 25.847 17.915 25.489 17.795C24.514 17.467 23.468 17.469 22.493 17.797C22.138 17.916 21.91 18 21.5 18C20.166 18 20 17 20 16.5C20 15 21.5 14 23 14C23.835 14 24.165 14 25 14C26.5 14 28 15 28 16.5C28 17 27.834 18 26.5 18L26.5 18Z" id="Shape" fill="#FFCC80" stroke="none" />
      <path d="M26.9997 9C26.6425 9 26.3124 9.19059 26.1337 9.49999C25.9551 9.80938 25.9551 10.1906 26.1337 10.5C26.3124 10.8094 26.6425 11 26.9997 11C27.357 11 27.6871 10.8094 27.8657 10.5C28.0444 10.1906 28.0444 9.80938 27.8657 9.49999C27.6871 9.19059 27.357 9 26.9997 9L26.9997 9ZM17 9C16.6427 9 16.3126 9.19059 16.134 9.49999C15.9553 9.80938 15.9553 10.1906 16.134 10.5C16.3126 10.8094 16.6427 11 17 11C17.3572 11 17.6874 10.8094 17.866 10.5C18.0446 10.1906 18.0446 9.80938 17.866 9.49999C17.6874 9.19059 17.3572 9 17 9L17 9ZM23.9998 12.9999C23.2853 12.9999 22.625 13.1905 22.2678 13.4999C21.9105 13.8093 21.9105 14.1905 22.2678 14.4999C22.6251 14.8093 23.2853 14.9999 23.9998 14.9999C24.7143 14.9999 25.3746 14.8093 25.7318 14.4999C26.0891 14.1905 26.0891 13.8093 25.7318 13.4999C25.3746 13.1905 24.7143 12.9999 23.9998 12.9999L23.9998 12.9999Z" id="Group" fill="#424242" fill-rule="evenodd" stroke="none" />
    </g>
  </g>
  <g id="CEL" transform="translate(18 54)">
    <g id="CEL">
      <path d="M16.1591 11.25L14.0455 11.25Q13.7898 10.0398 13.0653 9.21307Q12.3409 8.38636 11.3182 7.96023Q10.2955 7.53409 9.13636 7.53409Q7.55114 7.53409 6.26847 8.33523Q4.9858 9.13636 4.23153 10.696Q3.47727 12.2557 3.47727 14.5227Q3.47727 16.7898 4.23153 18.3494Q4.9858 19.9091 6.26847 20.7102Q7.55114 21.5114 9.13636 21.5114Q10.2955 21.5114 11.3182 21.0852Q12.3409 20.6591 13.0653 19.8324Q13.7898 19.0057 14.0455 17.7955L16.1591 17.7955Q15.8352 19.5852 14.8381 20.8594Q13.8409 22.1335 12.3665 22.8111Q10.892 23.4886 9.13636 23.4886Q6.90341 23.4886 5.16477 22.3977Q3.42614 21.3068 2.42898 19.2955Q1.43182 17.2841 1.43182 14.5227Q1.43182 11.7614 2.42898 9.75Q3.42614 7.73864 5.16477 6.64773Q6.90341 5.55682 9.13636 5.55682Q10.892 5.55682 12.3665 6.23438Q13.8409 6.91193 14.8381 8.18608Q15.8352 9.46023 16.1591 11.25ZM19.5682 23.25L19.5682 5.79545L30.1023 5.79545L30.1023 7.67045L21.6818 7.67045L21.6818 13.5682L29.5568 13.5682L29.5568 15.4432L21.6818 15.4432L21.6818 21.375L30.2386 21.375L30.2386 23.25L19.5682 23.25ZM33.9205 23.25L33.9205 5.79545L36.0341 5.79545L36.0341 21.375L44.1477 21.375L44.1477 23.25L33.9205 23.25Z" />
    </g>
  </g>
  <path d="M90.5531 55.431L87.3711 52.249L85.2501 54.37L88.4321 57.552C89.0181 58.138 89.9681 58.138 90.5531 57.552C91.1381 56.966 91.1391 56.017 90.5531 55.431L90.5531 55.431ZM93.5531 37.431L90.3711 34.249L88.2501 36.37L91.4321 39.552C92.0181 40.138 92.9681 40.138 93.5531 39.552C94.1381 38.966 94.1391 38.017 93.5531 37.431L93.5531 37.431ZM67.6891 55.431L70.8711 52.249L72.9921 54.37L69.8101 57.552C69.2241 58.138 68.2741 58.138 67.6891 57.552C67.1041 56.966 67.1031 56.017 67.6891 55.431L67.6891 55.431ZM64.4391 37.431L67.6211 34.249L69.7421 36.37L66.5601 39.552C65.9741 40.138 65.0241 40.138 64.4391 39.552C63.8541 38.966 63.8531 38.017 64.4391 37.431L64.4391 37.431Z" id="Shape" fill="#FFCC80" fill-rule="evenodd" stroke="none" />
  <path d="M93.0061 21C93.0061 19.067 91.8571 18 89.7751 18C87.6931 18 86.0061 20.567 86.0061 22.5C86.0061 23.5 87.9291 24 89.0061 24C91.0881 24 93.0061 22.933 93.0061 21L93.0061 21ZM65.0061 21C65.0061 19.067 66.1551 18 68.2371 18C70.3191 18 72.0061 20.567 72.0061 22.5C72.0061 23.5 70.0831 24 69.0061 24C66.9241 24 65.0061 22.933 65.0061 21L65.0061 21Z" id="Shape" fill="#4DD0E1" fill-rule="evenodd" stroke="none" />
  <path d="M90.0061 20C89.6488 20 89.3187 20.1906 89.1401 20.5C88.9615 20.8094 88.9615 21.1906 89.1401 21.5C89.3187 21.8094 89.6488 22 90.0061 22C90.3634 22 90.6935 21.8094 90.8721 21.5C91.0508 21.1906 91.0508 20.8094 90.8721 20.5C90.6935 20.1906 90.3634 20 90.0061 20L90.0061 20ZM68.0061 20C67.6488 20 67.3187 20.1906 67.1401 20.5C66.9615 20.8094 66.9615 21.1906 67.1401 21.5C67.3187 21.8094 67.6488 22 68.0061 22C68.3634 22 68.6935 21.8094 68.8721 21.5C69.0508 21.1906 69.0508 20.8094 68.8721 20.5C68.6935 20.1906 68.3634 20 68.0061 20L68.0061 20Z" id="Shape" fill="#424242" fill-rule="evenodd" stroke="none" />
  <path d="M92.0061 47C92.0061 51.774 88.7871 57 78.6961 57C70.5741 57 66.0061 51.774 66.0061 47C66.0061 42 67.0061 41.194 67.0061 37C67.0061 32.312 67.0061 30 67.0061 27C67.0061 22.226 70.0821 16 78.6961 16C87.3101 16 91.0061 19.991 91.0061 26C91.0061 29 90.7691 31.453 91.0061 36C91.1921 39.562 92.0061 44 92.0061 47L92.0061 47Z" id="Shape" fill="#4DD0E1" stroke="none" />
  <path d="M84.0058 19C82.5767 19 81.2563 19.7624 80.5417 20.9999C79.8272 22.2375 79.8272 23.7623 80.5417 24.9998C81.2563 26.2374 82.5767 26.9998 84.0058 26.9998C85.4348 26.9998 86.7552 26.2374 87.4698 24.9998C88.1843 23.7623 88.1843 22.2375 87.4698 20.9999C86.7552 19.7624 85.4348 19 84.0058 19L84.0058 19ZM74.006 19C72.577 19 71.2565 19.7624 70.542 20.9999C69.8275 22.2375 69.8275 23.7623 70.542 24.9998C71.2565 26.2374 72.577 26.9998 74.006 26.9998C75.435 26.9998 76.7555 26.2374 77.47 24.9998C78.1845 23.7623 78.1845 22.2375 77.47 20.9999C76.7555 19.7624 75.435 19 74.006 19L74.006 19Z" id="Group" fill="#F5F5F5" fill-rule="evenodd" stroke="none" />
  <path d="M79.0061 32.9999C79.0061 33.5519 79.454 33.9999 80.006 33.9999C80.558 33.9999 81.006 33.5519 81.006 32.9999L81.006 30L79.0061 30L79.0061 32.9999L79.0061 32.9999ZM77.0061 32.9999C77.0061 33.5519 77.4541 33.9999 78.0061 33.9999C78.5581 33.9999 79.0061 33.5519 79.0061 32.9999L79.0061 30L77.0061 30L77.0061 32.9999L77.0061 32.9999Z" id="Group" fill="#EEEEEE" fill-rule="evenodd" stroke="none" />
  <path d="M81.5061 31C81.0941 31 80.8531 30.915 80.4951 30.795C79.5201 30.467 78.4741 30.469 77.4991 30.797C77.1441 30.916 76.9161 31 76.5061 31C75.1721 31 75.0061 30 75.0061 29.5C75.0061 28 76.5061 27 78.0061 27C78.8411 27 79.1711 27 80.0061 27C81.5061 27 83.0061 28 83.0061 29.5C83.0061 30 82.8401 31 81.5061 31L81.5061 31Z" id="Shape" fill="#FFCC80" stroke="none" />
  <path d="M82.0058 22C81.6486 22 81.3185 22.1906 81.1398 22.5C80.9612 22.8094 80.9612 23.1906 81.1398 23.5C81.3185 23.8094 81.6486 23.9999 82.0058 23.9999C82.3631 23.9999 82.6932 23.8094 82.8719 23.5C83.0505 23.1906 83.0505 22.8094 82.8719 22.5C82.6932 22.1906 82.3631 22 82.0058 22L82.0058 22ZM72.0061 22C71.6488 22 71.3187 22.1906 71.1401 22.5C70.9615 22.8094 70.9615 23.1906 71.1401 23.5C71.3187 23.8094 71.6488 23.9999 72.0061 23.9999C72.3633 23.9999 72.6935 23.8094 72.8721 23.5C73.0507 23.1906 73.0507 22.8094 72.8721 22.5C72.6935 22.1906 72.3633 22 72.0061 22L72.0061 22ZM79.0059 25.9999C78.2914 25.9999 77.6312 26.1905 77.2739 26.4999C76.9167 26.8093 76.9167 27.1905 77.2739 27.4999C77.6312 27.8093 78.2914 27.9998 79.0059 27.9998C79.7204 27.9998 80.3807 27.8093 80.7379 27.4999C81.0952 27.1905 81.0952 26.8093 80.7379 26.4999C80.3807 26.1905 79.7204 25.9999 79.0059 25.9999L79.0059 25.9999Z" id="Group" fill="#424242" fill-rule="evenodd" stroke="none" />
</svg>