<?xml version="1.0" encoding="utf-8"?>
<svg viewBox="0 0 32 32" width="32" height="32" xmlns="http://www.w3.org/2000/svg">
  <path d="M 5.615 14.768 L 7.232 14.667 C 7.248 14.881 7.321 15.087 7.445 15.263 C 7.627 15.489 7.906 15.613 8.195 15.597 C 8.396 15.611 8.596 15.55 8.755 15.427 C 8.877 15.331 8.949 15.186 8.953 15.032 C 8.949 14.882 8.882 14.742 8.768 14.646 C 8.504 14.48 8.208 14.371 7.898 14.328 C 7.321 14.235 6.775 14.005 6.305 13.657 C 5.991 13.395 5.813 13.005 5.823 12.597 C 5.823 12.311 5.909 12.033 6.07 11.797 C 6.252 11.53 6.509 11.323 6.81 11.203 C 7.241 11.042 7.701 10.968 8.161 10.987 C 8.725 10.95 9.287 11.087 9.771 11.38 C 10.161 11.682 10.402 12.138 10.43 12.63 L 8.831 12.727 C 8.811 12.519 8.719 12.326 8.57 12.18 C 8.407 12.059 8.207 12 8.005 12.011 C 7.846 11.999 7.687 12.043 7.557 12.136 C 7.462 12.209 7.406 12.323 7.406 12.443 C 7.41 12.535 7.455 12.621 7.529 12.677 C 7.7 12.787 7.894 12.856 8.096 12.88 C 8.646 12.98 9.181 13.143 9.693 13.367 C 9.981 13.5 10.225 13.713 10.396 13.979 C 10.543 14.226 10.619 14.508 10.615 14.795 C 10.616 15.142 10.515 15.482 10.323 15.771 C 10.122 16.072 9.836 16.308 9.503 16.448 C 9.082 16.616 8.632 16.694 8.18 16.68 C 7.242 16.68 6.594 16.498 6.234 16.138 C 5.87 15.77 5.653 15.282 5.622 14.766 L 5.615 14.768 Z M 2.362 6.529 L 3.167 6.529 L 3.167 4.594 C 3.167 4.328 3.38 4.111 3.646 4.107 L 4.51 4.107 L 4.51 2.946 C 4.512 2.673 4.735 2.454 5.008 2.459 L 12.909 2.459 C 13.178 2.459 13.396 2.677 13.396 2.946 L 13.396 4.107 L 28.891 4.107 C 29.159 4.107 29.378 4.325 29.378 4.594 L 29.378 6.529 L 30.266 6.529 C 30.534 6.529 30.753 6.747 30.753 7.016 C 30.757 7.05 30.757 7.085 30.753 7.12 L 29.039 19.646 C 28.986 20.047 28.803 20.419 28.518 20.706 C 28.244 20.986 27.869 21.145 27.476 21.146 L 18.034 21.146 L 18.034 22.597 L 18.078 22.597 C 18.461 22.598 18.771 22.909 18.771 23.292 L 18.771 24.545 L 22.156 24.545 C 22.459 24.545 22.727 24.742 22.818 25.031 L 30.068 25.031 C 30.851 24.996 31.57 25.466 31.851 26.198 C 31.95 26.447 32.001 26.712 32 26.979 C 32 27.247 31.95 27.512 31.851 27.761 C 31.569 28.492 30.851 28.961 30.068 28.925 L 22.846 28.925 C 22.807 29.276 22.51 29.542 22.156 29.542 L 10.396 29.542 C 10.042 29.542 9.745 29.276 9.706 28.925 L 1.932 28.925 C 1.146 28.959 0.427 28.484 0.148 27.748 C 0.05 27.499 0 27.234 0 26.966 C -0.001 26.699 0.05 26.434 0.148 26.185 C 0.43 25.453 1.149 24.983 1.932 25.018 L 9.745 25.018 C 9.836 24.729 10.103 24.532 10.406 24.531 L 13.198 24.531 L 13.198 23.292 C 13.199 22.91 13.509 22.601 13.891 22.599 L 14.151 22.599 L 14.151 21.143 L 4.687 21.143 C 4.283 21.144 3.897 20.979 3.617 20.688 C 3.338 20.399 3.165 20.025 3.125 19.625 L 1.802 7.065 C 1.788 6.942 1.822 6.817 1.898 6.719 C 1.98 6.614 2.102 6.547 2.234 6.534 C 2.277 6.532 2.319 6.532 2.362 6.534 L 2.362 6.529 Z M 15.068 22.594 L 17.115 22.594 L 17.115 21.162 L 15.068 21.162 L 15.068 22.594 Z M 22.849 25.946 L 22.849 27.992 L 30.068 27.992 C 30.468 28.012 30.838 27.778 30.99 27.406 C 31.043 27.267 31.07 27.119 31.07 26.969 C 31.07 26.82 31.043 26.673 30.99 26.534 C 30.837 26.158 30.462 25.921 30.057 25.946 L 22.849 25.946 Z M 9.703 27.992 L 9.703 25.946 L 1.932 25.946 C 1.527 25.921 1.152 26.158 1 26.534 C 0.946 26.673 0.919 26.82 0.919 26.969 C 0.919 27.119 0.947 27.267 1 27.406 C 1.153 27.781 1.528 28.017 1.932 27.992 L 9.703 27.992 Z M 2.825 7.503 L 4.086 19.526 C 4.102 19.707 4.178 19.878 4.302 20.011 C 4.404 20.112 4.543 20.168 4.687 20.167 L 27.484 20.167 C 27.623 20.166 27.755 20.109 27.851 20.011 C 27.981 19.874 28.061 19.698 28.081 19.511 L 29.716 7.5 L 2.825 7.503 Z M 4.141 5.081 L 4.141 6.526 L 28.404 6.321 L 28.404 5.081 L 12.909 5.081 C 12.639 5.082 12.419 4.864 12.419 4.594 L 12.419 3.433 L 5.495 3.433 L 5.495 4.594 C 5.495 4.863 5.277 5.081 5.008 5.081 L 4.141 5.081 Z M 11.51 11.071 L 15.716 11.071 L 15.716 12.253 L 13.219 12.253 L 13.219 13.216 L 15.365 13.216 L 15.365 14.331 L 13.219 14.331 L 13.219 16.576 L 11.51 16.576 L 11.51 11.084 L 11.51 11.071 Z M 16.289 11.071 L 21.463 11.071 L 21.463 12.43 L 19.726 12.43 L 19.726 16.589 L 18.026 16.589 L 18.026 12.443 L 16.289 12.443 L 16.289 11.084 L 16.289 11.071 Z M 22.26 11.071 L 25.091 11.071 C 25.592 11.032 26.088 11.189 26.476 11.508 C 26.8 11.843 26.967 12.299 26.937 12.763 C 26.963 13.249 26.78 13.723 26.435 14.065 C 26.098 14.381 25.587 14.538 24.901 14.537 L 23.958 14.537 L 23.958 16.573 L 22.26 16.573 L 22.26 11.084 L 22.26 11.071 Z M 23.969 13.414 L 24.388 13.414 C 24.633 13.438 24.878 13.377 25.083 13.242 C 25.213 13.135 25.287 12.974 25.284 12.805 C 25.286 12.641 25.224 12.483 25.109 12.365 C 24.923 12.223 24.689 12.159 24.456 12.185 L 23.958 12.185 L 23.958 13.414 L 23.969 13.414 Z"/>
</svg>