<svg xmlns="http://www.w3.org/2000/svg" xmlns:xlink="http://www.w3.org/1999/xlink" viewBox="0,0,256,256" width="32px" height="32px"><g fill="#555555" fill-rule="nonzero" stroke="none" stroke-width="1" stroke-linecap="butt" stroke-linejoin="miter" stroke-miterlimit="10" stroke-dasharray="" stroke-dashoffset="0" font-family="none" font-weight="none" font-size="none" text-anchor="none" style="mix-blend-mode: normal"><g transform="scale(5.12,5.12)"><path d="M25,2c-12.683,0 -23,10.318 -23,23c0,12.682 10.317,23 23,23c12.683,0 23,-10.318 23,-23c0,-12.682 -10.317,-23 -23,-23zM32,34v2h-14v-1c0,-4.074 3.451,-6.087 6.496,-7.864c2.83,-1.651 5.504,-3.21 5.504,-6.136c0,-4.943 -4.796,-5 -5,-5c-4.943,0 -5,4.796 -5,5h-2c0,-2.421 1.463,-7 7,-7c2.421,0 7,1.463 7,7c0,4.074 -3.451,6.087 -6.496,7.864c-2.489,1.452 -4.857,2.833 -5.392,5.136z"></path></g></g></svg>