<svg xmlns="http://www.w3.org/2000/svg" xmlns:xlink="http://www.w3.org/1999/xlink" viewBox="0,0,256,256" width="32px" height="32px"><g fill="#555555" fill-rule="nonzero" stroke="none" stroke-width="1" stroke-linecap="butt" stroke-linejoin="miter" stroke-miterlimit="10" stroke-dasharray="" stroke-dashoffset="0" font-family="none" font-weight="none" font-size="none" text-anchor="none" style="mix-blend-mode: normal"><g transform="scale(5.12,5.12)"><path d="M25,2c-12.682,0 -23,10.318 -23,23c0,12.682 10.318,23 23,23c12.682,0 23,-10.318 23,-23c0,-12.682 -10.318,-23 -23,-23zM25,36c-3.86,0 -7,-2.916 -7,-6.5c0,-0.17 0.022,-0.334 0.036,-0.5h2.02c-0.021,0.166 -0.056,0.329 -0.056,0.5c0,2.481 2.243,4.5 5,4.5c2.757,0 5,-2.019 5,-4.5c0,-2.481 -2.243,-4.5 -5,-4.5v-2c2.206,0 4,-1.57 4,-3.5c0,-1.93 -1.794,-3.5 -4,-3.5c-2.206,0 -4,1.57 -4,3.5c0,0.171 0.02,0.337 0.049,0.5h-2.008c-0.018,-0.166 -0.041,-0.33 -0.041,-0.5c0,-3.033 2.691,-5.5 6,-5.5c3.309,0 6,2.467 6,5.5c0,1.809 -0.962,3.412 -2.437,4.415c2.054,1.134 3.437,3.21 3.437,5.585c0,3.584 -3.14,6.5 -7,6.5z"></path></g></g></svg>