<svg xmlns="http://www.w3.org/2000/svg" xmlns:xlink="http://www.w3.org/1999/xlink" viewBox="0,0,256,256" width="32px" height="32px"><g fill="#555555" fill-rule="nonzero" stroke="none" stroke-width="1" stroke-linecap="butt" stroke-linejoin="miter" stroke-miterlimit="10" stroke-dasharray="" stroke-dashoffset="0" font-family="none" font-weight="none" font-size="none" text-anchor="none" style="mix-blend-mode: normal"><g transform="scale(5.12,5.12)"><path d="M24,2c-12.683,0 -23,10.318 -23,23c0,12.682 10.317,23 23,23c12.683,0 23,-10.318 23,-23c0,-12.682 -10.317,-23 -23,-23zM24,14c5.537,0 7,4.579 7,7h-1l-1,0.00391c-0.004,-0.511 -0.176,-5.00391 -5,-5.00391c-4.943,0 -5,4.796 -5,5v3.11133c1.272,-1.301 3.042,-2.11133 5,-2.11133c3.859,0 7,3.14 7,7c0,3.86 -3.141,7 -7,7c-3.859,0 -7,-3.14 -7,-7v-8c0,-2.421 1.463,-7 7,-7zM24,24c-2.76142,0 -5,2.23858 -5,5c0,2.76142 2.23858,5 5,5c2.76142,0 5,-2.23858 5,-5c0,-2.76142 -2.23858,-5 -5,-5z"></path></g></g></svg>