<svg width="1064" height="860" viewBox="0 0 1064 860" fill="none" xmlns="http://www.w3.org/2000/svg">
<ellipse opacity="0.6" cx="834.5" cy="451" rx="186.5" ry="398" fill="url(#paint0_radial_2650_424)"/>
<g clip-path="url(#clip0_2650_424)">
<path fill-rule="evenodd" clip-rule="evenodd" d="M813.727 131.305C813.727 132.173 813.82 132.876 813.983 133.391C814.169 133.907 814.402 134.47 814.728 135.079C814.844 135.266 814.891 135.454 814.891 135.618C814.891 135.853 814.751 136.087 814.449 136.321L812.982 137.306C812.772 137.446 812.563 137.517 812.377 137.517C812.144 137.517 811.911 137.399 811.678 137.188C811.352 136.837 811.073 136.462 810.84 136.087C810.607 135.688 810.374 135.243 810.118 134.704C808.302 136.86 806.021 137.938 803.273 137.938C801.318 137.938 799.758 137.376 798.617 136.251C797.477 135.126 796.895 133.626 796.895 131.751C796.895 129.758 797.593 128.141 799.013 126.922C800.433 125.703 802.319 125.094 804.717 125.094C805.509 125.094 806.324 125.164 807.185 125.282C808.046 125.399 808.931 125.586 809.862 125.797V124.086C809.862 122.305 809.49 121.063 808.768 120.336C808.023 119.609 806.766 119.258 804.973 119.258C804.158 119.258 803.32 119.351 802.459 119.562C801.597 119.773 800.759 120.031 799.944 120.359C799.572 120.523 799.293 120.617 799.13 120.664C798.967 120.711 798.85 120.734 798.757 120.734C798.431 120.734 798.268 120.5 798.268 120.007V118.859C798.268 118.484 798.315 118.203 798.431 118.039C798.547 117.875 798.757 117.711 799.083 117.546C799.898 117.124 800.876 116.773 802.016 116.492C803.157 116.187 804.368 116.046 805.648 116.046C808.419 116.046 810.444 116.679 811.748 117.945C813.029 119.211 813.68 121.133 813.68 123.711V131.305H813.727L813.727 131.305ZM804.275 134.868C805.043 134.868 805.834 134.727 806.673 134.446C807.511 134.165 808.256 133.649 808.884 132.946C809.257 132.501 809.536 132.008 809.676 131.446C809.816 130.884 809.909 130.204 809.909 129.407V128.423C809.233 128.259 808.512 128.118 807.767 128.024C807.022 127.93 806.3 127.883 805.578 127.883C804.019 127.883 802.878 128.188 802.109 128.821C801.341 129.454 800.969 130.345 800.969 131.517C800.969 132.618 801.248 133.439 801.83 134.001C802.389 134.587 803.204 134.868 804.275 134.868L804.275 134.868ZM822.969 137.399C822.55 137.399 822.271 137.329 822.085 137.165C821.898 137.024 821.735 136.696 821.596 136.251L816.125 118.133C815.985 117.664 815.915 117.359 815.915 117.195C815.915 116.82 816.101 116.609 816.474 116.609H818.755C819.198 116.609 819.501 116.679 819.664 116.844C819.85 116.984 819.989 117.312 820.129 117.758L824.04 133.274L827.672 117.758C827.789 117.289 827.928 116.984 828.115 116.844C828.301 116.703 828.627 116.609 829.046 116.609H830.908C831.351 116.609 831.653 116.679 831.84 116.844C832.026 116.984 832.189 117.312 832.282 117.758L835.96 133.462L839.988 117.758C840.128 117.289 840.291 116.984 840.454 116.844C840.64 116.703 840.943 116.609 841.362 116.609H843.527C843.899 116.609 844.109 116.797 844.109 117.195C844.109 117.312 844.086 117.43 844.062 117.57C844.039 117.711 843.992 117.898 843.899 118.156L838.289 136.274C838.149 136.743 837.986 137.048 837.8 137.188C837.613 137.329 837.311 137.423 836.915 137.423H834.913C834.47 137.423 834.168 137.353 833.982 137.188C833.795 137.024 833.632 136.72 833.539 136.251L829.931 121.133L826.345 136.227C826.229 136.696 826.089 137.001 825.903 137.165C825.717 137.329 825.391 137.399 824.972 137.399H822.97H822.969ZM852.886 138.032C851.675 138.032 850.464 137.891 849.3 137.61C848.136 137.329 847.228 137.024 846.623 136.673C846.251 136.462 845.995 136.227 845.901 136.016C845.808 135.805 845.762 135.571 845.762 135.36V134.165C845.762 133.673 845.948 133.438 846.297 133.438C846.437 133.438 846.576 133.462 846.716 133.509C846.856 133.555 847.065 133.649 847.298 133.743C848.09 134.095 848.951 134.376 849.859 134.563C850.791 134.751 851.698 134.844 852.63 134.844C854.096 134.844 855.237 134.587 856.029 134.071C856.82 133.555 857.239 132.805 857.239 131.844C857.239 131.188 857.03 130.649 856.611 130.204C856.192 129.758 855.4 129.36 854.259 128.985L850.884 127.93C849.184 127.391 847.927 126.594 847.159 125.539C846.391 124.508 845.995 123.359 845.995 122.141C845.995 121.156 846.204 120.289 846.623 119.539C847.042 118.789 847.601 118.133 848.299 117.617C848.998 117.078 849.789 116.679 850.721 116.398C851.652 116.117 852.63 116 853.654 116C854.166 116 854.702 116.023 855.214 116.093C855.75 116.164 856.239 116.257 856.727 116.351C857.193 116.468 857.635 116.585 858.054 116.726C858.473 116.867 858.799 117.007 859.032 117.148C859.358 117.335 859.591 117.523 859.731 117.734C859.87 117.921 859.94 118.179 859.94 118.507V119.609C859.94 120.101 859.754 120.359 859.405 120.359C859.218 120.359 858.916 120.265 858.52 120.078C857.193 119.468 855.703 119.164 854.05 119.164C852.723 119.164 851.675 119.375 850.953 119.82C850.232 120.265 849.859 120.945 849.859 121.906C849.859 122.562 850.092 123.125 850.558 123.57C851.023 124.015 851.885 124.461 853.119 124.859L856.425 125.914C858.101 126.453 859.311 127.203 860.033 128.164C860.755 129.125 861.104 130.227 861.104 131.445C861.104 132.453 860.895 133.367 860.499 134.164C860.08 134.961 859.521 135.664 858.799 136.227C858.078 136.813 857.216 137.235 856.215 137.539C855.168 137.868 854.073 138.032 852.886 138.032L852.886 138.032Z" fill="#252F3E"/>
<path fill-rule="evenodd" clip-rule="evenodd" d="M857.286 149.424C849.626 155.119 838.498 158.143 828.929 158.143C815.519 158.143 803.436 153.15 794.31 144.853C793.588 144.197 794.24 143.306 795.102 143.822C804.973 149.588 817.149 153.08 829.744 153.08C838.242 153.08 847.578 151.299 856.168 147.642C857.449 147.056 858.543 148.486 857.286 149.424Z" fill="#FF9900"/>
<path fill-rule="evenodd" clip-rule="evenodd" d="M860.475 145.767C859.497 144.501 854.003 145.158 851.512 145.462C850.767 145.556 850.65 144.9 851.325 144.408C855.702 141.314 862.896 142.204 863.734 143.236C864.572 144.291 863.501 151.533 859.404 155.002C858.776 155.541 858.17 155.26 858.45 154.557C859.381 152.236 861.453 147.009 860.475 145.767H860.475Z" fill="#FF9900"/>
</g>
<g clip-path="url(#clip1_2650_424)">
<path d="M846.362 261.965C846.821 258.114 846.684 257.55 849.532 258.173L850.255 258.237C852.445 258.338 855.309 257.883 856.992 257.095C860.615 255.403 862.763 252.577 859.191 253.319C851.043 255.012 850.482 252.233 850.482 252.233C859.087 239.378 862.684 223.059 859.579 219.064C851.111 208.169 836.452 213.321 836.207 213.455L836.129 213.469C834.519 213.133 832.717 212.932 830.693 212.899C827.005 212.838 824.207 213.872 822.085 215.493C822.085 215.493 795.935 204.645 797.152 229.136C797.41 234.346 804.568 268.559 813.105 258.225C816.225 254.446 819.24 251.251 819.24 251.251C820.737 252.253 822.53 252.764 824.41 252.58L824.556 252.456C824.51 252.925 824.53 253.384 824.614 253.927C822.415 256.401 823.061 256.836 818.664 257.747C814.216 258.67 816.829 260.314 818.535 260.743C820.604 261.264 825.389 262.002 828.623 257.444L828.494 257.964C829.357 258.659 829.299 262.959 829.421 266.031C829.544 269.104 829.748 271.971 830.37 273.661C830.992 275.352 831.726 279.706 837.504 278.459C842.333 277.417 846.026 275.917 846.362 261.964" fill="black"/>
<path d="M846.362 261.965C846.821 258.114 846.684 257.55 849.532 258.173L850.255 258.237C852.445 258.338 855.309 257.883 856.992 257.095C860.615 255.403 862.763 252.577 859.191 253.319C851.043 255.012 850.482 252.233 850.482 252.233C859.087 239.378 862.684 223.059 859.579 219.064C851.111 208.169 836.452 213.321 836.207 213.455L836.129 213.469C834.519 213.133 832.717 212.932 830.693 212.899C827.005 212.838 824.207 213.872 822.085 215.493C822.085 215.493 795.935 204.645 797.152 229.136C797.41 234.346 804.568 268.559 813.105 258.225C816.225 254.446 819.24 251.251 819.24 251.251C820.737 252.253 822.53 252.764 824.41 252.58L824.556 252.456C824.51 252.925 824.53 253.384 824.614 253.927C822.415 256.401 823.061 256.836 818.664 257.747C814.216 258.67 816.829 260.314 818.535 260.743C820.604 261.264 825.389 262.002 828.623 257.444L828.494 257.964C829.357 258.659 829.299 262.959 829.421 266.031C829.544 269.104 829.748 271.971 830.37 273.661C830.992 275.352 831.726 279.706 837.504 278.459C842.333 277.417 846.026 275.917 846.362 261.964" stroke="black" stroke-width="7"/>
<path d="M859.192 253.319C851.042 255.012 850.482 252.233 850.482 252.233C859.087 239.377 862.684 223.057 859.579 219.063C851.111 208.168 836.452 213.321 836.208 213.455L836.129 213.469C834.519 213.132 832.717 212.932 830.692 212.898C827.004 212.838 824.207 213.872 822.085 215.493C822.085 215.493 795.934 204.645 797.151 229.136C797.409 234.346 804.567 268.559 813.104 258.225C816.224 254.446 819.239 251.251 819.239 251.251C820.736 252.253 822.529 252.764 824.408 252.58L824.554 252.456C824.509 252.925 824.53 253.384 824.613 253.927C822.414 256.401 823.06 256.836 818.663 257.747C814.215 258.67 816.828 260.314 818.534 260.743C820.603 261.264 825.389 262.002 828.622 257.444L828.493 257.964C829.355 258.659 829.96 262.485 829.859 265.953C829.757 269.421 829.69 271.802 830.368 273.661C831.047 275.521 831.724 279.706 837.504 278.459C842.333 277.417 844.836 274.716 845.184 270.211C845.431 267.009 845.99 267.482 846.025 264.619L846.474 263.263C846.991 258.922 846.556 257.522 849.531 258.173L850.254 258.237C852.444 258.337 855.31 257.882 856.992 257.095C860.615 255.402 862.763 252.576 859.191 253.319H859.192Z" fill="#336791"/>
<path d="M828.972 255.807C828.748 263.885 829.029 272.019 829.814 273.996C830.599 275.973 832.28 279.818 838.06 278.571C842.889 277.529 844.646 275.512 845.408 271.059C845.97 267.783 847.052 258.684 847.191 256.82" stroke="white" stroke-width="2" stroke-linecap="round" stroke-linejoin="round"/>
<path d="M822.044 215.312C822.044 215.312 795.876 204.543 797.093 229.034C797.352 234.244 804.51 268.458 813.047 258.123C816.166 254.344 818.988 251.38 818.988 251.38" stroke="white" stroke-width="2" stroke-linecap="round" stroke-linejoin="round"/>
<path d="M836.179 213.347C835.273 213.633 850.735 207.655 859.522 218.961C862.626 222.956 859.029 239.275 850.425 252.132" stroke="white" stroke-width="2" stroke-linecap="round" stroke-linejoin="round"/>
<path d="M850.425 252.132C850.425 252.132 850.986 254.911 859.135 253.217C862.706 252.474 860.557 255.301 856.936 256.994C853.963 258.383 847.3 258.739 847.191 256.82C846.911 251.868 850.698 253.373 850.425 252.132C850.178 251.014 848.484 249.917 847.364 247.182C846.386 244.795 833.95 226.489 850.813 229.208C851.43 229.079 846.415 213.057 830.634 212.796C814.856 212.536 815.374 232.334 815.374 232.334" stroke="white" stroke-width="2" stroke-linecap="round" stroke-linejoin="bevel"/>
<path d="M824.556 253.825C822.356 256.299 823.003 256.734 818.606 257.645C814.157 258.569 816.771 260.212 818.477 260.641C820.546 261.163 825.331 261.901 828.565 257.341C829.549 255.953 828.559 253.738 827.206 253.174C826.553 252.901 825.679 252.559 824.556 253.825V253.825Z" stroke="white" stroke-width="2" stroke-linecap="round" stroke-linejoin="round"/>
<path d="M824.412 253.782C824.19 252.327 824.886 250.596 825.633 248.571C826.754 245.533 829.342 242.493 827.272 232.855C825.729 225.672 815.381 231.36 815.374 232.334C815.368 233.307 815.842 237.27 815.202 241.885C814.365 247.907 819.007 253 824.352 252.479" stroke="white" stroke-width="2" stroke-linecap="round" stroke-linejoin="round"/>
<path d="M821.95 232.188C821.903 232.52 822.554 233.408 823.404 233.527C824.252 233.646 824.978 232.952 825.024 232.62C825.07 232.287 824.419 231.921 823.569 231.802C822.721 231.682 821.995 231.856 821.95 232.188H821.95Z" fill="white" stroke="white" stroke-width="2"/>
<path d="M847.778 231.51C847.824 231.842 847.173 232.73 846.323 232.849C845.475 232.968 844.749 232.274 844.702 231.942C844.658 231.609 845.308 231.243 846.157 231.124C847.006 231.004 847.731 231.178 847.778 231.51V231.51Z" fill="white" stroke="white" stroke-width="2"/>
<path d="M850.813 229.208C850.953 231.817 850.255 233.594 850.167 236.371C850.037 240.409 852.079 245.03 849.002 249.657" stroke="white" stroke-width="2" stroke-linecap="round" stroke-linejoin="round"/>
</g>
<path d="M828.998 689.436L841.894 649.769H816.121L828.998 689.436Z" fill="#E24329"/>
<path d="M798.058 649.77L794.131 661.821C793.775 662.915 794.159 664.123 795.097 664.805L828.998 689.436L798.058 649.77Z" fill="#FCA326"/>
<path d="M798.058 649.769H816.12L808.347 625.88C807.949 624.658 806.215 624.658 805.803 625.88L798.058 649.769Z" fill="#E24329"/>
<path d="M859.957 649.77L863.87 661.821C864.225 662.915 863.841 664.123 862.903 664.805L828.998 689.436L859.957 649.77Z" fill="#FCA326"/>
<path d="M859.956 649.769H841.894L849.653 625.88C850.051 624.658 851.785 624.658 852.197 625.88L859.956 649.769Z" fill="#E24329"/>
<path d="M828.998 689.436L841.894 649.77H859.957L828.998 689.436Z" fill="#FC6D26"/>
<path d="M828.997 689.436L798.058 649.77H816.12L828.997 689.436Z" fill="#FC6D26"/>
<path d="M710.002 369.486C704.652 369.491 699.397 370.904 694.765 373.581C690.133 376.258 686.286 380.106 683.61 384.74H689.69C692.361 381.189 695.909 378.395 699.987 376.631C698.544 379.181 697.434 381.907 696.685 384.74H702.043C704.054 378.488 707.136 374.575 710.002 374.575C712.868 374.575 715.94 378.488 717.957 384.74H723.314C722.566 381.907 721.458 379.182 720.017 376.631C724.096 378.395 727.646 381.189 730.318 384.74H736.393C733.717 380.107 729.87 376.26 725.238 373.583C720.606 370.905 715.352 369.493 710.002 369.486V369.486ZM683.61 415.269C686.283 419.905 690.129 423.754 694.762 426.431C699.395 429.108 704.651 430.517 710.002 430.517C715.352 430.517 720.609 429.108 725.242 426.431C729.874 423.754 733.721 419.905 736.393 415.269H730.318C727.645 418.818 724.095 421.611 720.017 423.374C721.458 420.824 722.566 418.101 723.314 415.269H717.957C715.949 421.52 712.881 425.434 710.002 425.434C707.123 425.434 704.054 421.516 702.051 415.265H696.685C697.434 418.096 698.544 420.82 699.987 423.369C695.909 421.607 692.361 418.814 689.69 415.265L683.61 415.269Z" fill="#3498DB"/>
<path d="M679.97 386.98H684.949V407.918H679.97V386.98Z" fill="#3498DB"/>
<path d="M703.504 407.918H698.772V406.157H698.71C698.264 406.854 697.643 407.424 696.91 407.81C696.177 408.196 695.356 408.385 694.528 408.358C689.756 408.358 687.735 404.281 687.735 399.993C687.735 396.031 689.844 392.281 694.145 392.281C694.982 392.246 695.815 392.418 696.571 392.781C697.326 393.145 697.981 393.688 698.477 394.363H698.538V386.98H703.513L703.504 407.918ZM692.701 400.148C692.701 402.23 693.493 404.55 695.747 404.55C698.177 404.55 698.701 402.234 698.701 400.297C698.701 398.096 697.913 396.075 695.747 396.075C693.489 396.071 692.701 398.211 692.701 400.148Z" fill="#3498DB"/>
<path d="M706.696 397.392C706.69 396.562 706.906 395.745 707.324 395.028C707.741 394.311 708.344 393.719 709.069 393.315C710.443 392.523 712.151 392.259 713.912 392.259C717.513 392.259 720.995 393.051 720.995 397.361V404.017C720.995 405.307 720.995 406.716 721.58 407.918H716.557C716.399 407.453 716.3 406.971 716.262 406.482C714.977 407.86 713.102 408.358 711.257 408.358C708.334 408.358 706.08 406.892 706.08 403.74C706.08 398.814 711.464 399.166 714.915 398.457C715.765 398.255 716.236 397.991 716.236 397.053C716.236 395.908 714.858 395.468 713.837 395.468C712.402 395.468 711.583 396.111 711.345 397.374L706.696 397.392ZM713.132 405.281C715.501 405.281 716.293 403.96 716.174 400.795C715.474 401.235 714.185 401.292 713.093 401.614C712.001 401.935 711.046 402.349 711.046 403.551C711.046 404.752 711.979 405.281 713.132 405.281Z" fill="#3498DB"/>
<path d="M724.252 392.699H728.993V394.46H729.055C729.502 393.762 730.122 393.193 730.855 392.807C731.588 392.421 732.409 392.232 733.237 392.259C738.009 392.259 740.03 396.335 740.03 400.623C740.03 404.585 737.921 408.336 733.62 408.336C732.783 408.37 731.95 408.198 731.194 407.835C730.439 407.472 729.784 406.929 729.288 406.254H729.231V412.998H724.252V392.699ZM729.055 400.148C729.055 402.815 729.812 404.55 732.066 404.55C734.32 404.55 735.055 402.234 735.055 400.148C735.055 398.211 734.32 396.071 732.097 396.071C730.78 396.071 729.055 396.982 729.055 400.148V400.148Z" fill="#3498DB"/>
<g clip-path="url(#clip2_2650_424)">
<path d="M916.285 395.812C916.148 395.812 916.114 395.744 916.183 395.642L916.898 394.721C916.966 394.619 917.137 394.551 917.273 394.551H929.441C929.577 394.551 929.611 394.653 929.543 394.756L928.964 395.642C928.895 395.744 928.725 395.846 928.623 395.846L916.285 395.812Z" fill="#00ACD7"/>
<path d="M911.136 398.948C911 398.948 910.966 398.879 911.034 398.777L911.75 397.857C911.818 397.755 911.988 397.687 912.125 397.687H927.667C927.803 397.687 927.871 397.789 927.837 397.891L927.564 398.709C927.53 398.845 927.394 398.914 927.258 398.914L911.136 398.948Z" fill="#00ACD7"/>
<path d="M919.384 402.083C919.248 402.083 919.214 401.981 919.282 401.879L919.759 401.027C919.827 400.925 919.964 400.822 920.1 400.822H926.917C927.053 400.822 927.121 400.925 927.121 401.061L927.053 401.879C927.053 402.015 926.917 402.117 926.814 402.117L919.384 402.083Z" fill="#00ACD7"/>
<path d="M954.762 395.198C952.615 395.744 951.149 396.153 949.036 396.698C948.525 396.834 948.491 396.868 948.048 396.357C947.537 395.778 947.162 395.403 946.446 395.062C944.299 394.005 942.22 394.312 940.277 395.573C937.959 397.073 936.766 399.288 936.801 402.049C936.835 404.776 938.709 407.025 941.402 407.4C943.719 407.707 945.662 406.889 947.196 405.15C947.503 404.776 947.775 404.367 948.116 403.889C946.889 403.889 945.355 403.889 941.538 403.889C940.822 403.889 940.652 403.446 940.891 402.867C941.334 401.81 942.152 400.038 942.629 399.152C942.731 398.947 942.97 398.607 943.481 398.607C945.219 398.607 951.627 398.607 955.887 398.607C955.819 399.527 955.819 400.447 955.683 401.367C955.308 403.821 954.387 406.071 952.888 408.048C950.434 411.285 947.23 413.296 943.174 413.842C939.834 414.285 936.732 413.637 934.006 411.592C931.484 409.684 930.052 407.161 929.677 404.026C929.234 400.311 930.325 396.971 932.574 394.039C934.994 390.87 938.198 388.859 942.118 388.143C945.321 387.564 948.389 387.939 951.149 389.813C952.956 391.006 954.251 392.642 955.103 394.619C955.308 394.926 955.171 395.096 954.762 395.198Z" fill="#00ACD7"/>
<path d="M966.044 414.046C962.942 413.978 960.113 413.092 957.728 411.047C955.717 409.309 954.456 407.093 954.047 404.469C953.433 400.618 954.49 397.209 956.807 394.176C959.295 390.904 962.295 389.2 966.351 388.484C969.827 387.871 973.099 388.211 976.064 390.222C978.757 392.063 980.427 394.551 980.87 397.823C981.449 402.424 980.12 406.173 976.95 409.377C974.701 411.66 971.94 413.092 968.77 413.739C967.85 413.91 966.93 413.944 966.044 414.046ZM974.156 400.277C974.121 399.834 974.121 399.493 974.053 399.152C973.44 395.778 970.338 393.869 967.1 394.619C963.931 395.335 961.886 397.346 961.136 400.549C960.522 403.208 961.818 405.9 964.272 406.991C966.146 407.809 968.021 407.707 969.827 406.787C972.52 405.389 973.985 403.208 974.156 400.277Z" fill="#00ACD7"/>
</g>
<g clip-path="url(#clip3_2650_424)">
<path d="M945.667 258.95V296.617L913.934 276.417L945.667 258.95Z" fill="#F08B1D"/>
<path d="M945.667 258.95L977.6 276.417V317.017L945.667 296.617V258.95Z" fill="#92C82D"/>
<path d="M913.934 276.417L977.6 317.017L945.667 334.15L913.934 317.017V276.417Z" fill="#33BFC1"/>
<path d="M979.067 273.817L947.133 256.35C946.267 255.883 945.267 255.883 944.4 256.35L912.467 273.817C911.6 274.417 911 275.283 911 276.417V317.017C911 318.017 911.6 319.017 912.6 319.617L944.4 336.817C945.267 337.283 946.267 337.283 947.133 336.817L979.067 319.617C979.933 319.15 980.667 318.15 980.667 317.017V276.417C980.467 275.217 979.933 274.35 979.067 273.817V273.817ZM974.733 311.617L948.6 295.017V294.883V263.817L974.6 278.15L974.733 311.617V311.617ZM942.8 291.417L919.533 276.55L942.8 263.817V291.417V291.417ZM945.667 330.883L916.8 315.283V281.617L971.867 316.75L945.667 330.883Z" fill="white"/>
</g>
<path d="M973.9 600.436C973.9 618.611 959.175 633.336 941 633.336C922.825 633.336 908.1 618.611 908.1 600.436C908.1 582.261 922.825 567.536 941 567.536C959.175 567.536 973.9 582.261 973.9 600.436Z" fill="black"/>
<path d="M941.576 587.795L950.179 608.515L937.181 598.519L941.576 587.795ZM956.881 613.285L943.633 582.205C943.322 581.354 942.48 580.807 941.576 580.837C940.641 580.807 939.799 581.354 939.456 582.205L924.899 616.292H929.887L935.654 602.226L952.829 615.746C953.515 616.292 954.013 616.536 954.668 616.536C955.977 616.566 957.068 615.563 957.099 614.287C957.099 614.257 957.099 614.257 957.099 614.227C957.099 613.923 957.006 613.589 956.881 613.285Z" fill="white"/>
<g clip-path="url(#clip4_2650_424)">
<path d="M857.728 725.037C856.755 727.371 855.496 729.574 853.979 731.597C850.732 728.238 846.844 725.564 842.546 723.734C838.247 721.904 833.625 720.955 828.953 720.943C824.281 720.93 819.654 721.855 815.346 723.662C811.038 725.47 807.136 728.123 803.871 731.465C800.606 734.807 798.045 738.77 796.339 743.119C794.633 747.468 793.816 752.115 793.938 756.786C794.059 761.456 795.116 766.055 797.046 770.309C798.976 774.564 801.74 778.388 805.174 781.556L806.472 782.71C811.396 786.863 817.374 789.572 823.743 790.537C830.112 791.502 836.624 790.685 842.557 788.177C848.491 785.67 853.615 781.569 857.361 776.328C861.107 771.088 863.33 764.913 863.784 758.487C864.793 749.692 862.126 738.446 857.728 725.037ZM810.22 781.845C809.85 782.3 809.352 782.635 808.791 782.808C808.23 782.981 807.63 782.984 807.067 782.816C806.505 782.648 806.004 782.317 805.63 781.865C805.255 781.413 805.023 780.86 804.962 780.275C804.902 779.691 805.016 779.102 805.29 778.583C805.564 778.064 805.986 777.637 806.503 777.358C807.019 777.078 807.607 776.958 808.192 777.012C808.776 777.067 809.332 777.293 809.788 777.663C810.386 778.17 810.764 778.888 810.845 779.667C810.926 780.446 810.702 781.226 810.22 781.845V781.845ZM857.512 771.391C848.933 782.854 830.478 778.961 818.727 779.538C818.727 779.538 816.636 779.682 814.546 779.97C814.546 779.97 815.339 779.61 816.348 779.249C824.638 776.366 828.531 775.789 833.578 773.194C843.022 768.364 852.465 757.766 854.34 746.808C850.735 757.334 839.777 766.417 829.829 770.094C822.98 772.617 810.653 775.068 810.653 775.068L810.148 774.78C801.786 770.67 801.497 752.504 816.781 746.664C823.485 744.069 829.829 745.511 837.11 743.781C844.824 741.978 853.763 736.211 857.368 728.642C861.405 740.825 866.307 759.713 857.512 771.391Z" fill="#6DB33F"/>
</g>
<g clip-path="url(#clip5_2650_424)">
<path d="M946 736.964C965.33 736.964 981 721.294 981 701.964C981 682.634 965.33 666.964 946 666.964C926.67 666.964 911 682.634 911 701.964C911 721.294 926.67 736.964 946 736.964Z" fill="#5C2D91"/>
<path opacity="0.1" d="M921.74 676.808C918.182 679.978 915.309 683.842 913.297 688.162C911.285 692.482 910.177 697.168 910.04 701.932C909.903 706.695 910.74 711.437 912.5 715.866C914.261 720.294 916.907 724.317 920.277 727.687C923.647 731.057 927.669 733.703 932.098 735.463C936.527 737.223 941.268 738.061 946.032 737.924C950.796 737.787 955.481 736.678 959.801 734.666C964.121 732.654 967.985 729.781 971.156 726.223L921.74 676.808Z" fill="white"/>
<path d="M919.094 707.706C918.89 707.709 918.687 707.67 918.499 707.591C918.311 707.512 918.141 707.395 918 707.247C917.856 707.104 917.742 706.934 917.665 706.746C917.588 706.558 917.549 706.356 917.552 706.153C917.55 705.95 917.589 705.749 917.666 705.561C917.743 705.373 917.857 705.203 918 705.059C918.14 704.909 918.309 704.789 918.497 704.708C918.686 704.627 918.889 704.586 919.094 704.589C919.299 704.588 919.502 704.63 919.69 704.711C919.878 704.792 920.047 704.91 920.188 705.059C920.334 705.202 920.45 705.372 920.529 705.56C920.608 705.747 920.648 705.949 920.647 706.153C920.649 706.357 920.609 706.559 920.53 706.747C920.451 706.935 920.335 707.105 920.188 707.247C920.046 707.393 919.876 707.509 919.688 707.588C919.5 707.667 919.298 707.707 919.094 707.706Z" fill="white"/>
<path d="M940.827 707.433H937.961L927.713 691.53C927.457 691.138 927.245 690.72 927.078 690.283H926.991C927.088 691.191 927.125 692.104 927.1 693.017V707.433H924.771V687.494H927.8L937.775 703.112C938.191 703.761 938.461 704.206 938.585 704.447H938.639C938.524 703.474 938.476 702.495 938.497 701.516V687.494H940.827V707.433Z" fill="white"/>
<path d="M956.598 707.433H946V687.494H956.106V689.605H948.384V696.233H955.581V698.333H948.384V705.245H956.609L956.598 707.433Z" fill="white"/>
<path d="M972.25 689.605H966.454V707.433H964.124V689.605H958.393V687.494H972.25V689.605Z" fill="white"/>
<path d="M939.569 720.995C938.779 721.377 937.908 721.561 937.031 721.531C936.449 721.557 935.867 721.459 935.326 721.242C934.784 721.025 934.296 720.694 933.892 720.273C933.089 719.374 932.665 718.197 932.711 716.992C932.682 716.339 932.784 715.687 933.011 715.075C933.238 714.462 933.586 713.902 934.034 713.426C934.471 712.979 934.996 712.627 935.576 712.394C936.156 712.16 936.778 712.05 937.403 712.07C938.151 712.044 938.896 712.175 939.591 712.453V713.547C938.922 713.176 938.168 712.988 937.403 713C936.921 712.986 936.442 713.077 935.998 713.266C935.555 713.454 935.157 713.737 934.833 714.093C934.151 714.871 933.798 715.883 933.849 716.915C933.797 717.894 934.127 718.854 934.767 719.595C935.075 719.925 935.45 720.185 935.867 720.357C936.284 720.529 936.734 720.609 937.184 720.59C938.024 720.612 938.854 720.4 939.58 719.978L939.569 720.995Z" fill="#F2F2F2"/>
<path d="M944.043 721.531C943.607 721.545 943.174 721.466 942.772 721.298C942.37 721.13 942.009 720.877 941.713 720.558C941.115 719.89 940.804 719.014 940.849 718.119C940.821 717.65 940.888 717.18 941.043 716.737C941.199 716.294 941.442 715.886 941.757 715.537C942.078 715.224 942.46 714.979 942.88 714.82C943.299 714.66 943.747 714.588 944.196 714.608C944.62 714.585 945.043 714.655 945.438 714.811C945.833 714.968 946.189 715.208 946.482 715.515C947.063 716.216 947.356 717.111 947.302 718.02C947.348 718.942 947.03 719.846 946.416 720.536C946.114 720.862 945.747 721.119 945.337 721.291C944.928 721.463 944.486 721.544 944.043 721.531V721.531ZM944.119 715.548C943.818 715.536 943.518 715.591 943.242 715.71C942.965 715.83 942.719 716.01 942.522 716.237C942.101 716.779 941.891 717.456 941.932 718.14C941.893 718.805 942.104 719.46 942.522 719.978C942.721 720.202 942.968 720.38 943.244 720.497C943.52 720.614 943.819 720.669 944.119 720.656C944.413 720.673 944.706 720.623 944.977 720.51C945.248 720.396 945.49 720.221 945.683 720C946.081 719.457 946.274 718.79 946.23 718.119C946.273 717.443 946.08 716.774 945.683 716.226C945.493 716 945.252 715.821 944.981 715.704C944.709 715.586 944.414 715.533 944.119 715.548V715.548Z" fill="#F2F2F2"/>
<path d="M952.409 715.876C952.173 715.722 951.892 715.649 951.611 715.669C951.39 715.677 951.175 715.739 950.984 715.849C950.794 715.96 950.633 716.116 950.517 716.303C950.191 716.818 950.035 717.422 950.068 718.031V721.378H948.975V714.815H950.068V716.183C950.189 715.76 950.428 715.38 950.757 715.089C951.043 714.841 951.408 714.705 951.786 714.706C951.997 714.697 952.208 714.726 952.409 714.794V715.876Z" fill="#F2F2F2"/>
<path d="M958.819 718.37H954.192C954.161 718.982 954.36 719.582 954.75 720.054C954.953 720.257 955.196 720.414 955.463 720.516C955.731 720.617 956.017 720.661 956.303 720.645C957.044 720.638 957.761 720.379 958.337 719.912V720.897C957.661 721.342 956.86 721.561 956.051 721.52C955.643 721.541 955.236 721.471 954.857 721.316C954.479 721.161 954.14 720.924 953.864 720.623C953.294 719.913 953.01 719.016 953.065 718.108C953.026 717.197 953.335 716.305 953.929 715.614C954.2 715.301 954.537 715.053 954.915 714.886C955.293 714.72 955.704 714.64 956.117 714.651C956.49 714.63 956.863 714.694 957.208 714.838C957.553 714.982 957.86 715.203 958.108 715.483C958.611 716.147 958.86 716.97 958.808 717.801L958.819 718.37ZM957.725 717.484C957.747 716.977 957.592 716.479 957.287 716.073C957.138 715.904 956.952 715.771 956.743 715.684C956.535 715.597 956.31 715.558 956.084 715.57C955.849 715.567 955.615 715.613 955.399 715.706C955.182 715.798 954.987 715.934 954.826 716.106C954.466 716.487 954.24 716.974 954.181 717.495L957.725 717.484Z" fill="#F2F2F2"/>
</g>
<path d="M911 172.611H924.628V174.53H911V172.611ZM941.226 172.611H926.58V174.53H946.104L945.798 174.235L945.404 173.951L944.994 173.666L944.545 173.431L944.102 173.218L943.654 173.037L943.173 172.879L942.686 172.775L942.21 172.687L941.734 172.611H941.226ZM949.943 172.611V174.53H961.701L961.023 172.611H949.943ZM970.024 172.611L969.346 174.53H981V172.611H970.024ZM911 176.346V178.233H924.628V176.346H911ZM914.894 180.043V181.973H920.718V180.043H914.894ZM914.894 183.756V185.692H920.718V183.756H914.894ZM947.482 176.346H926.58V178.233H948.209L947.98 177.473L947.799 176.975L947.586 176.526L947.482 176.346ZM930.474 180.043V181.973H936.293V180.043H930.474ZM948.39 180.043H942.155V181.973H948.073L948.127 181.809L948.242 181.333L948.319 180.847L948.373 180.349L948.39 180.043ZM947.247 183.756H930.474V185.692H945.404L945.732 185.473L946.104 185.151L946.443 184.795L946.76 184.423L947.066 184.03L947.247 183.756ZM949.943 176.346V178.233H963.002L962.324 176.346H949.943ZM981 176.346H968.717L968.061 178.233H981V176.346ZM953.842 180.043V181.973H964.287L963.609 180.043H953.842ZM977.205 180.043H967.416L966.748 181.973H977.205V180.043ZM960.295 185.687H970.773L971.364 183.969V185.687H977.205V183.756H966.13L965.523 185.473L964.916 183.756H953.842V185.687H959.683V183.958L960.295 185.687ZM911 198.642V200.589H924.628V198.642H911ZM911 194.901V196.848H924.628V194.901H911ZM914.894 187.491V189.405H920.718V187.491H914.894ZM914.894 191.205V193.135H920.718V191.205H914.894ZM945.404 187.491H930.474V189.405H947.247L947.066 189.176L946.76 188.782L946.443 188.405L946.104 188.044L945.727 187.726L945.404 187.491ZM930.474 191.205V193.135H936.293V191.205H930.474ZM948.073 191.205H942.155V193.135H948.39L948.379 192.845L948.319 192.348L948.248 191.872L948.127 191.391L948.073 191.205ZM948.209 194.901H926.58V196.848H947.482L947.586 196.679L947.799 196.225L947.98 195.76L948.127 195.295L948.209 194.901ZM946.104 198.642H926.58V200.589H941.155L941.658 200.567L942.155 200.512L942.62 200.425L943.102 200.321L943.588 200.151L944.031 199.982L944.48 199.763L944.928 199.528L945.333 199.26L945.732 198.954L946.104 198.642ZM953.842 187.491V189.405H959.683V187.491H953.842ZM969.472 189.405L970.145 187.491H960.897L961.553 189.405H969.472ZM971.364 187.491V189.405H977.205V187.491H971.364ZM953.842 191.205V193.135H959.683V191.205H953.842ZM968.881 191.205H962.166L962.827 193.135H968.22L968.881 191.205ZM971.364 191.205V193.135H977.205V191.205H971.364ZM949.943 194.901V196.848H959.683V194.901H949.943ZM967.607 194.901H963.429L964.096 196.848H966.951L967.607 194.901ZM971.364 194.901V196.848H981V194.901H971.364ZM949.943 198.642V200.589H959.683V198.642H949.943ZM971.364 198.642V200.589H981V198.642H971.364ZM965.66 200.589L966.327 198.648H964.72L965.376 200.589H965.66Z" fill="black"/>
<g clip-path="url(#clip6_2650_424)">
<path fill-rule="evenodd" clip-rule="evenodd" d="M710 565.436C690.662 565.436 675 581.099 675 600.436C675 615.924 685.019 629.005 698.931 633.642C700.681 633.949 701.337 632.899 701.337 631.98C701.337 631.149 701.294 628.392 701.294 625.461C692.5 627.08 690.225 623.317 689.525 621.349C689.131 620.342 687.425 617.236 685.938 616.405C684.712 615.749 682.962 614.13 685.894 614.086C688.65 614.042 690.619 616.624 691.275 617.674C694.425 622.967 699.456 621.48 701.469 620.561C701.775 618.286 702.694 616.755 703.7 615.88C695.912 615.005 687.775 611.986 687.775 598.599C687.775 594.792 689.131 591.642 691.363 589.192C691.013 588.317 689.787 584.73 691.712 579.917C691.712 579.917 694.644 578.999 701.337 583.505C704.137 582.717 707.113 582.324 710.088 582.324C713.063 582.324 716.038 582.717 718.838 583.505C725.531 578.955 728.463 579.917 728.463 579.917C730.388 584.73 729.163 588.317 728.813 589.192C731.044 591.642 732.4 594.749 732.4 598.599C732.4 612.03 724.219 615.005 716.431 615.88C717.7 616.974 718.794 619.074 718.794 622.355C718.794 627.036 718.75 630.799 718.75 631.98C718.75 632.899 719.406 633.992 721.156 633.642C734.981 629.005 745 615.88 745 600.436C745 581.099 729.338 565.436 710 565.436Z" fill="#1B1F23"/>
</g>
<path d="M812.984 573.049C812.984 573.049 809.923 574.894 815.112 575.422C821.334 576.212 824.686 576.081 831.6 574.764C832.99 575.607 834.459 576.314 835.988 576.873C820.433 583.467 800.746 576.479 812.981 573.049H812.984ZM810.993 564.478C810.993 564.478 807.668 566.983 812.854 567.513C819.637 568.172 824.955 568.303 834.134 566.46C835.026 567.358 836.119 568.034 837.324 568.436C818.574 573.974 797.563 568.964 810.993 564.481V564.478ZM847.695 579.531C847.695 579.531 849.955 581.377 845.169 582.828C836.259 585.468 807.802 586.283 799.823 582.828C797.031 581.644 802.349 579.928 804.054 579.664C805.784 579.27 806.717 579.27 806.717 579.27C803.656 577.16 786.371 583.62 797.942 585.439C829.724 590.582 855.921 583.198 847.675 579.507L847.695 579.531ZM814.423 555.511C814.423 555.511 799.928 558.965 809.236 560.125C813.225 560.653 821.07 560.52 828.385 559.994C834.368 559.466 840.331 558.415 840.331 558.415C840.331 558.415 838.203 559.338 836.74 560.261C821.981 564.086 793.653 562.371 801.767 558.415C808.681 555.118 814.4 555.515 814.4 555.515L814.423 555.511ZM840.356 569.882C855.249 562.233 848.335 554.829 843.546 555.775C842.352 556.039 841.817 556.303 841.817 556.303C841.817 556.303 842.215 555.513 843.146 555.249C852.588 551.952 860.035 565.137 840.085 570.302C840.085 570.302 840.216 570.171 840.351 569.907L840.356 569.882ZM815.916 590.717C830.276 591.64 852.22 590.189 852.75 583.462C852.75 583.462 851.687 586.103 840.916 588.077C828.681 590.318 813.521 590.051 804.612 588.605C804.612 588.605 806.473 590.184 815.916 590.715V590.717Z" fill="#4E7896"/>
<path d="M831.337 512C831.337 512 839.582 520.306 823.492 532.832C810.593 542.985 820.568 548.786 823.492 555.38C815.911 548.655 810.461 542.72 814.184 537.185C819.634 529.007 834.662 525.076 831.337 512ZM827.106 549.842C830.963 554.193 826.043 558.149 826.043 558.149C826.043 558.149 835.884 553.139 831.362 546.94C827.24 541.008 824.044 538.106 841.334 528.218C841.334 528.218 814.074 534.942 827.106 549.842V549.842Z" fill="#F58219"/>
<g clip-path="url(#clip7_2650_424)">
<path d="M861.812 338.134V360.009H857.438L853.062 346.884V360.009H848.688V338.134H853.062L857.438 351.259V338.134H861.812Z" fill="black"/>
<path d="M840.667 360.009H834.833C833.866 360.008 832.94 359.623 832.256 358.94C831.573 358.256 831.189 357.33 831.188 356.363V341.779C831.189 340.813 831.573 339.886 832.256 339.203C832.94 338.519 833.866 338.135 834.833 338.134H840.667C841.634 338.135 842.56 338.519 843.244 339.203C843.927 339.886 844.311 340.813 844.312 341.779V356.363C844.311 357.33 843.927 358.256 843.244 358.94C842.56 359.623 841.634 360.008 840.667 360.009ZM835.562 355.634H839.938V342.509H835.562V355.634Z" fill="black"/>
<path d="M823.167 360.009H813.688V355.634H822.438V351.259H818.062C816.903 351.258 815.79 350.796 814.97 349.976C814.15 349.156 813.689 348.044 813.688 346.884V341.779C813.689 340.813 814.073 339.886 814.756 339.203C815.44 338.519 816.366 338.135 817.333 338.134H826.812V342.509H818.062V346.884H822.438C823.597 346.885 824.71 347.346 825.53 348.166C826.35 348.987 826.811 350.099 826.812 351.259V356.363C826.811 357.33 826.427 358.256 825.744 358.94C825.06 359.623 824.134 360.008 823.167 360.009Z" fill="black"/>
<path d="M805.667 360.009H799.833C798.866 360.008 797.94 359.623 797.256 358.94C796.573 358.256 796.189 357.33 796.188 356.363V351.259H800.562V355.634H804.938V338.134H809.312V356.363C809.311 357.33 808.927 358.256 808.244 358.94C807.56 359.623 806.634 360.008 805.667 360.009V360.009Z" fill="black"/>
</g>
<path d="M684.906 725.698V678.23H700.667L705.261 682.823H736.969V725.698H684.906Z" fill="#B6DCFE"/>
<path d="M700.35 678.995L704.496 683.14L704.944 683.589H705.578H736.203V724.933H685.672V678.995H700.35ZM700.984 677.464H684.141V726.464H737.734V682.058H705.578L700.984 677.464Z" fill="#4788C7"/>
<path d="M689.5 682.823H736.969V710.386H689.5V682.823Z" fill="white"/>
<path d="M736.203 683.589V709.62H690.266V683.589H736.203ZM737.734 682.058H688.734V711.152H737.734V682.058Z" fill="#4788C7"/>
<path d="M685.058 725.698L690.904 693.542H707.34L711.934 690.48H742.956L737.086 725.698H685.058Z" fill="#DFF0FE"/>
<path d="M742.052 691.245L736.437 724.933H685.975L691.543 694.308H707.109H707.573L707.959 694.051L712.167 691.245H742.052ZM743.859 689.714H711.703L707.109 692.777H690.266L684.141 726.464H737.734L743.859 689.714Z" fill="#4788C7"/>
<path d="M727.045 281.9C728.345 283 729.445 284.2 730.445 285.5C732.545 288.2 734.045 291.1 734.945 294.4C735.045 294.6 735.145 294.8 735.345 294.9C739.545 298 742.145 302.1 743.045 307.2C743.945 312.9 742.545 318.1 738.845 322.5C735.945 325.9 732.245 328 727.845 328.9C726.845 329.1 725.845 329.2 724.845 329.2C719.945 329.2 714.945 329.2 710.045 329.2C709.945 329.2 709.945 329.2 709.845 329.2C709.745 329.1 709.745 328.9 709.745 328.7C709.745 325.1 709.745 321.6 709.745 318C709.745 317.9 709.745 317.7 709.745 317.6C709.845 317.5 709.945 317.4 710.045 317.4C710.145 317.4 710.345 317.4 710.445 317.4C715.045 317.4 719.645 317.4 724.245 317.4C727.645 317.4 730.145 315.3 731.045 312.7C731.945 310.1 731.545 307.7 729.845 305.6C728.545 304 726.745 303.2 724.745 303C724.345 303 724.245 302.9 724.245 302.5C724.245 301.1 724.145 299.8 723.845 298.4C723.345 296 722.245 293.9 720.645 292C720.045 291.3 719.445 290.8 718.745 290.2C718.645 290 718.845 289.9 719.045 289.8C721.345 287.5 723.645 285.2 726.045 282.8C726.245 282.6 726.545 282.3 726.745 282.1C726.745 282 726.845 281.9 727.045 281.9Z" fill="#4284F3"/>
<path d="M683.545 325.4C682.045 324.3 680.745 323 679.645 321.5C676.945 317.9 675.745 313.8 676.045 309.3C676.445 303.3 679.045 298.6 683.845 295C683.945 294.9 684.045 294.8 684.245 294.7C684.345 294.6 684.445 294.4 684.645 294.4C687.045 292.8 689.745 291.9 692.645 291.5C693.845 291.3 695.045 291.3 696.245 291.4C697.145 291.4 698.045 291.6 698.845 291.8C701.845 292.5 704.645 293.7 707.045 295.7C708.145 296.6 709.145 297.6 709.945 298.7C710.245 299 710.245 299.1 709.945 299.4C707.345 302 704.645 304.7 702.045 307.3C701.745 307.6 701.645 307.6 701.445 307.2C700.245 305 698.345 303.7 695.845 303.4C693.745 303.2 691.945 303.7 690.445 305.1C688.945 306.3 688.145 307.9 687.945 309.8C687.645 313 689.045 315.3 691.745 316.9C691.845 317 691.945 317 692.045 317.1C692.145 317.3 691.945 317.4 691.845 317.5C689.245 320.1 686.545 322.8 683.945 325.4C683.845 325.3 683.745 325.4 683.545 325.4Z" fill="#FABB05"/>
<path d="M698.845 291.7C698.145 291.6 697.345 291.5 696.645 291.4C695.645 291.3 694.645 291.3 693.645 291.4C692.145 291.5 690.745 291.8 689.345 292.2C687.645 292.7 686.145 293.5 684.645 294.4C684.545 294.5 684.345 294.6 684.245 294.6C684.645 293.1 685.145 291.7 685.845 290.3C689.645 282.6 695.745 277.6 704.245 275.8C712.745 274 720.345 276.2 726.945 281.8C726.945 281.8 726.945 281.9 727.045 281.9C724.245 284.7 721.545 287.4 718.745 290.2C718.545 290.3 718.445 290.1 718.345 290C716.245 288.4 713.945 287.5 711.345 287.1C709.045 286.8 706.845 287.1 704.645 287.9C702.545 288.7 700.745 289.8 699.245 291.4C699.145 291.5 699.045 291.6 698.845 291.7Z" fill="#E94335"/>
<path d="M683.545 325.4C686.245 322.7 688.945 320 691.745 317.2C691.845 317.1 691.945 317 692.045 316.9C692.245 316.8 692.345 316.9 692.445 316.9C693.345 317.3 694.345 317.4 695.345 317.4C699.845 317.4 704.445 317.4 708.945 317.4C709.145 317.4 709.445 317.3 709.645 317.5C709.645 321.4 709.645 325.3 709.645 329.2C709.045 329.2 708.345 329.2 707.745 329.2C703.445 329.2 699.045 329.2 694.745 329.2C690.645 329.2 687.045 327.9 683.745 325.5C683.645 325.4 683.645 325.4 683.545 325.4Z" fill="#34A753"/>
<path d="M829.183 480C825.13 480 820.97 479.893 816.917 480C815.104 480 813.717 479.467 812.544 477.973C807.424 471.574 802.305 465.281 797.185 458.881C796.118 457.495 795.798 456.002 796.118 454.402C797.825 446.829 799.638 439.256 801.345 431.576C801.878 429.123 803.158 427.523 805.504 426.457C812.331 423.364 819.05 420.164 825.663 416.857C828.01 415.684 830.143 415.577 832.489 416.857C839.529 420.271 846.568 423.684 853.608 426.99C855.315 427.737 856.274 428.91 856.594 430.723C858.408 438.616 860.221 446.402 862.034 454.295C862.461 456.108 862.034 457.708 860.861 459.201C855.848 465.281 850.942 471.467 846.035 477.653C844.755 479.253 843.262 480 841.235 479.893C837.182 480 833.236 480 829.183 480ZM828.116 428.59C828.223 430.403 827.796 431.363 825.77 431.576C822.89 432.003 820.01 433.176 817.984 435.203C816.17 437.016 814.89 436.589 813.397 434.99C812.544 434.136 811.904 432.856 810.411 433.283C809.984 433.39 809.664 433.816 809.664 434.243C809.664 435.843 811.051 436.163 812.011 436.803C814.037 437.869 814.464 439.256 813.184 441.283C812.117 442.989 811.371 445.016 811.477 447.042C811.584 450.775 810.944 453.335 806.358 452.908C805.611 452.802 804.864 453.548 804.971 454.508C805.184 455.468 806.038 455.682 806.891 455.468C807.638 455.362 808.491 455.148 809.131 454.828C810.944 454.082 812.011 454.188 812.864 456.322C814.037 459.201 815.85 461.655 818.41 463.254C820.437 464.534 820.117 465.708 819.157 467.414C818.517 468.587 816.277 470.187 818.624 471.254C820.65 472.214 820.757 469.654 821.183 468.374C821.93 466.348 822.89 465.601 825.13 466.348C827.903 467.201 830.783 467.201 833.556 466.348C835.902 465.601 836.756 466.561 837.396 468.481C837.716 469.547 837.822 471.041 839.422 471.361C839.956 471.467 840.489 471.147 840.702 470.614C841.235 469.227 840.169 468.481 839.529 467.521C838.249 465.601 838.249 464.321 840.382 462.934C842.729 461.335 844.435 459.201 845.502 456.535C846.355 454.402 847.528 453.548 849.768 454.722C850.835 455.255 852.115 455.788 853.288 454.935C853.608 454.722 853.821 454.295 853.608 453.762C852.968 452.268 851.581 452.588 850.408 452.482C848.488 452.375 847.315 451.842 847.422 449.389C847.635 446.295 846.888 443.309 845.289 440.749C844.115 438.723 844.862 437.763 846.462 436.696C847.635 435.949 850.195 435.416 848.702 433.39C847.315 431.683 846.142 434.03 845.182 434.883C843.795 436.163 842.515 436.696 840.915 435.096C839.422 433.71 837.609 432.536 835.689 432.11C832.169 431.363 829.29 430.403 830.889 425.817C830.889 425.71 830.889 425.604 830.889 425.604C830.783 424.75 830.356 424.11 829.29 424.217C828.436 424.324 828.116 424.964 828.116 425.71C827.796 426.777 828.01 427.737 828.116 428.59Z" fill="#346DE4"/>
<path d="M828.116 428.59C828.009 427.737 827.796 426.883 827.796 425.924C827.796 425.177 828.116 424.537 828.969 424.43C829.929 424.324 830.356 424.964 830.569 425.817C830.569 425.924 830.569 426.03 830.569 426.03C828.863 430.617 831.742 431.577 835.369 432.323C837.395 432.75 839.209 433.923 840.595 435.31C842.302 436.91 843.475 436.376 844.862 435.096C845.822 434.243 846.995 431.79 848.381 433.603C849.981 435.523 847.315 436.056 846.141 436.91C844.542 437.976 843.795 439.043 844.968 440.963C846.568 443.629 847.208 446.616 847.101 449.602C846.995 451.949 848.168 452.482 850.088 452.695C851.261 452.802 852.648 452.482 853.288 453.975C853.501 454.508 853.394 454.935 852.968 455.148C851.794 456.002 850.515 455.468 849.448 454.935C847.208 453.868 846.035 454.615 845.182 456.748C844.115 459.415 842.408 461.548 840.062 463.148C837.929 464.534 837.929 465.921 839.209 467.734C839.849 468.587 840.915 469.441 840.382 470.827C840.169 471.361 839.635 471.681 839.102 471.574C837.502 471.254 837.502 469.867 837.075 468.694C836.435 466.668 835.582 465.708 833.236 466.561C830.463 467.521 827.583 467.521 824.81 466.561C822.57 465.814 821.61 466.454 820.863 468.587C820.436 469.761 820.436 472.427 818.303 471.467C815.957 470.401 818.197 468.801 818.837 467.628C819.903 465.921 820.117 464.748 818.09 463.468C815.53 461.761 813.61 459.308 812.544 456.535C811.69 454.508 810.624 454.295 808.811 455.042C808.064 455.362 807.317 455.575 806.571 455.682C805.717 455.788 804.864 455.682 804.651 454.722C804.544 453.762 805.291 453.015 806.037 453.122C810.624 453.655 811.264 450.989 811.157 447.256C811.05 445.229 811.797 443.202 812.864 441.496C814.144 439.469 813.717 438.083 811.69 437.016C810.624 436.483 809.237 436.056 809.344 434.456C809.344 433.923 809.664 433.603 810.09 433.496C811.69 433.07 812.33 434.35 813.077 435.203C814.57 436.803 815.85 437.23 817.663 435.416C819.797 433.283 822.57 432.11 825.45 431.79C827.689 431.257 828.223 430.297 828.116 428.59ZM814.784 448.962C814.57 450.029 815.103 450.669 816.81 450.135C818.197 449.709 819.69 449.389 821.076 448.855C822.996 448.215 823.21 447.256 821.61 445.869C820.436 444.909 819.37 443.842 818.303 442.882C817.343 441.923 816.703 441.709 816.063 443.309C815.423 444.909 815.104 446.616 814.784 448.962ZM824.703 462.615C826.729 463.361 828.436 463.468 830.249 463.361C833.876 463.148 833.982 462.935 832.276 459.841C831.742 458.881 831.209 457.815 830.676 456.855C829.823 455.362 828.863 455.148 828.009 456.855C826.836 458.668 825.769 460.481 824.703 462.615ZM843.582 448.642C843.475 448.002 843.368 447.256 843.155 446.616C841.982 441.283 841.768 441.176 837.822 444.802C837.395 445.229 836.862 445.656 836.435 445.976C834.942 447.362 835.476 448.215 837.182 448.749C838.675 449.175 840.275 449.602 841.768 450.029C843.155 450.562 843.795 450.242 843.582 448.642ZM832.596 435.31C831.102 434.99 830.782 435.416 830.782 436.376C830.889 438.189 830.996 440.109 831.209 441.923C831.316 443.202 832.169 443.629 833.236 442.989C834.836 441.923 836.435 440.749 838.035 439.683C838.675 439.256 838.675 438.723 838.142 438.189C836.435 436.696 834.302 435.736 832.596 435.31ZM842.302 453.975C840.275 453.548 838.249 453.122 836.115 452.802C834.942 452.589 833.662 452.802 834.196 454.402C834.942 456.535 835.262 459.948 837.182 460.375C839.102 460.801 840.595 457.708 841.768 455.788C842.088 455.362 842.408 454.828 842.302 453.975ZM827.049 438.936C827.369 434.563 827.263 434.563 823.316 436.163C822.996 436.27 822.676 436.376 822.356 436.59C818.837 438.403 818.837 438.829 822.143 441.069C823.423 441.923 824.596 443.842 826.196 443.096C827.903 442.243 826.623 440.109 827.049 438.936ZM815.957 454.082C816.277 456.002 817.343 457.282 818.41 458.561C821.076 461.655 821.29 461.548 822.783 457.708C823.103 456.855 823.53 456.108 823.85 455.255C824.596 453.335 823.956 452.589 821.93 452.909C819.903 453.228 817.983 453.655 815.957 454.082ZM829.183 451.522C830.463 451.309 831.529 450.669 831.422 449.175C831.422 447.895 830.782 447.042 829.396 446.936C827.903 446.829 827.049 447.682 826.943 449.069C826.729 450.562 827.689 451.309 829.183 451.522Z" fill="#F7F9FD"/>
<path d="M814.784 448.962C815.104 446.616 815.424 444.909 816.064 443.309C816.704 441.816 817.344 441.922 818.304 442.882C819.37 443.949 820.437 444.909 821.61 445.869C823.21 447.255 822.997 448.215 821.077 448.855C819.69 449.282 818.197 449.602 816.81 450.135C815.104 450.669 814.57 450.029 814.784 448.962Z" fill="#346DE4"/>
<path d="M824.703 462.614C825.876 460.481 826.836 458.668 827.903 456.855C828.863 455.255 829.716 455.468 830.569 456.855C831.103 457.815 831.636 458.881 832.169 459.841C833.876 462.934 833.769 463.041 830.143 463.361C828.436 463.468 826.623 463.361 824.703 462.614Z" fill="#346DE4"/>
<path d="M843.582 448.642C843.796 450.135 843.156 450.562 841.769 450.135C840.276 449.602 838.676 449.282 837.183 448.855C835.476 448.322 834.943 447.469 836.436 446.082C836.863 445.656 837.396 445.229 837.823 444.909C841.876 441.283 841.983 441.389 843.156 446.722C843.369 447.255 843.476 448.002 843.582 448.642Z" fill="#346DE4"/>
<path d="M832.596 435.31C834.303 435.736 836.436 436.696 838.249 438.189C838.889 438.723 838.889 439.149 838.142 439.683C836.543 440.749 834.943 441.923 833.343 442.989C832.276 443.629 831.423 443.202 831.316 441.923C831.103 440.109 830.996 438.189 830.89 436.376C830.783 435.416 831.21 434.99 832.596 435.31Z" fill="#346DE4"/>
<path d="M842.302 453.975C842.515 454.722 842.195 455.361 841.875 455.788C840.702 457.708 839.209 460.801 837.289 460.375C835.369 459.948 835.049 456.535 834.302 454.402C833.769 452.908 835.049 452.695 836.222 452.802C838.142 453.228 840.275 453.655 842.302 453.975Z" fill="#346DE4"/>
<path d="M827.05 438.936C826.623 440.216 827.796 442.349 826.09 443.096C824.49 443.843 823.317 441.923 822.037 441.069C818.73 438.936 818.837 438.51 822.25 436.59C822.57 436.376 822.89 436.27 823.21 436.163C827.263 434.456 827.37 434.563 827.05 438.936Z" fill="#346DE4"/>
<path d="M815.957 454.082C817.984 453.655 819.903 453.228 821.93 452.908C824.063 452.588 824.596 453.228 823.85 455.255C823.53 456.108 823.103 456.855 822.783 457.708C821.29 461.548 821.077 461.548 818.41 458.561C817.344 457.281 816.277 456.002 815.957 454.082Z" fill="#346DE4"/>
<path d="M829.183 451.522C827.796 451.202 826.836 450.562 826.943 449.069C827.049 447.575 827.903 446.829 829.396 446.935C830.782 447.042 831.422 447.895 831.422 449.175C831.422 450.668 830.462 451.308 829.183 451.522Z" fill="#346DE4"/>
<path d="M941.3 522.1L957.8 519.2H958L949.5 509.1C946.7 505.7 943.8 502.4 941 499C941 499 949.7 474.9 949.8 474.8C949.8 474.8 955.8 485 964.2 499.7L978.7 524.9L978.8 525.1H951.9H925L941.3 522.1ZM909 519C909 519 913 512.1 917.9 503.6L926.8 488.2L937.1 479.5C942.8 474.7 947.5 470.8 947.5 470.8C947.5 470.9 947.4 471.1 947.3 471.2L936.1 495.3L925.1 518.9H917.1C912.6 519 909 519 909 519Z" fill="#0089D6"/>
<path fill-rule="evenodd" clip-rule="evenodd" d="M701.3 211.4L719.6 222V200.9L701.3 190.3V211.4Z" fill="#5F43E9"/>
<path fill-rule="evenodd" clip-rule="evenodd" d="M681 155V176.1L699.3 186.7V165.6L681 155Z" fill="#5F43E9"/>
<path fill-rule="evenodd" clip-rule="evenodd" d="M721.6 177.4V198.5L739.9 188V166.8L721.6 177.4Z" fill="#4040B2"/>
<path fill-rule="evenodd" clip-rule="evenodd" d="M701.3 166.8L719.6 177.4V198.5L701.3 188V166.8Z" fill="#5F43E9"/>
<path d="M740.7 481.7V519.3L725.2 532L701.3 523.3V531.9L687.8 514.2L727.3 517.3V483.5L740.7 481.7ZM727.5 483.6L705.4 470.1V478.9L685.1 484.9L679 492.7V510.5L687.7 514.4V491.6L727.5 483.6Z" fill="#0074D3"/>
<path d="M309 509.978L309 591.441" stroke="#F3F7FF" stroke-width="9" stroke-linecap="round" stroke-linejoin="round"/>
<path d="M186 250V276C186 286.493 194.507 295 205 295H290C300.493 295 309 303.507 309 314V361.956" stroke="#F3F7FF" stroke-width="9" stroke-linecap="round" stroke-linejoin="round"/>
<path d="M432 250V276C432 286.493 423.493 295 413 295H328C317.507 295 309 303.507 309 314V361.956" stroke="#F3F7FF" stroke-width="9" stroke-linecap="round" stroke-linejoin="round"/>
<path d="M649.155 198.725V198.725C622.15 198.725 600.257 220.618 600.257 247.623L600.257 390.345C600.257 417.96 577.871 440.345 550.257 440.345L464 440.345" stroke="#F3F7FF" stroke-width="9" stroke-linecap="round" stroke-linejoin="round"/>
<path d="M649.155 302.061V302.061C622.15 302.061 600.257 323.954 600.257 350.96L600.257 390.346C600.257 417.96 577.871 440.346 550.257 440.346L468 440.346" stroke="#F3F7FF" stroke-width="9" stroke-linecap="round" stroke-linejoin="round"/>
<path d="M649.155 692.722V692.722C622.15 692.722 600.257 670.83 600.257 643.824L600.257 490.345C600.257 462.731 577.871 440.345 550.257 440.345L468 440.345" stroke="#F3F7FF" stroke-width="9" stroke-linecap="round" stroke-linejoin="round"/>
<path d="M649.155 589.386V589.386C622.15 589.386 600.257 567.494 600.257 540.488L600.257 490.345C600.257 462.731 577.871 440.345 550.257 440.345L468 440.345" stroke="#F3F7FF" stroke-width="9" stroke-linecap="round" stroke-linejoin="round"/>
<path d="M646.509 496V496C631.221 496 618.827 483.534 618.827 468.246V468.246C618.827 452.877 606.369 440.345 591 440.345L468 440.345" stroke="#F3F7FF" stroke-width="9" stroke-linecap="square" stroke-linejoin="round"/>
<path d="M646.137 384.691V384.691C631.054 384.691 618.827 397.174 618.827 412.257V412.257C618.827 427.625 606.369 440.345 591 440.345L468 440.345" stroke="#F3F7FF" stroke-width="9" stroke-linecap="square" stroke-linejoin="round"/>
<path d="M309 511.563L309 589.706" stroke="#326CE5" stroke-linecap="round" stroke-linejoin="round"/>
<path d="M465.08 440.403L551.466 440.403" stroke="#326CE5" stroke-linecap="round" stroke-linejoin="round"/>
<path d="M309 308L309 361.052" stroke="#326CE5" stroke-linecap="round" stroke-linejoin="round"/>
<path d="M432 251.358V276C432 286.493 423.493 295 413 295H393.8H332.752" stroke="#326CE5" stroke-linecap="round" stroke-linejoin="round"/>
<path d="M186 250.825V276C186 286.493 194.507 295 205 295H244.134H281.925" stroke="#326CE5" stroke-linecap="round" stroke-linejoin="round"/>
<g filter="url(#filter0_d_2650_424)">
<rect x="164" y="375" width="289" height="121" rx="4" fill="#326CE5"/>
</g>
<path d="M440.441 382H176.559C173.489 382 171 382.988 171 384.207V486.793C171 488.012 173.489 489 176.559 489H440.441C443.511 489 446 488.012 446 486.793V384.207C446 382.988 443.511 382 440.441 382Z" stroke="#D0DEFF" stroke-width="2" stroke-linecap="round" stroke-linejoin="round" stroke-dasharray="1 7"/>
<text fill="white" xml:space="preserve" style="white-space: pre" font-family="Open Sans" font-size="34" font-weight="bold" letter-spacing="0em"><tspan x="231.156" y="448.69">Config DB</tspan></text>
<text fill="#40454F" xml:space="preserve" style="white-space: pre" font-family="Open Sans" font-size="34" font-weight="bold" letter-spacing="0em"><tspan x="239.342" y="97.6899">Analysis</tspan></text>
<text fill="#40454F" xml:space="preserve" style="white-space: pre" font-family="Open Sans" font-size="34" font-weight="bold" letter-spacing="0em"><tspan x="159.073" y="768.69">Change Detectors</tspan></text>
<text fill="#40454F" xml:space="preserve" style="white-space: pre" font-family="Open Sans" font-size="20" letter-spacing="0em"><tspan x="90.1016" y="228.759">AWS Trusted Advisor</tspan></text>
<text fill="#40454F" xml:space="preserve" style="white-space: pre" font-family="Open Sans" font-size="20" letter-spacing="0em"><tspan x="328.27" y="228.759">AWS Config Rules</tspan></text>
<rect x="66" y="441" width="86" height="55" rx="5" fill="#EBF1FF"/>
<rect x="66" y="375" width="86" height="55" rx="5" fill="#EBF1FF"/>
<text fill="#326CE5" xml:space="preserve" style="white-space: pre" font-family="Open Sans" font-size="26" font-weight="bold" letter-spacing="0em"><tspan x="84.1426" y="412.586">SQL</tspan></text>
<text fill="#326CE5" xml:space="preserve" style="white-space: pre" font-family="Open Sans" font-size="26" font-weight="bold" letter-spacing="0em"><tspan x="78.4424" y="477.586">REST</tspan></text>
<text fill="#40454F" xml:space="preserve" style="white-space: pre" font-family="Open Sans" font-size="20" letter-spacing="0em"><tspan x="236.436" y="708.759">AWS Cloud Trail</tspan></text>
<circle cx="647.59" cy="692.426" r="4.5" fill="url(#paint1_linear_2650_424)" stroke="#749AF4"/>
<circle cx="600.172" cy="653.5" r="5" fill="url(#paint2_linear_2650_424)"/>
<circle cx="600.172" cy="354.079" r="5" fill="url(#paint3_linear_2650_424)"/>
<circle cx="600.172" cy="440" r="5" fill="url(#paint4_linear_2650_424)"/>
<circle cx="619.371" cy="415" r="5" fill="url(#paint5_linear_2650_424)"/>
<circle cx="629.371" cy="489" r="5" fill="url(#paint6_linear_2650_424)"/>
<circle cx="600.172" cy="538" r="5" fill="url(#paint7_linear_2650_424)"/>
<circle cx="600.172" cy="238.579" r="5" fill="url(#paint8_linear_2650_424)"/>
<circle cx="647.032" cy="589.406" r="4.5" fill="url(#paint9_linear_2650_424)" stroke="#749AF4"/>
<circle cx="646.509" cy="495.686" r="4.5" fill="url(#paint10_linear_2650_424)" stroke="#749AF4"/>
<circle cx="646.509" cy="384.672" r="4.5" fill="url(#paint11_linear_2650_424)" stroke="#749AF4"/>
<circle cx="646.509" cy="301.667" r="4.5" fill="url(#paint12_linear_2650_424)" stroke="#749AF4"/>
<circle cx="646.509" cy="198.5" r="4.5" fill="url(#paint13_linear_2650_424)" stroke="#749AF4"/>
<path d="M303.6 356.438L309 361.838L314.404 356.434" stroke="#326CE5" stroke-linecap="round" stroke-linejoin="round"/>
<path d="M314.403 517.266L309.003 511.866L303.599 517.27" stroke="#326CE5" stroke-linecap="round" stroke-linejoin="round"/>
<path d="M470.48 435L465.08 440.401L470.484 445.804" stroke="#326CE5" stroke-linecap="round" stroke-linejoin="round"/>
<path d="M277.098 300.404L282.498 295.004L277.094 289.6" stroke="#326CE5" stroke-linecap="round" stroke-linejoin="round"/>
<path d="M337.596 289.602L332.196 295.002L337.599 300.406" stroke="#326CE5" stroke-linecap="round" stroke-linejoin="round"/>
<circle cx="494.5" cy="472.5" r="12.5" fill="#326CE5"/>
<text fill="white" xml:space="preserve" style="white-space: pre" font-family="Open Sans" font-size="15" font-weight="bold" letter-spacing="0em"><tspan x="489.322" y="477.819">A</tspan></text>
<circle cx="546.5" cy="472.5" r="12.5" fill="#326CE5"/>
<text fill="white" xml:space="preserve" style="white-space: pre" font-family="Open Sans" font-size="15" font-weight="bold" letter-spacing="0em"><tspan x="541.461" y="477.819">B</tspan></text>
<text fill="#40454F" xml:space="preserve" style="white-space: pre" font-family="Open Sans" font-size="14" letter-spacing="0em"><tspan x="473.049" y="505.931">transformation</tspan></text>
<path d="M518 421.954C526.914 421.954 534.141 414.728 534.141 405.813C534.141 396.899 526.914 389.672 518 389.672C509.085 389.672 501.858 396.899 501.858 405.813C501.858 414.728 509.085 421.954 518 421.954Z" fill="#326CE5"/>
<path d="M525.513 398.457H510.488C510.244 398.457 510.046 398.655 510.046 398.899V401.466C510.046 401.564 510.079 401.659 510.139 401.736L515.791 409.129V415.364C515.791 415.52 515.873 415.665 516.007 415.744C516.075 415.786 516.153 415.808 516.233 415.806C516.307 415.807 516.38 415.788 516.445 415.753L519.98 413.827C520.122 413.749 520.21 413.6 520.21 413.438V409.129L525.862 401.736C525.922 401.659 525.954 401.564 525.955 401.466V398.899C525.955 398.655 525.757 398.457 525.513 398.457Z" fill="white"/>
<path d="M526.875 474.667L529 476.833L526.875 479M526.875 466L529 468.167L526.875 470.333M512 476.833H515.771C516.354 476.833 516.928 476.687 517.442 476.406C517.957 476.126 518.395 475.72 518.718 475.225L520.5 472.5" stroke="#6E7687" stroke-linecap="round" stroke-linejoin="round"/>
<path d="M512 468H515.872C516.471 468 517.06 468.152 517.588 468.444C518.116 468.735 518.566 469.156 518.898 469.67L522.557 475.33C522.889 475.844 523.339 476.265 523.867 476.556C524.394 476.848 524.984 477 525.582 477H528M528 468H525.582C524.984 468 524.394 468.152 523.867 468.444C523.339 468.735 522.889 469.156 522.557 469.67L522.182 470.25" stroke="#6E7687" stroke-linecap="round" stroke-linejoin="round"/>
<path fill-rule="evenodd" clip-rule="evenodd" d="M154.971 154.501L161.315 153.823L169.221 162.125L161.315 169.184L154.971 167.894V154.501Z" fill="#4B612C"/>
<path fill-rule="evenodd" clip-rule="evenodd" d="M199.83 146.247L186.499 148.063L173.169 146.247L186.499 120.412L199.83 146.247Z" fill="#3C4929"/>
<path fill-rule="evenodd" clip-rule="evenodd" d="M203.212 168.327L211.684 169.184L216.654 161.504L211.684 153.823L203.212 154.181V168.327V168.327Z" fill="#4B612C"/>
<path fill-rule="evenodd" clip-rule="evenodd" d="M199.831 146.247L186.5 143.462V120.412L199.831 127.17V146.247ZM218.029 154.501L211.685 153.823V169.184L218.029 167.894V154.501ZM169.788 168.327L161.315 169.184V153.823L169.788 154.181V168.327V168.327Z" fill="#759C3E"/>
<path fill-rule="evenodd" clip-rule="evenodd" d="M173.17 146.247L186.5 143.462V120.412L173.17 127.17V146.247ZM166.509 187.509L186.5 197.588L204.225 173.644L186.5 151.179L166.509 153.278V187.509Z" fill="#4B612C"/>
<path fill-rule="evenodd" clip-rule="evenodd" d="M206.501 187.509L186.5 197.588V151.179L206.501 153.278V187.509V187.509Z" fill="#759C3E"/>
<path fill-rule="evenodd" clip-rule="evenodd" d="M413.308 143.924L429.928 133.244L438.945 143.924L423.399 146.064L413.309 143.924H413.308ZM400.684 143.924L384.065 133.189L375.048 143.924L390.593 146.064L400.684 143.924Z" fill="#3C4929"/>
<path fill-rule="evenodd" clip-rule="evenodd" d="M439 165.383L406.995 163.521L375 165.383L406.995 195.706L439 165.383Z" fill="#B7CA9D"/>
<path fill-rule="evenodd" clip-rule="evenodd" d="M400.683 143.924L384.063 140.924V133.189L400.683 137.478V143.923V143.924Z" fill="#759C3E"/>
<path fill-rule="evenodd" clip-rule="evenodd" d="M375.048 143.924L384.065 140.925V133.19L375.048 137.469V143.923V143.924ZM413.308 143.924L429.928 140.925V133.19L413.308 137.479V143.924Z" fill="#4B612C"/>
<path fill-rule="evenodd" clip-rule="evenodd" d="M438.944 143.924L429.928 140.925V133.19L438.944 137.469V143.924V143.924Z" fill="#759C3E"/>
<path fill-rule="evenodd" clip-rule="evenodd" d="M375 159H406.995L439 154.434L406.995 144.318L375 150.396V159ZM406.995 195.706L375 180.504V165.383L406.995 169.904V195.706Z" fill="#4B612C"/>
<path fill-rule="evenodd" clip-rule="evenodd" d="M439 180.504L406.995 195.706V169.904L439 165.383V180.504V180.504ZM439 159H406.995V144.318L439 150.396V159Z" fill="#759C3E"/>
<path fill-rule="evenodd" clip-rule="evenodd" d="M424.029 138.955L406.995 142.581L389.961 138.955L406.995 122.294L424.029 138.955Z" fill="#3C4929"/>
<path fill-rule="evenodd" clip-rule="evenodd" d="M389.961 138.955L406.995 133.288V122.294L389.961 130.388V138.956V138.955Z" fill="#4B612C"/>
<path fill-rule="evenodd" clip-rule="evenodd" d="M424.029 138.955L406.995 133.288V122.294L424.029 130.388V138.956V138.955Z" fill="#759C3E"/>
<path fill-rule="evenodd" clip-rule="evenodd" d="M285.785 641.523L283.755 641.678L276.941 641.42L278.825 632.562L285.785 641.523V641.523Z" fill="#3C4929"/>
<path fill-rule="evenodd" clip-rule="evenodd" d="M285.785 649.762L283.755 649.606L276.941 649.865L278.825 658.723L285.785 649.762Z" fill="#B7CA9D"/>
<path fill-rule="evenodd" clip-rule="evenodd" d="M278.825 650.036L276.941 649.864V658.188L278.825 658.722V650.036V650.036Z" fill="#4B612C"/>
<path fill-rule="evenodd" clip-rule="evenodd" d="M285.785 657.87L278.825 658.722V650.045L285.785 649.761V657.87V657.87Z" fill="#759C3E"/>
<path fill-rule="evenodd" clip-rule="evenodd" d="M298.543 650.442L292.946 650.037L283.16 650.502L288.4 666.35L298.543 650.442Z" fill="#B7CA9D"/>
<path fill-rule="evenodd" clip-rule="evenodd" d="M278.825 641.239L276.941 641.42V633.096L278.825 632.562V641.239Z" fill="#4B612C"/>
<path fill-rule="evenodd" clip-rule="evenodd" d="M285.785 633.414L278.825 632.562V641.23L285.785 641.523V633.414V633.414Z" fill="#759C3E"/>
<path fill-rule="evenodd" clip-rule="evenodd" d="M298.543 640.843L292.946 641.239L283.16 640.783L288.4 624.96L298.543 640.843V640.843Z" fill="#3C4929"/>
<path fill-rule="evenodd" clip-rule="evenodd" d="M283.16 626.639L288.4 624.96V640.283L283.16 640.783V626.639Z" fill="#4B612C"/>
<path fill-rule="evenodd" clip-rule="evenodd" d="M298.544 627.035L288.401 624.96V640.283L298.544 640.843V627.035Z" fill="#759C3E"/>
<path fill-rule="evenodd" clip-rule="evenodd" d="M283.16 664.524L288.4 666.349V651.001L283.16 650.501V664.524Z" fill="#4B612C"/>
<path fill-rule="evenodd" clip-rule="evenodd" d="M298.544 664.378L288.401 666.349V651.001L298.544 650.441V664.378Z" fill="#759C3E"/>
<path fill-rule="evenodd" clip-rule="evenodd" d="M294.867 674.613L307.991 680.794L338.748 645.5L307.991 610.206L294.867 616.387V674.613V674.613Z" fill="#4B612C"/>
<path fill-rule="evenodd" clip-rule="evenodd" d="M339.059 666.177L307.991 680.794V610.206L339.059 624.823V666.177Z" fill="#759C3E"/>
<defs>
<filter id="filter0_d_2650_424" x="157" y="372" width="303" height="135" filterUnits="userSpaceOnUse" color-interpolation-filters="sRGB">
<feFlood flood-opacity="0" result="BackgroundImageFix"/>
<feColorMatrix in="SourceAlpha" type="matrix" values="0 0 0 0 0 0 0 0 0 0 0 0 0 0 0 0 0 0 127 0" result="hardAlpha"/>
<feOffset dy="4"/>
<feGaussianBlur stdDeviation="3.5"/>
<feComposite in2="hardAlpha" operator="out"/>
<feColorMatrix type="matrix" values="0 0 0 0 0 0 0 0 0 0 0 0 0 0 0 0 0 0 0.15 0"/>
<feBlend mode="normal" in2="BackgroundImageFix" result="effect1_dropShadow_2650_424"/>
<feBlend mode="normal" in="SourceGraphic" in2="effect1_dropShadow_2650_424" result="shape"/>
</filter>
<radialGradient id="paint0_radial_2650_424" cx="0" cy="0" r="1" gradientUnits="userSpaceOnUse" gradientTransform="translate(834.5 451) rotate(90) scale(398 186.5)">
<stop offset="0.607292" stop-color="#EBF1FF"/>
<stop offset="1" stop-color="#EBF1FF" stop-opacity="0"/>
</radialGradient>
<linearGradient id="paint1_linear_2650_424" x1="647.59" y1="687.426" x2="647.59" y2="697.426" gradientUnits="userSpaceOnUse">
<stop stop-color="#C1D4FF"/>
<stop offset="1" stop-color="#C4D5FF" stop-opacity="0.62"/>
</linearGradient>
<linearGradient id="paint2_linear_2650_424" x1="600.172" y1="648.5" x2="600.172" y2="658.5" gradientUnits="userSpaceOnUse">
<stop stop-color="#C1D4FF" stop-opacity="0.35"/>
<stop offset="1" stop-color="#C4D5FF" stop-opacity="0.36"/>
</linearGradient>
<linearGradient id="paint3_linear_2650_424" x1="600.172" y1="349.079" x2="600.172" y2="359.079" gradientUnits="userSpaceOnUse">
<stop stop-color="#C1D4FF" stop-opacity="0.35"/>
<stop offset="1" stop-color="#C4D5FF" stop-opacity="0.36"/>
</linearGradient>
<linearGradient id="paint4_linear_2650_424" x1="600.172" y1="435" x2="600.172" y2="445" gradientUnits="userSpaceOnUse">
<stop stop-color="#C1D4FF" stop-opacity="0.35"/>
<stop offset="1" stop-color="#C4D5FF" stop-opacity="0.36"/>
</linearGradient>
<linearGradient id="paint5_linear_2650_424" x1="619.371" y1="410" x2="619.371" y2="420" gradientUnits="userSpaceOnUse">
<stop stop-color="#C1D4FF" stop-opacity="0.35"/>
<stop offset="1" stop-color="#C4D5FF" stop-opacity="0.36"/>
</linearGradient>
<linearGradient id="paint6_linear_2650_424" x1="629.371" y1="484" x2="629.371" y2="494" gradientUnits="userSpaceOnUse">
<stop stop-color="#C1D4FF" stop-opacity="0.35"/>
<stop offset="1" stop-color="#C4D5FF" stop-opacity="0.36"/>
</linearGradient>
<linearGradient id="paint7_linear_2650_424" x1="600.172" y1="533" x2="600.172" y2="543" gradientUnits="userSpaceOnUse">
<stop stop-color="#C1D4FF" stop-opacity="0.35"/>
<stop offset="1" stop-color="#C4D5FF" stop-opacity="0.36"/>
</linearGradient>
<linearGradient id="paint8_linear_2650_424" x1="600.172" y1="233.579" x2="600.172" y2="243.579" gradientUnits="userSpaceOnUse">
<stop stop-color="#C1D4FF" stop-opacity="0.35"/>
<stop offset="1" stop-color="#C4D5FF" stop-opacity="0.36"/>
</linearGradient>
<linearGradient id="paint9_linear_2650_424" x1="647.032" y1="584.406" x2="647.032" y2="594.406" gradientUnits="userSpaceOnUse">
<stop stop-color="#C1D4FF"/>
<stop offset="1" stop-color="#C4D5FF" stop-opacity="0.62"/>
</linearGradient>
<linearGradient id="paint10_linear_2650_424" x1="646.509" y1="490.686" x2="646.509" y2="500.686" gradientUnits="userSpaceOnUse">
<stop stop-color="#C1D4FF"/>
<stop offset="1" stop-color="#C4D5FF" stop-opacity="0.62"/>
</linearGradient>
<linearGradient id="paint11_linear_2650_424" x1="646.509" y1="379.672" x2="646.509" y2="389.672" gradientUnits="userSpaceOnUse">
<stop stop-color="#C1D4FF"/>
<stop offset="1" stop-color="#C4D5FF" stop-opacity="0.62"/>
</linearGradient>
<linearGradient id="paint12_linear_2650_424" x1="646.509" y1="296.667" x2="646.509" y2="306.667" gradientUnits="userSpaceOnUse">
<stop stop-color="#C1D4FF"/>
<stop offset="1" stop-color="#C4D5FF" stop-opacity="0.62"/>
</linearGradient>
<linearGradient id="paint13_linear_2650_424" x1="646.509" y1="193.5" x2="646.509" y2="203.5" gradientUnits="userSpaceOnUse">
<stop stop-color="#C1D4FF"/>
<stop offset="1" stop-color="#C4D5FF" stop-opacity="0.62"/>
</linearGradient>
<clipPath id="clip0_2650_424">
<rect width="70" height="42.1429" fill="white" transform="translate(794 116)"/>
</clipPath>
<clipPath id="clip1_2650_424">
<rect width="70" height="72.6582" fill="white" transform="translate(794 209.071)"/>
</clipPath>
<clipPath id="clip2_2650_424">
<rect width="70" height="61.886" fill="white" transform="translate(911 369)"/>
</clipPath>
<clipPath id="clip3_2650_424">
<rect width="70" height="81.3333" fill="white" transform="translate(911 256)"/>
</clipPath>
<clipPath id="clip4_2650_424">
<rect width="70" height="69.9279" fill="white" transform="translate(794 721)"/>
</clipPath>
<clipPath id="clip5_2650_424">
<rect width="70" height="70" fill="white" transform="translate(911 666.964)"/>
</clipPath>
<clipPath id="clip6_2650_424">
<rect width="70" height="70" fill="white" transform="translate(675 565.436)"/>
</clipPath>
<clipPath id="clip7_2650_424">
<rect width="70" height="70" fill="white" transform="translate(794 314.071)"/>
</clipPath>
</defs>
</svg>
