<svg xmlns="http://www.w3.org/2000/svg" viewBox="0 0 666.52 235.36"><defs><style>.cls-1{fill:#1c1c1c;}</style></defs><g id="Layer_2" data-name="Layer 2"><g id="Logo_black" data-name="Logo black"><g id="Ventures"><path class="cls-1" d="M35.78,128.08,67.57,229.77h4.05l31.8-101.69H118L84.67,233.82H54.52L21.23,128.08Z"/><path class="cls-1" d="M153.52,157.62c21.6,0,35.85,13.35,35.85,36.3v5.4h-58.5c.6,12.9,7.2,23.85,24.6,23.85,11.55,0,19.35-5.4,21.9-15.6h14.55c-2.4,11.55-12.15,27.75-36.45,27.75-27.15,0-38.7-18.45-38.7-39.9C116.77,171.42,131.92,157.62,153.52,157.62Zm21.75,31.5c0-10.65-7.05-19.5-21.75-19.5-14.4,0-22.65,8.85-22.65,19.5Z"/><path class="cls-1" d="M222.22,201.72v32.1H207.67v-74.7h14.55v12.15l-2.55,9.45h4.05c3-13.5,12.45-23.1,28.65-23.1,17.4,0,28.5,10.35,28.5,31.5v44.7h-14.7v-42.6c0-15.15-5.55-21-18.15-21C232.72,170.22,222.22,181.47,222.22,201.72Z"/><path class="cls-1" d="M349.42,221.22v12.6L319,235.32c-7.35.45-10.8-3.45-10.8-10.8v-52.8H291.52v-12.6h16.65V140.83l14.55-4.5v22.79h23.7v12.6h-23.7v51.15Z"/><path class="cls-1" d="M421.57,191.07V159.12h14.7v74.7h-14.7V221.67l2.55-9.45h-4.05c-3,13.5-12.45,23.1-28.65,23.1-17.25,0-28.35-10.35-28.35-31.65V159.12h14.55v42.6c0,15.15,5.7,21,18.15,21C411.07,222.72,421.57,211.47,421.57,191.07Z"/><path class="cls-1" d="M454.42,168.42c0-7.34,3.45-10.94,10.8-10.8l43,1.5v12.6L469,170.37v63.45H454.42Z"/><path class="cls-1" d="M551.17,157.62c21.6,0,35.85,13.35,35.85,36.3v5.4h-58.5c.6,12.9,7.2,23.85,24.6,23.85,11.55,0,19.35-5.4,21.9-15.6h14.55c-2.4,11.55-12.15,27.75-36.45,27.75-27.15,0-38.7-18.45-38.7-39.9C514.42,171.42,529.57,157.62,551.17,157.62Zm21.75,31.5c0-10.65-7-19.5-21.75-19.5-14.4,0-22.65,8.85-22.65,19.5Z"/><path class="cls-1" d="M635.92,235.32c-24.9,0-35.1-11.25-35.1-28.95h14.55c0,11.55,6.75,17.4,20.85,17.4,10.5,0,15.75-2.55,15.75-9.3,0-8.7-9-10.2-21.15-14.1-14.1-4.35-26.55-8.7-26.55-23,0-12,10.35-19.8,28.2-19.8,23.7,0,31.5,12.75,31.5,25.35H649.42c0-9-5.85-13.8-16.95-13.8-7.8,0-13.65,2.25-13.65,8.25,0,6.45,5.55,8.7,17.55,12.6,14.7,4.8,30.15,8.25,30.15,24.15C666.52,225.72,659,235.32,635.92,235.32Z"/></g><g id="Aurelia"><path class="cls-1" d="M69.75,71.76H27L14.55,111.65H0L33.3,5.91H63.45l33.3,105.74H82.2Zm-3.9-12.6L50.4,10h-4L30.9,59.16Z"/><path class="cls-1" d="M167.1,68.91V37h14.7v74.69H167.1V99.5l2.55-9.45H165.6c-3,13.5-12.45,23.1-28.65,23.1-17.25,0-28.35-10.35-28.35-31.65V37h14.55v42.6c0,15.14,5.7,21,18.15,21C156.6,100.55,167.1,89.3,167.1,68.91Z"/><path class="cls-1" d="M200,46.26c0-7.35,3.45-10.95,10.8-10.8L253.8,37v12.6l-39.3-1.35v63.44H200Z"/><path class="cls-1" d="M296.7,35.46c21.6,0,35.85,13.35,35.85,36.3v5.4h-58.5c.6,12.89,7.2,23.84,24.6,23.84,11.55,0,19.35-5.4,21.9-15.59H335.1C332.7,97,323,113.15,298.65,113.15c-27.15,0-38.7-18.45-38.7-39.89C260,49.26,275.1,35.46,296.7,35.46ZM318.45,67c0-10.65-7.05-19.5-21.75-19.5-14.4,0-22.65,8.85-22.65,19.5Z"/><path class="cls-1" d="M342.45,99.05H363.3V12.66L347.4,14V1.41L367.05.06c7.35-.6,10.8,3.45,10.8,10.65V99.05h21v12.6h-56.4Z"/><path class="cls-1" d="M410.55,99.05h21V48.21L415.5,49.56V37l19.5-1.5c7.35-.6,10.5,3.3,10.5,9.6v54h21v12.6H410.55Zm14.55-84c0-6.15,4.8-10.65,11.4-10.65s11.7,4.5,11.7,10.65-4.95,10.8-11.7,10.8S425.1,21.36,425.1,15.06Z"/><path class="cls-1" d="M503.85,68.76l28.65-3c-.6-12.15-7.5-18.3-20-18.3-10.5,0-19.65,4.8-19.65,17.4H478.8c0-16.2,12.6-29.4,33.75-29.4,20.85,0,34.5,13,34.5,33.9V99.05h11v12.6h-14c-5.85,0-9.3-3.3-9.3-9.3V98.9L537,91h-3.9c-2.85,11.55-10.8,22.2-29.4,22.2-22.05,0-25.35-14.4-25.35-22.2C478.35,79,485.55,70.86,503.85,68.76Zm1.95,31.79c16.2,0,26.7-10.5,26.7-24.6l-26.1,2.71c-9,1-13.5,3.45-13.5,10.2C492.9,96.65,498.15,100.55,505.8,100.55Z"/></g></g></g></svg>