<svg width="650" height="450" viewBox="0 0 650 450" fill="none" xmlns="http://www.w3.org/2000/svg">
<path d="M37.6 13.6499V373.48" stroke="#404041" stroke-width="2" stroke-miterlimit="10"/>
<path d="M29.42 20.28L30.89 21.64L37.6 14.42L44.32 21.64L45.78 20.28L37.6 11.48L29.42 20.28Z" fill="#404041"/>
<g opacity="0.5">
<path d="M199.89 422.26C204.507 413.906 206.923 404.515 206.91 394.97C206.91 363.77 181.62 338.48 150.42 338.48C119.22 338.48 93.9299 363.77 93.9299 394.97C93.9299 404.87 96.4799 414.17 100.95 422.26H199.89ZM488.88 422.26C495.53 410.24 499.32 396.41 499.32 381.7C499.32 335.34 461.73 297.75 415.37 297.75C369.01 297.75 331.42 335.34 331.42 381.7C331.42 396.41 335.21 410.24 341.86 422.26H488.88Z" fill="#E6E7E8"/>
<path d="M587.15 422.26C593.8 410.24 597.59 396.41 597.59 381.7C597.59 335.34 560 297.75 513.64 297.75C467.28 297.75 429.69 335.34 429.69 381.7C429.69 396.41 433.48 410.24 440.13 422.26H587.15Z" fill="#E6E7E8"/>
<path d="M214.47 346.72C256.543 346.72 290.65 312.613 290.65 270.54C290.65 228.467 256.543 194.36 214.47 194.36C172.397 194.36 138.29 228.467 138.29 270.54C138.29 312.613 172.397 346.72 214.47 346.72Z" fill="#E6E7E8"/>
<path d="M375.45 337.59C427.917 337.59 470.45 295.057 470.45 242.59C470.45 190.123 427.917 147.59 375.45 147.59C322.983 147.59 280.45 190.123 280.45 242.59C280.45 295.057 322.983 337.59 375.45 337.59Z" fill="#E6E7E8"/>
<path d="M467.33 233.14C487.93 233.14 504.63 216.44 504.63 195.84C504.63 175.24 487.93 158.54 467.33 158.54C446.73 158.54 430.03 175.24 430.03 195.84C430.03 216.44 446.73 233.14 467.33 233.14Z" fill="#E6E7E8"/>
<path d="M597.59 395.53C618.19 395.53 634.89 378.83 634.89 358.23C634.89 337.629 618.19 320.93 597.59 320.93C576.99 320.93 560.29 337.629 560.29 358.23C560.29 378.83 576.99 395.53 597.59 395.53Z" fill="#E6E7E8"/>
<path d="M617.59 336.41C624.869 336.41 630.77 330.509 630.77 323.23C630.77 315.951 624.869 310.05 617.59 310.05C610.311 310.05 604.41 315.951 604.41 323.23C604.41 330.509 610.311 336.41 617.59 336.41Z" fill="#E6E7E8"/>
<path d="M124.23 354.56C131.509 354.56 137.41 348.659 137.41 341.38C137.41 334.101 131.509 328.2 124.23 328.2C116.951 328.2 111.05 334.101 111.05 341.38C111.05 348.659 116.951 354.56 124.23 354.56Z" fill="#E6E7E8"/>
<path d="M317.45 177.24C324.729 177.24 330.63 171.339 330.63 164.06C330.63 156.781 324.729 150.88 317.45 150.88C310.171 150.88 304.27 156.781 304.27 164.06C304.27 171.339 310.171 177.24 317.45 177.24Z" fill="#E6E7E8"/>
</g>
<path d="M495.82 85.4302L416.31 90.4602L430.99 112.54L327.44 181.4H241.82L72.98 294.67L87.87 316.75L249.97 208.03H335.49L445.74 134.72L460.42 156.8L495.82 85.4302Z" fill="#9EC0FD"/>
<path d="M88.1199 438.52H590.77M495.82 85.1099L416.31 90.1299L430.99 112.21L327.44 181.07H241.82L72.9799 294.35L87.8699 316.43L249.97 207.7H335.49L445.74 134.39L460.42 156.48L495.82 85.1099ZM26.1799 421.48H624.02H26.1799Z" stroke="#404041" stroke-width="2" stroke-miterlimit="10"/>
<path d="M579.04 288.73L543.64 217.36L528.96 239.44L328.46 106.12H234.84L66.02 218.58L80.78 240.75L242.9 132.76H320.42L514.21 261.62L499.53 283.7L579.04 288.73Z" fill="#326CE5"/>
<path d="M626.76 362.9H26.1799M579.04 288.73L543.64 217.36L528.96 239.44L328.46 106.12H234.84L66.0199 218.58L80.7799 240.75L242.9 132.76H320.42L514.21 261.62L499.53 283.7L579.04 288.73Z" stroke="#404041" stroke-width="2" stroke-miterlimit="10"/>
<path d="M620.13 354.72L618.77 356.19L625.99 362.9L618.77 369.62L620.13 371.08L628.93 362.9L620.13 354.72Z" fill="#404041"/>
<path d="M68.1 117.32L65.6 112.99M270.21 30.2402H275.21H270.21ZM278.63 30.2402H283.63H278.63ZM273.56 36.0602L276.06 31.7302L273.56 36.0602ZM277.77 28.7602L280.27 24.4302L277.77 28.7602ZM280.27 36.0602L277.77 31.7302L280.27 36.0602ZM276.06 28.7602L273.56 24.4302L276.06 28.7602ZM398.08 226.31H403.08H398.08ZM406.51 226.31H411.51H406.51ZM401.44 232.12L403.94 227.79L401.44 232.12ZM405.65 224.82L408.15 220.49L405.65 224.82ZM408.15 232.12L405.65 227.79L408.15 232.12ZM403.94 224.82L401.44 220.49L403.94 224.82ZM62.24 118.8H67.24H62.24ZM70.67 118.8H75.67H70.67ZM65.6 124.61L68.1 120.28L65.6 124.61ZM69.81 117.32L72.31 112.99L69.81 117.32ZM72.31 124.61L69.81 120.28L72.31 124.61Z" stroke="#404041" stroke-width="2" stroke-miterlimit="10"/>
<path d="M569.68 421.45C578.616 421.45 585.86 414.206 585.86 405.27C585.86 396.334 578.616 389.09 569.68 389.09C560.744 389.09 553.5 396.334 553.5 405.27C553.5 414.206 560.744 421.45 569.68 421.45Z" fill="#FFEAB3"/>
<path d="M569.68 421.45C578.616 421.45 585.86 414.206 585.86 405.27C585.86 396.334 578.616 389.09 569.68 389.09C560.744 389.09 553.5 396.334 553.5 405.27C553.5 414.206 560.744 421.45 569.68 421.45Z" stroke="#404041" stroke-width="2" stroke-miterlimit="10"/>
<path d="M561.98 410.44C561.56 409.84 561.24 409.21 561.01 408.55C560.78 407.88 560.64 407.18 560.59 406.43L562.73 405.96C562.78 406.93 562.98 407.8 563.32 408.55C563.66 409.31 564.16 409.98 564.83 410.57C565.77 411.4 566.67 411.83 567.5 411.87C568.34 411.91 569.09 411.55 569.75 410.79L569.76 410.78C570.18 410.3 570.39 409.83 570.42 409.35C570.44 408.88 570.34 408.41 570.1 407.96C569.87 407.51 569.52 406.99 569.06 406.39C569.05 406.37 569.03 406.35 569.02 406.33C569 406.31 568.99 406.29 568.98 406.27L568.89 406.15L568.79 406.02C568.11 405.13 567.59 404.37 567.25 403.73C566.91 403.09 566.77 402.38 566.83 401.59C566.89 400.8 567.29 399.97 568.05 399.11L568.06 399.1C568.81 398.25 569.6 397.67 570.44 397.38C571.28 397.09 572.16 397.07 573.07 397.33C573.98 397.59 574.91 398.14 575.85 398.96C576.28 399.33 576.66 399.75 576.99 400.21C577.32 400.67 577.61 401.18 577.85 401.73C578.09 402.28 578.29 402.87 578.43 403.51L576.36 404.05C576.2 403.26 575.97 402.57 575.66 401.98C575.35 401.39 574.96 400.9 574.51 400.5C573.62 399.72 572.77 399.33 571.96 399.31C571.15 399.29 570.42 399.66 569.76 400.41L569.75 400.42C569.33 400.9 569.12 401.39 569.13 401.88C569.14 402.37 569.28 402.85 569.54 403.32C569.8 403.79 570.2 404.37 570.72 405.08C570.73 405.1 570.75 405.12 570.77 405.15C570.79 405.17 570.81 405.2 570.83 405.22C570.86 405.25 570.88 405.29 570.91 405.32C570.94 405.35 570.96 405.39 570.98 405.43C571.57 406.24 572.02 406.97 572.32 407.63C572.62 408.29 572.73 409 572.63 409.78C572.54 410.56 572.13 411.36 571.4 412.19L571.38 412.21C570.65 413.05 569.86 413.6 569.02 413.87C568.17 414.14 567.29 414.13 566.36 413.83C565.43 413.53 564.48 412.96 563.5 412.11C562.9 411.59 562.39 411.03 561.98 410.44V410.44ZM576.11 396.6L577.7 397.99L575.88 400.07L574.29 398.68L576.11 396.6ZM563.59 410.92L565.18 412.31L563.25 414.51L561.66 413.12L563.59 410.92Z" fill="#404041"/>
<path d="M171.86 227.46C180.796 227.46 188.04 220.216 188.04 211.28C188.04 202.344 180.796 195.1 171.86 195.1C162.924 195.1 155.68 202.344 155.68 211.28C155.68 220.216 162.924 227.46 171.86 227.46Z" fill="#FFEAB3"/>
<path d="M171.86 227.46C180.796 227.46 188.04 220.216 188.04 211.28C188.04 202.344 180.796 195.1 171.86 195.1C162.924 195.1 155.68 202.344 155.68 211.28C155.68 220.216 162.924 227.46 171.86 227.46Z" stroke="#404041" stroke-width="2" stroke-miterlimit="10"/>
<path d="M162.65 206.89C163.54 206.06 164.95 204.96 166.49 203.95C168.6 202.58 170.26 201.99 171.77 202.18C173.01 202.33 174.13 203.05 174.94 204.29C176.17 206.18 175.73 208.3 174.68 209.69L174.72 209.76C176.02 209.47 177.31 210.08 178.6 211.25C180.25 212.78 181.74 214.22 182.41 214.58L179.65 216.38C179.15 216.09 178.02 215.12 176.42 213.56C174.76 211.92 173.67 211.76 172.12 212.71L170.77 213.59L174.69 219.61L172.04 221.34L162.65 206.89V206.89ZM169.52 211.63L171.11 210.6C172.91 209.43 173.42 207.73 172.47 206.28C171.42 204.67 169.81 204.67 168.07 205.8C167.22 206.35 166.72 206.77 166.5 207.01L169.52 211.63V211.63Z" fill="#404041"/>
<path d="M348.9 247.05C357.836 247.05 365.08 239.806 365.08 230.87C365.08 221.934 357.836 214.69 348.9 214.69C339.964 214.69 332.72 221.934 332.72 230.87C332.72 239.806 339.964 247.05 348.9 247.05Z" fill="#FFEAB3"/>
<path d="M348.9 247.05C357.836 247.05 365.08 239.806 365.08 230.87C365.08 221.934 357.836 214.69 348.9 214.69C339.964 214.69 332.72 221.934 332.72 230.87C332.72 239.806 339.964 247.05 348.9 247.05Z" stroke="#404041" stroke-width="2" stroke-miterlimit="10"/>
<path d="M347.58 220.78C348.75 221.08 350.45 221.68 352.12 222.44C354.41 223.48 355.8 224.56 356.45 225.94C356.99 227.07 356.99 228.4 356.37 229.75C355.44 231.8 353.41 232.57 351.68 232.43L351.65 232.5C352.59 233.44 352.77 234.86 352.48 236.58C352.08 238.79 351.67 240.82 351.72 241.59L348.72 240.23C348.7 239.65 348.91 238.18 349.36 235.99C349.85 233.71 349.4 232.71 347.77 231.91L346.31 231.25L343.35 237.79L340.47 236.48L347.58 220.78V220.78ZM347.27 229.12L348.99 229.9C350.95 230.79 352.65 230.31 353.37 228.72C354.16 226.97 353.3 225.61 351.41 224.76C350.49 224.34 349.87 224.15 349.55 224.09L347.27 229.12V229.12Z" fill="#404041"/>
<path d="M235.67 392.09H287.31V397.62H235.67V392.09Z" fill="#BBBDBF"/>
<path d="M165.16 391.68H357.82C361.64 391.68 364.74 388.58 364.74 384.76V248.95C364.74 246.32 362.61 244.19 359.98 244.19H163C160.37 244.19 158.24 246.32 158.24 248.95V384.76C158.24 388.58 161.34 391.68 165.16 391.68Z" fill="#E6E7E8"/>
<path d="M165.16 391.68H357.82C361.64 391.68 364.74 388.58 364.74 384.76V248.95C364.74 246.32 362.61 244.19 359.98 244.19H163C160.37 244.19 158.24 246.32 158.24 248.95V384.76C158.24 388.58 161.34 391.68 165.16 391.68Z" stroke="#404041" stroke-width="2" stroke-miterlimit="10"/>
<path d="M163.97 249.87H359V367.1H163.97V249.87Z" fill="white"/>
<path d="M163.97 249.87H359V256.89H163.97V249.87Z" fill="#E6E7E8"/>
<path d="M173.51 263.97H186.22V266.38H173.51V263.97ZM173.51 268.33H186.22V270.74H173.51V268.33ZM173.51 272.69H186.22V275.1H173.51V272.69Z" fill="#9EC0FD"/>
<path d="M296.53 418.96C296.53 420.25 295.54 421.48 294.02 421.48H228.94C227.42 421.48 226.43 420.24 226.43 418.96C226.43 418.31 226.68 417.64 227.26 417.13L227.93 416.52C230.205 414.46 232.053 411.973 233.37 409.2C234.86 406.07 235.66 402.61 235.66 399.07V391.68H287.3V399.07C287.3 402.61 288.09 406.07 289.59 409.2C290.89 411.95 292.73 414.44 295.02 416.52L295.69 417.13C296.28 417.64 296.53 418.31 296.53 418.96V418.96Z" stroke="#404041" stroke-width="2" stroke-miterlimit="10"/>
<path d="M188.36 345.28H210.18V367.1H188.36V345.28ZM218.48 324.69H240.3V367.09H218.48V324.69ZM248.59 305.95H270.41V367.1H248.59V305.95ZM278.7 286.9H300.52V367.1H278.7V286.9ZM308.82 263.24H330.64V367.1H308.82V263.24Z" fill="#326CE5"/>
<path d="M163.97 249.87H359V367.1H163.97V249.87Z" stroke="#404041" stroke-width="2" stroke-miterlimit="10"/>
<path d="M209.25 292.81L199.81 298.26C203.61 304.19 210.15 308.2 217.66 308.49V297.57C214.2 297.31 211.16 295.48 209.25 292.81ZM219.42 263.97V274.87C225.29 275.31 229.92 280.23 229.92 286.22C229.92 292.15 225.39 297.02 219.59 297.55V308.48C231.41 307.93 240.82 298.18 240.82 286.22C240.83 274.21 231.32 264.42 219.42 263.97V263.97ZM196.26 286.23C196.26 289.98 197.18 293.5 198.83 296.6L208.26 291.15C207.55 289.66 207.15 287.99 207.15 286.23C207.15 280.28 211.7 275.41 217.49 274.89V263.97C205.68 264.52 196.26 274.27 196.26 286.23Z" fill="#E6E7E8"/>
<path d="M289.99 410.32H239.99M293.31 414.72H251.74H293.31Z" stroke="#404041" stroke-width="2" stroke-miterlimit="10"/>
<path d="M463.34 250.67L477.44 251.62L487.63 270.63L480.63 282.9L422.08 314.31L404.8 282.08L463.34 250.67Z" fill="#FFEAB3" stroke="#404041" stroke-width="2" stroke-miterlimit="10"/>
<path d="M435.11 292.93C434.82 293.34 434.05 294.03 432.89 294.64C429.61 296.4 426.82 295.27 425.37 292.56C423.63 289.32 424.98 286.28 427.85 284.74C428.96 284.14 429.93 283.92 430.41 283.91L430.89 285.85C430.36 285.9 429.66 286.06 428.9 286.47C427.2 287.38 426.42 289.12 427.56 291.23C428.58 293.13 430.35 293.72 432.26 292.7C432.91 292.35 433.55 291.83 433.88 291.43L435.11 292.93V292.93ZM442.33 283.16C444 286.27 443.12 289.17 440.35 290.66C437.53 292.17 434.75 290.93 433.3 288.23C431.77 285.39 432.45 282.29 435.25 280.78C438.17 279.22 440.93 280.55 442.33 283.16V283.16ZM435.55 286.97C436.55 288.83 438.12 289.67 439.56 288.9C441.01 288.12 441.1 286.3 440.11 284.45C439.2 282.75 437.59 281.72 436.12 282.51C434.66 283.29 434.56 285.12 435.55 286.97ZM445.23 285C445.96 284.99 447.01 284.81 447.93 284.31C448.92 283.78 449.22 283.09 448.89 282.47C448.57 281.88 447.94 281.78 446.58 281.99C444.71 282.29 443.21 281.97 442.47 280.59C441.6 278.97 442.29 277.01 444.53 275.81C445.6 275.24 446.51 275.04 447.21 274.99L447.66 276.98C447.18 277 446.36 277.1 445.43 277.59C444.5 278.09 444.28 278.75 444.54 279.25C444.87 279.86 445.54 279.83 447.02 279.64C449.03 279.36 450.29 279.81 451 281.15C451.85 282.74 451.35 284.75 448.75 286.15C447.67 286.73 446.44 287.02 445.75 287.02L445.23 285V285ZM451.65 274.5L449.1 275.87L448.13 274.07L455.42 270.16L456.39 271.96L453.8 273.35L457.92 281.04L455.77 282.2L451.65 274.5V274.5Z" fill="#404041"/>
<path d="M473.17 270.54C475.595 270.54 477.56 268.574 477.56 266.15C477.56 263.725 475.595 261.76 473.17 261.76C470.746 261.76 468.78 263.725 468.78 266.15C468.78 268.574 470.746 270.54 473.17 270.54Z" fill="white" stroke="#404041" stroke-width="2" stroke-miterlimit="10"/>
<path d="M398.92 53.8599L410.89 61.3599V82.9299L398.92 90.4299H332.48V53.8599H398.92Z" fill="#FFEAB3" stroke="#404041" stroke-width="2" stroke-miterlimit="10"/>
<path d="M345.07 77.3401L341.62 66.5701H344.29L345.6 71.1201C345.97 72.4001 346.3 73.6301 346.56 74.9701H346.61C346.88 73.6801 347.22 72.4001 347.58 71.1701L348.95 66.5701H351.54L347.91 77.3401H345.07V77.3401ZM354.34 74.5701L353.57 77.3301H351.05L354.34 66.5601H357.54L360.88 77.3301H358.26L357.43 74.5701H354.34V74.5701ZM357.07 72.7501L356.4 70.4601C356.21 69.8201 356.02 69.0201 355.86 68.3801H355.83C355.67 69.0201 355.51 69.8301 355.33 70.4601L354.69 72.7501H357.07ZM362.31 66.5701H364.75V75.2901H369.03V77.3301H362.3V66.5701H362.31ZM372.41 66.5701V72.7701C372.41 74.6201 373.11 75.5701 374.36 75.5701C375.64 75.5701 376.34 74.6801 376.34 72.7701V66.5701H378.77V72.6101C378.77 75.9301 377.09 77.5101 374.28 77.5101C371.56 77.5101 369.97 76.0101 369.97 72.5701V66.5601H372.41V66.5701ZM387.29 72.7801H383.33V75.3401H387.75V77.3401H380.88V66.5701H387.53V68.5701H383.33V70.8101H387.29V72.7801V72.7801Z" fill="#404041"/>
<path d="M400.27 76.5398C402.695 76.5398 404.66 74.5743 404.66 72.1498C404.66 69.7252 402.695 67.7598 400.27 67.7598C397.845 67.7598 395.88 69.7252 395.88 72.1498C395.88 74.5743 397.845 76.5398 400.27 76.5398Z" fill="white" stroke="#404041" stroke-width="2" stroke-miterlimit="10"/>
<path d="M517.99 377.32C521.14 375.18 524.89 373.94 528.7 373.78C530.37 373.71 532.1 373.86 533.56 374.65C535.02 375.44 536.17 377 536.08 378.66C535.99 380.33 534.36 381.86 532.73 381.52C530.96 381.15 530.14 378.87 530.75 377.17C531.36 375.47 532.94 374.31 534.54 373.48C537.49 371.95 540.83 371.18 544.15 371.26M473.98 264.26C477.84 263.86 481.71 262.7 484.81 260.36C487.91 258.02 490.16 254.39 490.28 250.51L473.98 264.26ZM402.1 73.2602C407.57 73.1302 413.17 73.4802 418.21 75.5902C423.25 77.7002 427.7 81.8202 429.05 87.1202L402.1 73.2602Z" stroke="#404041" stroke-width="2" stroke-miterlimit="10"/>
<path d="M524.22 388.08C524.09 389.44 517.52 416.48 516.52 420.61C516.45 420.89 516.38 421.17 516.32 421.46H500.83L499.48 415.06C495.1 416.44 490.33 417.2 485.34 417.2C481.43 417.2 474.03 416.74 470.46 415.86L467.26 421.46H455.9L454.59 405.63C451.71 403.04 449.29 400.22 447.68 397.23L437.22 393.96L435.67 384.1L447.15 378.07C447.88 375.49 449 373.04 450.45 370.74L442.41 361.08L443.23 358.69C443.23 358.69 458.75 360.36 460.58 360.57C467.32 356.09 475.94 353.41 485.33 353.41C490.63 353.41 495.94 354.27 500.95 356.04C505.56 357.67 509.91 360.07 513.64 363.24C517.09 366.17 520.01 369.78 521.94 373.89C524.07 378.43 524.69 383.24 524.22 388.08V388.08Z" fill="white"/>
<path d="M510.16 407.31C501.68 408.91 493.05 411.09 484.38 410.92C476.57 410.76 468.56 410.15 461.23 407.32C459.03 407.01 456.83 406.66 454.65 406.25L455.91 421.46H467.27L470.47 415.86C474.04 416.73 481.43 417.2 485.35 417.2C490.33 417.2 495.1 416.44 499.49 415.06L500.84 421.46H516.33C516.4 421.18 516.47 420.9 516.53 420.61C516.99 418.71 518.63 411.93 520.29 405.05C519.55 405.19 518.82 405.32 518.09 405.45C515.45 406.2 512.78 406.81 510.16 407.31V407.31Z" fill="#E6E7E8"/>
<path d="M524.22 388.08C524.09 389.44 517.52 416.48 516.52 420.61C516.45 420.89 516.38 421.17 516.32 421.46H500.83L499.48 415.06C495.1 416.44 490.33 417.2 485.34 417.2C481.43 417.2 474.03 416.74 470.46 415.86L467.26 421.46H455.9L454.59 405.63C451.71 403.04 449.29 400.22 447.68 397.23L437.22 393.96L435.67 384.1L447.15 378.07C447.88 375.49 449 373.04 450.45 370.74L442.41 361.08L443.23 358.69C443.23 358.69 458.75 360.36 460.58 360.57C467.32 356.09 475.94 353.41 485.33 353.41C490.63 353.41 495.94 354.27 500.95 356.04C505.56 357.67 509.91 360.07 513.64 363.24C517.09 366.17 520.01 369.78 521.94 373.89C524.07 378.43 524.69 383.24 524.22 388.08V388.08Z" stroke="#404041" stroke-width="2" stroke-miterlimit="10"/>
<path d="M522.75 394.82V394.8M524.22 388.08C524.09 389.44 517.52 416.48 516.52 420.61C516.45 420.89 516.38 421.17 516.32 421.46H500.83L499.48 415.06C495.1 416.44 490.33 417.2 485.34 417.2C481.43 417.2 474.03 416.74 470.46 415.86L467.26 421.46H455.9L454.59 405.63C451.71 403.04 449.29 400.22 447.68 397.23L437.22 393.96L435.67 384.1L447.15 378.07C447.88 375.49 449 373.04 450.45 370.74L442.41 361.08L443.23 358.69C443.23 358.69 458.75 360.36 460.58 360.57C467.32 356.09 475.94 353.41 485.33 353.41C490.63 353.41 495.94 354.27 500.95 356.04C505.56 357.67 509.91 360.07 513.64 363.24C517.09 366.17 520.01 369.78 521.94 373.89C524.07 378.43 524.69 383.24 524.22 388.08V388.08Z" stroke="#404041" stroke-width="2" stroke-miterlimit="10"/>
<path d="M454.66 383.03C456.256 383.03 457.55 381.736 457.55 380.14C457.55 378.544 456.256 377.25 454.66 377.25C453.064 377.25 451.77 378.544 451.77 380.14C451.77 381.736 453.064 383.03 454.66 383.03Z" fill="white" stroke="#404041" stroke-width="2" stroke-miterlimit="10"/>
<path d="M498.11 360.92C494.088 358.961 489.674 357.942 485.2 357.942C480.727 357.942 476.312 358.961 472.29 360.92" stroke="#404041" stroke-width="4" stroke-miterlimit="10" stroke-linecap="round"/>
<path d="M56.2399 248.51L50.7999 257.93H61.6699L56.2399 248.51ZM458.16 45.2397L460.97 55.7397L468.66 48.0597L458.16 45.2397Z" stroke="#404041" stroke-width="2" stroke-miterlimit="10" stroke-linejoin="round"/>
<path d="M590.77 76.8597C592.874 76.8597 594.58 75.154 594.58 73.0498C594.58 70.9455 592.874 69.2397 590.77 69.2397C588.666 69.2397 586.96 70.9455 586.96 73.0498C586.96 75.154 588.666 76.8597 590.77 76.8597Z" stroke="#404041" stroke-width="2" stroke-miterlimit="10"/>
<path d="M390.94 313.86C393.044 313.86 394.75 312.154 394.75 310.05C394.75 307.946 393.044 306.24 390.94 306.24C388.836 306.24 387.13 307.946 387.13 310.05C387.13 312.154 388.836 313.86 390.94 313.86Z" stroke="#404041" stroke-width="2" stroke-miterlimit="10"/>
<path d="M50.08 338.93C50.08 363.63 61.06 383.66 61.06 383.66C61.06 383.66 72.04 363.63 72.04 338.93C72.04 314.23 61.06 294.2 61.06 294.2C61.06 294.2 50.08 314.23 50.08 338.93Z" fill="#9EC0FD" stroke="#404041" stroke-width="2" stroke-miterlimit="10"/>
<path d="M35.2199 356.71C45.2299 374.05 61.0599 383.66 61.0599 383.66C61.0599 383.66 60.6499 365.15 50.6399 347.81C40.6299 330.47 24.7999 320.86 24.7999 320.86C24.7999 320.86 25.2099 339.37 35.2199 356.71Z" fill="#9EC0FD" stroke="#404041" stroke-width="2" stroke-miterlimit="10"/>
<path d="M34.95 376.25C47.72 383.62 61.35 383.92 61.35 383.92C61.35 383.92 54.28 372.27 41.51 364.89C28.74 357.51 15.11 357.22 15.11 357.22C15.11 357.22 22.18 368.88 34.95 376.25ZM72.71 348.02C62.7 365.36 62.29 383.87 62.29 383.87C62.29 383.87 78.12 374.26 88.13 356.92C98.14 339.58 98.55 321.07 98.55 321.07C98.55 321.07 82.72 330.68 72.71 348.02Z" fill="#9EC0FD" stroke="#404041" stroke-width="2" stroke-miterlimit="10"/>
<path d="M82.81 365.64C70.04 373.01 62.97 384.67 62.97 384.67C62.97 384.67 76.6 384.37 89.37 377C102.14 369.63 109.21 357.97 109.21 357.97C109.21 357.97 95.58 358.27 82.81 365.64V365.64Z" fill="#9EC0FD" stroke="#404041" stroke-width="2" stroke-miterlimit="10"/>
<path d="M83.48 421.48H38.64L46.38 383.78H75.74L83.48 421.48Z" fill="#E6E7E8" stroke="#404041" stroke-width="2" stroke-miterlimit="10"/>
<path d="M472.14 361.37C476.42 359.45 481.05 358.36 485.75 358.36C490.36 358.36 494.68 359.27 498.61 360.91C501.49 356.63 502.29 351.05 500.25 345.89C496.96 337.58 487.56 333.52 479.25 336.81C470.94 340.1 466.88 349.5 470.17 357.81C470.67 359.11 471.35 360.29 472.14 361.37V361.37Z" fill="#FFEAB3"/>
<path d="M471.2 361.8C471.82 361.5 472.45 361.23 473.08 360.96C472.28 359.9 471.6 358.73 471.09 357.43C468.01 349.65 471.83 340.81 479.61 337.73C487.4 334.65 496.23 338.47 499.31 346.25C501.25 351.15 500.45 356.47 497.65 360.51C498.29 360.75 498.91 361.02 499.52 361.3C502.5 356.78 503.31 350.92 501.17 345.52C497.68 336.71 487.68 332.39 478.87 335.87C470.06 339.36 465.74 349.36 469.22 358.17C469.75 359.49 470.42 360.7 471.2 361.8V361.8Z" fill="#404041"/>
<path d="M478.96 350.5C479.38 351.56 479.93 352.3 480.61 352.71C481.29 353.12 481.99 353.33 482.71 353.31C483.43 353.3 484.35 353.19 485.45 352.99C485.51 352.98 485.56 352.97 485.61 352.96L485.76 352.93C485.79 352.93 485.81 352.92 485.83 352.92C485.85 352.92 485.88 352.91 485.9 352.91C486.64 352.77 487.26 352.71 487.77 352.7C488.28 352.7 488.74 352.82 489.15 353.05C489.56 353.29 489.88 353.7 490.12 354.29V354.3C490.49 355.23 490.47 356.06 490.05 356.79C489.67 357.44 488.98 357.99 487.99 358.43C489.07 358.5 490.14 358.62 491.19 358.79C491.21 358.77 491.24 358.75 491.26 358.72C491.95 358.03 492.37 357.25 492.51 356.37C492.65 355.49 492.52 354.54 492.11 353.51L492.1 353.49C491.69 352.47 491.17 351.73 490.52 351.3C489.87 350.86 489.19 350.62 488.46 350.59C487.74 350.56 486.88 350.62 485.89 350.78C485.85 350.78 485.8 350.78 485.76 350.79C485.72 350.8 485.68 350.8 485.64 350.81C485.61 350.81 485.58 350.82 485.55 350.83C485.52 350.84 485.5 350.84 485.47 350.84C484.6 350.98 483.9 351.06 483.37 351.08C482.83 351.1 482.34 351 481.9 350.79C481.46 350.57 481.12 350.17 480.88 349.57V349.56C480.51 348.63 480.52 347.81 480.91 347.1C481.29 346.39 482.03 345.81 483.13 345.38C483.7 345.16 484.31 345.04 484.98 345.03C485.65 345.02 486.37 345.13 487.15 345.35L487.62 343.26C486.99 343.1 486.37 343 485.77 342.97C485.17 342.93 484.59 342.96 484.02 343.04C483.71 343.09 483.41 343.15 483.11 343.24L482.37 341.37L480.4 342.15L481.16 344.07C480.56 344.41 480.05 344.78 479.65 345.21C479 345.9 478.61 346.68 478.49 347.57C478.37 348.46 478.51 349.42 478.93 350.48L478.96 350.5Z" fill="#404041"/>
<path d="M131.75 136.38C133.777 136.38 135.42 134.737 135.42 132.71C135.42 130.683 133.777 129.04 131.75 129.04C129.723 129.04 128.08 130.683 128.08 132.71C128.08 134.737 129.723 136.38 131.75 136.38Z" fill="#E6E7E8"/>
<path d="M251.74 70.8498C253.767 70.8498 255.41 69.2067 255.41 67.1798C255.41 65.1529 253.767 63.5098 251.74 63.5098C249.713 63.5098 248.07 65.1529 248.07 67.1798C248.07 69.2067 249.713 70.8498 251.74 70.8498Z" fill="#E6E7E8"/>
<path d="M592.6 204.44C594.627 204.44 596.27 202.797 596.27 200.77C596.27 198.743 594.627 197.1 592.6 197.1C590.573 197.1 588.93 198.743 588.93 200.77C588.93 202.797 590.573 204.44 592.6 204.44Z" fill="#E6E7E8"/>
<path d="M272.52 159.25V150.46M542.98 324.69H551.76H542.98ZM547.37 329.09V320.3V329.09ZM584.54 24.43H593.32H584.54ZM588.93 28.83V20.04V28.83ZM600.02 250.9H608.8H600.02ZM604.41 255.3V246.51V255.3ZM268.13 154.85H276.92H268.13Z" stroke="#404041" stroke-width="2" stroke-miterlimit="10"/>
<path d="M68.95 157.61H78.46V167.12H68.95V157.61Z" fill="#E6E7E8"/>
<path d="M79.29 33.0601H88.8V42.5701H79.29V33.0601Z" stroke="#404041" stroke-width="2" stroke-miterlimit="10"/>
<path d="M388.861 18.479V27.989H379.351V18.479H388.861Z" fill="#E6E7E8"/>
<path d="M508.64 32.1802H543.64V67.1802H508.64V32.1802Z" fill="#E6E7E8"/>
<path d="M520.02 48.3503C520.01 48.6303 520.05 48.9103 520.13 49.1803C520.21 49.4103 520.31 49.6403 520.43 49.8503C520.47 49.9103 520.5 49.9803 520.5 50.0603C520.49 50.1803 520.42 50.2803 520.32 50.3403L519.73 50.7303C519.66 50.7803 519.58 50.8103 519.49 50.8103C519.38 50.8103 519.28 50.7603 519.21 50.6803C519.08 50.5503 518.97 50.4103 518.87 50.2503C518.78 50.0903 518.69 49.9103 518.59 49.7003C518.263 50.1107 517.845 50.4404 517.37 50.664C516.895 50.8877 516.375 50.9993 515.85 50.9903C515.17 51.0303 514.49 50.7903 513.99 50.3203C513.52 49.8503 513.27 49.2003 513.31 48.5303C513.29 47.8003 513.59 47.0903 514.15 46.6103C514.8 46.1003 515.61 45.8503 516.44 45.8903C516.77 45.8903 517.11 45.9103 517.44 45.9603C517.79 46.0103 518.14 46.0803 518.51 46.1603V45.4803C518.56 44.9403 518.41 44.4103 518.07 43.9903C517.64 43.6603 517.09 43.5003 516.55 43.5603C516.21 43.5603 515.88 43.6003 515.55 43.6803C515.21 43.7603 514.87 43.8703 514.55 44.0003L514.22 44.1203H514.08C513.94 44.1203 513.88 44.0203 513.88 43.8303V43.3703C513.87 43.2603 513.89 43.1503 513.94 43.0503C514.01 42.9603 514.11 42.9003 514.21 42.8503C514.58 42.6703 514.98 42.5303 515.38 42.4303C515.85 42.3103 516.34 42.2503 516.83 42.2503C517.71 42.1703 518.59 42.4503 519.27 43.0103C519.84 43.6303 520.12 44.4603 520.04 45.3003L520.02 48.3503V48.3503ZM516.24 49.7703C516.58 49.7703 516.92 49.7103 517.24 49.6003C517.58 49.4803 517.89 49.2803 518.12 49.0003C518.27 48.8303 518.38 48.6303 518.44 48.4103C518.5 48.1403 518.53 47.8703 518.53 47.6003V47.1803C518.24 47.1203 517.94 47.0803 517.64 47.0503H516.76C516.27 47.0103 515.78 47.1403 515.38 47.4203C515.06 47.6903 514.89 48.0903 514.92 48.5003C514.89 48.8703 515.01 49.2303 515.26 49.5003C515.54 49.7203 515.89 49.8103 516.24 49.7703V49.7703ZM523.73 50.7703C523.603 50.7811 523.477 50.7494 523.37 50.6803C523.27 50.5803 523.2 50.4503 523.17 50.3103L520.99 43.1103C520.95 42.9903 520.92 42.8603 520.91 42.7303C520.91 42.5803 520.98 42.5003 521.13 42.5003H522.05C522.18 42.4903 522.3 42.5203 522.41 42.5903C522.51 42.6903 522.57 42.8203 522.6 42.9603L524.17 49.1803L525.64 42.9703C525.66 42.8303 525.72 42.7003 525.82 42.6003C525.93 42.5303 526.06 42.5003 526.19 42.5103H526.94C527.07 42.5003 527.21 42.5303 527.32 42.6003C527.41 42.7003 527.48 42.8303 527.5 42.9703L528.95 49.1803L530.56 42.9403C530.59 42.8003 530.65 42.6703 530.75 42.5703C530.86 42.5003 530.98 42.4703 531.11 42.4803H531.98C532.1 42.4703 532.2 42.5503 532.21 42.6703V42.8603C532.21 42.8603 532.21 42.9903 532.15 43.0903L529.89 50.2903C529.86 50.4303 529.8 50.5603 529.7 50.6603C529.59 50.7303 529.47 50.7603 529.34 50.7503H528.54C528.409 50.7625 528.277 50.727 528.17 50.6503C528.07 50.5503 528.01 50.4203 527.99 50.2803L526.54 44.2803L525.1 50.2803C525.08 50.4203 525.02 50.5503 524.92 50.6503C524.81 50.7303 524.68 50.7603 524.55 50.7503L523.73 50.7703V50.7703ZM535.73 51.0103C535.25 51.0103 534.76 50.9603 534.29 50.8503C533.92 50.7803 533.56 50.6503 533.22 50.4803C533.102 50.4215 533.001 50.3316 532.93 50.2203C532.89 50.1359 532.87 50.0436 532.87 49.9503V49.4803C532.87 49.2903 532.94 49.1903 533.08 49.1903C533.14 49.1803 533.2 49.1803 533.26 49.1903L533.49 49.2903C533.81 49.4303 534.15 49.5403 534.49 49.6103C534.85 49.6903 535.23 49.7303 535.6 49.7303C536.07 49.7603 536.55 49.6503 536.96 49.4203C537.27 49.2303 537.45 48.9003 537.44 48.5403C537.445 48.4206 537.426 48.3011 537.383 48.1893C537.34 48.0774 537.274 47.9757 537.19 47.8903C536.92 47.6603 536.6 47.4903 536.25 47.4003L534.9 46.9703C534.32 46.8203 533.79 46.4903 533.41 46.0303C533.11 45.6403 532.94 45.1603 532.94 44.6703C532.93 44.3203 533.02 43.9803 533.19 43.6703C533.36 43.3703 533.59 43.1103 533.86 42.9003C534.16 42.6803 534.5 42.5203 534.86 42.4203C535.24 42.3103 535.64 42.2603 536.04 42.2603C536.25 42.2503 536.45 42.2503 536.66 42.2603L537.27 42.3603L537.8 42.5103L538.19 42.6703C538.29 42.7303 538.39 42.8103 538.47 42.9003C538.53 42.9903 538.55 43.1003 538.55 43.2103V43.6503C538.55 43.8503 538.48 43.9503 538.34 43.9503C538.213 43.9362 538.09 43.8953 537.98 43.8303C537.41 43.5803 536.8 43.4603 536.18 43.4703C535.75 43.4503 535.32 43.5403 534.94 43.7303C534.65 43.9103 534.48 44.2303 534.5 44.5703C534.5 44.8203 534.6 45.0603 534.78 45.2303C535.08 45.4703 535.42 45.6403 535.78 45.7403L537.1 46.1603C537.66 46.3103 538.16 46.6203 538.54 47.0603C538.83 47.4403 538.98 47.9003 538.97 48.3703C538.98 48.7403 538.89 49.1103 538.73 49.4503C538.57 49.7703 538.34 50.0503 538.05 50.2703C537.75 50.5103 537.41 50.6903 537.05 50.8003C536.61 50.9403 536.16 51.0103 535.7 51.0203L535.73 51.0103V51.0103Z" fill="white"/>
<path fill-rule="evenodd" clip-rule="evenodd" d="M537.46 55.6104C534.11 57.8804 530.16 59.0904 526.11 59.0804C520.99 59.1104 516.05 57.2204 512.25 53.8004C511.96 53.5404 512.25 53.1804 512.57 53.3804C516.79 55.8004 521.57 57.0704 526.43 57.0604C530.06 57.0504 533.66 56.3104 537.01 54.9004C537.53 54.6804 537.97 55.2404 537.46 55.6104V55.6104Z" fill="white"/>
<path fill-rule="evenodd" clip-rule="evenodd" d="M538.74 54.18C538.34 53.67 536.14 53.94 535.15 54.06C534.85 54.06 534.81 53.83 535.08 53.64C536.83 52.41 539.71 52.76 540.08 53.18C540.45 53.6 539.99 56.48 538.34 57.86C538.09 58.07 537.85 57.95 537.96 57.68C538.3 56.73 539.13 54.66 538.74 54.18V54.18Z" fill="white"/>
<path d="M574.02 140.42C573.96 140.41 573.89 140.4 573.83 140.41C573.695 140.417 573.563 140.456 573.446 140.525C573.329 140.594 573.231 140.689 573.159 140.804C573.088 140.919 573.045 141.05 573.034 141.185C573.024 141.32 573.047 141.456 573.1 141.58L573.09 141.59L575.02 146.25C576.867 145.073 578.268 143.314 579 141.25L574.03 140.41L574.02 140.42V140.42ZM566.29 141.08C566.249 140.896 566.146 140.731 565.999 140.613C565.852 140.495 565.669 140.431 565.48 140.43C565.42 140.43 565.37 140.43 565.31 140.44L565.3 140.43L560.37 141.27C561.107 143.318 562.503 145.063 564.34 146.23L566.25 141.62L566.24 141.6C566.31 141.44 566.33 141.25 566.29 141.08V141.08ZM570.41 142.89C570.358 142.793 570.286 142.707 570.201 142.637C570.115 142.567 570.016 142.515 569.911 142.484C569.805 142.452 569.694 142.442 569.584 142.453C569.474 142.464 569.367 142.497 569.27 142.55C569.12 142.63 569 142.75 568.93 142.9L566.51 147.28C568.24 147.87 570.11 147.97 571.9 147.56C572.23 147.48 572.55 147.39 572.87 147.29L570.44 142.9L570.41 142.89V142.89ZM578.08 132.71L574.35 136.05V136.06C574 136.37 573.96 136.9 574.27 137.25C574.38 137.37 574.52 137.46 574.68 137.51V137.53L579.51 138.92C579.73 136.75 579.22 134.57 578.08 132.71V132.71ZM571.16 133.09C571.168 133.242 571.217 133.388 571.302 133.515C571.386 133.641 571.503 133.742 571.64 133.808C571.777 133.873 571.929 133.9 572.081 133.887C572.232 133.873 572.377 133.819 572.5 133.73L572.51 133.74L576.59 130.85C575.037 129.329 573.027 128.359 570.87 128.09L571.16 133.09ZM566.84 133.75C566.964 133.839 567.11 133.893 567.262 133.906C567.414 133.919 567.566 133.891 567.703 133.824C567.841 133.757 567.957 133.655 568.041 133.528C568.125 133.4 568.173 133.252 568.18 133.1L568.2 133.09L568.48 128.08C568.14 128.12 567.8 128.18 567.46 128.26C565.67 128.66 564.03 129.56 562.73 130.84L566.84 133.75V133.75ZM564.65 137.53C564.796 137.49 564.929 137.412 565.035 137.302C565.14 137.193 565.213 137.057 565.247 136.909C565.281 136.761 565.274 136.607 565.227 136.463C565.18 136.318 565.095 136.19 564.98 136.09V136.07L561.23 132.72C560.089 134.582 559.6 136.77 559.84 138.94L564.64 137.55L564.65 137.53ZM568.29 139L569.67 139.66L571.05 139L571.39 137.51L570.44 136.32H568.9L567.94 137.51L568.29 139Z" fill="#E6E7E8"/>
<path d="M592.53 141.94L588.59 124.83C588.38 123.93 587.77 123.18 586.94 122.78L570.99 115.17C570.15 114.77 569.18 114.77 568.34 115.17L552.4 122.79C551.57 123.19 550.96 123.94 550.75 124.84L546.82 141.95C546.72 142.38 546.72 142.83 546.82 143.26C546.85 143.39 546.89 143.52 546.93 143.65C547.01 143.87 547.11 144.07 547.23 144.27C547.28 144.35 547.34 144.43 547.4 144.51L558.44 158.23C558.49 158.29 558.54 158.34 558.59 158.4C558.984 158.817 559.486 159.114 560.04 159.26C560.29 159.33 560.55 159.37 560.82 159.37H578.53C578.64 159.37 578.74 159.36 578.85 159.35C579.11 159.315 579.364 159.251 579.61 159.16C579.69 159.13 579.77 159.1 579.85 159.06C579.97 159 580.08 158.94 580.18 158.87C580.46 158.7 580.7 158.48 580.91 158.22L581.25 157.8L591.95 144.49C592.16 144.23 592.32 143.94 592.43 143.63C592.48 143.5 592.51 143.37 592.54 143.24C592.63 142.82 592.63 142.37 592.53 141.94V141.94ZM575.99 148.59C576.03 148.72 576.09 148.85 576.15 148.98C576.102 149.064 576.071 149.157 576.059 149.253C576.047 149.349 576.054 149.447 576.08 149.54C576.31 150.07 576.6 150.58 576.93 151.06C577.12 151.3 577.29 151.56 577.44 151.82C577.48 151.89 577.53 152 577.57 152.08C577.84 152.53 577.69 153.12 577.24 153.4C576.79 153.68 576.2 153.52 575.92 153.07C575.887 153.016 575.861 152.959 575.84 152.9C575.8 152.83 575.75 152.73 575.72 152.66C575.61 152.37 575.52 152.08 575.44 151.79C575.276 151.237 575.058 150.701 574.79 150.19C574.67 150.032 574.495 149.925 574.3 149.89C574.27 149.84 574.16 149.63 574.1 149.52C571.261 150.599 568.124 150.592 565.29 149.5L565.07 149.89C564.92 149.91 564.77 149.98 564.66 150.09C564.335 150.623 564.085 151.198 563.92 151.8C563.85 152.1 563.75 152.39 563.64 152.67C563.61 152.74 563.56 152.84 563.52 152.91C563.474 153.034 563.403 153.147 563.311 153.242C563.219 153.337 563.109 153.411 562.986 153.461C562.864 153.511 562.733 153.535 562.601 153.532C562.469 153.528 562.339 153.497 562.219 153.441C562.1 153.385 561.993 153.304 561.907 153.205C561.82 153.105 561.755 152.989 561.715 152.863C561.676 152.737 561.663 152.604 561.678 152.472C561.692 152.341 561.734 152.214 561.8 152.1C561.84 152.02 561.88 151.91 561.92 151.84C562.08 151.58 562.25 151.32 562.43 151.08C562.77 150.59 563.06 150.07 563.29 149.53C563.32 149.35 563.29 149.16 563.2 148.99L563.37 148.57C560.759 147.028 558.803 144.585 557.87 141.7L557.45 141.77C557.288 141.657 557.097 141.591 556.9 141.58C556.33 141.69 555.77 141.85 555.24 142.07C554.96 142.2 554.68 142.3 554.38 142.4C554.31 142.42 554.21 142.44 554.13 142.46C554.12 142.46 554.12 142.46 554.11 142.47H554.1C553.859 142.549 553.596 142.529 553.369 142.415C553.142 142.301 552.97 142.101 552.89 141.86C552.811 141.619 552.831 141.356 552.945 141.129C553.06 140.902 553.259 140.73 553.5 140.65C553.56 140.63 553.62 140.62 553.67 140.61H553.69C553.77 140.59 553.87 140.56 553.94 140.55C554.24 140.51 554.55 140.48 554.86 140.48C555.44 140.44 556.01 140.35 556.57 140.2C556.74 140.09 556.88 139.95 556.98 139.79L557.38 139.67C556.95 136.66 557.64 133.59 559.33 131.06L559.02 130.79C559.01 130.59 558.94 130.4 558.83 130.24C558.391 129.861 557.915 129.526 557.41 129.24C557.14 129.1 556.87 128.95 556.62 128.78C556.56 128.74 556.49 128.67 556.42 128.62L556.41 128.61C555.96 128.29 555.85 127.66 556.18 127.2C556.37 126.97 556.65 126.85 556.94 126.86C557.18 126.87 557.42 126.96 557.61 127.11C557.67 127.16 557.76 127.23 557.82 127.28C558.04 127.49 558.25 127.71 558.45 127.95C558.84 128.38 559.27 128.77 559.74 129.11C559.91 129.2 560.12 129.22 560.31 129.16C560.42 129.24 560.54 129.32 560.65 129.4C562.33 127.62 564.5 126.38 566.89 125.84C567.46 125.71 568.03 125.62 568.62 125.57L568.64 125.17C568.79 125.04 568.9 124.87 568.95 124.68C568.97 124.1 568.94 123.52 568.84 122.95C568.78 122.65 568.74 122.35 568.71 122.04V121.77C568.66 121.24 569.04 120.77 569.57 120.72C570.1 120.67 570.57 121.05 570.62 121.58C570.63 121.64 570.63 121.71 570.62 121.77V122.04C570.59 122.34 570.55 122.65 570.49 122.95C570.4 123.52 570.36 124.1 570.38 124.68C570.42 124.87 570.53 125.04 570.69 125.16C570.69 125.23 570.7 125.46 570.71 125.59C573.73 125.86 576.54 127.22 578.63 129.42L578.99 129.16C579.19 129.19 579.39 129.17 579.57 129.1C580.04 128.75 580.47 128.36 580.86 127.94C581.06 127.71 581.27 127.48 581.49 127.27C581.55 127.22 581.64 127.15 581.7 127.1C581.796 127.005 581.912 126.931 582.038 126.884C582.165 126.836 582.3 126.816 582.435 126.824C582.57 126.832 582.702 126.869 582.822 126.931C582.942 126.994 583.047 127.081 583.131 127.187C583.215 127.293 583.276 127.415 583.31 127.546C583.343 127.677 583.349 127.814 583.326 127.947C583.303 128.081 583.253 128.208 583.178 128.32C583.103 128.433 583.005 128.528 582.89 128.6C582.83 128.65 582.74 128.72 582.68 128.77C582.42 128.94 582.16 129.09 581.89 129.23C581.39 129.52 580.91 129.85 580.47 130.23C580.34 130.38 580.28 130.57 580.29 130.77C580.24 130.82 580.05 130.98 579.95 131.07C581.64 133.59 582.35 136.65 581.94 139.66L582.33 139.77C582.43 139.94 582.57 140.09 582.74 140.18C583.3 140.33 583.87 140.42 584.45 140.46C584.76 140.47 585.06 140.49 585.36 140.53C585.44 140.54 585.56 140.58 585.64 140.6C586.16 140.67 586.53 141.15 586.46 141.67C586.39 142.19 585.91 142.56 585.39 142.49C585.33 142.48 585.27 142.47 585.21 142.45H585.2C585.19 142.45 585.19 142.45 585.18 142.44C585.1 142.42 585 142.41 584.93 142.39C584.64 142.3 584.35 142.19 584.07 142.06C583.53 141.84 582.97 141.68 582.4 141.57C582.2 141.56 582.01 141.63 581.87 141.77C581.73 141.74 581.6 141.72 581.46 141.7C580.57 144.57 578.61 147.04 575.99 148.59V148.59Z" fill="#E6E7E8"/>
<path d="M140.04 95.8801H143.17M123.2 73.8301H133.01H123.2ZM123.2 79.3601H133.01H123.2ZM123.2 84.8801H133.01H123.2ZM123.2 95.8801H133.01H123.2ZM123.2 90.4101H133.01H123.2ZM110.26 76.1701H118.87V104.27H110.26V76.1701ZM113.01 79.3601H116.14H113.01ZM113.01 84.8801H116.14H113.01ZM113.01 90.4101H116.14H113.01ZM137.29 76.1701H145.9V104.27H137.29V76.1701ZM140.04 79.3601H143.17H140.04ZM140.04 84.8801H143.17H140.04ZM140.04 90.4101H143.17H140.04ZM113.01 95.8801H116.14H113.01Z" stroke="#404041" stroke-width="2" stroke-miterlimit="10"/>
<path d="M128.1 69.96V68.96M118.87 69.96H137.29V104.26H118.87V69.96Z" stroke="#404041" stroke-width="2" stroke-miterlimit="10"/>
<path d="M128.1 65.1602V49.9502" stroke="#404041" stroke-width="2" stroke-miterlimit="10" stroke-dasharray="1.9 3.8"/>
<path d="M128.1 48.04V47.04H129.1" stroke="#404041" stroke-width="2" stroke-miterlimit="10"/>
<path d="M133.25 47.04H174.74" stroke="#404041" stroke-width="2" stroke-miterlimit="10" stroke-dasharray="2.07 4.15"/>
<path d="M176.81 47.04H177.81" stroke="#404041" stroke-width="2" stroke-miterlimit="10"/>
<path d="M185.22 36.9399C188.78 36.9399 191.74 39.4999 192.37 42.8799H192.5C193.36 42.8809 194.2 43.1383 194.912 43.6193C195.625 44.1003 196.178 44.783 196.5 45.5799C198.04 45.6499 199.42 46.3099 200.42 47.3499C201.42 48.3899 202.04 49.8099 202.04 51.3599C202.04 54.5599 199.45 57.1499 196.26 57.1499H185.22V36.9399ZM185.22 57.1499H174.18C173.045 57.149 171.936 56.8143 170.99 56.1877C170.044 55.561 169.303 54.6699 168.86 53.6254C168.416 52.5809 168.29 51.429 168.496 50.3132C168.702 49.1974 169.232 48.1669 170.02 47.3499C171.02 46.3099 172.4 45.6499 173.94 45.5799C174.262 44.783 174.815 44.1003 175.528 43.6193C176.24 43.1383 177.08 42.8809 177.94 42.8799H178.07C178.7 39.4999 181.66 36.9399 185.22 36.9399" fill="white"/>
<path d="M185.22 57.1499H174.18C173.045 57.149 171.936 56.8143 170.99 56.1877C170.044 55.561 169.303 54.6699 168.86 53.6254C168.416 52.5809 168.29 51.429 168.496 50.3132C168.702 49.1974 169.232 48.1669 170.02 47.3499C171.02 46.3099 172.4 45.6499 173.94 45.5799C174.262 44.783 174.815 44.1003 175.528 43.6193C176.24 43.1383 177.08 42.8809 177.94 42.8799H178.07C178.7 39.4999 181.66 36.9399 185.22 36.9399M185.22 36.9399C188.78 36.9399 191.74 39.4999 192.37 42.8799H192.5C193.36 42.8809 194.2 43.1383 194.912 43.6193C195.625 44.1003 196.178 44.783 196.5 45.5799C198.04 45.6499 199.42 46.3099 200.42 47.3499C201.42 48.3899 202.04 49.8099 202.04 51.3599C202.04 54.5599 199.45 57.1499 196.26 57.1499H185.22V36.9399Z" stroke="#404041" stroke-width="2" stroke-miterlimit="10"/>
</svg>
