<svg width="928" height="927" viewBox="0 0 928 927" fill="none" xmlns="http://www.w3.org/2000/svg">
<g clip-path="url(#clip0_2309_215)">
<g opacity="0.9">
<path d="M791.843 791.006C870.657 712.277 787.764 501.828 606.696 320.956C425.629 140.083 214.953 57.2797 136.139 136.009C57.325 214.738 140.218 425.187 321.285 606.059C502.353 786.932 713.029 869.735 791.843 791.006Z" stroke="#D0DEFF" stroke-miterlimit="10"/>
<path d="M749.592 833.189C828.406 754.46 745.513 544.011 564.445 363.139C383.378 182.266 172.702 99.4628 93.8881 178.192C15.074 256.921 97.9669 467.37 279.034 648.242C460.102 829.115 670.778 911.918 749.592 833.189Z" stroke="#D0DEFF" stroke-miterlimit="10"/>
<path d="M812.968 769.915C891.782 691.186 808.889 480.737 627.821 299.864C446.754 118.992 236.078 36.1885 157.264 114.918C78.45 193.647 161.343 404.095 342.41 584.968C523.478 765.84 734.154 848.644 812.968 769.915Z" stroke="#D0DEFF" stroke-miterlimit="10"/>
<path d="M855.253 727.697C934.067 648.968 851.174 438.52 670.107 257.647C489.039 76.7747 278.363 -6.02887 199.549 72.7003C120.735 151.429 203.628 361.878 384.696 542.751C565.763 723.623 776.439 806.426 855.253 727.697Z" stroke="#D0DEFF" stroke-miterlimit="10"/>
<path d="M876.378 706.606C955.192 627.877 872.3 417.428 691.232 236.556C510.164 55.6831 299.489 -27.1204 220.675 51.6087C141.861 130.338 224.754 340.786 405.821 521.659C586.889 702.531 797.564 785.335 876.378 706.606Z" stroke="#D0DEFF" stroke-miterlimit="10"/>
<path d="M834.093 748.823C912.907 670.094 830.014 459.646 648.947 278.773C467.879 97.9007 257.204 15.0971 178.39 93.8263C99.5755 172.555 182.468 383.004 363.536 563.876C544.604 744.749 755.279 827.552 834.093 748.823Z" stroke="#D0DEFF" stroke-miterlimit="10"/>
<path d="M770.717 812.097C849.531 733.368 766.639 522.92 585.571 342.047C404.503 161.175 193.828 78.3713 115.014 157.1C36.1995 235.83 119.092 446.278 300.16 627.151C481.228 808.023 691.903 890.827 770.717 812.097Z" stroke="#D0DEFF" stroke-miterlimit="10"/>
<path d="M686.216 896.533C765.03 817.803 682.137 607.355 501.069 426.482C320.002 245.61 109.326 162.806 30.5121 241.535C-48.3019 320.265 34.5909 530.713 215.659 711.586C396.726 892.458 607.402 975.262 686.216 896.533Z" stroke="#D0DEFF" stroke-miterlimit="10"/>
<path d="M728.501 854.315C807.315 775.586 724.422 565.137 543.355 384.265C362.287 203.392 151.611 120.589 72.7973 199.318C-6.01678 278.047 76.8761 488.495 257.944 669.368C439.011 850.24 649.687 933.044 728.501 854.315Z" stroke="#D0DEFF" stroke-miterlimit="10"/>
<path d="M707.376 875.406C786.19 796.677 703.297 586.229 522.23 405.356C341.162 224.484 130.486 141.68 51.6723 220.409C-27.1418 299.138 55.7511 509.587 236.819 690.46C417.886 871.332 628.562 954.136 707.376 875.406Z" stroke="#D0DEFF" stroke-miterlimit="10"/>
<path d="M897.469 685.48C976.283 606.75 893.39 396.302 712.323 215.429C531.255 34.5569 320.58 -48.2466 241.766 30.4825C162.951 109.212 245.844 319.66 426.912 500.533C607.98 681.405 818.655 764.209 897.469 685.48Z" stroke="#D0DEFF" stroke-miterlimit="10"/>
</g>
</g>
<defs>
<clipPath id="clip0_2309_215">
<rect width="928" height="927" fill="white"/>
</clipPath>
</defs>
</svg>
