<svg width="601" height="519" viewBox="0 0 601 519" fill="none" xmlns="http://www.w3.org/2000/svg">
<g clip-path="url(#clip0_2308_118)">
<path d="M0.496826 14.8124V13.819H303.5C313.685 13.819 324.118 13.6699 334.203 13.4712C372.308 12.8752 411.655 12.2294 449.363 20.3261C455.921 21.7666 462.578 23.4555 469.633 25.2437C493.38 31.3037 517.972 37.5625 541.024 33.39C551.109 31.5521 560.499 27.777 569.59 24.1012C581.116 19.432 593.04 14.6137 606.503 13.819L606.553 14.8124C593.238 15.6072 581.414 20.3757 569.988 24.9953C560.896 28.6711 551.457 32.4959 541.223 34.3338C517.922 38.5559 493.231 32.2475 469.384 26.1875C462.379 24.3992 455.722 22.7104 449.164 21.3195C411.605 13.2229 372.308 13.8686 334.252 14.4647C324.167 14.6137 313.734 14.8124 303.5 14.8124H0.496826V14.8124Z" fill="#D0DEFF"/>
<path d="M0.496826 43.6723V42.6788H370.122C373.798 42.6788 377.524 42.6291 381.101 42.5795C389.199 42.4801 397.595 42.3808 405.743 42.7781C421.79 43.5729 437.588 48.2421 452.89 52.7624L453.288 52.8617C459.796 54.7989 466.403 56.8355 472.812 58.8224C483.344 62.1008 494.175 65.4289 505.005 68.3596C506.049 68.6576 507.042 68.906 508.086 69.204C522.294 73.0785 538.391 77.4497 552.401 72.9295C560.648 70.2471 566.759 64.8328 573.267 59.0211L574.558 57.8786C583.6 49.8317 592.493 44.2187 606.453 42.7285L606.553 43.7219C592.841 45.1624 584.097 50.7258 575.204 58.6237L573.913 59.7662C567.653 65.3295 561.145 71.1412 552.699 73.8732C538.44 78.4928 522.145 74.0719 507.837 70.1975C506.794 69.8994 505.751 69.6511 504.757 69.353C493.926 66.472 483.046 63.0943 472.514 59.8159C466.155 57.829 459.547 55.7924 453.039 53.9048L452.642 53.8055C437.39 49.3349 421.691 44.6657 405.743 43.8709C397.595 43.4736 389.249 43.5729 381.151 43.6723C377.524 43.7219 373.798 43.7716 370.122 43.7716H0.496826V43.6723Z" fill="#D0DEFF"/>
<path d="M0.496826 72.5321V71.5387C67.7149 72.0851 136.076 71.8864 202.201 71.7374C235.388 71.638 269.717 71.5387 303.45 71.5387H370.122C373.798 71.5387 377.524 71.489 381.101 71.4393C389.199 71.34 397.595 71.2406 405.743 71.638C421.79 72.4328 437.588 77.102 452.84 81.5725L453.238 81.6719C459.746 83.5595 466.304 85.596 472.713 87.5829C483.195 90.8117 494.076 94.1894 504.856 97.0704C505.85 97.3188 506.893 97.6168 507.936 97.9149C522.145 101.74 538.242 106.111 552.252 101.591C560.499 98.958 566.659 93.494 573.217 87.7816L574.509 86.6392C583.6 78.6419 592.543 73.0288 606.503 71.5883L606.603 72.5818C592.891 74.0223 584.147 79.536 575.155 87.3842L573.863 88.5267C567.553 94.0901 561.045 99.8521 552.55 102.534C538.242 107.104 521.996 102.733 507.688 98.8586C506.645 98.5606 505.601 98.3122 504.608 98.0142C493.827 95.1332 482.947 91.7554 472.464 88.5267C466.105 86.5398 459.498 84.5529 453.039 82.6157L452.642 82.5163C437.439 78.0458 421.691 73.4262 405.793 72.6315C397.645 72.2341 389.299 72.3334 381.201 72.4328C377.574 72.4824 373.848 72.5321 370.172 72.5321H303.5C269.767 72.5321 235.437 72.6315 202.251 72.7308C136.125 72.8798 67.7149 73.0785 0.496826 72.5321Z" fill="#D0DEFF"/>
<path d="M0.496826 100.349C14.8546 100.2 29.3614 98.8089 43.3714 97.4181C54.3508 96.3253 65.7277 95.2325 76.9556 94.7357C99.9578 93.7423 123.308 95.5802 145.913 97.3187C151.079 97.7161 156.395 98.1631 161.612 98.5109C197.282 101.094 233.748 100.796 269.022 100.498C280.299 100.398 291.974 100.299 303.45 100.299C313.685 100.299 324.167 100.15 334.302 99.9514C372.308 99.3553 411.605 98.7095 449.214 106.707C455.772 108.098 462.379 109.787 469.384 111.525C493.082 117.486 517.575 123.645 540.676 119.522C550.811 117.734 560.25 114.009 569.392 110.383C580.967 105.813 592.99 101.044 606.453 100.249L606.503 101.243C593.189 102.038 581.265 106.707 569.739 111.277C560.548 114.903 551.059 118.678 540.825 120.466C517.525 124.589 492.933 118.43 469.136 112.419C462.131 110.681 455.573 108.992 449.015 107.601C411.506 99.8023 372.308 100.448 334.352 101.044C324.217 101.193 313.734 101.392 303.5 101.392C292.024 101.392 280.349 101.491 269.071 101.591C233.798 101.889 197.282 102.187 161.562 99.6037C156.345 99.2063 150.98 98.8089 145.813 98.4115C123.258 96.6233 99.9578 94.8351 77.0052 95.8285C65.7774 96.3253 54.4502 97.4181 43.4707 98.5109C29.4607 99.9017 14.9043 101.293 0.496826 101.442V100.349Z" fill="#D0DEFF"/>
<path d="M0.496826 129.209C13.2648 128.712 25.7347 125.98 37.8071 123.347C47.2961 121.261 57.1329 119.125 67.0691 118.082C90.1707 115.598 114.117 119.125 137.218 122.503C144.124 123.496 151.228 124.539 158.134 125.434C196.09 130.103 235.04 129.755 272.748 129.407C282.833 129.308 293.266 129.209 303.5 129.209C315.871 129.209 328.489 129.06 340.711 128.861C374.792 128.414 410.016 127.917 444.295 131.096C448.021 131.444 451.747 131.792 455.424 132.139C478.824 134.375 503.018 136.709 527.064 135.716C538.739 135.219 550.463 133.878 561.84 132.537C576.397 130.848 591.45 129.06 606.503 129.159V130.152C591.5 130.053 576.496 131.792 561.989 133.53C550.612 134.871 538.838 136.262 527.113 136.709C503.018 137.703 478.774 135.368 455.324 133.083C451.598 132.735 447.922 132.388 444.196 132.04C409.966 128.861 374.792 129.358 340.711 129.805C328.489 129.954 315.871 130.152 303.5 130.152C293.266 130.152 282.833 130.252 272.748 130.351C235.04 130.699 196.04 131.096 157.985 126.377C151.079 125.533 143.925 124.49 137.069 123.447C114.017 120.069 90.1707 116.542 67.1684 119.026C57.282 120.069 47.4949 122.205 38.0058 124.291C25.8837 126.924 13.3642 129.656 0.496826 130.152V129.209Z" fill="#D0DEFF"/>
<path d="M0.496826 158.068C12.7183 157.621 23.9958 154.144 34.9256 150.816C43.5701 148.134 52.5623 145.402 61.952 144.16C85.6497 140.981 110.49 145.452 134.536 149.773C141.839 151.065 149.39 152.455 156.644 153.548C194.898 159.261 234.295 158.814 272.45 158.366C282.634 158.267 293.117 158.118 303.45 158.118H606.453V159.112H303.5C293.166 159.112 282.684 159.211 272.499 159.36C234.344 159.807 194.848 160.254 156.544 154.542C149.291 153.449 141.739 152.108 134.387 150.767C110.44 146.445 85.6497 141.974 62.101 145.154C52.761 146.395 43.8682 149.127 35.2237 151.81C24.2442 155.187 12.8673 158.665 0.496826 159.112V158.068Z" fill="#D0DEFF"/>
<path d="M0.496826 186.928C13.2648 186.431 25.7843 183.749 37.8568 181.116C47.3458 179.08 57.1826 176.944 67.1684 175.901C90.27 173.467 114.166 176.944 137.268 180.322C144.124 181.315 151.278 182.358 158.134 183.203C196.04 187.872 235.04 187.475 272.698 187.127C282.783 187.028 293.216 186.928 303.5 186.928H606.503V187.922H303.5C293.266 187.922 282.833 188.021 272.748 188.12C235.04 188.468 196.04 188.865 158.084 184.196C151.179 183.352 144.074 182.309 137.169 181.315C114.117 177.937 90.27 174.46 67.3175 176.894C57.431 177.937 47.5942 180.073 38.1052 182.11C25.9334 184.693 13.4138 187.425 0.496826 187.922V186.928Z" fill="#D0DEFF"/>
<path d="M0.496826 215.788C14.9043 215.639 29.411 214.248 43.421 212.907C54.4502 211.864 65.8271 210.771 77.0549 210.274C100.107 209.281 123.457 211.119 146.012 212.857C151.129 213.255 156.445 213.652 161.661 214.049C197.282 216.583 233.748 216.285 268.972 215.987C280.299 215.887 291.974 215.788 303.45 215.788H606.453V216.781H303.5C292.024 216.781 280.349 216.881 269.022 216.98C233.748 217.278 197.282 217.576 161.612 215.043C156.395 214.695 151.129 214.248 145.962 213.851C123.407 212.112 100.107 210.274 77.1046 211.268C65.8768 211.764 54.4999 212.857 43.5204 213.9C29.4607 215.242 14.9539 216.632 0.496826 216.781V215.788Z" fill="#D0DEFF"/>
<path d="M0.496826 245.641V244.648C67.7149 245.194 136.076 244.996 202.201 244.797C235.388 244.698 269.717 244.598 303.45 244.598H606.453V245.592H303.5C269.767 245.592 235.437 245.691 202.251 245.79C136.125 245.989 67.7149 246.188 0.496826 245.641Z" fill="#D0DEFF"/>
<path d="M606.453 273.458H0.496826V274.451H606.453V273.458Z" fill="#D0DEFF"/>
<path d="M606.453 302.318H0.496826V303.311H606.453V302.318Z" fill="#D0DEFF"/>
<path d="M606.453 331.178H0.496826V332.171H606.453V331.178Z" fill="#D0DEFF"/>
<path d="M606.453 360.037H0.496826V361.031H606.453V360.037Z" fill="#D0DEFF"/>
<path d="M0.496826 389.891V388.897H164.791C169.759 388.897 174.777 388.947 179.646 388.947C197.978 389.046 216.906 389.195 235.487 387.556C239.71 387.159 244.032 386.761 248.156 386.364C264.352 384.824 281.094 383.235 297.836 383.235C316.417 383.235 335.196 384.774 353.33 386.265C358.397 386.662 363.663 387.109 368.83 387.506C388.802 388.997 409.121 388.947 428.795 388.848C433.266 388.848 437.737 388.798 442.209 388.798H606.503V389.791H442.209C437.737 389.791 433.266 389.791 428.795 389.841C409.121 389.94 388.752 389.99 368.731 388.5C363.564 388.103 358.298 387.656 353.23 387.258C335.097 385.768 316.367 384.228 297.836 384.228C281.193 384.228 264.451 385.818 248.255 387.357C244.082 387.755 239.809 388.152 235.586 388.55C217.006 390.189 198.028 390.04 179.695 389.94C174.827 389.891 169.759 389.891 164.841 389.891H0.496826Z" fill="#D0DEFF"/>
<path d="M0.496826 418.751V417.757H164.791C168.617 417.757 172.442 417.807 176.218 417.857C194.699 418.055 213.776 418.304 232.009 413.088C236.183 411.896 240.356 410.604 244.38 409.313C258.29 404.942 271.456 400.769 286.261 400.719C305.785 400.67 325.509 404.842 344.536 408.866C351.392 410.306 358.497 411.846 365.452 413.088C391.087 417.757 415.928 417.757 442.209 417.757H606.503V418.751H442.209C415.878 418.751 391.038 418.751 365.303 414.032C358.348 412.74 351.243 411.25 344.338 409.81C325.36 405.786 305.686 401.614 286.261 401.713C271.605 401.763 258.539 405.885 244.678 410.257C240.654 411.548 236.481 412.84 232.258 414.032C213.926 419.297 194.749 419.049 176.168 418.85C172.442 418.8 168.567 418.751 164.791 418.751H0.496826V418.751Z" fill="#D0DEFF"/>
<path d="M0.496826 447.61V446.617H164.791C168.766 446.617 172.84 446.716 176.814 446.816C194.649 447.263 213.031 447.71 229.128 439.265C232.804 437.328 236.282 435.292 239.71 433.255C251.186 426.5 262.017 420.092 276.523 419.992C297.538 419.794 318.901 426.301 339.568 432.56C347.567 434.994 355.118 437.279 362.719 439.216C389.348 446.071 414.437 446.617 442.159 446.617H606.453V447.61H442.209C414.437 447.61 389.249 447.064 362.521 440.209C354.92 438.272 346.971 435.838 339.32 433.553C318.752 427.294 297.439 420.837 276.573 421.036C262.315 421.185 251.633 427.493 240.256 434.149C236.828 436.186 233.301 438.272 229.625 440.16C213.28 448.753 194.749 448.256 176.814 447.809C172.84 447.71 168.766 447.61 164.791 447.61H0.496826V447.61Z" fill="#D0DEFF"/>
<path d="M0.496826 476.47V475.477H164.791C168.766 475.477 172.889 475.576 176.864 475.675C194.649 476.122 213.081 476.619 229.128 468.075C232.755 466.138 236.282 464.052 239.66 462.015C251.087 455.21 261.867 448.802 276.374 448.653C297.439 448.455 318.802 454.962 339.519 461.27C347.517 463.704 355.118 466.039 362.719 467.976C389.348 474.831 414.487 475.377 442.209 475.377H606.503V476.371H442.209C414.437 476.371 389.249 475.824 362.471 468.92C354.87 466.983 346.921 464.549 339.27 462.214C318.653 455.955 297.34 449.448 276.424 449.597C262.166 449.746 251.484 456.055 240.207 462.81C236.779 464.847 233.251 466.933 229.625 468.87C213.329 477.513 194.798 477.016 176.864 476.569C172.889 476.47 168.815 476.371 164.841 476.371H0.496826V476.47Z" fill="#D0DEFF"/>
<path d="M0.496826 505.28V504.287H164.791C168.617 504.287 172.442 504.337 176.218 504.386C194.649 504.585 213.727 504.833 231.91 499.568C236.083 498.376 240.207 497.035 244.231 495.743C258.092 491.273 271.207 487.051 285.963 487.001C305.537 486.951 325.26 491.173 344.387 495.247C351.293 496.737 358.447 498.277 365.402 499.518C391.187 504.287 415.977 504.287 442.209 504.287H606.503V505.28H442.209C415.928 505.28 391.087 505.28 365.204 500.512C358.248 499.22 351.094 497.681 344.189 496.19C325.161 492.117 305.438 487.895 286.012 487.945C271.406 487.994 258.39 492.167 244.579 496.637C240.554 497.929 236.381 499.27 232.208 500.462C213.876 505.777 194.749 505.579 176.218 505.33C172.492 505.28 168.617 505.231 164.841 505.231H0.496826V505.28Z" fill="#D0DEFF"/>
<path d="M23.8965 147.14C23.8965 137.653 24.1946 128.165 25.0391 118.678C29.0633 71.4393 28.9639 23.4555 28.9142 -22.9388C28.9142 -29.7439 28.9142 -36.5491 28.9142 -43.4039H29.9079C29.9079 -36.5988 29.9079 -29.7439 29.9079 -22.9388C30.0072 23.5052 30.0569 71.4889 26.0328 118.777C23.6481 146.942 25.536 175.255 27.3741 202.625C28.6162 221.252 29.9575 240.475 29.8582 259.55C29.6595 327.8 29.7091 397.143 29.7588 464.251C29.8085 496.439 29.8085 529.719 29.8085 562.454H28.8149C28.8149 529.719 28.7652 496.439 28.7652 464.251C28.7155 397.143 28.6658 327.75 28.8646 259.55C28.9142 240.475 27.6225 221.302 26.3805 202.674C25.1385 184.494 23.8965 165.867 23.8965 147.14Z" fill="#D0DEFF"/>
<path d="M42.328 150.27C42.328 138.001 43.7687 126.328 46.6502 114.555C52.91 89.0234 57.6794 67.5648 57.6794 43.0762V-43.4039H58.673V43.0762C58.673 67.7138 53.854 89.2221 47.5942 114.804C42.0796 137.305 41.8809 159.36 46.9483 186.282C48.091 192.293 49.333 198.353 50.575 204.264C54.3508 222.245 58.2259 240.823 58.6233 259.55C60.0144 326.955 59.5672 395.653 59.1201 462.015C58.8717 494.948 58.673 529.024 58.673 562.503H57.6794C57.6794 529.024 57.9278 494.948 58.1265 462.015C58.5736 395.603 59.0704 326.955 57.6297 259.55C57.2322 240.922 53.3571 222.395 49.5814 204.463C48.3394 198.552 47.0477 192.492 45.9547 186.481C43.57 173.517 42.328 161.645 42.328 150.27Z" fill="#D0DEFF"/>
<path d="M62.5978 145.75C62.5978 134.524 64.585 123.248 69.5034 111.128C71.0435 107.353 72.7327 103.577 74.3721 99.9017C77.2039 93.5933 80.1351 87.0365 82.3211 80.3307C86.1962 68.2602 86.5439 56.7858 86.5439 43.0762V-43.4039H87.5375V43.0762C87.5375 56.8852 87.2395 68.4589 83.265 80.6784C81.079 87.4339 78.1479 93.9907 75.2664 100.349C73.6269 103.975 71.9378 107.75 70.3977 111.525C60.2628 136.51 62.6475 158.068 69.404 182.706C71.1429 189.114 73.1798 195.621 75.1173 201.929C80.8306 220.557 86.7426 239.83 87.4382 259.5C88.5312 290.446 88.1834 322.038 87.8356 352.537C87.6866 367.538 87.4879 382.986 87.4879 398.186V562.503H86.4942V398.236C86.4942 383.036 86.6433 367.538 86.842 352.537C87.1898 321.988 87.5375 290.446 86.4446 259.5C85.749 239.929 79.8867 220.755 74.1734 202.178C72.2359 195.869 70.2486 189.362 68.4601 182.905C64.9825 170.04 62.5978 157.969 62.5978 145.75Z" fill="#D0DEFF"/>
<path d="M91.6115 145.849C91.6115 134.623 93.5987 123.347 98.4674 111.227C100.008 107.452 101.697 103.677 103.336 100.001C106.168 93.6926 109.099 87.1358 111.235 80.3804C115.11 68.3099 115.409 56.8355 115.409 43.0762V-43.4039H116.402V43.0762C116.402 56.8852 116.104 68.4589 112.179 80.6784C109.993 87.4339 107.062 94.0403 104.23 100.398C102.591 104.074 100.902 107.849 99.4113 111.575C89.3261 136.61 91.7108 158.118 98.4674 182.756C100.206 189.164 102.193 195.671 104.131 201.979C109.844 220.606 115.707 239.83 116.402 259.5C117.495 290.446 117.147 322.038 116.8 352.587C116.651 367.588 116.452 383.036 116.452 398.236V562.503H115.458V398.236C115.458 383.036 115.607 367.538 115.806 352.587C116.154 322.038 116.502 290.496 115.409 259.55C114.713 240.028 108.851 220.855 103.187 202.277C101.25 195.969 99.2623 189.462 97.5235 183.054C93.9465 170.089 91.6115 158.019 91.6115 145.849Z" fill="#D0DEFF"/>
<path d="M129.12 150.419C129.12 138.15 130.561 126.477 133.393 114.654C139.553 89.1227 144.273 67.6145 144.273 43.0762V-43.4039H145.267V43.0762C145.267 67.7635 140.547 89.3214 134.337 114.903C128.872 137.454 128.673 159.509 133.691 186.382C134.784 192.343 136.076 198.403 137.268 204.314C140.994 222.295 144.819 240.823 145.217 259.55C146.608 326.955 146.111 395.603 145.714 462.015C145.515 494.948 145.267 529.024 145.267 562.503H144.273C144.273 529.024 144.521 494.948 144.72 462.015C145.167 395.653 145.614 327.005 144.223 259.599C143.826 241.022 140 222.494 136.324 204.562C135.132 198.701 133.84 192.591 132.747 186.63C130.362 173.616 129.12 161.744 129.12 150.419Z" fill="#D0DEFF"/>
<path d="M168.368 147.14C168.368 137.703 168.666 128.215 169.461 118.777C173.336 71.5883 173.237 23.6542 173.187 -22.6904C173.187 -29.5949 173.187 -36.4497 173.187 -43.3542H174.181C174.181 -36.4497 174.181 -29.5949 174.181 -22.6904C174.28 23.7039 174.33 71.638 170.455 118.877C168.12 146.991 170.008 175.255 171.747 202.575C172.939 221.202 174.231 240.475 174.131 259.599C173.933 327.75 173.982 396.994 174.032 464.002C174.082 496.29 174.082 529.67 174.082 562.503H173.088C173.088 529.67 173.038 496.29 173.038 464.002C172.989 396.994 172.889 327.701 173.138 259.599C173.187 240.525 171.945 221.252 170.753 202.675C169.561 184.445 168.368 165.867 168.368 147.14Z" fill="#D0DEFF"/>
<path d="M202.002 562.503C202.052 427.841 202.052 290.992 202.002 158.565C202.002 91.2587 202.002 23.9025 202.002 -43.4039H202.996C202.996 23.9025 202.996 91.2587 202.996 158.565C202.996 290.943 203.045 427.841 202.996 562.503H202.002Z" fill="#D0DEFF"/>
<path d="M225.054 460.476C225.054 439.861 226.992 419.794 229.028 398.683L229.227 396.597C232.357 363.912 231.811 330.184 231.264 297.549C231.065 285.081 230.867 272.167 230.867 259.599V-43.4039H231.86V259.55C231.86 272.117 232.059 285.032 232.258 297.5C232.804 330.184 233.351 363.912 230.221 396.646L230.022 398.732C227.687 423.171 225.451 446.269 226.197 470.41C226.644 483.722 227.786 497.233 228.929 510.297C230.419 527.385 231.96 545.019 231.86 562.503H230.867C230.966 545.068 229.426 527.434 227.935 510.397C226.793 497.333 225.6 483.822 225.203 470.46C225.104 467.132 225.054 463.804 225.054 460.476Z" fill="#D0DEFF"/>
<path d="M242.641 448.554C242.641 430.324 247.559 414.33 253.124 396.299C253.521 395.106 253.869 393.865 254.266 392.623C260.029 373.747 259.93 354.971 259.781 335.102C259.781 332.121 259.731 329.091 259.731 326.111V-43.4039H260.725V326.161C260.725 329.141 260.725 332.171 260.774 335.151C260.924 355.07 261.073 373.946 255.21 392.97C254.813 394.212 254.465 395.404 254.068 396.646C247.46 418.204 241.697 436.831 244.28 459.78C245.92 474.632 249 489.534 251.931 503.939C255.806 522.964 259.831 542.634 260.725 562.503L259.731 562.553C258.837 542.783 254.862 523.163 250.987 504.138C248.056 489.733 244.976 474.781 243.337 459.88C242.84 456.005 242.641 452.23 242.641 448.554Z" fill="#D0DEFF"/>
<path d="M262.066 438.769C262.066 421.284 269.121 408.766 278.312 392.573C278.908 391.58 279.454 390.537 280.051 389.493C289.341 372.952 289.043 355.219 288.695 336.443C288.645 333.065 288.546 329.588 288.546 326.161V-43.4039H289.54V326.161C289.54 329.588 289.589 333.065 289.689 336.443C290.036 354.524 290.335 373.201 280.895 389.99C280.299 391.033 279.703 392.076 279.156 393.07C268.078 412.591 260.129 426.748 264.103 450.789C266.786 466.933 271.406 482.977 275.828 498.475C281.789 519.139 287.9 540.498 289.54 562.454L288.546 562.553C286.907 540.697 280.796 519.387 274.884 498.773C270.413 483.226 265.792 467.181 263.109 450.988C262.364 446.617 262.066 442.593 262.066 438.769Z" fill="#D0DEFF"/>
<path d="M290.931 438.769C290.931 421.284 297.985 408.766 307.176 392.573C307.773 391.58 308.319 390.537 308.915 389.493C318.206 372.952 317.907 355.219 317.56 336.443C317.51 333.065 317.411 329.588 317.411 326.161V-43.4039H318.404V326.161C318.404 329.588 318.454 333.065 318.553 336.443C318.901 354.524 319.199 373.201 309.76 389.99C309.164 391.033 308.567 392.076 308.021 393.07C296.942 412.591 288.993 426.748 292.968 450.789C295.65 466.933 300.271 482.977 304.692 498.475C310.654 519.139 316.765 540.498 318.404 562.454L317.411 562.553C315.771 540.697 309.66 519.387 303.748 498.773C299.277 483.226 294.657 467.181 291.974 450.988C291.229 446.617 290.931 442.593 290.931 438.769Z" fill="#D0DEFF"/>
<path d="M329.235 448.554C329.235 430.324 334.153 414.33 339.717 396.299C340.115 395.106 340.463 393.865 340.86 392.623C346.623 373.747 346.524 354.971 346.375 335.102C346.375 332.121 346.325 329.091 346.325 326.111V-43.4039H347.318V326.161C347.318 329.191 347.318 332.171 347.368 335.151C347.517 355.07 347.666 373.946 341.804 392.97C341.406 394.212 341.059 395.404 340.661 396.646C334.054 418.204 328.291 436.831 330.874 459.78C332.514 474.632 335.594 489.534 338.525 503.939C342.4 522.964 346.424 542.634 347.318 562.503L346.325 562.553C345.431 542.783 341.456 523.163 337.581 504.138C334.65 489.733 331.57 474.781 329.93 459.88C329.433 456.005 329.235 452.23 329.235 448.554Z" fill="#D0DEFF"/>
<path d="M369.327 460.476C369.327 439.861 371.265 419.794 373.302 398.683L373.5 396.597C376.63 363.912 376.084 330.184 375.537 297.549C375.338 285.081 375.14 272.167 375.14 259.599V-43.4039H376.133V259.55C376.133 272.117 376.332 285.032 376.531 297.5C377.077 330.135 377.624 363.912 374.494 396.646L374.295 398.732C371.96 423.171 369.725 446.269 370.47 470.41C370.917 483.722 372.06 497.233 373.202 510.297C374.693 527.385 376.233 545.019 376.133 562.503H375.14C375.239 545.068 373.699 527.434 372.209 510.397C371.066 497.333 369.874 483.822 369.476 470.46C369.377 467.132 369.327 463.754 369.327 460.476Z" fill="#D0DEFF"/>
<path d="M404.004 -43.4039H404.998C404.998 24.0019 404.998 91.4077 404.998 158.764C404.998 291.092 405.048 427.89 404.998 562.454H404.004C404.054 427.89 404.054 291.092 404.004 158.764C404.004 91.4077 404.004 24.0019 404.004 -43.4039Z" fill="#D0DEFF"/>
<path d="M431.776 183.401C431.776 163.036 432.471 142.62 434.856 122.701L435.104 120.516C438.036 96.4246 440.818 73.6249 439.874 49.633C439.327 36.1717 437.887 22.5614 436.446 9.39812C434.558 -7.8383 432.67 -25.7205 432.819 -43.4039H433.813C433.664 -25.7701 435.601 -7.93764 437.439 9.29877C438.88 22.462 440.321 36.122 440.867 49.5833C441.811 73.6745 439.029 96.4743 436.098 120.665L435.85 122.85C431.925 155.237 432.62 189.014 433.316 221.699C433.564 234.167 433.862 247.032 433.862 259.599V562.503H432.869V259.55C432.869 247.032 432.62 234.167 432.322 221.699C432.024 209.033 431.776 196.217 431.776 183.401Z" fill="#D0DEFF"/>
<path d="M461.535 173.815C461.535 157.77 462.429 142.422 468.639 127.122C469.186 125.731 469.732 124.39 470.278 123.049C478.525 102.932 485.63 85.596 482.401 62.3988C480.264 47.0997 476.439 31.8005 472.763 17.0477C467.844 -2.52332 462.777 -22.7401 461.634 -43.3543L462.628 -43.4039C463.77 -22.8891 468.838 -2.72201 473.706 16.7993C477.433 31.6018 481.258 46.901 483.345 62.2498C486.574 85.6953 479.42 103.18 471.123 123.397C470.577 124.738 470.03 126.079 469.484 127.47C462.131 145.601 462.33 163.93 462.528 183.352C462.578 186.481 462.578 189.71 462.578 192.889V562.454H461.584V192.939C461.584 189.76 461.535 186.531 461.535 183.401C461.584 180.173 461.535 176.994 461.535 173.815Z" fill="#D0DEFF"/>
<path d="M490.2 172.126C490.2 157.572 491.741 143.067 501.577 130.699C503.714 128.016 506.049 125.433 508.334 122.95C512.259 118.678 516.283 114.307 519.264 109.19C526.418 96.9214 525.275 84.6522 522.94 73.2275C519.512 56.3388 513.699 39.7481 508.086 23.6542C500.534 2.14591 492.784 -20.1074 490.598 -43.3046L491.591 -43.4039C493.728 -20.3061 501.528 1.84787 509.029 23.3065C514.643 39.4004 520.506 56.0408 523.934 72.9791C526.318 84.6025 527.461 97.12 520.158 109.687C517.127 114.903 513.054 119.324 509.129 123.645C506.893 126.129 504.508 128.662 502.422 131.345C490.548 146.346 490.995 163.88 491.442 182.408C491.542 185.885 491.641 189.462 491.641 192.939V562.503H490.648V192.939C490.648 189.412 490.548 185.885 490.449 182.408C490.3 178.981 490.2 175.553 490.2 172.126Z" fill="#D0DEFF"/>
<path d="M519.065 172.076C519.065 157.522 520.655 143.067 530.492 130.748C532.628 128.066 535.013 125.533 537.298 123.049C541.223 118.827 545.296 114.456 548.277 109.34C555.481 97.1201 554.289 84.8509 551.954 73.3765C548.526 56.4878 542.663 39.8475 537 23.7535C529.399 2.19558 521.599 -20.0578 519.413 -43.3046L520.406 -43.4039C522.543 -20.3061 530.392 1.94722 537.944 23.4058C543.607 39.4998 549.47 56.1898 552.947 73.1778C555.332 84.8509 556.524 97.3187 549.122 109.836C546.042 115.052 541.968 119.473 537.993 123.745C535.708 126.179 533.373 128.712 531.237 131.394C519.264 146.346 519.711 163.83 520.208 182.408C520.307 185.885 520.406 189.462 520.406 192.988V562.553H519.413V192.939C519.413 189.412 519.313 185.835 519.214 182.358C519.115 178.981 519.065 175.504 519.065 172.076Z" fill="#D0DEFF"/>
<path d="M548.128 173.815C548.128 157.82 549.022 142.471 555.332 127.222C555.878 125.831 556.475 124.49 557.021 123.149C572.571 85.9437 571.081 75.1647 569.342 62.6969C567.206 47.348 563.331 32.0489 559.555 17.2464C554.587 -2.3743 549.42 -22.6408 548.228 -43.3543L549.221 -43.4039C550.414 -22.7898 555.531 -2.57299 560.499 16.998C564.274 31.8005 568.15 47.1493 570.286 62.5975C573.565 86.0927 566.311 103.428 557.915 123.546C557.369 124.887 556.773 126.228 556.226 127.619C548.724 145.65 548.923 163.979 549.172 183.401C549.221 186.531 549.221 189.76 549.221 192.988V562.553H548.228V192.939C548.228 189.76 548.178 186.531 548.178 183.401C548.178 180.173 548.128 176.944 548.128 173.815Z" fill="#D0DEFF"/>
<path d="M576.049 183.6C576.049 163.185 576.744 142.72 579.278 122.751L579.576 120.417C582.607 96.4246 585.488 73.7739 584.495 49.8813C583.948 36.3704 582.408 22.7104 580.918 9.54714C578.98 -7.73895 576.993 -25.6211 577.142 -43.4039H578.135C577.986 -25.6708 579.974 -7.8383 581.911 9.44779C583.402 22.6607 584.892 36.3207 585.488 49.8813C586.482 73.8732 583.6 96.5736 580.57 120.566L580.272 122.9C576.198 155.287 576.893 189.114 577.589 221.798C577.837 234.217 578.135 247.082 578.135 259.55V562.503H577.142V259.55C577.142 247.082 576.844 234.217 576.595 221.798C576.297 209.231 576.049 196.416 576.049 183.6Z" fill="#D0DEFF"/>
</g>
<defs>
<clipPath id="clip0_2308_118">
<rect width="601" height="519" fill="white"/>
</clipPath>
</defs>
</svg>
