<svg width="605" height="288" viewBox="0 0 605 288" fill="none" xmlns="http://www.w3.org/2000/svg">
<g clip-path="url(#clip0_2309_229)">
<path d="M0 29.3564V28.3629H303.003C315.274 28.3629 327.844 28.1642 340.015 28.0152C374.196 27.5185 409.519 27.0714 443.898 30.3498C447.773 30.6975 451.598 31.0949 455.474 31.4923C478.824 33.8269 502.919 36.2112 526.865 35.1681C538.49 34.6714 550.215 33.2309 561.542 31.84C576.049 30.0518 591.052 28.2139 606.056 28.3133V29.3067C591.102 29.2074 576.148 31.0453 561.691 32.7838C550.364 34.1746 538.639 35.6151 526.964 36.1119C502.968 37.155 478.774 34.721 455.424 32.4361C451.549 32.0387 447.723 31.691 443.848 31.2936C409.568 28.0152 374.245 28.5119 340.065 28.959C327.893 29.108 315.324 29.3067 303.053 29.3067H0V29.3564Z" fill="#D0DEFF"/>
<path d="M0 58.2166V57.2231H303.003C313.188 57.2231 323.621 57.0741 333.706 56.8754C371.811 56.2793 411.158 55.6336 448.866 63.7303C455.424 65.1708 462.081 66.8596 469.136 68.6478C492.883 74.7079 517.475 80.9667 540.527 76.7942C550.612 74.9563 560.002 71.1812 569.094 67.5054C580.619 62.8361 592.543 58.0179 606.006 57.2231L606.056 58.2166C592.742 59.0113 580.918 63.7799 569.491 68.3995C560.399 72.0753 550.96 75.9001 540.726 77.7379C517.426 81.9601 492.734 75.6517 468.887 69.5916C461.882 67.8034 455.225 66.1145 448.667 64.7237C411.109 56.6271 371.811 57.2728 333.756 57.8689C323.67 58.0179 313.237 58.2166 303.003 58.2166H0V58.2166Z" fill="#D0DEFF"/>
<path d="M0 87.0762V86.0827H369.625C373.302 86.0827 377.028 86.0331 380.605 85.9834C388.703 85.884 397.099 85.7847 405.246 86.1821C421.293 86.9768 437.092 91.6461 452.393 96.1663L452.791 96.2656C459.299 98.2029 465.907 100.239 472.315 102.226C482.848 105.505 493.678 108.833 504.508 111.764C505.552 112.062 506.545 112.31 507.589 112.608C521.797 116.482 537.894 120.854 551.904 116.333C560.151 113.651 566.262 108.237 572.77 102.425L574.062 101.283C583.104 93.2356 591.996 87.6226 605.957 86.1324L606.056 87.1259C592.344 88.5664 583.6 94.1297 574.707 102.028L573.416 103.17C567.156 108.733 560.648 114.545 552.202 117.277C537.944 121.897 521.648 117.476 507.34 113.601C506.297 113.303 505.254 113.055 504.26 112.757C493.43 109.876 482.55 106.498 472.017 103.22C465.658 101.233 459.051 99.1963 452.542 97.3088L452.145 97.2094C436.893 92.7389 421.194 88.0696 405.246 87.2749C397.099 86.8775 388.752 86.9768 380.654 87.0762C377.028 87.1259 373.302 87.1755 369.625 87.1755H0V87.0762Z" fill="#D0DEFF"/>
<path d="M0 115.936V114.943C67.2181 115.489 135.579 115.29 201.704 115.141C234.891 115.042 269.22 114.943 302.953 114.943H369.625C373.302 114.943 377.028 114.893 380.605 114.843C388.703 114.744 397.099 114.645 405.246 115.042C421.293 115.837 437.092 120.506 452.344 124.976L452.741 125.076C459.249 126.963 465.807 129 472.216 130.987C482.699 134.216 493.579 137.593 504.359 140.474C505.353 140.723 506.396 141.021 507.44 141.319C521.648 145.144 537.745 149.515 551.755 144.995C560.002 142.362 566.162 136.898 572.72 131.186L574.012 130.043C583.104 122.046 592.046 116.433 606.006 114.992L606.106 115.986C592.394 117.426 583.65 122.94 574.658 130.788L573.366 131.931C567.057 137.494 560.548 143.256 552.053 145.938C537.745 150.508 521.499 146.137 507.191 142.263C506.148 141.965 505.105 141.716 504.111 141.418C493.33 138.537 482.45 135.159 471.968 131.931C465.608 129.944 459.001 127.957 452.542 126.02L452.145 125.92C436.943 121.45 421.194 116.83 405.296 116.035C397.148 115.638 388.802 115.737 380.704 115.837C377.077 115.886 373.351 115.936 369.675 115.936H303.003C269.27 115.936 234.94 116.035 201.754 116.135C135.629 116.284 67.2181 116.482 0 115.936Z" fill="#D0DEFF"/>
<path d="M0 143.753C14.3577 143.604 28.8645 142.213 42.8745 140.822C53.854 139.729 65.2309 138.637 76.4587 138.14C99.4609 137.146 122.811 138.984 145.416 140.723C150.582 141.12 155.898 141.567 161.115 141.915C196.786 144.498 233.251 144.2 268.525 143.902C279.802 143.802 291.477 143.703 302.953 143.703C313.188 143.703 323.67 143.554 333.805 143.355C371.811 142.759 411.109 142.114 448.717 150.111C455.275 151.502 461.882 153.191 468.887 154.929C492.585 160.89 517.078 167.049 540.179 162.926C550.314 161.138 559.753 157.413 568.895 153.787C580.47 149.217 592.493 144.448 605.957 143.653L606.006 144.647C592.692 145.442 580.768 150.111 569.243 154.681C560.052 158.307 550.563 162.082 540.328 163.87C517.028 167.993 492.436 161.834 468.639 155.823C461.634 154.085 455.076 152.396 448.518 151.005C411.009 143.206 371.811 143.852 333.855 144.448C323.72 144.597 313.237 144.796 303.003 144.796C291.527 144.796 279.852 144.895 268.574 144.995C233.301 145.293 196.786 145.591 161.065 143.008C155.849 142.61 150.483 142.213 145.316 141.816C122.761 140.027 99.4609 138.239 76.5084 139.233C65.2806 139.729 53.9533 140.822 42.9739 141.915C28.9639 143.306 14.4074 144.697 0 144.846V143.753Z" fill="#D0DEFF"/>
<path d="M0 172.613C12.768 172.116 25.2378 169.384 37.3103 166.751C46.7993 164.665 56.6361 162.529 66.5723 161.486C89.6738 159.002 113.62 162.529 136.722 165.907C143.627 166.9 150.732 167.943 157.637 168.838C195.593 173.507 234.543 173.159 272.251 172.811C282.336 172.712 292.769 172.613 303.003 172.613C315.374 172.613 327.993 172.464 340.214 172.265C374.295 171.818 409.519 171.321 443.799 174.5C447.525 174.848 451.251 175.196 454.927 175.543C478.327 177.779 502.521 180.113 526.567 179.12C538.242 178.623 549.966 177.282 561.343 175.941C575.9 174.252 590.953 172.464 606.006 172.563V173.556C591.003 173.457 575.999 175.196 561.492 176.934C550.115 178.275 538.341 179.666 526.616 180.113C502.521 181.107 478.277 178.772 454.828 176.487C451.102 176.139 447.425 175.792 443.699 175.444C409.469 172.265 374.295 172.762 340.214 173.209C327.993 173.358 315.374 173.556 303.003 173.556C292.769 173.556 282.336 173.656 272.251 173.755C234.543 174.103 195.544 174.5 157.488 169.781C150.582 168.937 143.428 167.894 136.572 166.851C113.521 163.473 89.6738 159.946 66.6716 162.43C56.7851 163.473 46.998 165.609 37.509 167.695C25.3869 170.328 12.8673 173.06 0 173.556V172.613Z" fill="#D0DEFF"/>
<path d="M0 201.472C12.2215 201.025 23.499 197.548 34.4288 194.22C43.0733 191.538 52.0655 188.806 61.4551 187.564C85.1529 184.385 109.993 188.855 134.039 193.177C141.342 194.468 148.893 195.859 156.147 196.952C194.401 202.664 233.798 202.217 271.953 201.77C282.137 201.671 292.62 201.522 302.953 201.522H605.957V202.515H303.003C292.67 202.515 282.187 202.615 272.002 202.764C233.848 203.211 194.351 203.658 156.047 197.945C148.794 196.853 141.243 195.512 133.89 194.17C109.944 189.849 85.1529 185.378 61.6042 188.557C52.2642 189.799 43.3713 192.531 34.7269 195.213C23.7474 198.591 12.3705 202.068 0 202.515V201.472Z" fill="#D0DEFF"/>
<path d="M0 230.332C12.768 229.835 25.2875 227.153 37.36 224.521C46.849 222.484 56.6858 220.348 66.6716 219.305C89.7732 216.871 113.67 220.348 136.771 223.726C143.627 224.719 150.781 225.762 157.637 226.607C195.544 231.276 234.543 230.879 272.201 230.531C282.286 230.432 292.719 230.332 303.003 230.332H606.006V231.326H303.003C292.769 231.326 282.336 231.425 272.251 231.524C234.543 231.872 195.544 232.269 157.587 227.6C150.682 226.756 143.577 225.713 136.672 224.719C113.62 221.341 89.7732 217.864 66.8207 220.298C56.9342 221.341 47.0974 223.477 37.6084 225.514C25.4366 228.097 12.917 230.829 0 231.326V230.332Z" fill="#D0DEFF"/>
<path d="M0 259.192C14.4074 259.043 28.9142 257.652 42.9242 256.311C53.9533 255.268 65.3302 254.175 76.5581 253.678C99.61 252.685 122.96 254.523 145.515 256.261C150.632 256.659 155.948 257.056 161.165 257.453C196.786 259.987 233.251 259.689 268.475 259.391C279.802 259.291 291.477 259.192 302.953 259.192H605.957V260.185H303.003C291.527 260.185 279.852 260.285 268.525 260.384C233.251 260.682 196.786 260.98 161.115 258.447C155.898 258.099 150.632 257.652 145.465 257.255C122.91 255.516 99.61 253.678 76.6078 254.672C65.3799 255.169 54.003 256.261 43.0236 257.304C28.9639 258.646 14.4571 260.036 0 260.185V259.192Z" fill="#D0DEFF"/>
<path d="M23.3997 190.544C23.3997 181.057 23.6977 171.569 24.5423 162.082C28.5665 114.843 28.4671 66.8594 28.4174 20.4651C28.4174 13.66 28.4174 6.85483 28.4174 0H29.411C29.411 6.80516 29.411 13.66 29.411 20.4651C29.5104 66.9091 29.5601 114.893 25.5359 162.181C23.1513 190.346 25.0391 218.659 26.8773 246.029C28.1193 264.656 29.4607 283.879 29.3614 302.954C29.1626 371.204 29.2123 440.547 29.262 507.655C29.3117 539.843 29.3117 573.123 29.3117 605.858H28.3181C28.3181 573.123 28.2684 539.843 28.2684 507.655C28.2187 440.547 28.169 371.154 28.3677 302.954C28.4174 283.879 27.1257 264.706 25.8837 246.078C24.6417 227.898 23.3997 209.271 23.3997 190.544Z" fill="#D0DEFF"/>
<path d="M41.8312 193.674C41.8312 181.405 43.2719 169.732 46.1534 157.959C52.4132 132.427 57.1825 110.969 57.1825 86.4801V0H58.1762V86.4801C58.1762 111.118 53.3571 132.626 47.0973 158.207C41.5828 180.709 41.3841 202.764 46.4515 229.686C47.5942 235.697 48.8362 241.757 50.0782 247.668C53.8539 265.649 57.729 284.227 58.1265 302.954C59.5175 370.359 59.0704 439.057 58.6233 505.419C58.3749 538.352 58.1762 572.428 58.1762 605.907H57.1825C57.1825 572.428 57.4309 538.352 57.6297 505.419C58.0768 439.007 58.5736 370.359 57.1329 302.954C56.7354 284.326 52.8603 265.798 49.0846 247.867C47.8426 241.956 46.5509 235.896 45.4579 229.885C43.0732 216.921 41.8312 205.049 41.8312 193.674Z" fill="#D0DEFF"/>
<path d="M62.101 189.154C62.101 177.927 64.0882 166.652 69.0066 154.532C70.5467 150.757 72.2358 146.981 73.8753 143.306C76.7071 136.997 79.6383 130.44 81.8242 123.735C85.6993 111.664 86.0471 100.19 86.0471 86.4801V0H87.0407V86.4801C87.0407 100.289 86.7426 111.863 82.7682 124.082C80.5822 130.838 77.651 137.395 74.7696 143.753C73.1301 147.379 71.4409 151.154 69.9008 154.929C59.766 179.914 62.1506 201.472 68.9072 226.11C70.646 232.518 72.683 239.025 74.6205 245.333C80.3338 263.961 86.2458 283.234 86.9414 302.904C88.0343 333.85 87.6866 365.442 87.3388 395.941C87.1898 410.942 86.991 426.39 86.991 441.59V605.907H85.9974V441.64C85.9974 426.44 86.1465 410.942 86.3452 395.941C86.6929 365.392 87.0407 333.85 85.9477 302.904C85.2522 283.333 79.3899 264.159 73.6766 245.582C71.739 239.273 69.7518 232.766 67.9633 226.309C64.4856 213.443 62.101 201.373 62.101 189.154Z" fill="#D0DEFF"/>
<path d="M91.1146 189.253C91.1146 178.027 93.1019 166.751 97.9706 154.631C99.5107 150.856 101.2 147.081 102.839 143.405C105.671 137.097 108.602 130.54 110.739 123.784C114.614 111.714 114.912 100.239 114.912 86.4801V0H115.905V86.4801C115.905 100.289 115.607 111.863 111.682 124.082C109.497 130.838 106.565 137.444 103.734 143.802C102.094 147.478 100.405 151.253 98.9145 154.979C88.8293 180.014 91.214 201.522 97.9706 226.16C99.7094 232.567 101.697 239.075 103.634 245.383C109.347 264.01 115.21 283.234 115.905 302.904C116.998 333.85 116.651 365.442 116.303 395.991C116.154 410.992 115.955 426.44 115.955 441.64V605.907H114.961V441.64C114.961 426.44 115.11 410.942 115.309 395.991C115.657 365.442 116.005 333.9 114.912 302.954C114.216 283.432 108.354 264.259 102.69 245.681C100.753 239.373 98.7655 232.865 97.0266 226.458C93.4496 213.493 91.1146 201.423 91.1146 189.253Z" fill="#D0DEFF"/>
<path d="M128.624 193.823C128.624 181.554 130.064 169.881 132.896 158.058C139.057 132.527 143.776 111.018 143.776 86.4801V0H144.77V86.4801C144.77 111.167 140.05 132.725 133.84 158.307C128.375 180.858 128.176 202.913 133.194 229.786C134.287 235.746 135.579 241.807 136.771 247.718C140.497 265.699 144.323 284.227 144.72 302.954C146.111 370.359 145.614 439.007 145.217 505.419C145.018 538.352 144.77 572.428 144.77 605.907H143.776C143.776 572.428 144.025 538.352 144.223 505.419C144.67 439.057 145.118 370.409 143.726 303.003C143.329 284.426 139.504 265.898 135.827 247.966C134.635 242.105 133.343 235.995 132.25 230.034C129.866 217.02 128.624 205.148 128.624 193.823Z" fill="#D0DEFF"/>
<path d="M167.871 190.545C167.871 181.107 168.17 171.619 168.964 162.181C172.84 114.992 172.74 67.0582 172.691 20.7136C172.691 13.8091 172.691 6.95431 172.691 0.0498047H173.684C173.684 6.95431 173.684 13.8091 173.684 20.7136C173.783 67.1079 173.833 115.042 169.958 162.281C167.623 190.395 169.511 218.659 171.25 245.979C172.442 264.606 173.734 283.879 173.634 303.003C173.436 371.154 173.485 440.398 173.535 507.406C173.585 539.694 173.585 573.074 173.585 605.907H172.591C172.591 573.074 172.541 539.694 172.541 507.406C172.492 440.398 172.392 371.105 172.641 303.003C172.691 283.929 171.448 264.656 170.256 246.079C169.064 227.849 167.871 209.271 167.871 190.545Z" fill="#D0DEFF"/>
<path d="M201.505 605.907C201.555 471.245 201.555 334.396 201.505 201.969C201.505 134.663 201.505 67.3065 201.505 0H202.499C202.499 67.3065 202.499 134.663 202.499 201.969C202.499 334.347 202.549 471.245 202.499 605.907H201.505Z" fill="#D0DEFF"/>
<path d="M224.557 503.88C224.557 483.265 226.495 463.198 228.532 442.087L228.73 440C231.86 407.316 231.314 373.588 230.767 340.953C230.569 328.485 230.37 315.57 230.37 303.003V0H231.363V302.954C231.363 315.521 231.562 328.436 231.761 340.904C232.307 373.588 232.854 407.316 229.724 440.05L229.525 442.136C227.19 466.575 224.955 489.673 225.7 513.814C226.147 527.126 227.29 540.637 228.432 553.701C229.923 570.789 231.463 588.422 231.363 605.907H230.37C230.469 588.472 228.929 570.838 227.439 553.801C226.296 540.737 225.104 527.226 224.706 513.864C224.607 510.536 224.557 507.208 224.557 503.88Z" fill="#D0DEFF"/>
<path d="M242.144 491.958C242.144 473.728 247.063 457.734 252.627 439.702C253.024 438.51 253.372 437.269 253.769 436.027C259.532 417.151 259.433 398.375 259.284 378.506C259.284 375.525 259.234 372.495 259.234 369.515V0H260.228V369.565C260.228 372.545 260.228 375.575 260.278 378.555C260.427 398.474 260.576 417.35 254.713 436.374C254.316 437.616 253.968 438.808 253.571 440.05C246.963 461.608 241.2 480.235 243.784 503.184C245.423 518.036 248.503 532.938 251.434 547.343C255.31 566.368 259.334 586.038 260.228 605.907L259.234 605.957C258.34 586.187 254.366 566.566 250.491 547.542C247.559 533.137 244.479 518.185 242.84 503.283C242.343 499.409 242.144 495.634 242.144 491.958Z" fill="#D0DEFF"/>
<path d="M261.569 482.173C261.569 464.688 268.624 452.17 277.815 435.977C278.411 434.984 278.958 433.94 279.554 432.897C288.844 416.356 288.546 398.623 288.198 379.847C288.149 376.469 288.049 372.992 288.049 369.565V0H289.043V369.565C289.043 372.992 289.092 376.469 289.192 379.847C289.54 397.928 289.838 416.605 280.398 433.394C279.802 434.437 279.206 435.48 278.66 436.474C267.581 455.995 259.632 470.152 263.606 494.193C266.289 510.337 270.909 526.381 275.331 541.879C281.293 562.543 287.403 583.902 289.043 605.858L288.049 605.957C286.41 584.101 280.299 562.791 274.387 542.177C269.916 526.63 265.295 510.585 262.613 494.392C261.867 490.021 261.569 485.997 261.569 482.173Z" fill="#D0DEFF"/>
<path d="M290.434 482.173C290.434 464.688 297.489 452.17 306.68 435.977C307.276 434.984 307.822 433.94 308.418 432.897C317.709 416.356 317.411 398.623 317.063 379.847C317.013 376.469 316.914 372.992 316.914 369.565V0H317.907V369.565C317.907 372.992 317.957 376.469 318.057 379.847C318.404 397.928 318.702 416.605 309.263 433.394C308.667 434.437 308.071 435.48 307.524 436.474C296.445 455.995 288.496 470.152 292.471 494.193C295.154 510.337 299.774 526.381 304.196 541.879C310.157 562.543 316.268 583.902 317.907 605.858L316.914 605.957C315.274 584.101 309.164 562.791 303.252 542.177C298.78 526.63 294.16 510.585 291.477 494.392C290.732 490.021 290.434 485.997 290.434 482.173Z" fill="#D0DEFF"/>
<path d="M328.738 491.958C328.738 473.728 333.656 457.734 339.22 439.702C339.618 438.51 339.966 437.269 340.363 436.027C346.126 417.151 346.027 398.375 345.878 378.506C345.878 375.525 345.828 372.495 345.828 369.515V0H346.822V369.565C346.822 372.595 346.822 375.575 346.871 378.555C347.02 398.474 347.169 417.35 341.307 436.374C340.91 437.616 340.562 438.808 340.164 440.05C333.557 461.608 327.794 480.235 330.377 503.184C332.017 518.036 335.097 532.938 338.028 547.343C341.903 566.368 345.927 586.038 346.822 605.907L345.828 605.957C344.934 586.187 340.959 566.566 337.084 547.542C334.153 533.137 331.073 518.185 329.433 503.283C328.936 499.409 328.738 495.634 328.738 491.958Z" fill="#D0DEFF"/>
<path d="M368.83 503.88C368.83 483.265 370.768 463.198 372.805 442.087L373.003 440C376.133 407.316 375.587 373.588 375.04 340.953C374.842 328.485 374.643 315.57 374.643 303.003V0H375.637V302.954C375.637 315.521 375.835 328.436 376.034 340.904C376.581 373.538 377.127 407.316 373.997 440.05L373.798 442.136C371.463 466.575 369.228 489.673 369.973 513.814C370.42 527.126 371.563 540.637 372.705 553.701C374.196 570.789 375.736 588.422 375.637 605.907H374.643C374.742 588.472 373.202 570.838 371.712 553.801C370.569 540.737 369.377 527.226 368.979 513.864C368.88 510.536 368.83 507.158 368.83 503.88Z" fill="#D0DEFF"/>
<path d="M403.507 0H404.501C404.501 67.4058 404.501 134.812 404.501 202.168C404.501 334.496 404.551 471.294 404.501 605.858H403.507C403.557 471.294 403.557 334.496 403.507 202.168C403.507 134.812 403.507 67.4058 403.507 0Z" fill="#D0DEFF"/>
<path d="M431.279 226.805C431.279 206.44 431.975 186.024 434.359 166.105L434.608 163.92C437.539 139.829 440.321 117.029 439.377 93.0369C438.831 79.5756 437.39 65.9653 435.949 52.802C434.061 35.5656 432.173 17.6835 432.322 0H433.316C433.167 17.6338 435.104 35.4663 436.943 52.7027C438.383 65.866 439.824 79.5259 440.371 92.9872C441.315 117.078 438.532 139.878 435.601 164.069L435.353 166.254C431.428 198.641 432.124 232.418 432.819 265.103C433.068 277.571 433.366 290.436 433.366 303.003V605.907H432.372V302.954C432.372 290.436 432.124 277.571 431.826 265.103C431.527 252.437 431.279 239.621 431.279 226.805Z" fill="#D0DEFF"/>
<path d="M461.038 217.219C461.038 201.174 461.932 185.825 468.142 170.526C468.689 169.135 469.235 167.794 469.782 166.453C478.029 146.336 485.133 129 481.904 105.803C479.768 90.5036 475.942 75.2044 472.266 60.4516C467.347 40.8806 462.28 20.6638 461.137 0.0496726L462.131 0C463.273 20.5148 468.341 40.6819 473.21 60.2033C476.936 75.0057 480.761 90.3049 482.848 105.654C486.077 129.099 478.923 146.584 470.626 166.801C470.08 168.142 469.533 169.483 468.987 170.874C461.634 189.004 461.833 207.334 462.031 226.756C462.081 229.885 462.081 233.114 462.081 236.293V605.858H461.088V236.343C461.088 233.163 461.038 229.935 461.038 226.805C461.088 223.577 461.038 220.398 461.038 217.219Z" fill="#D0DEFF"/>
<path d="M489.704 215.53C489.704 200.976 491.244 186.471 501.08 174.103C503.217 171.42 505.552 168.837 507.837 166.354C511.762 162.082 515.786 157.711 518.767 152.594C525.921 140.325 524.778 128.056 522.443 116.631C519.015 99.7427 513.203 83.152 507.589 67.0581C500.037 45.5498 492.287 23.2965 490.101 0.0993453L491.095 0C493.231 23.0978 501.031 45.2518 508.533 66.7104C514.147 82.8043 520.009 99.4447 523.437 116.383C525.822 128.006 526.964 140.524 519.661 153.091C516.631 158.307 512.557 162.728 508.632 167.049C506.396 169.533 504.012 172.066 501.925 174.748C490.051 189.75 490.499 207.284 490.946 225.812C491.045 229.289 491.144 232.865 491.144 236.343V605.907H490.151V236.343C490.151 232.816 490.051 229.289 489.952 225.812C489.803 222.385 489.704 218.957 489.704 215.53Z" fill="#D0DEFF"/>
<path d="M518.568 215.48C518.568 200.926 520.158 186.471 529.995 174.152C532.131 171.47 534.516 168.937 536.801 166.453C540.726 162.231 544.8 157.86 547.78 152.743C554.984 140.524 553.792 128.255 551.457 116.78C548.029 99.8917 542.166 83.2514 536.503 67.1574C528.902 45.5995 521.102 23.3462 518.916 0.0993453L519.909 0C522.046 23.0978 529.895 45.3511 537.447 66.8097C543.11 82.9037 548.973 99.5937 552.45 116.582C554.835 128.255 556.027 140.723 548.625 153.24C545.545 158.456 541.471 162.877 537.496 167.149C535.211 169.582 532.876 172.116 530.74 174.798C518.767 189.75 519.214 207.234 519.711 225.812C519.81 229.289 519.909 232.865 519.909 236.392V605.957H518.916V236.343C518.916 232.816 518.816 229.239 518.717 225.762C518.618 222.385 518.568 218.907 518.568 215.48Z" fill="#D0DEFF"/>
<path d="M547.631 217.219C547.631 201.224 548.526 185.875 554.835 170.626C555.382 169.235 555.978 167.894 556.524 166.552C572.074 129.348 570.584 118.569 568.845 106.101C566.709 90.752 562.834 75.4528 559.058 60.6503C554.09 41.0296 548.923 20.7632 547.731 0.0496726L548.724 0C549.917 20.6142 555.034 40.8309 560.002 60.402C563.778 75.2044 567.653 90.5533 569.789 106.001C573.068 129.497 565.815 146.832 557.419 166.95C556.872 168.291 556.276 169.632 555.729 171.023C548.228 189.054 548.426 207.383 548.675 226.805C548.724 229.935 548.724 233.164 548.724 236.392V605.957H547.731V236.343C547.731 233.164 547.681 229.935 547.681 226.805C547.681 223.577 547.631 220.348 547.631 217.219Z" fill="#D0DEFF"/>
<path d="M575.552 227.004C575.552 206.589 576.248 186.123 578.781 166.155L579.079 163.82C582.11 139.829 584.991 117.178 583.998 93.2853C583.451 79.7743 581.911 66.1143 580.421 52.9511C578.483 35.665 576.496 17.7828 576.645 0H577.639C577.49 17.7331 579.477 35.5656 581.414 52.8517C582.905 66.0647 584.395 79.7246 584.991 93.2853C585.985 117.277 583.103 139.978 580.073 163.969L579.775 166.304C575.701 198.691 576.397 232.518 577.092 265.202C577.34 277.621 577.639 290.486 577.639 302.954V605.907H576.645V302.954C576.645 290.486 576.347 277.621 576.098 265.202C575.8 252.635 575.552 239.82 575.552 227.004Z" fill="#D0DEFF"/>
</g>
<defs>
<clipPath id="clip0_2309_229">
<rect width="605" height="288" fill="white"/>
</clipPath>
</defs>
</svg>
