<svg width="700" height="550" viewBox="0 0 700 550" fill="none" xmlns="http://www.w3.org/2000/svg">
<path d="M49.85 484.89H49.74C49.12 484.92 48.41 484.88 47.71 484.85L47.79 482.85C48.45 482.88 49.12 482.89 49.79 482.89L49.85 484.89ZM54.12 484.71L53.95 482.72C54.63 482.66 55.31 482.59 55.99 482.5L56.25 484.48C55.54 484.57 54.83 484.64 54.12 484.71V484.71ZM43.46 484.49C42.75 484.4 42.04 484.29 41.34 484.17L41.69 482.2C42.36 482.32 43.04 482.42 43.72 482.51L43.46 484.49V484.49ZM60.45 483.73L60.02 481.78C60.69 481.63 61.35 481.47 62.01 481.29L62.53 483.22C61.84 483.41 61.15 483.58 60.45 483.73V483.73ZM37.17 483.25C36.48 483.07 35.79 482.87 35.12 482.66L35.72 480.75C36.37 480.95 37.03 481.14 37.69 481.32L37.17 483.25ZM66.6 481.94L65.91 480.06C66.55 479.83 67.19 479.58 67.82 479.32L68.59 481.17C67.93 481.43 67.27 481.69 66.6 481.94ZM31.1 481.2C30.44 480.93 29.78 480.64 29.14 480.34L29.99 478.53C30.61 478.82 31.24 479.09 31.87 479.36L31.1 481.2V481.2ZM72.46 479.35L71.53 477.58C72.14 477.26 72.73 476.93 73.32 476.59L74.32 478.32C73.71 478.68 73.09 479.02 72.46 479.35ZM25.34 478.37C24.72 478.01 24.11 477.64 23.51 477.26L24.58 475.57C25.16 475.94 25.74 476.29 26.33 476.63L25.34 478.37V478.37ZM77.93 476.02L76.78 474.38C77.34 473.99 77.89 473.58 78.43 473.17L79.65 474.76C79.08 475.19 78.51 475.61 77.93 476.02ZM20.01 474.81C19.44 474.38 18.89 473.93 18.34 473.47L19.63 471.94C20.15 472.38 20.69 472.81 21.23 473.22L20.01 474.81ZM82.92 472.01L81.57 470.54C82.07 470.08 82.57 469.6 83.05 469.12L84.46 470.53C83.96 471.03 83.44 471.52 82.92 472.01ZM15.19 470.59C14.69 470.09 14.19 469.57 13.71 469.05L15.18 467.7C15.64 468.2 16.12 468.7 16.6 469.18L15.19 470.59ZM87.35 467.38L85.82 466.09C86.26 465.57 86.69 465.03 87.11 464.49L88.7 465.71C88.25 466.27 87.81 466.83 87.35 467.38V467.38ZM10.95 465.78C10.52 465.22 10.09 464.64 9.68003 464.06L11.32 462.91C11.71 463.47 12.12 464.02 12.53 464.56L10.95 465.78V465.78ZM7.38003 460.46C7.02003 459.85 6.68003 459.22 6.35003 458.59L8.12003 457.66C8.44003 458.27 8.77003 458.86 9.11003 459.45L7.38003 460.46ZM4.54003 454.72C4.27003 454.06 4.01003 453.4 3.76003 452.73L5.64003 452.04C5.88003 452.68 6.12003 453.32 6.39003 453.94L4.54003 454.72V454.72ZM2.47003 448.66C2.29003 447.97 2.12003 447.28 1.96003 446.58L3.91003 446.14C4.06003 446.81 4.22003 447.47 4.40003 448.13L2.47003 448.66V448.66ZM1.21003 442.38C1.12003 441.68 1.04003 440.97 0.970029 440.26L2.96003 440.08C3.02003 440.76 3.10003 441.44 3.19003 442.12L1.21003 442.38V442.38ZM2.78003 435.99H0.780029V435.88C0.780029 435.2 0.790029 434.53 0.820029 433.85L2.82003 433.93C2.79003 434.58 2.78003 435.22 2.78003 435.88V435.99ZM3.17003 429.85L1.19003 429.6C1.28003 428.89 1.39003 428.18 1.51003 427.48L3.48003 427.82C3.35003 428.49 3.25003 429.17 3.17003 429.85V429.85ZM4.34003 423.82L2.41003 423.31C2.59003 422.62 2.79003 421.93 3.00003 421.25L4.91003 421.85C4.71003 422.5 4.52003 423.16 4.34003 423.82V423.82ZM6.31003 417.99L4.46003 417.23C4.73003 416.57 5.02003 415.91 5.32003 415.27L7.13003 416.11C6.84003 416.73 6.57003 417.36 6.31003 417.99V417.99ZM9.02003 412.47L7.29003 411.47C7.65003 410.85 8.02003 410.24 8.40003 409.64L10.09 410.71C9.71003 411.29 9.36003 411.88 9.02003 412.47V412.47ZM12.42 407.35L10.83 406.13C11.26 405.56 11.71 405.01 12.16 404.46L13.7 405.74C13.27 406.28 12.84 406.81 12.42 407.35V407.35ZM84.34 404C83.88 403.5 83.4 403.01 82.92 402.52L84.33 401.1C84.83 401.6 85.33 402.11 85.81 402.64L84.34 404ZM16.47 402.72L15.05 401.31C15.55 400.8 16.07 400.31 16.59 399.83L17.94 401.3C17.44 401.76 16.95 402.24 16.47 402.72V402.72ZM79.89 399.76C79.36 399.32 78.83 398.9 78.29 398.48L79.5 396.89C80.07 397.32 80.62 397.77 81.17 398.22L79.89 399.76V399.76ZM21.08 398.66L19.86 397.08C20.42 396.65 21 396.22 21.58 395.81L22.74 397.44C22.17 397.83 21.62 398.24 21.08 398.66V398.66ZM74.92 396.14C74.34 395.77 73.76 395.42 73.16 395.08L74.16 393.35C74.78 393.71 75.39 394.07 75.99 394.46L74.92 396.14ZM26.18 395.22L25.17 393.49C25.79 393.13 26.41 392.79 27.04 392.46L27.97 394.23C27.36 394.55 26.77 394.88 26.18 395.22ZM69.52 393.19C68.9 392.9 68.27 392.63 67.64 392.37L68.4 390.52C69.06 390.79 69.72 391.08 70.36 391.38L69.52 393.19ZM31.67 392.49L30.9 390.64C31.55 390.37 32.22 390.11 32.88 389.86L33.57 391.74C32.94 391.98 32.3 392.23 31.67 392.49ZM63.78 390.98C63.13 390.78 62.47 390.59 61.81 390.41L62.32 388.48C63.01 388.66 63.7 388.86 64.37 389.07L63.78 390.98V390.98ZM37.48 390.5L36.96 388.57C37.65 388.39 38.34 388.21 39.04 388.06L39.48 390.01C38.8 390.16 38.14 390.32 37.48 390.5V390.5ZM57.8 389.55C57.13 389.43 56.45 389.33 55.77 389.25L56.02 387.27C56.73 387.36 57.44 387.47 58.14 387.59L57.8 389.55V389.55ZM43.51 389.29L43.25 387.31C43.95 387.22 44.66 387.14 45.37 387.07L45.55 389.06C44.86 389.12 44.18 389.2 43.51 389.29ZM51.69 388.91C51.06 388.89 50.43 388.87 49.79 388.87H49.63V386.87H49.79C50.45 386.87 51.11 386.88 51.76 386.91L51.69 388.91Z" fill="#404041"/>
<path d="M639.17 423.14H698.01C698.14 422.44 698.22 421.73 698.22 421C698.22 414.5 692.95 409.24 686.46 409.24C685.78 409.24 685.11 409.31 684.46 409.42C683.71 402.5 677.86 397.12 670.74 397.12C664.48 397.12 659.19 401.29 657.51 407.01C656.62 406.68 655.66 406.48 654.66 406.48C650.16 406.48 646.52 410.12 646.52 414.62C646.52 414.68 646.53 414.73 646.53 414.78C644.547 415.155 642.747 416.181 641.414 417.696C640.08 419.21 639.291 421.126 639.17 423.14V423.14Z" fill="#F2F3F3"/>
<path d="M620.68 441.5C647.195 441.5 668.69 420.005 668.69 393.49C668.69 366.975 647.195 345.48 620.68 345.48C594.165 345.48 572.67 366.975 572.67 393.49C572.67 420.005 594.165 441.5 620.68 441.5Z" stroke="#404041" stroke-width="2" stroke-miterlimit="10" stroke-dasharray="2.09 4.19"/>
<path d="M364.08 140.76C363.6 140.76 363.14 140.81 362.67 140.83C363.52 136.91 364 132.85 364 128.68C364 97.28 338.54 71.82 307.14 71.82C296.91 71.82 287.34 74.56 279.05 79.28C266.49 59.74 244.61 46.75 219.66 46.75C180.67 46.75 149.06 78.36 149.06 117.35C149.06 119.13 149.2 120.88 149.33 122.63C147 122.29 144.63 122.06 142.21 122.06C115.02 122.06 92.97 144.1 92.97 171.3C92.97 198.5 115.01 220.54 142.21 220.54H364.09C386.12 220.54 403.98 202.68 403.98 180.65C403.97 158.62 386.11 140.76 364.08 140.76Z" fill="#E6E7E8"/>
<path d="M364.08 140.76C363.6 140.76 363.14 140.81 362.67 140.83C363.52 136.91 364 132.85 364 128.68C364 97.28 338.54 71.82 307.14 71.82C296.91 71.82 287.34 74.56 279.05 79.28C266.49 59.74 244.61 46.75 219.66 46.75C180.67 46.75 149.06 78.36 149.06 117.35C149.06 119.13 149.2 120.88 149.33 122.63C147 122.29 144.63 122.06 142.21 122.06C115.02 122.06 92.97 144.1 92.97 171.3C92.97 198.5 115.01 220.54 142.21 220.54H364.09C386.12 220.54 403.98 202.68 403.98 180.65C403.97 158.62 386.11 140.76 364.08 140.76Z" fill="#E6E7E8"/>
<path d="M195.53 166.35C230.059 166.35 258.05 138.359 258.05 103.83C258.05 69.3012 230.059 41.3101 195.53 41.3101C161.001 41.3101 133.01 69.3012 133.01 103.83C133.01 138.359 161.001 166.35 195.53 166.35Z" stroke="#404041" stroke-width="2" stroke-miterlimit="10" stroke-dasharray="2.07 4.15"/>
<path d="M110.96 501.92H5.08002C4.85002 500.75 4.71002 499.55 4.71002 498.31C4.71002 487.35 14.19 478.48 25.87 478.48C27.1 478.48 28.3 478.6 29.47 478.79C30.81 467.13 41.34 458.05 54.15 458.05C65.41 458.05 74.92 465.08 77.96 474.72C79.56 474.16 81.29 473.83 83.1 473.83C91.19 473.83 97.75 479.97 97.75 487.55C97.75 487.64 97.74 487.74 97.74 487.82C104.96 489.1 110.51 494.86 110.96 501.92V501.92Z" fill="#9EC0FD"/>
<path d="M591.21 389.62H639.59V495.03H591.21V389.62Z" fill="#FFEAB3"/>
<path d="M591.21 389.62H639.59V495.03H591.21V389.62Z" stroke="#404041" stroke-width="2" stroke-miterlimit="10"/>
<path d="M595.75 435.63H635.05V451.87H595.75V435.63ZM595.75 394.55H635.05V410.79H595.75V394.55Z" fill="#404041"/>
<path d="M631.21 439.81C631.972 439.81 632.59 439.192 632.59 438.43C632.59 437.668 631.972 437.05 631.21 437.05C630.448 437.05 629.83 437.668 629.83 438.43C629.83 439.192 630.448 439.81 631.21 439.81Z" fill="#FAFBFB"/>
<path d="M627.09 439.81C627.852 439.81 628.47 439.192 628.47 438.43C628.47 437.668 627.852 437.05 627.09 437.05C626.328 437.05 625.71 437.668 625.71 438.43C625.71 439.192 626.328 439.81 627.09 439.81Z" fill="#FAFBFB"/>
<path d="M631.21 443.43C631.972 443.43 632.59 442.812 632.59 442.05C632.59 441.288 631.972 440.67 631.21 440.67C630.448 440.67 629.83 441.288 629.83 442.05C629.83 442.812 630.448 443.43 631.21 443.43Z" fill="#FAFBFB"/>
<path d="M627.09 443.43C627.852 443.43 628.47 442.812 628.47 442.05C628.47 441.288 627.852 440.67 627.09 440.67C626.328 440.67 625.71 441.288 625.71 442.05C625.71 442.812 626.328 443.43 627.09 443.43Z" fill="#FAFBFB"/>
<path d="M631.21 447.06C631.972 447.06 632.59 446.442 632.59 445.68C632.59 444.918 631.972 444.3 631.21 444.3C630.448 444.3 629.83 444.918 629.83 445.68C629.83 446.442 630.448 447.06 631.21 447.06Z" fill="#FAFBFB"/>
<path d="M631.21 450.68C631.972 450.68 632.59 450.062 632.59 449.3C632.59 448.538 631.972 447.92 631.21 447.92C630.448 447.92 629.83 448.538 629.83 449.3C629.83 450.062 630.448 450.68 631.21 450.68Z" fill="#FAFBFB"/>
<path d="M627.09 450.68C627.852 450.68 628.47 450.062 628.47 449.3C628.47 448.538 627.852 447.92 627.09 447.92C626.328 447.92 625.71 448.538 625.71 449.3C625.71 450.062 626.328 450.68 627.09 450.68Z" fill="#FAFBFB"/>
<path d="M631.21 398.49C631.972 398.49 632.59 397.872 632.59 397.11C632.59 396.348 631.972 395.73 631.21 395.73C630.448 395.73 629.83 396.348 629.83 397.11C629.83 397.872 630.448 398.49 631.21 398.49Z" fill="#FAFBFB"/>
<path d="M631.21 402.12C631.972 402.12 632.59 401.502 632.59 400.74C632.59 399.978 631.972 399.36 631.21 399.36C630.448 399.36 629.83 399.978 629.83 400.74C629.83 401.502 630.448 402.12 631.21 402.12Z" fill="#404041"/>
<path d="M627.09 398.49C627.852 398.49 628.47 397.872 628.47 397.11C628.47 396.348 627.852 395.73 627.09 395.73C626.328 395.73 625.71 396.348 625.71 397.11C625.71 397.872 626.328 398.49 627.09 398.49Z" fill="#404041"/>
<path d="M627.09 402.12C627.852 402.12 628.47 401.502 628.47 400.74C628.47 399.978 627.852 399.36 627.09 399.36C626.328 399.36 625.71 399.978 625.71 400.74C625.71 401.502 626.328 402.12 627.09 402.12Z" fill="#FAFBFB"/>
<path d="M627.09 405.74C627.852 405.74 628.47 405.122 628.47 404.36C628.47 403.598 627.852 402.98 627.09 402.98C626.328 402.98 625.71 403.598 625.71 404.36C625.71 405.122 626.328 405.74 627.09 405.74Z" fill="#404041"/>
<path d="M631.21 405.74C631.972 405.74 632.59 405.122 632.59 404.36C632.59 403.598 631.972 402.98 631.21 402.98C630.448 402.98 629.83 403.598 629.83 404.36C629.83 405.122 630.448 405.74 631.21 405.74Z" fill="#FAFBFB"/>
<path d="M631.21 409.37C631.972 409.37 632.59 408.752 632.59 407.99C632.59 407.228 631.972 406.61 631.21 406.61C630.448 406.61 629.83 407.228 629.83 407.99C629.83 408.752 630.448 409.37 631.21 409.37Z" fill="#FAFBFB"/>
<path d="M627.09 409.37C627.852 409.37 628.47 408.752 628.47 407.99C628.47 407.228 627.852 406.61 627.09 406.61C626.328 406.61 625.71 407.228 625.71 407.99C625.71 408.752 626.328 409.37 627.09 409.37Z" fill="#FAFBFB"/>
<path d="M600.75 395.75H603.46V398.46H600.75V395.75Z" fill="#326CE5"/>
<path d="M604.4 395.75H607.11V398.46H604.4V395.75Z" fill="#FAFBFB"/>
<path d="M608.05 395.75H610.76V398.46H608.05V395.75ZM611.7 395.75H614.41V398.46H611.7V395.75ZM597.1 399.38H599.81V402.09H597.1V399.38Z" fill="#9EC0FD"/>
<path d="M600.75 399.38H603.46V402.09H600.75V399.38Z" fill="#FAFBFB"/>
<path d="M608.05 399.38H610.76V402.09H608.05V399.38ZM611.7 399.38H614.41V402.09H611.7V399.38ZM600.75 403H603.46V405.71H600.75V403Z" fill="#326CE5"/>
<path d="M604.4 403H607.11V405.71H604.4V403Z" fill="#9EC0FD"/>
<path d="M608.05 403H610.76V405.71H608.05V403Z" fill="#FAFBFB"/>
<path d="M611.7 403H614.41V405.71H611.7V403Z" fill="#9EC0FD"/>
<path d="M615.4 399.38H618.11V402.09H615.4V399.38Z" fill="#326CE5"/>
<path d="M615.4 403H618.11V405.71H615.4V403Z" fill="#FAFBFB"/>
<path d="M596.85 485.77H633.95M596.85 462.4H633.95H596.85ZM596.85 468.25H633.95H596.85ZM596.85 474.09H633.95H596.85ZM596.85 479.93H633.95H596.85Z" stroke="#404041" stroke-width="2" stroke-miterlimit="10"/>
<path d="M644.65 522.55H480.96L374.47 405.34L364.02 393.84L353.57 405.34L247.08 522.55H83.4L364.02 213.68L644.65 522.55Z" fill="#F2F3F3"/>
<path d="M414.46 68.5199C414.22 68.5199 413.99 68.5499 413.76 68.5599C414.19 66.6099 414.43 64.5799 414.43 62.4999C414.43 46.8399 401.74 34.1499 386.08 34.1499C380.98 34.1499 376.21 35.5099 372.07 37.8699C365.81 28.1199 354.9 21.6499 342.45 21.6499C323.01 21.6499 307.25 37.4099 307.25 56.8499C307.25 57.7399 307.32 58.6099 307.38 59.4799C306.22 59.3099 305.04 59.1899 303.83 59.1899C290.27 59.1899 279.28 70.1799 279.28 83.7399C279.28 97.2999 290.27 108.29 303.83 108.29H414.47C425.46 108.29 434.36 99.3799 434.36 88.3999C434.36 77.4199 425.45 68.5199 414.46 68.5199V68.5199Z" fill="#FFEAB3"/>
<path d="M414.46 68.5199C414.22 68.5199 413.99 68.5499 413.76 68.5599C414.19 66.6099 414.43 64.5799 414.43 62.4999C414.43 46.8399 401.74 34.1499 386.08 34.1499C380.98 34.1499 376.21 35.5099 372.07 37.8699C365.81 28.1199 354.9 21.6499 342.45 21.6499C323.01 21.6499 307.25 37.4099 307.25 56.8499C307.25 57.7399 307.32 58.6099 307.38 59.4799C306.22 59.3099 305.04 59.1899 303.83 59.1899C290.27 59.1899 279.28 70.1799 279.28 83.7399C279.28 97.2999 290.27 108.29 303.83 108.29H414.47C425.46 108.29 434.36 99.3799 434.36 88.3999C434.36 77.4199 425.45 68.5199 414.46 68.5199V68.5199Z" fill="#FFEAB3"/>
<path d="M414.46 68.5199C414.22 68.5199 413.99 68.5499 413.76 68.5599C414.19 66.6099 414.43 64.5799 414.43 62.4999C414.43 46.8399 401.74 34.1499 386.08 34.1499C380.98 34.1499 376.21 35.5099 372.07 37.8699C365.81 28.1199 354.9 21.6499 342.45 21.6499C323.01 21.6499 307.25 37.4099 307.25 56.8499C307.25 57.7399 307.32 58.6099 307.38 59.4799C306.22 59.3099 305.04 59.1899 303.83 59.1899C290.27 59.1899 279.28 70.1799 279.28 83.7399C279.28 97.2999 290.27 108.29 303.83 108.29H414.47C425.46 108.29 434.36 99.3799 434.36 88.3999C434.36 77.4199 425.45 68.5199 414.46 68.5199V68.5199Z" stroke="#404041" stroke-width="2" stroke-miterlimit="10"/>
<path d="M414.46 68.5199C414.22 68.5199 413.99 68.5499 413.76 68.5599C414.19 66.6099 414.43 64.5799 414.43 62.4999C414.43 46.8399 401.74 34.1499 386.08 34.1499C380.98 34.1499 376.21 35.5099 372.07 37.8699C365.81 28.1199 354.9 21.6499 342.45 21.6499C323.01 21.6499 307.25 37.4099 307.25 56.8499C307.25 57.7399 307.32 58.6099 307.38 59.4799C306.22 59.3099 305.04 59.1899 303.83 59.1899C290.27 59.1899 279.28 70.1799 279.28 83.7399C279.28 97.2999 290.27 108.29 303.83 108.29H414.47C425.46 108.29 434.36 99.3799 434.36 88.3999C434.36 77.4199 425.45 68.5199 414.46 68.5199V68.5199Z" stroke="#404041" stroke-width="2" stroke-miterlimit="10"/>
<path d="M348.88 58.23C349.36 58.33 349.83 58.44 350.29 58.58C354.54 55.33 360.49 55.08 364.96 58.15L372.01 51.02C362.84 43.45 348.88 44.59 340.87 53.67C339.2 55.56 337.84 57.79 336.88 60.16C339.38 58.73 342.28 57.92 345.36 57.9C346.57 57.89 347.74 58.01 348.88 58.23V58.23ZM379.62 62.69C378.544 58.7362 376.415 55.1487 373.46 52.31L372.57 53.21L367.03 58.81L366.47 59.37C369 61.77 370.42 65.15 370.36 68.67V69.92C373.82 69.92 376.63 72.73 376.63 76.19C376.63 79.65 373.82 82.39 370.36 82.39H358.77V92.43H370.36C379.36 92.5 386.72 85.33 386.79 76.32C386.83 70.86 384.14 65.74 379.62 62.69V62.69ZM343.7 82.18L336.27 89.69C338.94 91.45 342.06 92.43 345.27 92.42H356.84V82.39H345.27C344.74 82.39 344.21 82.32 343.7 82.18ZM348.54 60.19C347.47 59.98 346.38 59.87 345.27 59.87C341.81 59.89 338.62 60.98 335.99 62.84C333.835 64.3534 332.078 66.3666 330.871 68.7074C329.665 71.0481 329.043 73.6465 329.06 76.28C329.09 81 331.16 85.47 334.71 88.53L341.81 81.35C340.569 80.5275 339.66 79.2899 339.248 77.8589C338.836 76.4279 338.946 74.8969 339.56 73.54C340.99 70.39 344.7 68.98 347.85 70.41C349.24 71.04 350.35 72.15 350.98 73.54L358.25 66.27C355.861 63.1294 352.409 60.9677 348.54 60.19V60.19Z" fill="white"/>
<path d="M236.78 139.19C237.02 139.19 237.25 139.22 237.48 139.23C237.05 137.28 236.81 135.25 236.81 133.17C236.81 117.51 249.5 104.82 265.16 104.82C270.26 104.82 275.03 106.18 279.17 108.54C285.43 98.7898 296.34 92.3198 308.79 92.3198C328.23 92.3198 343.99 108.08 343.99 127.52C343.99 128.41 343.92 129.28 343.86 130.15C345.02 129.98 346.2 129.86 347.41 129.86C360.97 129.86 371.96 140.85 371.96 154.41C371.96 167.97 360.97 178.96 347.41 178.96H236.77C225.78 178.96 216.88 170.05 216.88 159.07C216.89 148.09 225.79 139.19 236.78 139.19V139.19Z" fill="#326CE5" stroke="#404041" stroke-width="2" stroke-miterlimit="10"/>
<path d="M491.27 128.55C491.03 128.55 490.8 128.58 490.57 128.59C491 126.64 491.24 124.61 491.24 122.53C491.24 106.87 478.55 94.1797 462.89 94.1797C457.79 94.1797 453.02 95.5397 448.88 97.8997C442.62 88.1497 431.71 81.6797 419.26 81.6797C399.82 81.6797 384.06 97.4397 384.06 116.88C384.06 117.77 384.13 118.64 384.19 119.51C383.03 119.34 381.85 119.22 380.64 119.22C367.08 119.22 356.09 130.21 356.09 143.77C356.09 157.33 367.08 168.32 380.64 168.32H491.28C502.27 168.32 511.17 159.41 511.17 148.43C511.16 137.45 502.25 128.55 491.27 128.55Z" fill="#9EC0FD" stroke="#404041" stroke-width="2" stroke-miterlimit="10"/>
<path d="M491.27 128.55C491.03 128.55 490.8 128.58 490.57 128.59C491 126.64 491.24 124.61 491.24 122.53C491.24 106.87 478.55 94.1797 462.89 94.1797C457.79 94.1797 453.02 95.5397 448.88 97.8997C442.62 88.1497 431.71 81.6797 419.26 81.6797C399.82 81.6797 384.06 97.4397 384.06 116.88C384.06 117.77 384.13 118.64 384.19 119.51C383.03 119.34 381.85 119.22 380.64 119.22C367.08 119.22 356.09 130.21 356.09 143.77C356.09 157.33 367.08 168.32 380.64 168.32H491.28C502.27 168.32 511.17 159.41 511.17 148.43C511.16 137.45 502.25 128.55 491.27 128.55Z" fill="#9EC0FD" stroke="#404041" stroke-width="2" stroke-miterlimit="10"/>
<path d="M417.79 127.41C417.77 128.13 417.86 128.86 418.07 129.55C418.28 130.15 418.54 130.72 418.84 131.28C418.95 131.44 419.01 131.63 419.02 131.82C418.99 132.12 418.82 132.39 418.56 132.54L417.04 133.54C416.86 133.67 416.64 133.74 416.42 133.75C416.14 133.75 415.88 133.62 415.7 133.42C415.366 133.084 415.071 132.712 414.82 132.31C414.59 131.9 414.36 131.43 414.1 130.89C413.256 131.946 412.18 132.795 410.956 133.371C409.732 133.947 408.392 134.234 407.04 134.21C405.28 134.31 403.55 133.68 402.25 132.48C401.651 131.877 401.186 131.155 400.885 130.361C400.583 129.567 400.452 128.718 400.5 127.87C400.44 125.98 401.23 124.16 402.66 122.92C404.337 121.608 406.434 120.951 408.56 121.07C409.42 121.07 410.28 121.13 411.14 121.25C412.04 121.38 412.94 121.56 413.9 121.77V120.02C414.04 118.64 413.63 117.26 412.77 116.18C411.659 115.319 410.258 114.922 408.86 115.07C407.99 115.07 407.13 115.18 406.28 115.38C405.4 115.59 404.54 115.86 403.7 116.2L402.85 116.51H402.49C402.13 116.51 401.97 116.25 401.97 115.76V114.58C401.95 114.3 402 114.01 402.12 113.76C402.31 113.54 402.55 113.36 402.82 113.24C403.78 112.78 404.79 112.41 405.83 112.16C407.05 111.85 408.3 111.69 409.56 111.7C411.83 111.5 414.09 112.21 415.84 113.66C416.563 114.451 417.112 115.385 417.453 116.401C417.794 117.417 417.919 118.493 417.82 119.56L417.79 127.41V127.41ZM408.06 131.07C408.94 131.07 409.81 130.92 410.64 130.63C411.52 130.33 412.3 129.8 412.91 129.08C413.31 128.65 413.59 128.13 413.73 127.56C413.9 126.88 413.97 126.18 413.96 125.47V124.39C413.2 124.23 412.44 124.12 411.67 124.06H409.4C408.143 123.962 406.89 124.297 405.85 125.01C405.04 125.7 404.6 126.73 404.67 127.79C404.58 128.73 404.9 129.67 405.55 130.37C406.25 130.93 407.15 131.18 408.06 131.07V131.07ZM427.35 133.64C427.02 133.67 426.7 133.59 426.42 133.41C426.16 133.15 425.98 132.82 425.9 132.46L420.29 113.92C420.18 113.61 420.11 113.28 420.08 112.94C420.08 112.55 420.26 112.35 420.65 112.35H423.02C423.35 112.32 423.67 112.4 423.95 112.58C424.2 112.84 424.37 113.18 424.44 113.53L428.48 129.55L432.27 113.56C432.31 113.2 432.47 112.86 432.73 112.61C433.01 112.43 433.35 112.35 433.68 112.38H435.61C435.95 112.35 436.3 112.43 436.59 112.61C436.83 112.88 436.99 113.21 437.05 113.56L440.78 129.55L444.93 113.48C445 113.12 445.17 112.79 445.42 112.53C445.69 112.35 446.02 112.27 446.35 112.3H448.59C448.89 112.27 449.15 112.49 449.18 112.78V112.89C449.19 113.02 449.19 113.15 449.18 113.28C449.18 113.28 449.18 113.61 449.03 113.87L443.21 132.41C443.14 132.77 442.97 133.1 442.72 133.36C442.44 133.53 442.12 133.61 441.79 133.59H439.73C439.39 133.63 439.05 133.53 438.78 133.33C438.52 133.07 438.36 132.74 438.32 132.38L434.59 116.93L430.88 132.38C430.83 132.74 430.67 133.07 430.42 133.33C430.14 133.53 429.81 133.62 429.47 133.59L427.35 133.64V133.64ZM458.25 134.26C457 134.27 455.76 134.13 454.54 133.85C453.58 133.66 452.66 133.34 451.78 132.9C451.471 132.752 451.211 132.52 451.03 132.23C450.93 132.01 450.88 131.77 450.88 131.53V130.32C450.88 129.83 451.06 129.57 451.42 129.57C451.57 129.55 451.73 129.55 451.88 129.57L452.47 129.83C453.3 130.2 454.16 130.48 455.05 130.65C455.99 130.85 456.95 130.96 457.91 130.96C459.13 131.04 460.35 130.76 461.41 130.16C461.798 129.924 462.117 129.59 462.335 129.191C462.553 128.793 462.661 128.344 462.65 127.89C462.661 127.583 462.61 127.277 462.5 126.99C462.39 126.703 462.223 126.441 462.01 126.22C461.312 125.617 460.484 125.186 459.59 124.96L456.11 123.85C454.607 123.468 453.263 122.621 452.27 121.43C451.49 120.43 451.07 119.2 451.06 117.93C451.05 117.03 451.27 116.14 451.7 115.35C452.13 114.58 452.72 113.9 453.43 113.37C454.2 112.8 455.08 112.38 456.01 112.13C457 111.85 458.02 111.71 459.05 111.72C459.58 111.68 460.12 111.68 460.65 111.72L462.22 111.98L463.59 112.37L464.59 112.78C464.86 112.94 465.1 113.14 465.31 113.37C465.45 113.61 465.53 113.89 465.52 114.17V115.3C465.52 115.82 465.34 116.07 464.98 116.07C464.65 116.03 464.34 115.93 464.05 115.76C462.59 115.12 461.01 114.81 459.41 114.83C458.31 114.78 457.21 115.01 456.22 115.5C455.47 115.96 455.04 116.79 455.09 117.66C455.09 118.3 455.35 118.92 455.81 119.36C456.57 119.971 457.448 120.417 458.39 120.67L461.79 121.75C463.232 122.133 464.525 122.941 465.5 124.07C466.24 125.04 466.63 126.23 466.61 127.44C466.63 128.4 466.41 129.36 465.99 130.22C465.58 131.05 464.98 131.77 464.24 132.33C463.48 132.94 462.6 133.41 461.66 133.7C460.54 134.06 459.36 134.25 458.18 134.27L458.25 134.26V134.26Z" fill="white"/>
<path fill-rule="evenodd" clip-rule="evenodd" d="M462.71 146.11C454.09 151.967 443.902 155.083 433.48 155.05C420.302 155.12 407.571 150.271 397.78 141.45C397.03 140.78 397.78 139.85 398.6 140.37C409.467 146.596 421.776 149.865 434.3 149.85C443.66 149.81 452.92 147.92 461.55 144.29C462.89 143.71 464.02 145.16 462.71 146.11V146.11Z" fill="white"/>
<path fill-rule="evenodd" clip-rule="evenodd" d="M466 142.43C464.97 141.12 459.3 141.81 456.75 142.12C455.98 142.12 455.87 141.53 456.57 141.04C461.08 137.87 468.49 138.77 469.45 139.86C470.4 140.94 469.22 148.36 464.97 151.91C464.33 152.45 463.71 152.14 463.99 151.45C464.87 148.99 467.01 143.66 466 142.43V142.43Z" fill="white"/>
<path d="M296.48 147.084C303.216 145.894 308.78 144.909 308.844 144.895L308.96 144.871L302.6 137.306C299.102 133.146 296.241 129.726 296.241 129.706C296.241 129.668 302.808 111.585 302.844 111.521C302.857 111.499 307.325 119.215 313.677 130.223C319.623 140.53 324.526 149.028 324.572 149.107L324.654 149.252L304.443 149.249L284.232 149.246L296.48 147.084V147.084ZM293.61 166.552C291.571 166.421 290.385 165.261 290.071 163.088C289.988 162.51 289.987 162.494 289.979 158.742L289.971 155.11H291.775L291.782 158.623C291.789 161.789 291.793 162.16 291.823 162.383C291.946 163.287 292.19 163.895 292.606 164.331C292.94 164.68 293.33 164.885 293.87 164.993C294.124 165.045 294.849 165.045 295.082 164.994C295.629 164.873 296.068 164.635 296.455 164.248C296.896 163.807 297.222 163.181 297.38 162.474L297.434 162.235L297.44 158.692L297.446 155.149H299.288V166.289H297.465V165.405C297.465 164.805 297.458 164.524 297.444 164.528C297.433 164.532 297.386 164.604 297.34 164.687C297.026 165.26 296.502 165.785 295.928 166.1C295.242 166.478 294.552 166.613 293.61 166.552V166.552ZM314.304 166.544C313.584 166.49 312.827 166.242 312.207 165.859C310.902 165.051 310.129 163.72 309.903 161.889C309.825 161.255 309.816 160.403 309.881 159.865C310.027 158.661 310.5 157.48 311.173 156.636C311.346 156.42 311.738 156.028 311.954 155.856C312.538 155.389 313.221 155.064 313.946 154.905C314.368 154.812 315.112 154.769 315.561 154.81C316.689 154.915 317.722 155.446 318.424 156.282C319.138 157.13 319.53 158.317 319.58 159.777C319.588 160.006 319.59 160.408 319.585 160.669L319.575 161.145L315.626 161.15L311.677 161.155V161.332C311.677 161.868 311.807 162.479 312.033 162.999C312.227 163.448 312.562 163.937 312.836 164.174C313.398 164.66 314.086 164.95 314.838 165.02C315.117 165.046 315.828 165.019 316.146 164.97C317.054 164.831 317.916 164.475 318.613 163.953C318.695 163.891 318.773 163.834 318.787 163.825C318.807 163.812 318.812 163.973 318.811 164.648L318.811 165.486L318.624 165.602C317.836 166.089 316.933 166.402 315.978 166.519C315.692 166.554 314.645 166.569 314.304 166.544V166.544ZM317.741 159.473C317.741 158.574 317.362 157.576 316.826 157.062C316.444 156.695 315.982 156.471 315.432 156.385C315.172 156.345 314.624 156.361 314.35 156.416C313.77 156.533 313.291 156.788 312.873 157.201C312.433 157.636 312.103 158.164 311.895 158.765C311.821 158.982 311.733 159.337 311.706 159.535L311.694 159.629H317.741V159.473V159.473ZM264.172 166.264C264.176 166.25 265.517 162.727 267.152 158.435L270.123 150.631H272.033L272.112 150.834C272.354 151.455 278.061 166.272 278.061 166.279C278.061 166.285 277.604 166.289 277.045 166.289L276.029 166.288L275.207 164.098L274.384 161.908H267.76L267.731 161.983C267.715 162.024 267.364 163.009 266.95 164.173L266.198 166.288L265.18 166.289C264.375 166.288 264.165 166.283 264.172 166.264V166.264ZM273.78 160.237C273.78 160.234 273.226 158.733 272.55 156.903C271.284 153.478 271.214 153.272 271.114 152.722C271.067 152.464 271.043 152.457 271.015 152.692C270.996 152.86 270.909 153.237 270.843 153.445C270.81 153.549 270.24 155.113 269.576 156.922C268.913 158.73 268.37 160.217 268.37 160.227C268.37 160.236 269.587 160.244 271.075 160.244C272.563 160.243 273.78 160.24 273.78 160.237V160.237ZM278.676 166.003V165.718L281.976 161.182L285.275 156.646L282.288 156.636L279.3 156.626L279.295 155.868L279.29 155.11H287.932V155.622L284.632 160.183C282.817 162.691 281.332 164.748 281.332 164.753C281.332 164.758 282.799 164.763 284.592 164.763H287.852V166.289H278.676V166.003V166.003ZM302.889 166.275C302.882 166.268 302.876 163.753 302.876 160.686V155.11H304.68V156.26C304.68 156.892 304.687 157.41 304.697 157.41C304.706 157.41 304.75 157.306 304.794 157.18C304.997 156.6 305.349 156.058 305.801 155.628C306.21 155.24 306.676 155.008 307.226 154.919C307.381 154.894 307.512 154.89 307.821 154.898C308.209 154.908 308.412 154.937 308.648 155.014L308.723 155.038V156.91L308.51 156.803C308.133 156.615 307.762 156.541 307.315 156.564C307.025 156.579 306.834 156.616 306.602 156.703C306.124 156.883 305.736 157.199 305.465 157.631C305.073 158.257 304.793 159.061 304.711 159.8C304.696 159.933 304.688 161.013 304.684 163.142L304.679 166.289H303.791C303.302 166.289 302.896 166.283 302.889 166.275V166.275ZM272.225 144.777C272.225 144.766 275.222 139.564 278.884 133.217L285.543 121.677L293.304 115.165C297.572 111.583 301.076 108.648 301.089 108.642C301.103 108.637 301.047 108.778 300.965 108.956C300.882 109.134 297.09 117.268 292.538 127.03L284.262 144.78L278.243 144.788C274.933 144.793 272.225 144.788 272.225 144.777V144.777Z" fill="white"/>
<path d="M167.32 333.86L165.62 360.71L157.26 352.36L117.81 393.29L109.43 384.91L148.87 343.99L140.52 335.64L167.32 333.86Z" fill="#FFEAB3"/>
<path d="M523.83 424.1L513.12 413.39L521.69 404.82L464.74 404.12L465.44 461.08L474 452.51L549.85 528.35H686.8L523.83 424.1ZM386.62 221.19H396.4L364.32 188.32L332.24 221.19H342.01H386.62ZM110.96 501.92H5.08002C4.85002 500.75 4.71002 499.55 4.71002 498.31C4.71002 487.35 14.19 478.48 25.87 478.48C27.1 478.48 28.3 478.6 29.47 478.79C30.81 467.13 41.34 458.05 54.15 458.05C65.41 458.05 74.92 465.08 77.96 474.72C79.56 474.16 81.29 473.83 83.1 473.83C91.19 473.83 97.75 479.97 97.75 487.55C97.75 487.64 97.74 487.74 97.74 487.82C104.96 489.1 110.51 494.86 110.96 501.92V501.92Z" stroke="#404041" stroke-width="2" stroke-miterlimit="10"/>
<path d="M65.88 511.89H192.35C192.63 510.49 192.79 509.06 192.79 507.58C192.79 494.49 181.47 483.9 167.51 483.9C166.04 483.9 164.6 484.05 163.2 484.27C161.6 470.34 149.02 459.5 133.72 459.5C120.27 459.5 108.91 467.9 105.28 479.41C103.37 478.74 101.3 478.35 99.15 478.35C89.49 478.35 81.65 485.69 81.65 494.74C81.65 494.85 81.66 494.96 81.66 495.06C73.04 496.58 66.42 503.46 65.88 511.89V511.89Z" fill="#FFEAB3"/>
<path d="M65.88 511.89H192.35C192.63 510.49 192.79 509.06 192.79 507.58C192.79 494.49 181.47 483.9 167.51 483.9C166.04 483.9 164.6 484.05 163.2 484.27C161.6 470.34 149.02 459.5 133.72 459.5C120.27 459.5 108.91 467.9 105.28 479.41C103.37 478.74 101.3 478.35 99.15 478.35C89.49 478.35 81.65 485.69 81.65 494.74C81.65 494.85 81.66 494.96 81.66 495.06C73.04 496.58 66.42 503.46 65.88 511.89V511.89Z" stroke="#404041" stroke-width="2" stroke-miterlimit="10"/>
<path d="M87.829 445.866L80.949 426.696C80.859 426.426 80.729 426.086 80.729 425.776C80.729 424.946 81.429 424.156 82.439 424.156C83.319 424.156 83.889 424.726 84.149 425.556L89.849 442.076L95.589 425.516C95.849 424.726 96.379 424.156 97.249 424.156H97.429C98.349 424.156 98.919 424.726 99.179 425.516L104.879 442.076L110.669 425.476C110.889 424.776 111.369 424.166 112.289 424.166C113.249 424.166 113.959 424.906 113.959 425.746C113.959 426.056 113.829 426.396 113.739 426.666L106.809 445.876C106.459 446.876 105.759 447.406 104.969 447.406H104.839C103.959 447.406 103.299 446.876 102.989 445.876L97.339 429.586L91.639 445.876C91.329 446.876 90.669 447.406 89.799 447.406H89.709C88.879 447.406 88.189 446.876 87.829 445.866" fill="#404041"/>
<path d="M138.009 425.835C138.009 424.915 138.759 424.125 139.679 424.125C140.649 424.125 141.389 424.875 141.389 425.835V429.725C143.059 425.945 146.759 424.165 149.209 424.165C150.229 424.165 150.879 424.915 150.879 425.875C150.879 426.795 150.269 427.455 149.379 427.585C144.989 428.115 141.389 431.405 141.389 437.955V445.655C141.389 446.575 140.689 447.365 139.719 447.365C138.749 447.365 138.009 446.615 138.009 445.655V425.835Z" fill="#404041"/>
<path d="M161.728 447.581C155.618 447.581 150.618 442.841 150.618 435.881V435.791C150.618 429.311 155.138 424.101 161.298 424.101C167.878 424.101 171.628 429.531 171.628 435.491C171.628 436.411 170.888 437.061 170.078 437.061H153.988C154.458 441.931 157.858 444.661 161.818 444.661C164.578 444.661 166.588 443.571 168.228 442.051C168.488 441.841 168.788 441.661 169.178 441.661C169.988 441.661 170.638 442.311 170.638 443.101C170.638 443.491 170.468 443.881 170.118 444.181C168.018 446.231 165.518 447.581 161.728 447.581V447.581ZM168.318 434.581C167.968 430.491 165.648 426.931 161.208 426.931C157.338 426.931 154.408 430.191 153.978 434.581H168.318V434.581Z" fill="#404041"/>
<path d="M114.03 440.541V440.451C114.03 435.681 117.97 433.131 123.71 433.131C126.6 433.131 128.66 433.521 130.68 434.101V433.311C130.68 429.241 128.18 427.141 123.93 427.141C121.65 427.141 120.33 427.431 118.66 428.171C118.44 428.261 118.22 428.301 118.05 428.301C117.26 428.301 116.56 427.641 116.56 426.851C116.56 426.151 116.86 425.721 117.48 425.451C119.71 424.481 121.39 424.161 124.28 424.161C127.47 424.161 129.93 424.991 131.59 426.661C133.13 428.191 133.91 430.381 133.91 433.271V445.761C133.91 446.721 133.21 447.421 132.28 447.421C131.32 447.421 130.67 446.721 130.67 445.841V443.681C129.09 445.741 126.46 447.581 122.48 447.581C118.28 447.591 114.03 445.191 114.03 440.541V440.541ZM130.72 438.791V436.601C129.05 436.121 126.82 435.641 124.06 435.641C119.82 435.641 117.45 437.481 117.45 440.331V440.421C117.45 443.271 120.07 444.931 123.14 444.931C127.3 444.921 130.72 442.381 130.72 438.791" fill="#404041"/>
<path d="M26.479 425.583C25.739 423.953 23.909 423.223 22.189 423.983C20.479 424.743 19.849 426.643 20.619 428.273L27.809 443.893C28.939 446.343 30.129 447.623 32.369 447.623C34.759 447.623 35.799 446.223 36.929 443.893C36.929 443.893 43.199 430.243 43.259 430.103C43.319 429.963 43.529 429.513 44.159 429.523C44.699 429.523 45.149 429.953 45.149 430.533V443.883C45.149 445.943 46.289 447.623 48.489 447.623C50.679 447.623 51.869 445.933 51.869 443.883V432.963C51.869 430.853 53.379 429.493 55.439 429.493C57.499 429.493 58.869 430.913 58.869 432.963V443.883C58.869 445.943 60.009 447.623 62.209 447.623C64.399 447.623 65.599 445.933 65.599 443.883V432.963C65.599 430.853 67.099 429.493 69.159 429.493C71.209 429.493 72.589 430.913 72.589 432.963V443.883C72.589 445.943 73.729 447.623 75.929 447.623C78.119 447.623 79.309 445.933 79.309 443.883V431.453C79.309 426.883 75.639 423.683 71.219 423.683C66.799 423.683 64.039 426.733 64.039 426.733C62.569 424.823 60.539 423.683 57.119 423.683C53.499 423.683 50.339 426.733 50.339 426.733C48.869 424.823 46.369 423.683 44.289 423.683C41.079 423.683 38.539 425.093 36.979 428.643L32.389 439.463L26.479 425.583V425.583Z" fill="#404041"/>
<path d="M171.899 426.941V426.921C171.899 425.391 173.139 424.101 174.699 424.101C176.279 424.101 177.499 425.371 177.499 426.901V426.911C177.499 428.441 176.259 429.731 174.699 429.731C173.119 429.741 171.899 428.471 171.899 426.941ZM176.969 426.921C176.969 425.661 175.999 424.621 174.699 424.621C173.419 424.621 172.429 425.671 172.429 426.921V426.931C172.429 428.181 173.399 429.211 174.699 429.211C175.979 429.221 176.969 428.171 176.969 426.921Z" fill="#404041"/>
<path d="M173.627 425.807C173.627 425.637 173.757 425.507 173.927 425.507H174.857C175.207 425.507 175.477 425.607 175.647 425.787C175.797 425.937 175.887 426.157 175.887 426.407V426.417C175.887 426.847 175.667 427.107 175.347 427.247L175.757 427.747C175.817 427.827 175.857 427.887 175.857 427.977C175.857 428.147 175.717 428.247 175.577 428.247C175.447 428.247 175.357 428.177 175.287 428.097L174.707 427.357H174.227V427.947C174.227 428.117 174.097 428.247 173.927 428.247C173.757 428.247 173.627 428.117 173.627 427.947V425.807V425.807ZM174.837 426.827C175.127 426.827 175.287 426.677 175.287 426.447V426.437C175.287 426.187 175.117 426.047 174.827 426.047H174.227V426.827H174.837V426.827Z" fill="#404041"/>
<path d="M685.25 431.27H617.97C617.82 430.47 617.73 429.66 617.73 428.82C617.73 421.39 623.75 415.37 631.18 415.37C631.96 415.37 632.73 415.45 633.47 415.58C634.32 407.67 641.01 401.51 649.15 401.51C656.31 401.51 662.35 406.28 664.28 412.81C665.3 412.43 666.4 412.21 667.54 412.21C672.68 412.21 676.85 416.38 676.85 421.52C676.85 421.58 676.84 421.65 676.84 421.7C681.44 422.58 684.96 426.48 685.25 431.27V431.27Z" fill="#9EC0FD" stroke="#404041" stroke-width="2" stroke-miterlimit="10" stroke-linejoin="round"/>
<path d="M449.29 456.42L416.8 423.94" stroke="#404041" stroke-width="2" stroke-miterlimit="10"/>
<path d="M427.27 422.84L427.2 424.84L417.35 424.48L417.71 434.34L415.71 434.41L415.27 422.4L427.27 422.84Z" fill="#404041"/>
<path d="M236.51 504.48L258.89 482.11" stroke="#404041" stroke-width="2" stroke-miterlimit="10"/>
<path d="M259.98 492.58L257.98 492.5L258.34 482.65L248.49 483.01L248.42 481.01L260.42 480.57L259.98 492.58Z" fill="#404041"/>
<path d="M576.84 404H625.22V509.41H576.84V404Z" fill="#FFEAB3"/>
<path d="M576.84 404H625.22V509.41H576.84V404Z" stroke="#404041" stroke-width="2" stroke-miterlimit="10"/>
<path d="M581.38 450H620.68V466.24H581.38V450ZM581.38 429.46H620.68V445.7H581.38V429.46ZM581.38 408.92H620.68V425.16H581.38V408.92Z" fill="#404041"/>
<path d="M616.84 454.18C617.602 454.18 618.22 453.562 618.22 452.8C618.22 452.038 617.602 451.42 616.84 451.42C616.078 451.42 615.46 452.038 615.46 452.8C615.46 453.562 616.078 454.18 616.84 454.18Z" fill="#FAFBFB"/>
<path d="M612.71 454.18C613.472 454.18 614.09 453.562 614.09 452.8C614.09 452.038 613.472 451.42 612.71 451.42C611.948 451.42 611.33 452.038 611.33 452.8C611.33 453.562 611.948 454.18 612.71 454.18Z" fill="#FAFBFB"/>
<path d="M616.84 457.81C617.602 457.81 618.22 457.192 618.22 456.43C618.22 455.668 617.602 455.05 616.84 455.05C616.078 455.05 615.46 455.668 615.46 456.43C615.46 457.192 616.078 457.81 616.84 457.81Z" fill="#FAFBFB"/>
<path d="M612.71 457.81C613.472 457.81 614.09 457.192 614.09 456.43C614.09 455.668 613.472 455.05 612.71 455.05C611.948 455.05 611.33 455.668 611.33 456.43C611.33 457.192 611.948 457.81 612.71 457.81Z" fill="#FAFBFB"/>
<path d="M616.84 461.43C617.602 461.43 618.22 460.812 618.22 460.05C618.22 459.288 617.602 458.67 616.84 458.67C616.078 458.67 615.46 459.288 615.46 460.05C615.46 460.812 616.078 461.43 616.84 461.43Z" fill="#FAFBFB"/>
<path d="M616.84 465.06C617.602 465.06 618.22 464.442 618.22 463.68C618.22 462.918 617.602 462.3 616.84 462.3C616.078 462.3 615.46 462.918 615.46 463.68C615.46 464.442 616.078 465.06 616.84 465.06Z" fill="#FAFBFB"/>
<path d="M612.71 465.06C613.472 465.06 614.09 464.442 614.09 463.68C614.09 462.918 613.472 462.3 612.71 462.3C611.948 462.3 611.33 462.918 611.33 463.68C611.33 464.442 611.948 465.06 612.71 465.06Z" fill="#FAFBFB"/>
<path d="M582.73 451.44H585.44V454.15H582.73V451.44ZM590.03 451.44H592.74V454.15H590.03V451.44Z" fill="#326CE5"/>
<path d="M593.68 451.44H596.39V454.15H593.68V451.44Z" fill="#FAFBFB"/>
<path d="M597.32 451.44H600.03V454.15H597.32V451.44ZM586.38 455.07H589.09V457.78H586.38V455.07Z" fill="#9EC0FD"/>
<path d="M593.68 455.07H596.39V457.78H593.68V455.07Z" fill="#FAFBFB"/>
<path d="M597.32 455.07H600.03V457.78H597.32V455.07Z" fill="#326CE5"/>
<path d="M582.73 458.69H585.44V461.4H582.73V458.69Z" fill="#FAFBFB"/>
<path d="M586.38 458.69H589.09V461.4H586.38V458.69Z" fill="#326CE5"/>
<path d="M590.03 458.69H592.74V461.4H590.03V458.69ZM593.68 458.69H596.39V461.4H593.68V458.69Z" fill="#9EC0FD"/>
<path d="M582.73 462.32H585.44V465.03H582.73V462.32ZM590.03 462.32H592.74V465.03H590.03V462.32Z" fill="#326CE5"/>
<path d="M593.68 462.32H596.39V465.03H593.68V462.32Z" fill="#FAFBFB"/>
<path d="M597.32 462.32H600.03V465.03H597.32V462.32Z" fill="#9EC0FD"/>
<path d="M601.03 451.44H603.74V454.15H601.03V451.44Z" fill="#326CE5"/>
<path d="M601.03 455.07H603.74V457.78H601.03V455.07Z" fill="#9EC0FD"/>
<path d="M601.03 458.69H603.74V461.4H601.03V458.69Z" fill="#326CE5"/>
<path d="M612.71 433.52C613.472 433.52 614.09 432.902 614.09 432.14C614.09 431.378 613.472 430.76 612.71 430.76C611.948 430.76 611.33 431.378 611.33 432.14C611.33 432.902 611.948 433.52 612.71 433.52Z" fill="#FAFBFB"/>
<path d="M616.84 437.15C617.602 437.15 618.22 436.532 618.22 435.77C618.22 435.008 617.602 434.39 616.84 434.39C616.078 434.39 615.46 435.008 615.46 435.77C615.46 436.532 616.078 437.15 616.84 437.15Z" fill="#FAFBFB"/>
<path d="M612.71 437.15C613.472 437.15 614.09 436.532 614.09 435.77C614.09 435.008 613.472 434.39 612.71 434.39C611.948 434.39 611.33 435.008 611.33 435.77C611.33 436.532 611.948 437.15 612.71 437.15Z" fill="#FAFBFB"/>
<path d="M616.84 440.77C617.602 440.77 618.22 440.152 618.22 439.39C618.22 438.628 617.602 438.01 616.84 438.01C616.078 438.01 615.46 438.628 615.46 439.39C615.46 440.152 616.078 440.77 616.84 440.77Z" fill="#FAFBFB"/>
<path d="M612.71 440.77C613.472 440.77 614.09 440.152 614.09 439.39C614.09 438.628 613.472 438.01 612.71 438.01C611.948 438.01 611.33 438.628 611.33 439.39C611.33 440.152 611.948 440.77 612.71 440.77Z" fill="#FAFBFB"/>
<path d="M612.71 444.4C613.472 444.4 614.09 443.782 614.09 443.02C614.09 442.258 613.472 441.64 612.71 441.64C611.948 441.64 611.33 442.258 611.33 443.02C611.33 443.782 611.948 444.4 612.71 444.4Z" fill="#FAFBFB"/>
<path d="M582.73 430.78H585.44V433.49H582.73V430.78Z" fill="#9EC0FD"/>
<path d="M586.38 430.78H589.09V433.49H586.38V430.78Z" fill="#326CE5"/>
<path d="M593.68 430.78H596.39V433.49H593.68V430.78Z" fill="#FAFBFB"/>
<path d="M597.32 430.78H600.03V433.49H597.32V430.78Z" fill="#326CE5"/>
<path d="M582.73 434.41H585.44V437.12H582.73V434.41Z" fill="#FAFBFB"/>
<path d="M586.38 434.41H589.09V437.12H586.38V434.41Z" fill="#9EC0FD"/>
<path d="M593.68 434.41H596.39V437.12H593.68V434.41Z" fill="#FAFBFB"/>
<path d="M597.32 434.41H600.03V437.12H597.32V434.41Z" fill="#9EC0FD"/>
<path d="M582.73 438.04H585.44V440.75H582.73V438.04Z" fill="#326CE5"/>
<path d="M586.38 438.04H589.09V440.75H586.38V438.04ZM590.03 438.04H592.74V440.75H590.03V438.04Z" fill="#FAFBFB"/>
<path d="M593.68 438.04H596.39V440.75H593.68V438.04Z" fill="#326CE5"/>
<path d="M586.38 441.66H589.09V444.37H586.38V441.66Z" fill="#9EC0FD"/>
<path d="M590.03 441.66H592.74V444.37H590.03V441.66Z" fill="#FAFBFB"/>
<path d="M597.32 441.66H600.03V444.37H597.32V441.66Z" fill="#326CE5"/>
<path d="M601.03 430.78H603.74V433.49H601.03V430.78Z" fill="#FAFBFB"/>
<path d="M601.03 438.04H603.74V440.75H601.03V438.04Z" fill="#326CE5"/>
<path d="M601.03 441.66H603.74V444.37H601.03V441.66Z" fill="#9EC0FD"/>
<path d="M616.84 412.86C617.602 412.86 618.22 412.242 618.22 411.48C618.22 410.718 617.602 410.1 616.84 410.1C616.078 410.1 615.46 410.718 615.46 411.48C615.46 412.242 616.078 412.86 616.84 412.86Z" fill="#FAFBFB"/>
<path d="M616.84 416.49C617.602 416.49 618.22 415.872 618.22 415.11C618.22 414.348 617.602 413.73 616.84 413.73C616.078 413.73 615.46 414.348 615.46 415.11C615.46 415.872 616.078 416.49 616.84 416.49Z" fill="#404041"/>
<path d="M612.71 412.86C613.472 412.86 614.09 412.242 614.09 411.48C614.09 410.718 613.472 410.1 612.71 410.1C611.948 410.1 611.33 410.718 611.33 411.48C611.33 412.242 611.948 412.86 612.71 412.86Z" fill="#404041"/>
<path d="M612.71 416.49C613.472 416.49 614.09 415.872 614.09 415.11C614.09 414.348 613.472 413.73 612.71 413.73C611.948 413.73 611.33 414.348 611.33 415.11C611.33 415.872 611.948 416.49 612.71 416.49Z" fill="#FAFBFB"/>
<path d="M612.71 420.11C613.472 420.11 614.09 419.492 614.09 418.73C614.09 417.968 613.472 417.35 612.71 417.35C611.948 417.35 611.33 417.968 611.33 418.73C611.33 419.492 611.948 420.11 612.71 420.11Z" fill="#404041"/>
<path d="M616.84 420.11C617.602 420.11 618.22 419.492 618.22 418.73C618.22 417.968 617.602 417.35 616.84 417.35C616.078 417.35 615.46 417.968 615.46 418.73C615.46 419.492 616.078 420.11 616.84 420.11Z" fill="#FAFBFB"/>
<path d="M616.84 423.74C617.602 423.74 618.22 423.122 618.22 422.36C618.22 421.598 617.602 420.98 616.84 420.98C616.078 420.98 615.46 421.598 615.46 422.36C615.46 423.122 616.078 423.74 616.84 423.74Z" fill="#FAFBFB"/>
<path d="M612.71 423.74C613.472 423.74 614.09 423.122 614.09 422.36C614.09 421.598 613.472 420.98 612.71 420.98C611.948 420.98 611.33 421.598 611.33 422.36C611.33 423.122 611.948 423.74 612.71 423.74Z" fill="#FAFBFB"/>
<path d="M586.38 410.13H589.09V412.84H586.38V410.13Z" fill="#326CE5"/>
<path d="M590.03 410.13H592.74V412.84H590.03V410.13Z" fill="#FAFBFB"/>
<path d="M593.68 410.13H596.39V412.84H593.68V410.13ZM597.32 410.13H600.03V412.84H597.32V410.13ZM582.73 413.75H585.44V416.46H582.73V413.75Z" fill="#9EC0FD"/>
<path d="M586.38 413.75H589.09V416.46H586.38V413.75Z" fill="#FAFBFB"/>
<path d="M593.68 413.75H596.39V416.46H593.68V413.75ZM597.32 413.75H600.03V416.46H597.32V413.75ZM586.38 417.38H589.09V420.09H586.38V417.38Z" fill="#326CE5"/>
<path d="M590.03 417.38H592.74V420.09H590.03V417.38Z" fill="#9EC0FD"/>
<path d="M593.68 417.38H596.39V420.09H593.68V417.38Z" fill="#FAFBFB"/>
<path d="M597.32 417.38H600.03V420.09H597.32V417.38Z" fill="#9EC0FD"/>
<path d="M582.73 421H585.44V423.71H582.73V421Z" fill="#326CE5"/>
<path d="M586.38 421H589.09V423.71H586.38V421Z" fill="#FAFBFB"/>
<path d="M590.03 421H592.74V423.71H590.03V421Z" fill="#9EC0FD"/>
<path d="M593.68 421H596.39V423.71H593.68V421ZM601.03 413.75H603.74V416.46H601.03V413.75Z" fill="#326CE5"/>
<path d="M601.03 417.38H603.74V420.09H601.03V417.38Z" fill="#FAFBFB"/>
<path d="M601.03 421H603.74V423.71H601.03V421Z" fill="#326CE5"/>
<path d="M582.73 498.37H619.83M582.73 475H619.83H582.73ZM582.73 480.84H619.83H582.73ZM582.73 486.69H619.83H582.73ZM582.73 492.53H619.83H582.73Z" stroke="#404041" stroke-width="2" stroke-miterlimit="10"/>
<path d="M358.09 257.62H369.95V224.55L381.76 224.54L363.98 204.35L346.29 224.57L358.09 224.56V257.62Z" fill="#326CE5"/>
<path d="M395.27 384.27L374.47 384.28V405.34L364.02 393.84L353.57 405.34V384.3L332.77 384.32L363.95 348.7L395.27 384.27Z" fill="white"/>
<path d="M103.09 83.03H206.56C206.79 81.81 206.92 80.55 206.92 79.26C206.92 67.83 197.66 58.58 186.24 58.58C185.04 58.58 183.86 58.71 182.72 58.9C181.41 46.74 171.12 37.27 158.6 37.27C147.59 37.27 138.3 44.61 135.34 54.65C133.77 54.06 132.08 53.72 130.32 53.72C122.42 53.72 116.01 60.13 116.01 68.03C116.01 68.13 116.02 68.23 116.02 68.31C108.95 69.67 103.53 75.68 103.09 83.03Z" fill="#9EC0FD"/>
<path d="M150.04 209.73L147.6 205.49M601.48 50.5897H606.37H601.48ZM609.73 50.5897H614.62H609.73ZM604.77 56.2797L607.21 52.0397L604.77 56.2797ZM608.89 49.1497L611.33 44.9097L608.89 49.1497ZM611.33 56.2797L608.89 52.0397L611.33 56.2797ZM607.21 49.1497L604.77 44.9097L607.21 49.1497ZM385.27 483.89H390.16H385.27ZM393.51 483.89H398.4H393.51ZM388.55 489.58L391 485.34L388.55 489.58ZM392.67 482.45L395.12 478.21L392.67 482.45ZM395.12 489.58L392.67 485.34L395.12 489.58ZM391 482.45L388.55 478.21L391 482.45ZM645.76 302.91H650.65H645.76ZM654 302.91H658.89H654ZM649.04 308.6L651.49 304.36L649.04 308.6ZM653.16 301.46L655.61 297.23L653.16 301.46ZM655.61 308.6L653.16 304.36L655.61 308.6ZM651.49 301.46L649.04 297.23L651.49 301.46ZM144.31 211.17H149.2H144.31ZM152.56 211.17H157.45H152.56ZM147.6 216.86L150.04 212.62L147.6 216.86ZM151.71 209.73L154.16 205.49L151.71 209.73ZM154.16 216.86L151.71 212.62L154.16 216.86Z" stroke="#404041" stroke-width="2" stroke-miterlimit="10"/>
<path d="M556.88 352.69L551.23 362.47H562.52L556.88 352.69Z" fill="#E6E7E8"/>
<path d="M515.06 36.6997L509.74 45.9197H520.38L515.06 36.6997ZM83.4 315.96L78.08 325.18H88.72L83.4 315.96Z" stroke="#404041" stroke-width="2" stroke-miterlimit="10" stroke-linejoin="round"/>
<path d="M49.8 139.37C51.86 139.37 53.53 137.7 53.53 135.64C53.53 133.58 51.86 131.91 49.8 131.91C47.74 131.91 46.07 133.58 46.07 135.64C46.07 137.7 47.74 139.37 49.8 139.37Z" stroke="#404041" stroke-width="2" stroke-miterlimit="10"/>
<path d="M581.38 190.01C584.081 190.01 586.27 187.821 586.27 185.12C586.27 182.419 584.081 180.23 581.38 180.23C578.679 180.23 576.49 182.419 576.49 185.12C576.49 187.821 578.679 190.01 581.38 190.01Z" fill="#E6E7E8"/>
<path d="M133 111.53C135.701 111.53 137.89 109.341 137.89 106.64C137.89 103.939 135.701 101.75 133 101.75C130.299 101.75 128.11 103.939 128.11 106.64C128.11 109.341 130.299 111.53 133 111.53Z" fill="#E6E7E8"/>
<path d="M598.68 259.28V250.68M594.38 254.97H602.98H594.38Z" stroke="#404041" stroke-width="2" stroke-miterlimit="10"/>
<path d="M78.51 229.81H88.29V239.59H78.51V229.81ZM634.7 140.62H644.48V150.4H634.7V140.62Z" fill="#E6E7E8"/>
<path d="M238.98 281.68C240.99 281.38 243.38 281.15 245.99 281.15C250.73 281.15 254.1 282.25 256.34 284.33C258.61 286.41 259.94 289.37 259.94 293.5C259.94 297.67 258.65 301.08 256.26 303.43C253.87 305.82 249.93 307.11 244.97 307.11C242.62 307.11 240.65 307 238.98 306.81V281.68V281.68ZM242.28 304.27C243.11 304.42 244.33 304.46 245.62 304.46C252.67 304.46 256.5 300.52 256.5 293.62C256.54 287.59 253.13 283.76 246.15 283.76C244.44 283.76 243.16 283.91 242.28 284.1V304.27ZM266.12 298.32C266.2 302.83 269.08 304.69 272.41 304.69C274.8 304.69 276.24 304.27 277.49 303.74L278.06 306.13C276.89 306.66 274.88 307.27 271.96 307.27C266.31 307.27 262.94 303.56 262.94 298.02C262.94 292.49 266.2 288.13 271.54 288.13C277.53 288.13 279.12 293.4 279.12 296.77C279.12 297.45 279.04 297.98 279.01 298.32H266.12ZM275.9 295.93C275.94 293.81 275.03 290.51 271.28 290.51C267.91 290.51 266.43 293.62 266.16 295.93H275.9ZM284.54 288.54L288.14 298.85C288.75 300.52 289.24 302.03 289.62 303.55H289.73C290.15 302.03 290.68 300.52 291.28 298.85L294.84 288.54H298.33L291.13 306.88H287.95L280.98 288.54H284.54V288.54ZM454.76 293.85C454.76 302.64 449.42 307.31 442.9 307.31C436.15 307.31 431.42 302.08 431.42 294.35C431.42 286.24 436.46 280.93 443.28 280.93C450.25 280.92 454.76 286.26 454.76 293.85ZM434.94 294.26C434.94 299.72 437.9 304.61 443.09 304.61C448.32 304.61 451.28 299.8 451.28 294C451.28 288.92 448.63 283.61 443.13 283.61C437.67 283.61 434.94 288.65 434.94 294.26ZM458.93 294.53C458.93 292.18 458.85 290.28 458.78 288.54H461.77L461.92 291.69H462C463.36 289.45 465.53 288.13 468.52 288.13C472.95 288.13 476.29 291.88 476.29 297.45C476.29 304.04 472.27 307.3 467.95 307.3C465.52 307.3 463.4 306.24 462.3 304.42H462.22V314.39H458.92V294.53H458.93ZM462.23 299.42C462.23 299.91 462.31 300.37 462.38 300.78C462.99 303.09 465 304.68 467.38 304.68C470.9 304.68 472.95 301.8 472.95 297.59C472.95 293.91 471.02 290.77 467.49 290.77C465.22 290.77 463.09 292.4 462.45 294.9C462.34 295.32 462.22 295.81 462.22 296.26V299.42H462.23ZM480.04 303.47C481.03 304.11 482.77 304.8 484.44 304.8C486.87 304.8 488 303.59 488 302.07C488 300.48 487.05 299.61 484.59 298.7C481.29 297.53 479.74 295.71 479.74 293.51C479.74 290.55 482.13 288.13 486.07 288.13C487.93 288.13 489.56 288.66 490.58 289.27L489.75 291.7C489.03 291.24 487.7 290.64 486 290.64C484.03 290.64 482.93 291.78 482.93 293.14C482.93 294.66 484.03 295.34 486.42 296.25C489.6 297.46 491.23 299.05 491.23 301.78C491.23 305 488.73 307.28 484.37 307.28C482.36 307.28 480.5 306.79 479.22 306.03L480.04 303.47V303.47Z" fill="#404041"/>
<path d="M416.92 327.2L320.05 229.63L294.71 233.56L297.93 254.39L399.02 355.31L395.19 330.57L416.92 327.2Z" fill="#FFEAB3" stroke="#404041" stroke-width="2" stroke-miterlimit="10"/>
<path d="M413.74 267.59L417.53 243.1L395.49 239.68L295.41 339.38L318.42 342.94L314.83 366.14L413.74 267.59Z" fill="#9EC0FD" stroke="#404041" stroke-width="2" stroke-miterlimit="10"/>
<path d="M227.34 258.19L205.94 257L207.36 231.55C190.11 247.66 179.3 270.6 179.3 296.01C179.3 311.73 183.43 326.49 190.67 339.28L215.67 344.03L219.6 323.38C214.819 315.051 212.309 305.613 212.32 296.01C212.32 281.38 218.04 268.07 227.34 258.19Z" fill="#FFEAB3" stroke="#404041" stroke-width="2" stroke-miterlimit="10"/>
<path d="M286.8 344.73C276.76 350.29 270.55 351.22 267.53 351.22C250.36 351.22 235.01 343.35 224.87 331.02L220.92 351.76L195.52 346.93C211.52 369.48 237.83 384.23 267.53 384.23C279.65 384.23 292.85 379.86 307.4 370.98L310.89 348.45L286.8 344.73V344.73ZM312.29 224.15C295.79 213.17 280.99 207.78 267.53 207.78C247.56 207.78 229.11 214.46 214.3 225.7L212.9 250.78L234.26 251.97H234.27C243.84 244.708 255.527 240.785 267.54 240.8C270.91 240.8 278.27 241.96 290.5 249.45L287.18 228.04L312.29 224.15V224.15Z" fill="#FFEAB3" stroke="#404041" stroke-width="2" stroke-miterlimit="10"/>
<path d="M495.24 359.93L496.23 338.06C486.6 346.27 474.12 351.22 460.5 351.22C456.02 351.22 444.45 349.16 423.74 332.83L402.72 336.08L406.63 361.37C426.85 376.72 444.61 384.24 460.49 384.24C483.42 384.24 504.33 375.45 520.04 361.05L495.24 359.93V359.93Z" fill="#9EC0FD" stroke="#404041" stroke-width="2" stroke-miterlimit="10"/>
<path d="M520.43 231.32L521.87 257L500.68 258.18C510.01 268.07 515.72 281.38 515.72 296.01C515.72 309.28 511.01 321.48 503.16 331.02L503.15 331.04L502.13 353.63L526.3 354.73C540.25 339.13 548.74 318.54 548.74 296.01C548.74 270.47 537.84 247.43 520.43 231.32V231.32Z" fill="#9EC0FD" stroke="#404041" stroke-width="2" stroke-miterlimit="10"/>
<path d="M513.49 225.51C498.72 214.38 480.37 207.78 460.5 207.78C443.49 207.78 424.32 216.4 402.27 234.05L425.06 237.57L421.43 261.03C443.59 243 455.84 240.79 460.5 240.79C472.97 240.79 484.5 244.95 493.75 251.95L514.9 250.77L513.49 225.51V225.51Z" fill="#9EC0FD" stroke="#404041" stroke-width="2" stroke-miterlimit="10"/>
<path d="M345.08 306.5C345.41 306 345.95 305.37 346.51 304.81C347.38 303.94 348.1 303.54 348.85 303.5C349.45 303.46 350.06 303.71 350.54 304.2C351.37 305.03 351.4 306.11 350.96 306.99L350.99 307.02C351.64 306.7 352.38 306.86 353.19 307.37C354.27 308.04 355.03 308.5 355.4 308.61L354.56 309.45C354.28 309.37 353.6 308.97 352.64 308.37C351.58 307.69 350.92 307.7 350.15 308.41L349.38 309.18L352.11 311.91L351.3 312.72L345.08 306.5V306.5ZM348.77 308.56L349.6 307.73C350.47 306.86 350.54 305.83 349.82 305.11C349.01 304.3 348.06 304.53 347.19 305.38C346.8 305.77 346.56 306.09 346.46 306.26L348.77 308.56ZM356.63 301.48L354.18 303.93L356.45 306.2L359.18 303.47L359.86 304.15L356.32 307.69L350.02 301.39L353.42 297.99L354.1 298.67L351.51 301.26L353.5 303.25L355.95 300.8L356.63 301.48ZM354.62 296.8L355.43 295.99L361.05 301.61L363.74 298.92L364.42 299.6L360.92 303.1L354.62 296.8ZM365.63 292.47L363.18 294.92L365.45 297.19L368.18 294.46L368.86 295.14L365.32 298.68L359.02 292.38L362.42 288.98L363.1 289.66L360.51 292.25L362.5 294.24L364.95 291.79L365.63 292.47ZM368.96 291.09L370.29 293.73L369.45 294.57L365.29 286.13L366.27 285.15L374.72 289.3L373.85 290.17L371.2 288.86L368.96 291.09V291.09ZM370.39 288.39L367.96 287.19C367.41 286.92 366.94 286.64 366.48 286.37L366.46 286.39C366.74 286.86 367.02 287.34 367.28 287.85L368.49 290.29L370.39 288.39V288.39ZM374.53 287.5C375.12 287.36 375.84 287.01 376.4 286.45C377.23 285.62 377.28 284.69 376.64 284.06C376.05 283.47 375.38 283.47 374.2 283.99C372.81 284.65 371.64 284.76 370.75 283.87C369.77 282.89 369.85 281.35 371.08 280.12C371.73 279.47 372.34 279.16 372.78 279.04L373.22 279.93C372.9 280.02 372.3 280.26 371.73 280.83C370.87 281.69 371.06 282.53 371.49 282.96C372.08 283.55 372.75 283.46 373.96 282.92C375.44 282.27 376.49 282.24 377.42 283.16C378.39 284.13 378.51 285.69 377.03 287.18C376.42 287.79 375.58 288.27 375.02 288.39L374.53 287.5V287.5ZM380.55 277.56L378.1 280.01L380.37 282.28L383.1 279.55L383.78 280.23L380.24 283.77L373.94 277.47L377.34 274.07L378.02 274.75L375.43 277.34L377.42 279.33L379.87 276.88L380.55 277.56ZM446.34 221.08C447.04 220.97 447.87 220.89 448.79 220.89C450.44 220.89 451.62 221.27 452.4 222C453.19 222.73 453.65 223.76 453.65 225.2C453.65 226.65 453.2 227.84 452.37 228.66C451.54 229.49 450.16 229.94 448.43 229.94C447.61 229.94 446.92 229.9 446.34 229.83V221.08V221.08ZM447.49 228.96C447.78 229.01 448.2 229.03 448.65 229.03C451.11 229.03 452.44 227.66 452.44 225.25C452.45 223.15 451.26 221.81 448.83 221.81C448.24 221.81 447.79 221.86 447.48 221.93V228.96H447.49ZM459.74 225.69H456.28V228.9H460.14V229.86H455.13V220.95H459.94V221.91H456.28V224.72H459.74V225.69V225.69ZM461.63 221.07C462.19 220.98 462.91 220.9 463.84 220.9C464.98 220.9 465.81 221.16 466.34 221.64C466.83 222.06 467.12 222.71 467.12 223.5C467.12 224.31 466.88 224.94 466.43 225.4C465.82 226.05 464.83 226.38 463.71 226.38C463.37 226.38 463.05 226.37 462.79 226.3V229.87H461.64V221.07H461.63ZM462.78 225.36C463.03 225.43 463.35 225.45 463.73 225.45C465.12 225.45 465.96 224.78 465.96 223.55C465.96 222.37 465.13 221.81 463.86 221.81C463.36 221.81 462.98 221.85 462.78 221.9V225.36ZM468.66 220.96H469.81V228.9H473.62V229.86H468.66V220.96ZM481.99 225.32C481.99 228.39 480.13 230.01 477.85 230.01C475.5 230.01 473.85 228.19 473.85 225.49C473.85 222.66 475.61 220.81 477.99 220.81C480.41 220.82 481.99 222.68 481.99 225.32V225.32ZM475.08 225.47C475.08 227.37 476.11 229.08 477.92 229.08C479.74 229.08 480.77 227.4 480.77 225.38C480.77 223.61 479.84 221.76 477.93 221.76C476.03 221.76 475.08 223.51 475.08 225.47V225.47ZM485.09 229.87V226.09L482.28 220.96H483.59L484.84 223.42C485.18 224.09 485.45 224.64 485.73 225.26H485.76C486.01 224.68 486.31 224.1 486.66 223.42L487.94 220.96H489.25L486.26 226.07V229.86H485.09V229.87ZM243.48 234.29C243.17 234.68 242.44 235.26 241.4 235.74C238.98 236.85 236.45 236.16 235.15 233.34C233.91 230.65 234.9 227.99 237.57 226.76C238.64 226.27 239.42 226.19 239.79 226.21L239.94 227.24C239.43 227.23 238.76 227.35 238.04 227.68C236.03 228.61 235.28 230.51 236.31 232.77C237.28 234.87 239.11 235.67 241.2 234.71C241.88 234.4 242.5 233.94 242.85 233.52L243.48 234.29V234.29ZM250.74 227.18C251.72 230.28 250.35 232.53 248.05 233.25C245.67 234 243.41 232.68 242.55 229.95C241.64 227.09 242.83 224.65 245.24 223.89C247.71 223.12 249.9 224.51 250.74 227.18V227.18ZM243.79 229.54C244.4 231.47 245.99 232.86 247.82 232.28C249.67 231.7 250.17 229.67 249.53 227.62C248.96 225.83 247.44 224.25 245.49 224.86C243.57 225.47 243.16 227.56 243.79 229.54V229.54ZM251.87 222.34C252.58 222.11 253.44 221.88 254.4 221.71C256.13 221.42 257.43 221.61 258.37 222.24C259.33 222.86 260 223.86 260.25 225.37C260.51 226.89 260.25 228.22 259.52 229.22C258.8 230.24 257.44 230.95 255.62 231.26C254.76 231.4 254.04 231.48 253.41 231.52L251.87 222.34V222.34ZM254.47 230.39C254.78 230.39 255.23 230.33 255.7 230.25C258.27 229.82 259.43 228.14 259 225.62C258.64 223.42 257.16 222.23 254.61 222.66C253.99 222.76 253.53 222.9 253.22 223.02L254.47 230.39V230.39ZM267.08 225.55L263.41 225.73L263.58 229.14L267.67 228.94L267.72 229.96L262.4 230.22L261.94 220.77L267.04 220.52L267.09 221.54L263.21 221.73L263.36 224.72L267.03 224.54L267.08 225.55V225.55ZM195.53 319.11C195.28 318.62 194.98 317.83 194.76 317.01C194.44 315.83 194.44 315.02 194.75 314.32C194.97 313.75 195.44 313.32 196.16 313.13C197.04 312.89 197.97 313.27 198.58 314.13L198.61 314.12C198.59 313.19 199.04 311.98 200.39 311.62C200.731 311.523 201.088 311.498 201.439 311.546C201.791 311.594 202.128 311.715 202.43 311.9C203.18 312.38 203.73 313.34 204.14 314.83C204.36 315.64 204.47 316.28 204.53 316.69L195.53 319.11V319.11ZM198.95 316.92L198.66 315.85C198.32 314.6 197.48 314.05 196.59 314.29C195.52 314.58 195.32 315.51 195.64 316.7C195.79 317.24 195.91 317.54 196 317.72L198.95 316.92V316.92ZM203.33 315.74C203.31 315.5 203.23 315.16 203.12 314.74C202.79 313.52 202.04 312.52 200.71 312.88C199.46 313.22 199.24 314.43 199.59 315.71L199.85 316.69L203.33 315.74V315.74ZM193.16 309.71L198.7 308.92C200.8 308.62 201.55 307.56 201.37 306.31C201.17 304.92 200.13 304.16 198.06 304.46L192.52 305.25L192.35 304.03L197.81 303.25C200.68 302.84 202.08 304.18 202.37 306.21C202.64 308.13 201.75 309.73 198.85 310.14L193.34 310.93L193.16 309.71V309.71ZM192.15 300.06L201.59 299.57L201.65 300.79L192.21 301.28L192.15 300.06ZM192.04 297.43L192.06 296.21L200.5 296.37L200.57 292.33L201.6 292.35L201.5 297.61L192.04 297.43V297.43ZM192.4 290.01C192.39 289.26 192.42 288.37 192.55 287.41C192.78 285.67 193.35 284.49 194.23 283.77C195.11 283.04 196.26 282.7 197.77 282.9C199.3 283.1 200.49 283.74 201.23 284.74C201.99 285.73 202.27 287.24 202.02 289.06C201.9 289.92 201.77 290.64 201.61 291.24L192.4 290.01V290.01ZM200.85 289.9C200.95 289.6 201.02 289.16 201.08 288.69C201.43 286.11 200.17 284.51 197.64 284.17C195.43 283.86 193.86 284.92 193.52 287.48C193.44 288.11 193.43 288.59 193.46 288.91L200.85 289.9V289.9ZM440.11 365.73C440.04 364.49 439.96 362.99 439.98 361.88H439.94C439.64 362.92 439.27 364.03 438.82 365.26L437.25 369.58H436.38L434.94 365.34C434.52 364.09 434.16 362.94 433.91 361.88H433.88C433.85 362.99 433.79 364.48 433.71 365.82L433.47 369.64H432.37L432.99 360.73H434.46L435.98 365.04C436.35 366.14 436.65 367.12 436.88 368.04H436.92C437.14 367.14 437.46 366.16 437.86 365.04L439.45 360.73H440.92L441.47 369.64H440.35L440.11 365.73V365.73ZM450.84 365.1C450.84 368.17 448.98 369.79 446.7 369.79C444.35 369.79 442.7 367.97 442.7 365.27C442.7 362.44 444.46 360.59 446.84 360.59C449.26 360.59 450.84 362.45 450.84 365.1ZM443.93 365.24C443.93 367.14 444.96 368.85 446.77 368.85C448.59 368.85 449.62 367.17 449.62 365.15C449.62 363.38 448.69 361.53 446.78 361.53C444.88 361.53 443.93 363.28 443.93 365.24ZM452.32 369.64V360.73H453.58L456.43 365.24C457.09 366.28 457.61 367.22 458.03 368.13L458.06 368.12C457.95 366.93 457.93 365.85 457.93 364.46V360.73H459.01V369.64H457.85L455.02 365.12C454.4 364.13 453.8 363.11 453.35 362.15L453.31 362.16C453.38 363.28 453.4 364.35 453.4 365.83V369.64H452.32V369.64ZM462.16 360.73V369.64H461.01V360.73H462.16ZM465.86 361.71H463.15V360.73H469.74V361.71H467.02V369.64H465.86V361.71V361.71ZM477.99 365.1C477.99 368.17 476.13 369.79 473.85 369.79C471.5 369.79 469.85 367.97 469.85 365.27C469.85 362.44 471.61 360.59 473.99 360.59C476.42 360.59 477.99 362.45 477.99 365.1ZM471.08 365.24C471.08 367.14 472.11 368.85 473.92 368.85C475.74 368.85 476.77 367.17 476.77 365.15C476.77 363.38 475.84 361.53 473.93 361.53C472.03 361.53 471.08 363.28 471.08 365.24ZM479.48 360.85C480.06 360.73 480.89 360.66 481.69 360.66C482.92 360.66 483.71 360.88 484.27 361.39C484.72 361.79 484.97 362.39 484.97 363.08C484.97 364.26 484.23 365.04 483.29 365.35V365.39C483.98 365.63 484.39 366.26 484.6 367.19C484.89 368.43 485.1 369.29 485.29 369.63H484.1C483.95 369.38 483.76 368.61 483.51 367.5C483.25 366.27 482.77 365.81 481.73 365.77H480.65V369.63H479.5V360.85H479.48ZM480.63 364.91H481.81C483.04 364.91 483.82 364.24 483.82 363.22C483.82 362.07 482.99 361.57 481.77 361.55C481.22 361.55 480.82 361.6 480.63 361.66V364.91ZM531.15 280.27C528.08 280.27 526.46 278.41 526.46 276.13C526.46 273.78 528.28 272.13 530.98 272.13C533.81 272.13 535.66 273.89 535.66 276.27C535.66 278.7 533.8 280.27 531.15 280.27V280.27ZM531.01 273.36C529.11 273.36 527.4 274.39 527.4 276.2C527.4 278.02 529.08 279.05 531.1 279.05C532.87 279.05 534.72 278.12 534.72 276.21C534.72 274.31 532.96 273.36 531.01 273.36ZM535.41 281.76C535.5 282.32 535.58 283.04 535.58 283.97C535.58 285.11 535.32 285.94 534.84 286.47C534.42 286.96 533.77 287.25 532.98 287.25C532.17 287.25 531.54 287.01 531.08 286.56C530.43 285.95 530.1 284.96 530.1 283.84C530.1 283.5 530.11 283.18 530.18 282.92H526.61V281.77H535.41V281.76ZM531.11 282.91C531.04 283.16 531.02 283.48 531.02 283.86C531.02 285.25 531.69 286.09 532.92 286.09C534.1 286.09 534.66 285.26 534.66 283.99C534.66 283.49 534.62 283.11 534.57 282.91H531.11V282.91ZM530.78 293.4V289.94H527.57V293.8H526.61V288.79H535.52V293.6H534.56V289.94H531.75V293.4H530.78V293.4ZM535.39 295.28C535.51 295.86 535.58 296.69 535.58 297.49C535.58 298.72 535.36 299.51 534.85 300.07C534.45 300.52 533.85 300.77 533.16 300.77C531.98 300.77 531.2 300.03 530.89 299.09H530.85C530.61 299.78 529.98 300.19 529.05 300.4C527.81 300.69 526.95 300.9 526.61 301.09V299.9C526.86 299.75 527.63 299.56 528.74 299.31C529.97 299.05 530.43 298.57 530.47 297.53V296.45H526.61V295.3H535.39V295.28ZM531.34 296.43V297.61C531.34 298.84 532.01 299.62 533.03 299.62C534.18 299.62 534.68 298.79 534.7 297.57C534.7 297.02 534.65 296.62 534.59 296.43H531.34ZM529.41 303.9L526.61 302.98V301.79L535.52 304.82V306.21L526.61 309.25V308.02L529.41 307.07V303.9V303.9ZM530.31 306.82L532.87 305.95C533.45 305.75 533.98 305.62 534.49 305.49V305.46C533.96 305.33 533.42 305.18 532.88 305.01L530.3 304.14V306.82H530.31ZM534.54 311.21V308.5H535.52V315.09H534.54V312.37H526.61V311.21H534.54V311.21ZM530.78 320.7V317.24H527.57V321.1H526.61V316.09H535.52V320.9H534.56V317.24H531.75V320.7H530.78V320.7ZM252.22 363.59H249.51V362.61H256.1V363.59H253.38V371.52H252.22V363.59ZM261.71 367.35H258.25V370.56H262.11V371.52H257.1V362.61H261.91V363.57H258.25V366.38H261.71V367.35V367.35ZM263.44 370.12C263.96 370.44 264.71 370.7 265.5 370.7C266.68 370.7 267.36 370.08 267.36 369.18C267.36 368.35 266.88 367.87 265.68 367.41C264.23 366.89 263.33 366.14 263.33 364.89C263.33 363.5 264.48 362.47 266.21 362.47C267.12 362.47 267.78 362.68 268.18 362.91L267.86 363.85C267.57 363.69 266.97 363.43 266.17 363.43C264.95 363.43 264.49 364.16 264.49 364.76C264.49 365.59 265.03 366 266.26 366.48C267.77 367.06 268.53 367.79 268.53 369.1C268.53 370.48 267.51 371.66 265.41 371.66C264.55 371.66 263.61 371.41 263.14 371.09L263.44 370.12ZM271.8 363.59H269.09V362.61H275.68V363.59H272.96V371.52H271.8V363.59V363.59ZM326.91 251.01C327.37 251.34 327.94 251.79 328.59 252.45C329.39 253.25 329.79 254.03 329.83 254.74C329.88 255.38 329.62 256.05 329.06 256.61C328.49 257.18 327.87 257.46 327.23 257.47C326.34 257.5 325.41 257.03 324.61 256.24C324.37 256 324.15 255.76 324.01 255.53L321.49 258.05L320.68 257.24L326.91 251.01V251.01ZM324.69 254.86C324.82 255.08 325.03 255.33 325.3 255.6C326.28 256.58 327.36 256.7 328.22 255.83C329.05 255 328.86 254.01 327.97 253.11C327.62 252.76 327.32 252.51 327.14 252.41L324.69 254.86V254.86ZM331.96 255.9L332.77 256.71L327.15 262.33L329.84 265.02L329.16 265.7L325.66 262.2L331.96 255.9ZM333.07 265.65L330.44 266.98L329.6 266.14L338.04 261.98L339.02 262.96L334.87 271.41L334 270.54L335.31 267.89L333.07 265.65V265.65ZM335.77 267.08L336.97 264.65C337.24 264.1 337.52 263.63 337.79 263.17L337.77 263.15C337.3 263.43 336.82 263.71 336.31 263.97L333.87 265.18L335.77 267.08V267.08ZM335.78 272.33L342.08 266.03L342.97 266.92L341.8 272.13C341.53 273.34 341.23 274.36 340.88 275.31L340.91 275.32C341.68 274.4 342.42 273.62 343.41 272.64L346.04 270.01L346.81 270.78L340.51 277.08L339.69 276.26L340.89 271.07C341.15 269.93 341.45 268.79 341.81 267.79L341.77 267.77C341.02 268.61 340.28 269.39 339.24 270.43L336.55 273.12L335.78 272.33V272.33Z" fill="#404041"/>
<path d="M20.3 409.42H164.46L191.27 382.61" stroke="#404041" stroke-width="2" stroke-miterlimit="10"/>
<path d="M192.37 393.08L190.37 393.01L190.73 383.15L180.87 383.51L180.8 381.51L192.81 381.08L192.37 393.08Z" fill="#404041"/>
<path d="M152.05 461.06H262.79L274.21 449.64L281.96 457.39L282.59 405.94L231.14 406.57L238.89 414.3" stroke="#404041" stroke-width="2" stroke-miterlimit="10"/>
<path d="M522.42 471.32L530.8 462.94L500.38 432.87L508.73 424.53L481.93 422.75L483.63 449.59L491.98 441.25L522.42 471.32Z" fill="#9EC0FD"/>
<path d="M242.03 454.17L233.64 445.79L254.45 425.18L246.1 416.84L272.9 415.06L271.2 441.9L262.85 433.56L242.03 454.17Z" fill="#FFEAB3"/>
<path d="M116.66 461.06H72.65" stroke="#404041" stroke-width="2" stroke-miterlimit="10"/>
<path d="M619.04 360.59L627.42 352.21L596.99 322.14L605.35 313.8L578.54 312.02L580.24 338.86L588.6 330.52L619.04 360.59Z" fill="#9EC0FD"/>
<path d="M65.88 528.35H258.05L317.46 463.97" stroke="#404041" stroke-width="2" stroke-miterlimit="10"/>
<path d="M318.98 474.38L316.98 474.39L316.94 464.53L307.11 465.29L306.96 463.29L318.93 462.37L318.98 474.38Z" fill="#404041"/>
<path d="M561.51 472.82L537.51 448.82" stroke="#404041" stroke-width="2" stroke-miterlimit="10"/>
<path d="M547.98 447.72L547.9 449.72L538.05 449.36L538.41 459.21L536.41 459.29L535.97 447.28L547.98 447.72Z" fill="#404041"/>
</svg>
