<svg width="58" height="73" viewBox="0 0 58 73" fill="none" xmlns="http://www.w3.org/2000/svg">
<path d="M24.3593 42.6925L23.1621 57.679H35.3109L33.626 42.5152L24.3593 42.6925Z" fill="#FFEBD5"/>
<path d="M24.2695 43.801L34.2457 48.7226L33.625 42.5152L24.2695 43.801Z" fill="black" fill-opacity="0.1"/>
<path d="M17.0594 34.6436C18.6424 33.1815 18.7404 30.7129 17.2783 29.1299C15.8162 27.5469 13.3477 27.4489 11.7647 28.911C10.1817 30.3731 10.0837 32.8417 11.5458 34.4247C13.0079 36.0077 15.4765 36.1057 17.0594 34.6436Z" fill="#FFEBD4"/>
<path d="M13.0078 31.2534C13.0078 31.2534 15.1361 31.2534 16.4219 32.9826" stroke="black" stroke-opacity="0.1" stroke-width="1.0254" stroke-miterlimit="10" stroke-linecap="round" stroke-linejoin="round"/>
<path d="M46.5679 34.5441C48.0916 33.0204 48.0916 30.5499 46.5679 29.0262C45.0442 27.5025 42.5737 27.5025 41.05 29.0262C39.5262 30.5499 39.5262 33.0204 41.05 34.5441C42.5737 36.0679 45.0442 36.0679 46.5679 34.5441Z" fill="#FFEBD4"/>
<path d="M45.1524 31.2532C45.1524 31.2532 43.0241 31.2532 41.7383 32.9825" stroke="#0F0F0F" stroke-opacity="0.1" stroke-width="1.0254" stroke-miterlimit="10" stroke-linecap="round" stroke-linejoin="round"/>
<path d="M45.0196 21.7649C45.0196 30.5883 38.3688 38.3032 29.0577 38.3032C19.7465 38.3032 12.6523 30.5883 12.6523 21.7649C12.6523 12.9415 19.7465 5.75861 29.0577 5.75861C38.3688 5.75861 45.0196 12.9415 45.0196 21.7649Z" fill="#40454F"/>
<path d="M14.8692 19.8582C14.8692 19.8582 13.4504 44.3775 28.6142 44.6879C45.0196 45.0426 43.379 19.8582 43.379 19.8582C43.379 19.8582 43.2903 8.4632 28.9689 8.4632C15.889 8.4632 14.8692 19.8582 14.8692 19.8582Z" fill="#FFEBD5"/>
<path d="M24.0486 28.859C24.0486 29.5241 23.5165 30.0562 22.8514 30.0562C22.1864 30.0562 21.6543 29.5241 21.6543 28.859C21.6543 28.1939 22.1864 27.6619 22.8514 27.6619C23.5165 27.6619 24.0486 28.1939 24.0486 28.859Z" fill="#40454F"/>
<path d="M35.8416 28.859C35.8416 29.5241 35.3095 30.0562 34.6444 30.0562C33.9793 30.0562 33.4473 29.5241 33.4473 28.859C33.4473 28.1939 33.9793 27.6619 34.6444 27.6619C35.3095 27.6619 35.8416 28.1939 35.8416 28.859Z" fill="#40454F"/>
<path d="M27.6387 30.322V33.0267H29.3679" stroke="#40454F" stroke-width="1.0254" stroke-miterlimit="10" stroke-linecap="round" stroke-linejoin="round"/>
<path d="M20.9446 21.7204C20.9446 21.7204 17.7522 22.2081 17.9739 23.76C17.9739 23.76 18.1069 25.3562 21.4767 24.7354C24.4474 24.2034 25.5115 23.76 25.3341 22.5185C25.1125 21.2327 22.5408 21.41 20.9446 21.7204Z" fill="#40454F"/>
<path d="M36.5079 21.7204C36.5079 21.7204 39.7003 22.2081 39.4786 23.76C39.4786 23.76 39.3456 25.3562 35.9758 24.7354C33.0051 24.2034 31.941 23.76 32.1184 22.5185C32.3401 21.2327 34.9117 21.41 36.5079 21.7204Z" fill="#40454F"/>
<path d="M42.5819 29.5684C42.5819 29.5684 40.897 37.106 36.9509 36.3522C34.867 35.9532 33.6698 35.3768 32.5613 34.9777C29.0142 33.4259 25.6002 34.8891 25.6002 34.8891C24.403 35.2881 23.2502 35.9088 21.0333 36.3522C17.0871 37.106 15.89 30.3665 15.89 30.3665C15.89 30.3665 14.9145 34.357 17.3088 39.5446C18.8163 42.8257 21.0333 44.4219 23.1172 45.22C23.2059 45.2643 23.2502 45.2643 23.3389 45.3087C29.0586 47.4369 34.1132 45.5747 34.1132 45.5747C36.5518 44.9983 39.3008 43.4464 41.1187 39.5446C43.513 34.3127 42.5819 29.5684 42.5819 29.5684Z" fill="#40454F"/>
<path d="M26.1328 36.4852C26.1328 36.4852 28.4828 37.4607 31.5865 36.3965" stroke="white" stroke-width="0.97" stroke-miterlimit="10" stroke-linecap="round" stroke-linejoin="round"/>
<path d="M18.8164 10.1038C18.8164 10.1038 12.8307 9.61606 11.8552 15.3801C10.8354 21.1441 14.6929 29.3468 14.6929 29.3468L14.8703 16.3999L18.8164 10.1038Z" fill="#40454F"/>
<path d="M38.1914 9.79331C38.1914 9.79331 45.463 7.62071 46.2611 15.8234C46.8375 21.6317 43.0243 29.3467 43.0243 29.3467L44.1771 16.7101L38.1914 9.79331Z" fill="#40454F"/>
<path d="M42.1817 14.4489C42.1817 14.4489 31.4074 7.75376 16.6427 13.4734C16.6427 13.4734 9.63715 4.87174 20.5001 1.7237C31.3188 -1.46869 41.162 6.2019 42.1817 14.4489Z" fill="#40454F"/>
<path d="M44.3553 58.832L29.1028 53.201L13.4512 59.0094C9.13616 60.5415 5.5488 63.7275 2.95349 67.6343C1.39113 69.9861 3.29927 72.843 6.12276 72.843H51.4265C54.2112 72.843 56.1196 70.0567 54.6307 67.7034C52.1293 63.7502 48.5989 60.4666 44.3553 58.832Z" fill="#88ABFE"/>
<path d="M29.1033 53.2009L16.1152 58.0222C16.1152 58.0222 19.8808 64.3743 29.1919 64.2413C33.7145 64.1526 38.9496 62.2969 42.0977 57.9961L29.1033 53.2009Z" fill="#FFEBD5"/>
</svg>
