<svg width="701" height="450" viewBox="0 0 701 450" fill="none" xmlns="http://www.w3.org/2000/svg">
<g opacity="0.5">
<path d="M236.9 438.4C243.3 426.8 247 413.4 247 399.1C247 354.2 210.6 317.8 165.7 317.8C120.8 317.8 84.4 354.2 84.4 399.1C84.4 413.3 88.1 426.7 94.5 438.4H236.9V438.4Z" fill="#E6E7E8"/>
<path d="M332 438.4C338.4 426.8 342.1 413.4 342.1 399.1C342.1 354.2 305.7 317.8 260.8 317.8C215.9 317.8 179.5 354.2 179.5 399.1C179.5 413.3 183.2 426.7 189.6 438.4H332Z" fill="#E6E7E8"/>
<path d="M85.6 381C132.268 381 170.1 343.168 170.1 296.5C170.1 249.832 132.268 212 85.6 212C38.9319 212 1.1 249.832 1.1 296.5C1.1 343.168 38.9319 381 85.6 381Z" fill="#E6E7E8"/>
<path d="M216 255.3C235.937 255.3 252.1 239.138 252.1 219.2C252.1 199.263 235.937 183.1 216 183.1C196.063 183.1 179.9 199.263 179.9 219.2C179.9 239.138 196.063 255.3 216 255.3Z" fill="#E6E7E8"/>
<path d="M365.9 410.7C394.453 410.7 417.6 387.553 417.6 359C417.6 330.447 394.453 307.3 365.9 307.3C337.347 307.3 314.2 330.447 314.2 359C314.2 387.553 337.347 410.7 365.9 410.7Z" fill="#E6E7E8"/>
<path d="M361.5 355.3C368.569 355.3 374.3 349.569 374.3 342.5C374.3 335.431 368.569 329.7 361.5 329.7C354.431 329.7 348.7 335.431 348.7 342.5C348.7 349.569 354.431 355.3 361.5 355.3Z" fill="#E6E7E8"/>
<path d="M25.6 243.1C32.6692 243.1 38.4 237.369 38.4 230.3C38.4 223.231 32.6692 217.5 25.6 217.5C18.5308 217.5 12.8 223.231 12.8 230.3C12.8 237.369 18.5308 243.1 25.6 243.1Z" fill="#E6E7E8"/>
<path d="M70.9 201.3C77.9692 201.3 83.7 195.569 83.7 188.5C83.7 181.431 77.9692 175.7 70.9 175.7C63.8308 175.7 58.1 181.431 58.1 188.5C58.1 195.569 63.8308 201.3 70.9 201.3Z" fill="#E6E7E8"/>
</g>
<path fill-rule="evenodd" clip-rule="evenodd" d="M40 341.2H48.6V438.4H40V341.2ZM570.7 341.2H579.3V438.4H570.7V341.2ZM25.1 333.2H595V341H25.1V333.2Z" fill="#E6E7E8" stroke="#404041" stroke-width="2" stroke-miterlimit="10"/>
<path d="M102.2 329.1H181.4V333.2H102.2V329.1ZM286.7 329.1H365.9V333.2H286.7V329.1ZM471.2 329.1H550.4V333.2H471.2V329.1Z" fill="#E6E7E8" stroke="#404041" stroke-width="2" stroke-miterlimit="10"/>
<path d="M25.1 438.4H633Z" fill="white"/>
<path d="M25.1 438.4H633" stroke="#404041" stroke-width="2" stroke-miterlimit="10"/>
<path d="M602.4 399.2C601.3 400.2 599.7 396.9 595.2 393.4C590.9 389.9 583.7 386.2 574.9 383.9C566.1 381.4 558.2 380.2 553.3 377.4C548.3 374.7 546.4 370.3 548.6 363.6C550.8 357.2 557.2 349.9 565.6 347.4C573.8 344.8 584 347 591.5 355.6C599.3 364 602.3 375.6 603.3 384.1C604.3 392.8 603.3 398.3 602.4 399.2V399.2Z" fill="#9EC0FD"/>
<path d="M602.4 399.2C601.3 400.2 599.7 396.9 595.2 393.4C590.9 389.9 583.7 386.2 574.9 383.9C566.1 381.4 558.2 380.2 553.3 377.4C548.3 374.7 546.4 370.3 548.6 363.6C550.8 357.2 557.2 349.9 565.6 347.4C573.8 344.8 584 347 591.5 355.6C599.3 364 602.3 375.6 603.3 384.1C604.3 392.8 603.3 398.3 602.4 399.2V399.2Z" stroke="#404041" stroke-width="2" stroke-miterlimit="10"/>
<path d="M625.7 400.3C626.2 400.6 626.7 394.7 631.6 385.7C636.4 377 645.7 365.2 660.5 360.9C675 356 688.7 361.7 694.4 370.1C700.6 378.4 698.9 389.4 693.7 394.4C688.2 399.8 681.8 400.5 675.7 399.2C669.4 397.9 663.4 394.7 655.2 392.2C647.2 389.6 638.7 390 633.4 392.9C627.9 395.3 625.6 400.4 625.7 400.3V400.3Z" fill="#9EC0FD"/>
<path d="M625.7 400.3C626.2 400.6 626.7 394.7 631.6 385.7C636.4 377 645.7 365.2 660.5 360.9C675 356 688.7 361.7 694.4 370.1C700.6 378.4 698.9 389.4 693.7 394.4C688.2 399.8 681.8 400.5 675.7 399.2C669.4 397.9 663.4 394.7 655.2 392.2C647.2 389.6 638.7 390 633.4 392.9C627.9 395.3 625.6 400.4 625.7 400.3V400.3Z" stroke="#404041" stroke-width="2" stroke-miterlimit="10"/>
<path d="M619.9 408.9C620.4 408.5 616.3 405.3 612.5 396C608.8 387 605.4 371.9 610.6 354.5C615.2 337.2 627.2 325.5 636.6 323.4C646.3 320.7 653.4 327.6 654.1 335.3C654.9 343.5 651.8 350.5 647.4 356.3C642.9 362.3 637.1 367 630.5 374.4C624 381.5 619.5 390.6 618.6 397.4C617.4 404.4 619.8 409.1 619.9 408.9Z" fill="#9EC0FD"/>
<path d="M619.9 408.9C620.4 408.5 616.3 405.3 612.5 396C608.8 387 605.4 371.9 610.6 354.5C615.2 337.2 627.2 325.5 636.6 323.4C646.3 320.7 653.4 327.6 654.1 335.3C654.9 343.5 651.8 350.5 647.4 356.3C642.9 362.3 637.1 367 630.5 374.4C624 381.5 619.5 390.6 618.6 397.4C617.4 404.4 619.8 409.1 619.9 408.9Z" stroke="#404041" stroke-width="2" stroke-miterlimit="10"/>
<path d="M613.6 442.6C632.378 442.6 647.6 430.78 647.6 416.2C647.6 401.62 632.378 389.8 613.6 389.8C594.822 389.8 579.6 401.62 579.6 416.2C579.6 430.78 594.822 442.6 613.6 442.6Z" fill="#E6E7E8"/>
<path d="M613.6 442.6C632.378 442.6 647.6 430.78 647.6 416.2C647.6 401.62 632.378 389.8 613.6 389.8C594.822 389.8 579.6 401.62 579.6 416.2C579.6 430.78 594.822 442.6 613.6 442.6Z" stroke="#404041" stroke-width="2" stroke-miterlimit="10"/>
<path d="M131.8 152.2H151.8V192.3H131.8V152.2ZM316.3 152.2H336.3V192.3H316.3V152.2ZM500.7 152.2H520.7V192.3H500.7V152.2Z" fill="#E6E7E8" stroke="#404041" stroke-width="2" stroke-miterlimit="10"/>
<path d="M21.6 166.4L19.1 162.1M524.9 385.8H529.9H524.9ZM532.9 385.8H537.9H532.9ZM528.2 391.4L530.7 387.1L528.2 391.4ZM532.2 384.5L534.7 380.2L532.2 384.5ZM534.7 391.4L532.2 387.1L534.7 391.4ZM530.7 384.5L528.2 380.2L530.7 384.5ZM15.8 167.7H20.8H15.8ZM23.8 167.7H28.8H23.8ZM19.1 173.3L21.6 169L19.1 173.3ZM23.1 166.4L25.6 162.1L23.1 166.4ZM25.6 173.3L23.1 169L25.6 173.3Z" stroke="#404041" stroke-width="2" stroke-miterlimit="10"/>
<path d="M35.2 42.2999C37.2435 42.2999 38.9 40.6434 38.9 38.5999C38.9 36.5564 37.2435 34.8999 35.2 34.8999C33.1565 34.8999 31.5 36.5564 31.5 38.5999C31.5 40.6434 33.1565 42.2999 35.2 42.2999Z" stroke="#404041" stroke-width="2" stroke-miterlimit="10"/>
<path d="M138.2 32.2C140.188 32.2 141.8 30.5882 141.8 28.6C141.8 26.6118 140.188 25 138.2 25C136.212 25 134.6 26.6118 134.6 28.6C134.6 30.5882 136.212 32.2 138.2 32.2Z" fill="#E6E7E8"/>
<path d="M641.9 95.5999C643.888 95.5999 645.5 93.9881 645.5 91.9999C645.5 90.0117 643.888 88.3999 641.9 88.3999C639.912 88.3999 638.3 90.0117 638.3 91.9999C638.3 93.9881 639.912 95.5999 641.9 95.5999Z" fill="#E6E7E8"/>
<path d="M194.3 28.3001C196.288 28.3001 197.9 26.6883 197.9 24.7001C197.9 22.7119 196.288 21.1001 194.3 21.1001C192.312 21.1001 190.7 22.7119 190.7 24.7001C190.7 26.6883 192.312 28.3001 194.3 28.3001Z" fill="#E6E7E8"/>
<path d="M630 195.9C631.988 195.9 633.6 194.288 633.6 192.3C633.6 190.312 631.988 188.7 630 188.7C628.012 188.7 626.4 190.312 626.4 192.3C626.4 194.288 628.012 195.9 630 195.9Z" fill="#E6E7E8"/>
<path d="M570.9 24.3001H579.4H570.9ZM575.2 28.6001V20.1001V28.6001ZM625.4 44.9001H634.6V54.1001H625.4V44.9001Z" stroke="#404041" stroke-width="2" stroke-miterlimit="10"/>
<path d="M638.1 244.4H637.9C637.8 244.4 637.7 244.4 637.6 244.5C637.2 244.7 637 245.2 637.2 245.6L639.1 250.1C640.9 249 642.2 247.3 643 245.3L638.1 244.4V244.4ZM630.7 245.1C630.6 244.7 630.3 244.5 629.9 244.5H629.7L624.9 245.3C625.6 247.3 627 249 628.7 250.1L630.5 245.6C630.7 245.4 630.7 245.2 630.7 245.1V245.1ZM634.6 246.8C634.4 246.4 633.9 246.3 633.5 246.5C633.4 246.6 633.2 246.7 633.2 246.8L630.9 251C632.6 251.6 634.4 251.7 636.1 251.3L637 251L634.6 246.8V246.8ZM642.1 237L638.5 240.2C638.2 240.5 638.1 241 638.4 241.4C638.5 241.5 638.6 241.6 638.8 241.6L643.5 242.9C643.7 240.9 643.2 238.8 642.1 237V237ZM635.4 237.3C635.4 237.7 635.8 238.1 636.3 238.1C636.5 238.1 636.6 238 636.7 237.9L640.6 235.1C639.1 233.6 637.2 232.7 635.1 232.4L635.4 237.3V237.3ZM631.2 238C631.6 238.3 632.1 238.2 632.3 237.8C632.4 237.7 632.4 237.5 632.5 237.4L632.8 232.6C632.5 232.6 632.1 232.7 631.8 232.8C630.1 233.2 628.5 234.1 627.2 235.3L631.2 238V238ZM629.1 241.6C629.5 241.5 629.8 241 629.7 240.6C629.7 240.4 629.6 240.3 629.4 240.2L625.8 237C624.7 238.8 624.2 240.9 624.4 243L629.1 241.6V241.6ZM632.6 243.1L633.9 243.7L635.2 243.1L635.5 241.7L634.6 240.5H633.1L632.2 241.7L632.6 243.1V243.1Z" fill="#E6E7E8"/>
<path d="M656.1 245.9L652.3 229.3C652.1 228.4 651.5 227.7 650.7 227.3L635.3 219.9C634.5 219.5 633.5 219.5 632.7 219.9L617.3 227.3C616.5 227.7 615.9 228.4 615.7 229.3L611.9 245.9C611.8 246.3 611.8 246.8 611.9 247.2C611.9 247.3 612 247.5 612 247.6L612.3 248.2C612.4 248.3 612.4 248.4 612.5 248.4L623.2 261.7C623.2 261.8 623.3 261.8 623.3 261.9C623.5 262.1 623.7 262.2 623.9 262.4C624.2 262.6 624.4 262.7 624.7 262.8C624.9 262.9 625.2 262.9 625.5 262.9H643C643.1 262.9 643.3 262.9 643.4 262.8C643.5 262.8 643.6 262.7 643.7 262.7C643.8 262.7 643.9 262.6 643.9 262.6C644 262.5 644.1 262.5 644.2 262.4C644.5 262.2 644.7 262 644.9 261.8L645.2 261.4L655.6 248.5C655.8 248.3 656 248 656.1 247.7C656.1 247.6 656.2 247.5 656.2 247.3C656.2 246.8 656.2 246.3 656.1 245.9V245.9ZM640 252.4C640 252.5 640.1 252.7 640.2 252.8C640.1 253 640.1 253.2 640.1 253.3C640.3 253.8 640.6 254.3 640.9 254.8C641.1 255 641.2 255.3 641.4 255.5C641.4 255.6 641.5 255.7 641.5 255.7C641.8 256.1 641.6 256.7 641.2 257C640.8 257.3 640.2 257.1 639.9 256.7C639.9 256.6 639.8 256.6 639.8 256.5C639.8 256.4 639.7 256.3 639.7 256.3C639.6 256 639.5 255.7 639.4 255.5C639.2 255 639 254.4 638.8 253.9C638.7 253.7 638.5 253.6 638.3 253.6C638.3 253.5 638.2 253.3 638.1 253.2C635.4 254.2 632.3 254.2 629.6 253.2L629.4 253.6C629.3 253.6 629.1 253.7 629 253.8C628.7 254.3 628.4 254.9 628.3 255.5C628.2 255.8 628.1 256.1 628 256.3C628 256.4 627.9 256.5 627.9 256.5C627.7 257 627.2 257.2 626.7 257.1C626.2 256.9 626 256.4 626.1 255.9C626.1 255.8 626.1 255.8 626.2 255.7C626.2 255.6 626.3 255.5 626.3 255.5C626.5 255.2 626.6 255 626.8 254.8C627.1 254.3 627.4 253.8 627.6 253.3C627.6 253.1 627.6 252.9 627.5 252.8L627.7 252.4C625.2 250.9 623.3 248.5 622.4 245.7L622 245.8C621.8 245.7 621.7 245.6 621.5 245.6C620.9 245.7 620.4 245.9 619.9 246.1C619.6 246.2 619.4 246.3 619.1 246.4C619 246.4 618.9 246.4 618.9 246.5C618.4 246.7 617.9 246.4 617.7 245.9C617.5 245.4 617.8 244.9 618.3 244.7H618.5C618.6 244.7 618.7 244.7 618.7 244.6C619 244.6 619.3 244.5 619.6 244.5C620.2 244.5 620.7 244.4 621.3 244.2C621.5 244.1 621.6 244 621.7 243.8L622.1 243.7C621.7 240.8 622.4 237.8 624 235.4L623.7 235.1C623.7 234.9 623.6 234.7 623.5 234.6C623.1 234.2 622.6 233.9 622.1 233.6C621.8 233.5 621.6 233.3 621.3 233.2C621.2 233.2 621.2 233.1 621.1 233C620.7 232.7 620.6 232.1 620.9 231.6C621.1 231.4 621.4 231.3 621.6 231.3C621.8 231.3 622.1 231.4 622.2 231.5C622.3 231.5 622.3 231.6 622.4 231.7L623 232.3C623.4 232.7 623.8 233.1 624.2 233.4C624.4 233.5 624.6 233.5 624.7 233.5C624.8 233.6 624.9 233.7 625 233.7C626.6 232 628.7 230.8 631 230.3C631.6 230.2 632.1 230.1 632.7 230V229.6C632.8 229.5 632.9 229.3 633 229.1C633 228.5 633 228 632.9 227.4C632.8 227.1 632.8 226.8 632.8 226.5V226.3C632.7 225.8 633.1 225.3 633.6 225.3C634.1 225.2 634.6 225.6 634.6 226.1V226.6C634.6 226.9 634.5 227.2 634.5 227.5C634.4 228.1 634.4 228.6 634.4 229.2C634.4 229.4 634.5 229.6 634.7 229.7V230.1C637.6 230.4 640.3 231.7 642.4 233.8L642.8 233.5C643 233.5 643.2 233.5 643.4 233.4C643.9 233.1 644.3 232.7 644.6 232.3L645.2 231.7C645.3 231.7 645.3 231.6 645.4 231.5C645.8 231.1 646.4 231.1 646.7 231.5C647.1 231.9 647.1 232.5 646.7 232.8C646.7 232.8 646.6 232.9 646.5 232.9L646.3 233.1C646.1 233.3 645.8 233.4 645.5 233.5C645 233.8 644.6 234.1 644.1 234.5C644 234.6 643.9 234.8 643.9 235C643.8 235 643.7 235.2 643.6 235.3C645.2 237.7 645.9 240.7 645.5 243.6L645.9 243.7C646 243.9 646.1 244 646.3 244.1C646.8 244.2 647.4 244.3 648 244.4C648.3 244.4 648.6 244.4 648.9 244.5C649 244.5 649.1 244.5 649.2 244.6C649.7 244.7 650.1 245.1 650 245.6C649.9 246.1 649.5 246.5 649 246.4H648.8C648.7 246.4 648.6 246.4 648.6 246.3C648.3 246.2 648 246.1 647.8 246C647.3 245.8 646.7 245.6 646.2 245.5C646 245.5 645.8 245.6 645.7 245.7C645.6 245.7 645.4 245.7 645.3 245.6C644.5 248.5 642.6 250.8 640 252.4V252.4Z" fill="#E6E7E8"/>
<path d="M242.9 44.3999H411.4V159.5H242.9V44.3999Z" fill="#E6E7E8" stroke="#404041" stroke-width="2" stroke-miterlimit="10"/>
<path d="M247.9 49.5H406.4V154.3H247.9V49.5Z" fill="white" stroke="#404041" stroke-width="2" stroke-miterlimit="10"/>
<path d="M57.6 44.3999H226.1V159.5H57.6V44.3999Z" fill="#E6E7E8" stroke="#404041" stroke-width="2" stroke-miterlimit="10"/>
<path d="M62.6 49.5H221.1V154.3H62.6V49.5Z" fill="white" stroke="#404041" stroke-width="2" stroke-miterlimit="10"/>
<path d="M242.1 173.9H410.6V289H242.1V173.9Z" fill="#E6E7E8" stroke="#404041" stroke-width="2" stroke-miterlimit="10"/>
<path d="M247 179.1H405.5V283.9H247V179.1Z" fill="white" stroke="#404041" stroke-width="2" stroke-miterlimit="10"/>
<path d="M426.5 44.3999H595V159.5H426.5V44.3999Z" fill="#E6E7E8" stroke="#404041" stroke-width="2" stroke-miterlimit="10"/>
<path d="M431.5 49.5H590V154.3H431.5V49.5Z" fill="white" stroke="#404041" stroke-width="2" stroke-miterlimit="10"/>
<path d="M426.5 173.9H595V289H426.5V173.9Z" fill="#E6E7E8" stroke="#404041" stroke-width="2" stroke-miterlimit="10"/>
<path d="M431.5 179.1H590V283.9H431.5V179.1Z" fill="#9EC0FD" stroke="#404041" stroke-width="2" stroke-miterlimit="10"/>
<path d="M57.6 173.9H226.1V289H57.6V173.9Z" fill="#E6E7E8" stroke="#404041" stroke-width="2" stroke-miterlimit="10"/>
<path d="M62.6 179.1H221.1V283.9H62.6V179.1Z" fill="white" stroke="#404041" stroke-width="2" stroke-miterlimit="10"/>
<path d="M586.3 154.4C585.9 145 584.9 135.7 583.5 126.4C582.4 118.8 581 111.3 579.5 103.8C579.1 101.9 579.4 99 578 97.5C576.9 96.2 575.3 96.6 574.6 98.1C573.6 100.2 573.5 102.9 573.1 105.1C572.6 107.8 572.1 110.4 571.4 113C570.9 114.9 569.2 114.3 568.6 112.8C567.8 111 567.5 108.9 566.8 107.1C566.4 106.1 566.1 103.6 564.8 104.4C563.9 104.9 563.6 107.1 563.3 108C563.1 108.6 561.8 112.5 561.1 110.3C560.8 109.3 560 105.1 558.6 105C557.8 104.9 557.4 108 557.2 108.7C556.3 113.1 554.9 117.3 553.6 121.5C553.4 122.2 553.1 124.6 552.3 124.9C551.4 125.2 550.9 123.7 550.8 123.1C550.2 120.7 550.7 117.9 550.7 115.5C550.7 112.8 550.6 110 550.5 107.3C550.2 100.8 549.6 94.4 549 87.9C548.9 86.9 549.1 85.4 547.9 84.9C547.1 84.6 546.3 85.1 545.9 85.9C544.1 90.1 543.4 94.6 542.3 99C541.1 104 539.9 109 539 114.1C538.8 115.1 537.6 124.2 535.7 121.7C534.7 120.3 534.9 114.5 532.4 114.7C530.4 114.9 530.2 118.2 529.9 119.7C529.3 122.4 528.8 125.1 528.2 127.8C527.8 129.7 527.8 133.8 525.6 134.5C524.5 134.8 523.9 133.8 523.5 132.9C522.4 130.7 522 128 521.7 125.6C521.2 122.1 521.1 118.5 521.1 114.9C521.1 107.6 521.9 99.7 519.7 92.6C518.8 89.7 516.1 90.6 515 92.8C514.3 94.3 513.7 95.9 513.2 97.5C512.2 100.9 511.7 104.5 511.1 108C510.8 110.2 508.2 127.9 504.3 126.8C501.8 126.1 501.4 119.2 500.8 117.1C500.3 115.2 499.8 112.7 498.5 111.1C496.5 108.7 495.7 112.7 495.3 114.2C494.7 116.2 494.1 118.2 493.4 120.2C492.8 121.7 492.4 124.2 490.7 124.7C488.9 125.2 487.5 123 487.1 121.1C486.9 120 486.9 118.6 486.3 117.6C485.5 116.2 484.3 116.8 483.9 118.3C483 121 482.5 124.4 481 126.9C480.9 127.1 480.7 127.4 480.4 127.4C480.2 127.4 480 127.2 479.8 127C478.3 125 477.8 121.9 477.2 119.4C476.5 116.4 475.8 113.4 475.2 110.3C474.3 105.9 473.5 101.5 472.9 97.1C472.7 95.5 472.7 93.3 471.4 92.2C470.2 91.2 468.9 91.7 468.1 92.9C467.5 93.8 467.3 94.8 467.1 95.8C466.8 97.2 464.7 110.5 463 110C461 109.4 461.6 105.1 459.4 104.9C458.3 104.8 457.6 106 457.2 107.1C455.8 111.1 455.3 115.7 452.6 118.9C452.3 119.3 451.9 119.7 451.5 119.8C449.9 120.3 448.9 117.9 449 116.2C449.1 114.5 449.3 112.2 447.8 111.4C445.8 110.4 444.1 113.2 443.6 115.5C442.1 121.9 440.5 128.4 439 134.8C437.5 141.2 435.9 147.8 435.1 154.4H586.3Z" fill="#9EC0FD" stroke="#404041" stroke-width="2" stroke-miterlimit="10"/>
<path d="M398.909 112.709V120.309H345.909V112.709H398.909Z" fill="#9EC0FD"/>
<path d="M398.918 122.118V129.718H345.918V122.118H398.918Z" fill="#9EC0FD"/>
<path d="M398.927 131.527V139.127H345.927V131.527H398.927Z" fill="#9EC0FD"/>
<path d="M398.936 140.936V148.536H345.936V140.936H398.936Z" fill="#9EC0FD"/>
<path d="M343.419 112.699V120.299H290.419V112.699H343.419Z" fill="#9EC0FD"/>
<path d="M398.9 103.3V110.9H345.9V103.3H398.9Z" fill="#9EC0FD"/>
<path d="M343.41 103.29V110.89H290.41V103.29H343.41Z" fill="#9EC0FD"/>
<path d="M398.891 93.8911V101.491H345.891V93.8911H398.891Z" fill="#9EC0FD"/>
<path d="M343.401 93.8809V101.481H290.401V93.8809H343.401Z" fill="#9EC0FD"/>
<path d="M398.982 84.4819V92.0819H345.982V84.4819H398.982Z" fill="#9EC0FD"/>
<path d="M343.492 84.4722V92.0721H290.492V84.4722H343.492Z" fill="#9EC0FD"/>
<path d="M398.973 75.0732V82.6732H345.973V75.0732H398.973Z" fill="#9EC0FD"/>
<path d="M343.483 75.063V82.663H290.483V75.063H343.483Z" fill="#9EC0FD"/>
<path d="M398.964 65.6641V73.264H345.964V65.6641H398.964Z" fill="#9EC0FD"/>
<path d="M343.474 65.6538V73.2538H290.474V65.6538H343.474Z" fill="#9EC0FD"/>
<path d="M398.956 56.2559V63.8558H345.956V56.2559H398.956Z" fill="#9EC0FD"/>
<path d="M343.466 56.2461V63.8461H290.466V56.2461H343.466Z" fill="#9EC0FD"/>
<path d="M343.428 122.108V129.708H290.428V122.108H343.428Z" fill="#9EC0FD"/>
<path d="M343.437 131.517V139.117H290.437V131.517H343.437Z" fill="#9EC0FD"/>
<path d="M343.446 140.926V148.526H290.446V140.926H343.446Z" fill="#9EC0FD"/>
<path d="M67.2 279.5C71 267.5 76.2 255.6 85.2 246.7C94.2 237.8 107.3 232.5 119.6 235.4C129.6 237.8 137.9 245.4 148.1 246.6C161.7 248.2 173.9 238.2 182.5 227.5C191.1 216.8 198.4 204.4 210.4 197.8" stroke="#9EC0FD" stroke-width="4" stroke-miterlimit="10"/>
<path d="M73.8 278.8C80.6 268.3 92 260.9 104.4 259.1C119.1 256.9 133.7 262.2 148.5 263C165.8 263.9 185.5 261.6 197.2 247.6C202.5 241.2 206.2 233.5 209.8 226" stroke="#404041" stroke-width="4" stroke-miterlimit="10"/>
<path d="M71.8 280.1C75 262.7 81.3 245.9 90.4 230.8C94.1 224.6 99 218.1 106.1 216.6C115 214.7 123.7 221.6 127.5 229.8C131.3 238 131.6 247.3 132.9 256.3C133.4 259.5 133.9 262.7 135.5 265.6C137 268.5 139.6 270.9 142.8 271.5C147.1 272.3 151.4 269.7 153.8 266.1C156.2 262.5 157.2 258.2 158.1 253.9C162.4 234 169.1 206.2 173.3 186.3" stroke="#326CE5" stroke-width="4" stroke-miterlimit="10"/>
<path d="M72 186.3H138.2V191.5H72V186.3ZM72 194H138.2V199.2H72V194Z" fill="#9EC0FD"/>
<path d="M255.3 56.2002H267.6V68.5002H255.3V56.2002ZM255.3 76.2002H267.6V88.5002H255.3V76.2002ZM255.3 96.2002H267.6V108.5H255.3V96.2002ZM255.3 116.2H267.6V128.5H255.3V116.2ZM255.3 136.1H267.6V148.4H255.3V136.1ZM271.6 56.2002H283.9V68.5002H271.6V56.2002ZM271.6 76.2002H283.9V88.5002H271.6V76.2002ZM271.6 96.2002H283.9V108.5H271.6V96.2002ZM271.6 116.2H283.9V128.5H271.6V116.2ZM271.6 136.1H283.9V148.4H271.6V136.1Z" fill="#E6E7E8"/>
<path d="M362.6 276.2C380.218 276.2 394.5 261.918 394.5 244.3C394.5 226.682 380.218 212.4 362.6 212.4C344.982 212.4 330.7 226.682 330.7 244.3C330.7 261.918 344.982 276.2 362.6 276.2Z" fill="#326CE5"/>
<path d="M362.6 260.4C371.492 260.4 378.7 253.192 378.7 244.3C378.7 235.408 371.492 228.2 362.6 228.2C353.708 228.2 346.5 235.408 346.5 244.3C346.5 253.192 353.708 260.4 362.6 260.4Z" fill="white"/>
<path d="M340.668 269.091L337.84 266.263L352.619 251.485L355.447 254.313L340.668 269.091Z" fill="white"/>
<path d="M395.612 242.352V246.352H374.712V242.352H395.612Z" fill="white"/>
<path d="M337.791 222.383L340.62 219.554L355.399 234.333L352.57 237.161L337.791 222.383Z" fill="white"/>
<path d="M289.9 276.2C307.518 276.2 321.8 261.918 321.8 244.3C321.8 226.682 307.518 212.4 289.9 212.4C272.282 212.4 258 226.682 258 244.3C258 261.918 272.282 276.2 289.9 276.2Z" fill="#9EC0FD"/>
<path d="M289.9 260.4C298.792 260.4 306 253.192 306 244.3C306 235.408 298.792 228.2 289.9 228.2C281.008 228.2 273.8 235.408 273.8 244.3C273.8 253.192 281.008 260.4 289.9 260.4Z" fill="white"/>
<path d="M287.9 211.3H291.9V232.2H287.9V211.3Z" fill="white"/>
<path d="M265.086 222.367L267.914 219.539L282.693 234.317L279.864 237.145L265.086 222.367Z" fill="white"/>
<path d="M267.931 269.076L265.102 266.247L279.881 251.469L282.71 254.297L267.931 269.076Z" fill="white"/>
<path d="M322.89 242.374V246.374H301.99V242.374H322.89Z" fill="white"/>
<path d="M438.8 186.1H582.7V191.2H438.8V186.1ZM438.8 194.4H582.7V199.5H438.8V194.4ZM438.8 202.7H582.7V207.8H438.8V202.7ZM438.8 211H582.7V216.1H438.8V211ZM438.8 219.2H508.6V242.8H438.8V219.2Z" fill="white"/>
<path d="M582.738 242.866H512.938V219.266H582.738V242.866Z" fill="white"/>
<path d="M438.8 246.3H582.7V251.4H438.8V246.3ZM438.8 254.6H582.7V259.7H438.8V254.6ZM438.8 262.9H582.7V268H438.8V262.9ZM438.8 271.2H582.7V276.3H438.8V271.2Z" fill="white"/>
<path d="M70.2 140.9H213.4V146.7H70.2V140.9ZM70.2 133.1H213.4V138.9H70.2V133.1ZM70.2 125.3H213.4V131.1H70.2V125.3ZM70.2 117.6H213.4V123.4H70.2V117.6Z" fill="#326CE5"/>
<path d="M70.2 125.3H105V131.1H70.2V125.3ZM70.2 117.6H105V123.4H70.2V117.6ZM70.2 102H213.4V107.8H70.2V102ZM70.2 109.8H213.4V115.6H70.2V109.8ZM70.2 94.1998H213.4V99.9998H70.2V94.1998ZM70.2 86.3998H213.4V92.1998H70.2V86.3998ZM70.2 78.6998H213.4V84.4998H70.2V78.6998ZM70.2 70.8998H213.4V76.6998H70.2V70.8998ZM70.2 63.0998H213.4V68.8998H70.2V63.0998ZM70.2 55.2998H213.4V61.0998H70.2V55.2998Z" fill="#9EC0FD"/>
<path d="M141.8 102H213.4V107.8H141.8V102ZM141.8 109.8H213.4V115.6H141.8V109.8ZM141.8 94.1998H213.4V99.9998H141.8V94.1998ZM141.8 86.3998H213.4V92.1998H141.8V86.3998ZM177 78.6998H213.4V84.4998H177V78.6998ZM177 70.8998H213.4V76.6998H177V70.8998ZM177 63.0998H213.4V68.8998H177V63.0998ZM177 55.2998H213.4V61.0998H177V55.2998Z" fill="#326CE5"/>
<path d="M140.6 53H143.1V150.7H140.6V53ZM103.8 53H106.3V150.7H103.8V53ZM175.8 53H178.3V150.7H175.8V53Z" fill="white"/>
<path d="M169.7 207.4C172.296 207.4 174.4 205.296 174.4 202.7C174.4 200.104 172.296 198 169.7 198C167.104 198 165 200.104 165 202.7C165 205.296 167.104 207.4 169.7 207.4Z" fill="white" stroke="#326CE5" stroke-width="4" stroke-miterlimit="10"/>
<path d="M198.9 211.7C201.496 211.7 203.6 209.596 203.6 207C203.6 204.404 201.496 202.3 198.9 202.3C196.304 202.3 194.2 204.404 194.2 207C194.2 209.596 196.304 211.7 198.9 211.7Z" fill="white" stroke="#9EC0FD" stroke-width="4" stroke-miterlimit="10"/>
<path d="M174.7 240.5C177.296 240.5 179.4 238.396 179.4 235.8C179.4 233.204 177.296 231.1 174.7 231.1C172.104 231.1 170 233.204 170 235.8C170 238.396 172.104 240.5 174.7 240.5Z" fill="white" stroke="#9EC0FD" stroke-width="4" stroke-miterlimit="10"/>
<path d="M201.9 245.2C204.496 245.2 206.6 243.096 206.6 240.5C206.6 237.904 204.496 235.8 201.9 235.8C199.304 235.8 197.2 237.904 197.2 240.5C197.2 243.096 199.304 245.2 201.9 245.2Z" fill="white" stroke="#404041" stroke-width="4" stroke-miterlimit="10"/>
<path d="M103.8 263.8C106.396 263.8 108.5 261.696 108.5 259.1C108.5 256.504 106.396 254.4 103.8 254.4C101.204 254.4 99.1 256.504 99.1 259.1C99.1 261.696 101.204 263.8 103.8 263.8Z" fill="white" stroke="#404041" stroke-width="4" stroke-miterlimit="10"/>
<path d="M168 266.8C170.596 266.8 172.7 264.696 172.7 262.1C172.7 259.504 170.596 257.4 168 257.4C165.404 257.4 163.3 259.504 163.3 262.1C163.3 264.696 165.404 266.8 168 266.8Z" fill="white" stroke="#404041" stroke-width="4" stroke-miterlimit="10"/>
<path d="M112.1 239.4C114.696 239.4 116.8 237.296 116.8 234.7C116.8 232.104 114.696 230 112.1 230C109.504 230 107.4 232.104 107.4 234.7C107.4 237.296 109.504 239.4 112.1 239.4Z" fill="white" stroke="#9EC0FD" stroke-width="4" stroke-miterlimit="10"/>
<path d="M143.5 276.3C146.096 276.3 148.2 274.196 148.2 271.6C148.2 269.004 146.096 266.9 143.5 266.9C140.904 266.9 138.8 269.004 138.8 271.6C138.8 274.196 140.904 276.3 143.5 276.3Z" fill="white" stroke="#326CE5" stroke-width="4" stroke-miterlimit="10"/>
<path d="M94 230.3C96.5957 230.3 98.7 228.196 98.7 225.6C98.7 223.004 96.5957 220.9 94 220.9C91.4043 220.9 89.3 223.004 89.3 225.6C89.3 228.196 91.4043 230.3 94 230.3Z" fill="white" stroke="#326CE5" stroke-width="4" stroke-miterlimit="10"/>
<path d="M131.8 289H151.8V329.1H131.8V289ZM316.3 289H336.3V329.1H316.3V289ZM500.7 289H520.7V329.1H500.7V289Z" fill="#E6E7E8" stroke="#404041" stroke-width="2" stroke-miterlimit="10"/>
<path d="M638.2 291.3L635.7 286.9M615.9 155.3H620.9H615.9ZM623.9 155.3H628.9H623.9ZM619.2 160.9L621.7 156.6L619.2 160.9ZM623.2 154L625.7 149.6L623.2 154ZM625.7 160.9L623.2 156.6L625.7 160.9ZM621.7 154L619.2 149.6L621.7 154ZM632.4 292.6H637.4H632.4ZM640.4 292.6H645.4H640.4ZM635.7 298.2L638.2 293.9L635.7 298.2ZM639.7 291.3L642.2 286.9L639.7 291.3ZM642.2 298.2L639.7 293.9L642.2 298.2Z" stroke="#404041" stroke-width="2" stroke-miterlimit="10"/>
<path d="M17.1 292.8L11.8 301.9H22.3L17.1 292.8Z" stroke="#404041" stroke-width="2" stroke-miterlimit="10" stroke-linejoin="round"/>
<path d="M291.9 392.8C293.943 392.8 295.6 391.143 295.6 389.1C295.6 387.056 293.943 385.4 291.9 385.4C289.857 385.4 288.2 387.056 288.2 389.1C288.2 391.143 289.857 392.8 291.9 392.8Z" stroke="#404041" stroke-width="2" stroke-miterlimit="10"/>
<path d="M638.2 119.3C640.243 119.3 641.9 117.643 641.9 115.6C641.9 113.556 640.243 111.9 638.2 111.9C636.157 111.9 634.5 113.556 634.5 115.6C634.5 117.643 636.157 119.3 638.2 119.3Z" stroke="#404041" stroke-width="2" stroke-miterlimit="10"/>
<path d="M122.6 391.9V383.4M332.9 384.8H341.4H332.9ZM337.1 389.1V380.6V389.1ZM251 21.0998H259.5H251ZM255.3 25.3998V16.7998V25.3998ZM118.3 387.7H126.8H118.3Z" stroke="#404041" stroke-width="2" stroke-miterlimit="10"/>
<path d="M498.9 367.6H508.1V376.8H498.9V367.6ZM388.6 16.5H397.8V25.7H388.6V16.5Z" fill="#E6E7E8"/>
<path d="M226.2 292.1H235.1V305H226.2V292.1Z" fill="#FFEAB3" stroke="#404041" stroke-width="2" stroke-miterlimit="10"/>
<path d="M215.3 260V280.1C215.3 288.5 222.1 295.4 230.6 295.4C239.1 295.4 245.9 288.6 245.9 280.1V260H215.3V260Z" fill="#FFEAB3" stroke="#404041" stroke-width="2" stroke-miterlimit="10"/>
<path d="M217.7 297C220.8 293.5 225.5 291.5 230.6 291.5C235.7 291.5 240.4 293.6 243.5 297C247.3 290.3 251 286.6 253.3 278.7C258.6 263.8 247 245.8 225.4 249.1C222.6 249.6 220 250.4 217.6 251.6C207.3 256.7 204.8 268.8 207.9 278.7C210.2 286.6 213.9 290.4 217.7 297V297Z" fill="#326CE5"/>
<path d="M217.7 297C220.8 293.5 225.5 291.5 230.6 291.5C235.7 291.5 240.4 293.6 243.5 297C247.3 290.3 251 286.6 253.3 278.7C258.6 263.8 247 245.8 225.4 249.1C222.6 249.6 220 250.4 217.6 251.6C207.3 256.7 204.8 268.8 207.9 278.7C210.2 286.6 213.9 290.4 217.7 297V297Z" stroke="#404041" stroke-width="2" stroke-miterlimit="10"/>
<path d="M214.7 434.6H222.8L224.2 407.6V380.5H213.4V407.6L214.7 434.6ZM246.4 434.6H238.4L237 407.6V380.5H247.8V407.6L246.4 434.6Z" fill="#FFEAB3" stroke="#404041" stroke-width="2" stroke-miterlimit="10"/>
<path d="M220.5 428H217.1C215.7 428 214.6 429.1 214.6 430.5V434.6H223V430.5C222.9 429.1 221.8 428 220.5 428ZM244.1 428H240.7C239.3 428 238.2 429.1 238.2 430.5V434.6H246.5V430.4C246.5 429.1 245.4 428 244.1 428V428Z" fill="#326CE5" stroke="#404041" stroke-width="2" stroke-miterlimit="10"/>
<path d="M260.8 341.4C260.3 340.8 247.7 335.9 247.7 335.9L255.5 322.8L260.8 341.4ZM200.3 341.4C200.8 340.8 213.4 335.9 213.4 335.9L205.6 322.8L200.3 341.4V341.4Z" fill="#9EC0FD" stroke="#404041" stroke-width="2" stroke-miterlimit="10" stroke-linejoin="round"/>
<path d="M268.4 334.7L248.8 305.4C247.1 302.9 234.8 299.4 230.6 299.4C226.3 299.4 214 302.8 212.4 305.4L192.8 334.7C191.3 337 191.9 340.2 194.1 341.8C196.3 343.4 199.3 343 200.9 340.8L211 326.7L207.6 364.8C206.9 372.6 213 379.3 220.8 379.3H240.3C248.1 379.3 254.2 372.6 253.5 364.8L250.1 326.7L260.2 340.8C261.8 343 264.8 343.4 267 341.8C269.3 340.1 269.9 337 268.4 334.7ZM213.7 389H247.8V395.6H213.7V389Z" fill="#9EC0FD" stroke="#404041" stroke-width="2" stroke-miterlimit="10"/>
<path d="M200.6 432.2L227.3 415.9L200.6 432.2ZM260.6 432.2L233.9 415.9Z" fill="#E6E7E8"/>
<path d="M260.6 432.2L233.9 415.9M200.6 432.2L227.3 415.9L200.6 432.2Z" stroke="#404041" stroke-width="2" stroke-miterlimit="10"/>
<path d="M227.3 421.8V392.5C227.3 391.5 228.1 390.8 229 390.8H232.2C233.2 390.8 233.9 391.6 233.9 392.5V421.8C233.9 422.2 233.6 422.5 233.2 422.5H228C227.6 422.5 227.3 422.2 227.3 421.8Z" fill="white" stroke="#404041" stroke-width="2" stroke-miterlimit="10"/>
<path d="M224.2 400.6V383.3C224.2 382.6 224.8 382 225.5 382H235.5C236.2 382 236.8 382.6 236.8 383.3V400.6C236.8 401.3 236.2 401.9 235.5 401.9H225.5C224.8 401.9 224.2 401.3 224.2 400.6Z" fill="white" stroke="#404041" stroke-width="2" stroke-miterlimit="10"/>
<path d="M200.6 436.9C203.196 436.9 205.3 434.796 205.3 432.2C205.3 429.604 203.196 427.5 200.6 427.5C198.004 427.5 195.9 429.604 195.9 432.2C195.9 434.796 198.004 436.9 200.6 436.9Z" fill="white" stroke="#404041" stroke-width="2" stroke-miterlimit="10"/>
<path d="M260.6 436.9C263.196 436.9 265.3 434.796 265.3 432.2C265.3 429.604 263.196 427.5 260.6 427.5C258.004 427.5 255.9 429.604 255.9 432.2C255.9 434.796 258.004 436.9 260.6 436.9Z" fill="white" stroke="#404041" stroke-width="2" stroke-miterlimit="10"/>
<path d="M230.6 416.3V432.2Z" fill="#E6E7E8"/>
<path d="M230.6 416.3V432.2" stroke="#404041" stroke-width="2" stroke-miterlimit="10"/>
<path d="M230.6 436.9C233.196 436.9 235.3 434.796 235.3 432.2C235.3 429.604 233.196 427.5 230.6 427.5C228.004 427.5 225.9 429.604 225.9 432.2C225.9 434.796 228.004 436.9 230.6 436.9Z" fill="white" stroke="#404041" stroke-width="2" stroke-miterlimit="10"/>
<path d="M207.2 384.4H254V389.3H207.2V384.4Z" fill="#E6E7E8" stroke="#404041" stroke-width="2" stroke-miterlimit="10"/>
<path d="M194.5 347.1V359.5L207.2 379.5M266.7 347.1V359.5L254 379.5L266.7 347.1Z" stroke="#404041" stroke-width="2" stroke-miterlimit="10"/>
<path d="M252.9 374.6H208.3C205.6 374.6 203.4 376.8 203.4 379.5C203.4 382.2 205.6 384.4 208.3 384.4H252.9C255.6 384.4 257.8 382.2 257.8 379.5C257.8 376.8 255.6 374.6 252.9 374.6ZM260.7 345.8V351.4C260.7 352.4 261.5 353.3 262.6 353.3H270.8C271.8 353.3 272.7 352.5 272.7 351.4V345.8C272.7 344.8 271.9 343.9 270.8 343.9H262.6C261.6 344 260.7 344.8 260.7 345.8ZM200.5 345.8V351.4C200.5 352.4 199.7 353.3 198.6 353.3H190.4C189.4 353.3 188.5 352.5 188.5 351.4V345.8C188.5 344.8 189.3 343.9 190.4 343.9H198.6C199.7 344 200.5 344.8 200.5 345.8ZM220 319.1H241.1C247.4 319.1 254.5 322.3 254.9 326.1C255.2 330.3 254.3 334.7 252.5 338.9C250.3 343.6 241.6 347.1 233.8 347.1H227.2C219.4 347.1 210.7 343.6 208.5 338.9C206.8 334.6 205.9 330.3 206.1 326.1C206.6 322.3 213.8 319.1 220 319.1V319.1Z" fill="#E6E7E8" stroke="#404041" stroke-width="2" stroke-miterlimit="10"/>
<path d="M237.9 341.6C233.3 353.2 232.8 365.4 234.7 377C234.9 378.3 234.4 379.4 233.4 379.4H227.9C226.9 379.4 226.4 378.3 226.6 377C228.5 365.4 228 353.2 223.4 341.6C222.8 340.3 223.8 339.2 225.6 339.2H235.7C237.5 339.2 238.4 340.3 237.9 341.6V341.6Z" fill="white"/>
<path d="M237.9 341.6C233.3 353.2 232.8 365.4 234.7 377C234.9 378.3 234.4 379.4 233.4 379.4H227.9C226.9 379.4 226.4 378.3 226.6 377C228.5 365.4 228 353.2 223.4 341.6C222.8 340.3 223.8 339.2 225.6 339.2H235.7C237.5 339.2 238.4 340.3 237.9 341.6V341.6Z" stroke="#404041" stroke-width="2" stroke-miterlimit="10"/>
<path d="M459.1 327.3C457.4 318.5 455.7 309.5 454 300.2C453.1 295.4 449.3 291 444.6 290C426.6 286.2 408.2 286.2 390.2 290C385.5 291 381.6 295.4 380.8 300.2C379.1 309.5 377.4 318.5 375.7 327.3C374.7 332.3 378.1 337 382.7 337H387.2C389.1 337 390.9 335.7 391.6 333.7L394.7 325.6H439.7L442.8 333.7C443.6 335.7 445.3 337 447.2 337H452C456.7 337.1 460.1 332.4 459.1 327.3V327.3Z" fill="#9EC0FD" stroke="#404041" stroke-width="2" stroke-miterlimit="10"/>
<path d="M423 285.5V271.2H411.9V285.5L405 287.9C405 287.9 410.6 292.3 417.4 292.3C424.3 292.3 429.8 287.9 429.8 287.9L423 285.5V285.5Z" fill="#FFEAB3" stroke="#404041" stroke-width="2" stroke-miterlimit="10"/>
<path d="M414.009 376.826L424.963 372.438L444.038 420.06L433.084 424.448L414.009 376.826Z" fill="#FFEAB3" stroke="#404041" stroke-width="2" stroke-miterlimit="10"/>
<path d="M433.9 429.8L447.8 422.8L446.5 420.2C445.4 418 442.6 417.1 440.4 418.2L430.5 423.2L433.9 429.8V429.8Z" fill="#9EC0FD" stroke="#404041" stroke-width="2" stroke-miterlimit="10" stroke-linejoin="round"/>
<path d="M411.598 373.032L424.13 368.012L442.053 412.756L429.521 417.776L411.598 373.032Z" fill="#326CE5" stroke="#404041" stroke-width="2" stroke-miterlimit="10" stroke-linejoin="round"/>
<path d="M421.355 382.447L432.753 385.501L419.476 435.053L408.079 431.999L421.355 382.447Z" fill="#FFEAB3" stroke="#404041" stroke-width="2" stroke-miterlimit="10"/>
<path d="M420.3 438.4H404.7V435.5C404.7 433 406.7 431 409.2 431H420.3V438.4Z" fill="#9EC0FD" stroke="#404041" stroke-width="2" stroke-miterlimit="10" stroke-linejoin="round"/>
<path d="M421.683 378.084L434.723 381.578L422.249 428.136L409.209 424.642L421.683 378.084Z" fill="#326CE5" stroke="#404041" stroke-width="2" stroke-miterlimit="10" stroke-linejoin="round"/>
<path d="M424.5 280.8C422.1 281.1 417.4 281.3 417.4 281.3C417.4 281.3 412.6 281.1 410.3 280.8C405.5 280 400.6 273.6 399.2 267.7C398.3 263.5 397.4 259.2 396.5 255C394.7 248 400.4 239.4 409.6 238.3C414.8 237.8 420.1 237.8 425.4 238.3C434.5 239.4 440.3 248 438.5 255C437.6 259.2 436.7 263.5 435.8 267.7C434.2 273.6 429.3 280 424.5 280.8ZM399.1 374.3C399.1 374.3 400.5 391.4 414.2 391.8C427.9 392.2 414.2 374.3 414.2 374.3H399.1Z" fill="#326CE5" stroke="#404041" stroke-width="2" stroke-miterlimit="10" stroke-linejoin="round"/>
<path d="M391 341.1L396.1 365.9H438.8L443.8 341.1H391Z" fill="#9EC0FD" stroke="#404041" stroke-width="2" stroke-miterlimit="10"/>
<path d="M385 431.2L413.2 414.1L385 431.2ZM449.8 431.2L421.7 414.1Z" fill="#E6E7E8"/>
<path d="M449.8 431.2L421.7 414.1M385 431.2L413.2 414.1L385 431.2Z" stroke="#404041" stroke-width="2" stroke-miterlimit="10"/>
<path d="M412.1 419.9V388.8C412.1 387.6 413.1 386.5 414.4 386.5H420.5C421.7 386.5 422.8 387.5 422.8 388.8V419.9C422.8 420.4 422.4 420.8 421.9 420.8H413C412.5 420.8 412.1 420.4 412.1 419.9Z" fill="white" stroke="#404041" stroke-width="2" stroke-miterlimit="10"/>
<path d="M409.5 397V378.6C409.5 377.7 410.2 377 411.1 377H423.8C424.7 377 425.4 377.7 425.4 378.6V397C425.4 397.9 424.7 398.6 423.8 398.6H411.1C410.2 398.6 409.5 397.9 409.5 397Z" fill="white" stroke="#404041" stroke-width="2" stroke-miterlimit="10"/>
<path d="M385 436.3C387.817 436.3 390.1 434.017 390.1 431.2C390.1 428.383 387.817 426.1 385 426.1C382.183 426.1 379.9 428.383 379.9 431.2C379.9 434.017 382.183 436.3 385 436.3Z" fill="white" stroke="#404041" stroke-width="2" stroke-miterlimit="10"/>
<path d="M449.8 436.3C452.617 436.3 454.9 434.017 454.9 431.2C454.9 428.383 452.617 426.1 449.8 426.1C446.983 426.1 444.7 428.383 444.7 431.2C444.7 434.017 446.983 436.3 449.8 436.3Z" fill="white" stroke="#404041" stroke-width="2" stroke-miterlimit="10"/>
<path d="M417.4 414.1V431.2Z" fill="#E6E7E8"/>
<path d="M417.4 414.1V431.2" stroke="#404041" stroke-width="2" stroke-miterlimit="10"/>
<path d="M417.4 436.3C420.217 436.3 422.5 434.017 422.5 431.2C422.5 428.383 420.217 426.1 417.4 426.1C414.583 426.1 412.3 428.383 412.3 431.2C412.3 434.017 414.583 436.3 417.4 436.3Z" fill="white" stroke="#404041" stroke-width="2" stroke-miterlimit="10"/>
<path d="M392.2 376.5H442.7V381.8H392.2V376.5Z" fill="#E6E7E8" stroke="#404041" stroke-width="2" stroke-miterlimit="10"/>
<path d="M441.5 366H393.4C390.5 366 388.1 368.4 388.1 371.3C388.1 374.2 390.5 376.6 393.4 376.6H441.5C444.4 376.6 446.8 374.2 446.8 371.3C446.8 368.3 444.4 366 441.5 366ZM428.8 355.6H406C399.2 355.6 391.5 349.6 391.1 342.6C390.8 334.7 391.8 326.6 393.7 318.6C396 309.8 405.4 303.3 413.9 303.3H421.1C429.5 303.3 438.9 309.8 441.3 318.6C443.2 326.6 444.2 334.6 443.9 342.6C443.3 349.6 435.6 355.6 428.8 355.6Z" fill="#E6E7E8" stroke="#404041" stroke-width="2" stroke-miterlimit="10"/>
<path d="M411.4 367.3C413.9 355.4 414.5 343.4 413.9 331.6C413.8 329.5 414.9 327.8 416.4 327.8H418.4C419.9 327.8 421 329.5 420.9 331.6C420.3 343.5 420.9 355.5 423.4 367.3C423.9 369.4 422.1 371.1 419.3 371.1H415.6C412.7 371.2 410.9 369.5 411.4 367.3Z" fill="white"/>
<path d="M411.4 367.3C413.9 355.4 414.5 343.4 413.9 331.6C413.8 329.5 414.9 327.8 416.4 327.8H418.4C419.9 327.8 421 329.5 420.9 331.6C420.3 343.5 420.9 355.5 423.4 367.3C423.9 369.4 422.1 371.1 419.3 371.1H415.6C412.7 371.2 410.9 369.5 411.4 367.3Z" stroke="#404041" stroke-width="2" stroke-miterlimit="10"/>
<path fill-rule="evenodd" clip-rule="evenodd" d="M506.1 333.2H495.4L494.1 315.3H507.4L506.1 333.2Z" fill="#FFEAB3" stroke="#404041" stroke-width="2" stroke-miterlimit="10"/>
<path fill-rule="evenodd" clip-rule="evenodd" d="M507.5 315.3H494C493 315.3 492.1 314.5 492.1 313.4C492.1 312.4 492.9 311.5 494 311.5H507.4C508.4 311.5 509.3 312.3 509.3 313.4C509.3 314.4 508.5 315.3 507.5 315.3V315.3Z" fill="#E6E7E8" stroke="#404041" stroke-width="2" stroke-miterlimit="10"/>
<path fill-rule="evenodd" clip-rule="evenodd" d="M176.3 322.8H160.3V325.2C160.3 329.6 163.9 333.2 168.3 333.2C172.7 333.2 176.3 329.6 176.3 325.2V322.8Z" fill="#FFEAB3" stroke="#404041" stroke-width="2" stroke-miterlimit="10"/>
<path d="M177.3 322.8C179.5 322.8 181.3 324.6 181.3 326.8" stroke="#404041" stroke-width="2" stroke-miterlimit="10"/>
</svg>
