<svg width="731" height="462" viewBox="0 0 731 462" fill="none" xmlns="http://www.w3.org/2000/svg">
<path d="M487.94 130.55H475.82L475.76 101.29L463.69 101.3L481.78 80.6401L499.95 101.27L487.88 101.28L487.94 130.55ZM230.03 180.6H217.91L217.85 151.34L205.78 151.35L223.87 130.69L242.04 151.32L229.97 151.33L230.03 180.6ZM120.3 282.03H108.18L108.13 252.78L96.0601 252.79L114.15 232.13L132.32 252.76L120.25 252.77L120.3 282.03Z" fill="#FFEAB3"/>
<path d="M391.81 203.94V365.98C392.09 365.97 392.37 365.96 392.65 365.96C394.73 365.96 396.69 366.26 398.52 366.8C395.56 360.39 399.2 351.38 409.42 351.38C414.22 351.38 417.56 353.37 419.46 356.13C421.02 348.54 429.44 342.57 438.2 342.57C443.89 342.57 448.78 344.77 452.18 348.2C457.69 344.71 464.33 342.63 471.1 342.63C483.5 342.63 493.71 348.71 499.21 357.48V203.94H391.81V203.94Z" fill="#F2F3F3"/>
<path d="M534.8 407.05C534.8 417.14 531.07 426.36 524.9 433.4C519.635 439.424 512.687 443.733 504.95 445.77C504.6 445.87 504.24 445.96 503.88 446.04C500.95 446.73 497.9 447.09 494.76 447.09H207.49C196.41 447.09 187.43 438.11 187.43 427.03C187.43 419.13 191.99 412.31 198.62 409.04C192.59 405.17 188.59 398.4 188.59 390.69C188.59 378.65 198.36 368.88 210.4 368.88C211.76 368.88 213.09 369 214.38 369.25C214.37 368.89 214.36 368.54 214.36 368.18C214.36 354.15 225.74 342.77 239.78 342.77C251.49 342.77 261.35 350.7 264.29 361.48C265.56 350.94 274.53 342.77 285.41 342.77C294.96 342.77 303.05 349.06 305.74 357.73C308.27 354.86 311.96 353.05 316.08 353.05C323.34 353.05 329.3 358.67 329.82 365.79C330.521 364.945 331.399 364.264 332.393 363.798C333.387 363.331 334.472 363.089 335.57 363.09C339.7 363.09 343.04 366.43 343.04 370.55V289.82H362.33V377.05C362.33 376.62 362.37 376.2 362.44 375.79C362.667 374.417 363.262 373.131 364.162 372.069C365.062 371.007 366.233 370.209 367.55 369.76C369.327 369.149 371.266 369.209 373.001 369.929C374.737 370.649 376.149 371.98 376.97 373.67C378.898 371.195 381.366 369.193 384.186 367.817C387.006 366.441 390.102 365.727 393.24 365.73C394.79 365.73 396.29 365.9 397.74 366.23C397.19 364.83 396.9 363.31 396.9 361.71C396.9 354.73 402.56 349.06 409.55 349.06C413.4 349.06 416.84 350.78 419.16 353.5C421.43 345.18 429.04 339.07 438.07 339.07C443.58 339.07 448.56 341.34 452.13 345C457.656 341.129 464.243 339.059 470.99 339.07C481.19 339.07 490.31 343.71 496.35 351C500.27 355.74 502.9 361.59 503.67 368.01C511.908 369.895 519.339 374.337 524.9 380.7C527.16 383.28 529.09 386.16 530.63 389.26C533.3 394.62 534.8 400.66 534.8 407.05V407.05Z" fill="#FFEAB3"/>
<path d="M367.55 309.35V369.76C364.9 370.66 362.9 372.97 362.44 375.79H362.2V309.35H367.55V309.35Z" fill="#E6E7E8"/>
<path d="M258.72 309.35V351.42C259.1 351.85 259.47 352.3 259.82 352.76C259.98 352.96 260.13 353.16 260.27 353.38C261.84 355.62 263.01 358.18 263.68 360.92C263.87 361.38 264.08 361.84 264.27 362.3C264.65 352.12 273.89 343.63 283.85 343C284.5 342.93 285.15 342.89 285.81 342.89C295.34 342.89 302.85 349.27 305.53 357.76C308.12 355 311.59 353.2 316.13 353.13C319.03 353.09 321.6 354.1 323.65 355.76C325.63 356.87 327.4 358.6 328.45 360.4C329.29 361.83 329.93 363.86 330.12 365.85C331.43 364.22 333.42 363.19 335.74 363.09C339.25 362.93 342.53 365.97 342.97 369.4V309.34H258.72V309.35ZM187.89 428.91C187.88 428.82 187.88 428.74 187.87 428.65C187.82 428.2 187.77 427.74 187.75 427.28C187.73 426.79 187.73 426.31 187.75 425.83C187.76 425.64 187.76 425.44 187.78 425.25L187.81 424.9C188.39 418 193.01 411.98 199.07 408.79C198.61 408.53 198.16 408.24 197.72 407.94C197.54 407.82 197.36 407.69 197.18 407.56C196.86 407.33 196.55 407.09 196.25 406.84C196.1 406.72 195.95 406.6 195.81 406.48C195.41 406.13 195.02 405.76 194.64 405.39C194.5 405.25 194.36 405.1 194.22 404.95C193.94 404.66 193.68 404.35 193.42 404.04C193.3 403.9 193.18 403.76 193.06 403.61C192.72 403.18 192.4 402.74 192.09 402.28C191.99 402.14 191.9 401.99 191.81 401.84C191.57 401.47 191.35 401.1 191.14 400.72C191.05 400.57 190.97 400.41 190.88 400.26C190.61 399.76 190.36 399.24 190.13 398.72C190.08 398.6 190.03 398.48 189.99 398.36C189.8 397.91 189.63 397.46 189.48 397C189.43 396.84 189.37 396.69 189.32 396.53C189.14 395.96 188.98 395.39 188.84 394.8C188.82 394.73 188.81 394.65 188.8 394.58C188.68 394.05 188.59 393.51 188.51 392.97C188.49 392.81 188.46 392.65 188.44 392.49C188.36 391.88 188.3 391.26 188.27 390.63C188.25 390.26 188.25 389.9 188.26 389.54C188.26 389.42 188.27 389.31 188.28 389.19C188.29 388.94 188.3 388.7 188.32 388.45C188.33 388.32 188.35 388.18 188.36 388.05C188.38 387.83 188.41 387.6 188.44 387.38C188.46 387.24 188.48 387.11 188.51 386.97C188.55 386.75 188.58 386.54 188.63 386.32L188.72 385.92C188.77 385.7 188.82 385.49 188.88 385.27C188.91 385.14 188.95 385.02 188.99 384.89C189.05 384.67 189.12 384.45 189.2 384.23C189.24 384.12 189.28 384 189.32 383.89C189.4 383.66 189.49 383.43 189.58 383.2L189.7 382.9C189.8 382.66 189.91 382.41 190.02 382.17C190.06 382.09 190.09 382.01 190.13 381.94C190.26 381.67 190.4 381.4 190.54 381.14C190.56 381.1 190.59 381.05 190.61 381.01C191.84 378.77 193.5 376.77 195.45 375.09H125.66V447.08H202.33C194.42 444.57 188.87 437.35 187.89 428.91V428.91ZM632.29 37.4502V447.09H524.9V433.4C531.07 426.36 534.8 417.14 534.8 407.05C534.8 400.66 533.3 394.62 530.63 389.26C529.09 386.16 527.16 383.28 524.9 380.7V37.4502H632.29V37.4502Z" fill="#F2F3F3"/>
<path d="M688.89 33.9701L686.39 29.6401M412.45 85.3201H417.45H412.45ZM420.87 85.3201H425.87H420.87ZM415.8 91.1301L418.3 86.8001L415.8 91.1301ZM420.01 83.8401L422.51 79.5101L420.01 83.8401ZM422.51 91.1301L420.01 86.8001L422.51 91.1301ZM418.3 83.8401L415.8 79.5101L418.3 83.8401ZM683.03 35.4501H688.03H683.03ZM691.45 35.4501H696.45H691.45ZM686.39 41.2601L688.89 36.9301L686.39 41.2601ZM690.6 33.9701L693.1 29.6401L690.6 33.9701ZM693.1 41.2601L690.6 36.9301L693.1 41.2601Z" stroke="#404041" stroke-width="2" stroke-miterlimit="10"/>
<path d="M701.03 315.61C703.134 315.61 704.84 313.904 704.84 311.8C704.84 309.696 703.134 307.99 701.03 307.99C698.926 307.99 697.22 309.696 697.22 311.8C697.22 313.904 698.926 315.61 701.03 315.61Z" stroke="#404041" stroke-width="2" stroke-miterlimit="10"/>
<path d="M412.16 41.5002C414.187 41.5002 415.83 39.857 415.83 37.8302C415.83 35.8033 414.187 34.1602 412.16 34.1602C410.133 34.1602 408.49 35.8033 408.49 37.8302C408.49 39.857 410.133 41.5002 412.16 41.5002Z" fill="#E6E7E8"/>
<path d="M163.96 214.9C165.987 214.9 167.63 213.257 167.63 211.23C167.63 209.203 165.987 207.56 163.96 207.56C161.933 207.56 160.29 209.203 160.29 211.23C160.29 213.257 161.933 214.9 163.96 214.9Z" fill="#E6E7E8"/>
<path d="M208.28 28.3403L205.78 24.0103M155.54 156.63H165.05V166.14H155.54V156.63ZM218.78 257.08H223.78H218.78ZM227.21 257.08H232.21H227.21ZM222.14 262.89L224.64 258.56L222.14 262.89ZM226.35 255.6L228.85 251.27L226.35 255.6ZM228.85 262.89L226.35 258.56L228.85 262.89ZM224.64 255.6L222.14 251.27L224.64 255.6ZM98.21 156.63H103.21H98.21ZM106.63 156.63H111.63H106.63ZM101.56 162.44L104.06 158.11L101.56 162.44ZM105.77 155.15L108.27 150.82L105.77 155.15ZM108.27 162.44L105.77 158.11L108.27 162.44ZM104.06 155.15L101.56 150.82L104.06 155.15ZM202.43 29.8303H207.43H202.43ZM210.85 29.8303H215.85H210.85ZM205.78 35.6403L208.28 31.3103L205.78 35.6403ZM209.99 28.3403L212.49 24.0103L209.99 28.3403ZM212.49 35.6403L209.99 31.3103L212.49 35.6403Z" stroke="#404041" stroke-width="2" stroke-miterlimit="10"/>
<path d="M210.4 303.8L204.96 313.22H215.84L210.4 303.8Z" stroke="#404041" stroke-width="2" stroke-miterlimit="10" stroke-linejoin="round"/>
<path d="M454.35 27.8202C456.454 27.8202 458.16 26.1144 458.16 24.0102C458.16 21.906 456.454 20.2002 454.35 20.2002C452.246 20.2002 450.54 21.906 450.54 24.0102C450.54 26.1144 452.246 27.8202 454.35 27.8202Z" stroke="#404041" stroke-width="2" stroke-miterlimit="10"/>
<path d="M29.81 41.8402C31.9142 41.8402 33.62 40.1344 33.62 38.0302C33.62 35.926 31.9142 34.2202 29.81 34.2202C27.7058 34.2202 26 35.926 26 38.0302C26 40.1344 27.7058 41.8402 29.81 41.8402Z" stroke="#404041" stroke-width="2" stroke-miterlimit="10"/>
<path d="M63.8801 327.16C65.9843 327.16 67.6901 325.454 67.6901 323.35C67.6901 321.246 65.9843 319.54 63.8801 319.54C61.7759 319.54 60.0701 321.246 60.0701 323.35C60.0701 325.454 61.7759 327.16 63.8801 327.16Z" stroke="#404041" stroke-width="2" stroke-miterlimit="10"/>
<path d="M662.38 146.43V137.64M136.51 67.0404H145.3H136.51ZM140.9 71.4404V62.6504V71.4404ZM657.98 142.04H666.77H657.98Z" stroke="#404041" stroke-width="2" stroke-miterlimit="10"/>
<path d="M32.1499 206.48H41.6599V215.99H32.1499V206.48Z" fill="#E6E7E8"/>
<path d="M494.76 447.09C497.9 447.09 500.95 446.73 503.88 446.04C504.24 445.96 504.6 445.87 504.95 445.77C512.687 443.733 519.635 439.424 524.9 433.4C531.07 426.36 534.8 417.14 534.8 407.05C534.8 400.66 533.3 394.62 530.63 389.26C529.09 386.16 527.16 383.28 524.9 380.7C519.339 374.336 511.908 369.894 503.67 368.01M29.8101 447.09H701.03H29.8101ZM331.74 289.73V315.67C331.74 322.08 326.54 327.28 320.13 327.28L331.74 289.73ZM374.32 312.87V337.26C374.32 343.67 379.52 348.87 385.93 348.87L374.32 312.87ZM374.32 289.73V337.25V289.73Z" stroke="#404041" stroke-width="2" stroke-miterlimit="10"/>
<path d="M372.58 386.39C372.58 374.98 381.83 365.73 393.24 365.73C394.79 365.73 396.29 365.9 397.74 366.23M503.91 371.99C503.91 370.64 503.83 369.31 503.67 368.01C502.9 361.59 500.27 355.74 496.35 351C490.31 343.71 481.19 339.07 470.99 339.07C463.98 339.07 457.47 341.26 452.13 345C450.303 343.121 448.117 341.628 445.702 340.609C443.286 339.59 440.691 339.067 438.07 339.07C427.24 339.07 418.46 347.85 418.46 358.69L503.91 371.99ZM388.49 432.85C384.566 434.248 380.296 434.35 376.31 433.14C365.94 430.02 360.05 419.09 363.17 408.72L388.49 432.85ZM345.9 427.13C346.22 429.94 345.69 432.88 344.18 435.53C340.41 442.16 331.98 444.47 325.35 440.69L345.9 427.13Z" stroke="#404041" stroke-width="2" stroke-miterlimit="10"/>
<path d="M376.97 373.67C376.149 371.98 374.737 370.649 373.002 369.929C371.266 369.208 369.327 369.148 367.55 369.76C364.9 370.66 362.9 372.97 362.44 375.79C362.37 376.2 362.33 376.62 362.33 377.05M400.48 370.53C398.177 368.173 396.892 365.006 396.9 361.71C396.9 354.73 402.56 349.06 409.55 349.06C413.4 349.06 416.84 350.78 419.16 353.5L400.48 370.53ZM428 365.67C427.74 363.47 428.31 361.16 429.77 359.26C432.74 355.39 438.29 354.66 442.16 357.63C443.174 358.406 444.007 359.394 444.599 360.526C445.192 361.657 445.53 362.904 445.59 364.18L428 365.67ZM400.32 384.78C402.48 380.91 406.62 378.3 411.36 378.3C418.35 378.3 424.01 383.96 424.01 390.95C424.01 392.97 423.54 394.88 422.7 396.57L400.32 384.78ZM442.51 382.54C444.67 378.67 448.81 376.06 453.55 376.06C460.54 376.06 466.2 381.72 466.2 388.71C466.2 388.79 466.2 388.86 466.19 388.94L442.51 382.54ZM422.19 396.57C431.42 396.57 438.91 404.05 438.91 413.29C438.91 422.52 431.43 430.01 422.19 430.01V396.57Z" stroke="#404041" stroke-width="2" stroke-miterlimit="10"/>
<path d="M464.21 396.57C464.21 387.91 471.23 380.89 479.89 380.89C488.55 380.89 495.57 387.91 495.57 396.57C495.57 403.47 491.11 409.33 484.91 411.42" stroke="#404041" stroke-width="2" stroke-miterlimit="10"/>
<path d="M264.29 361.48C265.56 350.94 274.53 342.77 285.41 342.77C297.17 342.77 306.7 352.3 306.7 364.06M478.45 408.96C483.79 408.96 488.13 413.29 488.13 418.64C488.13 423.98 483.8 428.32 478.45 428.32V408.96ZM207.49 447.09C196.41 447.09 187.43 438.11 187.43 427.03C187.43 415.95 196.41 406.97 207.49 406.97V447.09Z" stroke="#404041" stroke-width="2" stroke-miterlimit="10"/>
<path d="M198.62 409.04C192.59 405.17 188.59 398.4 188.59 390.69C188.59 378.65 198.36 368.88 210.4 368.88C222.45 368.88 232.21 378.65 232.21 390.69" stroke="#404041" stroke-width="2" stroke-miterlimit="10"/>
<path d="M305.74 357.73C308.27 354.86 311.96 353.05 316.08 353.05C323.34 353.05 329.3 358.67 329.82 365.79M214.38 369.25C214.37 368.89 214.36 368.54 214.36 368.18C214.36 354.15 225.74 342.77 239.78 342.77C253.81 342.77 265.19 354.15 265.19 368.18L214.38 369.25Z" stroke="#404041" stroke-width="2" stroke-miterlimit="10"/>
<path d="M286.86 386.93C288.79 382.98 292.85 380.25 297.55 380.25C304.12 380.25 309.44 385.58 309.44 392.14M343.04 370.56C343.04 366.43 339.7 363.09 335.57 363.09C331.44 363.09 328.1 366.43 328.1 370.56H343.04ZM218.32 402.12C212.81 402.12 208.35 397.66 208.35 392.15C208.35 386.64 212.81 382.18 218.32 382.18V402.12Z" stroke="#404041" stroke-width="2" stroke-miterlimit="10"/>
<path d="M242.58 427.53C235.31 427.53 229.42 421.64 229.42 414.37C229.42 407.1 235.31 401.21 242.58 401.21C244.79 401.21 248.7 402.72 248.7 402.72C248.7 402.72 247.16 397.66 247.16 394.89C247.16 383.49 256.4 374.24 267.8 374.24C279.2 374.24 288.45 383.49 288.45 394.89" stroke="#404041" stroke-width="2" stroke-miterlimit="10" stroke-linejoin="round"/>
<path d="M266 423.98C266 432 272.5 438.5 280.52 438.5C288.12 438.5 294.36 432.66 294.99 425.21" stroke="#404041" stroke-width="2" stroke-miterlimit="10"/>
<path d="M312.42 413.28C312.42 420.35 306.69 426.08 299.62 426.08C295.28 426.08 291.45 423.92 289.13 420.62" stroke="#404041" stroke-width="2" stroke-miterlimit="10"/>
<path d="M362.33 382.73V289.73M343.04 372V289.73V372Z" stroke="#404041" stroke-width="2" stroke-miterlimit="10" stroke-linejoin="round"/>
<path d="M53.5 447.09V415.27M524.9 433.4V447.09V433.4Z" stroke="#404041" stroke-width="2" stroke-miterlimit="10"/>
<path d="M53.0299 420.95C61.9383 420.95 69.1599 413.729 69.1599 404.82C69.1599 395.912 61.9383 388.69 53.0299 388.69C44.1215 388.69 36.8999 395.912 36.8999 404.82C36.8999 413.729 44.1215 420.95 53.0299 420.95Z" fill="#9EC0FD" stroke="#404041" stroke-width="2" stroke-miterlimit="10"/>
<path d="M101.42 447.09V415.27" stroke="#404041" stroke-width="2" stroke-miterlimit="10"/>
<path d="M100.95 420.95C109.858 420.95 117.08 413.729 117.08 404.82C117.08 395.912 109.858 388.69 100.95 388.69C92.0417 388.69 84.8201 395.912 84.8201 404.82C84.8201 413.729 92.0417 420.95 100.95 420.95Z" fill="#9EC0FD" stroke="#404041" stroke-width="2" stroke-miterlimit="10"/>
<path d="M602.08 447.28V395.31V447.28ZM602.77 400.01C589.84 400.01 579.35 389.53 579.35 376.59V344.41C579.35 331.48 589.83 320.99 602.77 320.99C615.7 320.99 626.19 331.47 626.19 344.41V376.59C626.19 389.53 615.7 400.01 602.77 400.01ZM665.64 447.28V395.31V447.28ZM666.33 400.01C653.4 400.01 642.91 389.53 642.91 376.59V344.41C642.91 331.48 653.39 320.99 666.33 320.99C679.26 320.99 689.75 331.47 689.75 344.41V376.59C689.74 389.53 679.26 400.01 666.33 400.01Z" fill="#9EC0FD" stroke="#404041" stroke-width="2" stroke-miterlimit="10"/>
<path d="M142.46 315.98V249.34H154.85L114.19 207.67L73.53 249.34H85.91V355.53M507.36 302.57V90.7001H518.55L481.82 53.0601L445.09 90.7001H456.28V185.78L507.36 302.57ZM252.18 201.6V147.9H264.57L223.91 106.24L183.25 147.9H195.64V281.6L252.18 201.6Z" stroke="#404041" stroke-width="2" stroke-miterlimit="10"/>
<path d="M317.78 320.06C322.342 320.06 326.04 316.362 326.04 311.8C326.04 307.238 322.342 303.54 317.78 303.54C313.218 303.54 309.52 307.238 309.52 311.8C309.52 316.362 313.218 320.06 317.78 320.06Z" fill="#FFEAB3" stroke="#404041" stroke-width="2" stroke-miterlimit="10"/>
<path d="M390.9 341.97C396.848 341.97 401.67 337.148 401.67 331.2C401.67 325.252 396.848 320.43 390.9 320.43C384.952 320.43 380.13 325.252 380.13 331.2C380.13 337.148 384.952 341.97 390.9 341.97Z" fill="#FFEAB3" stroke="#404041" stroke-width="2" stroke-miterlimit="10"/>
<path d="M701.03 447.09H29.8101" stroke="#404041" stroke-width="2" stroke-miterlimit="10"/>
<path d="M302.89 182.08C302.89 182.08 233.47 180.29 272.23 316.87C273.13 320.05 277.51 320.41 278.87 317.39C286.13 301.38 304.44 271.44 335.78 276.19C335.31 275.12 324.87 185.48 324.87 185.48L302.89 182.08V182.08ZM401.08 182.08C401.08 182.08 470.5 180.29 431.74 316.87C430.84 320.05 426.46 320.41 425.1 317.39C417.84 301.38 399.53 271.44 368.19 276.19C368.66 275.12 379.1 185.48 379.1 185.48L401.08 182.08V182.08Z" fill="#326CE5" stroke="#404041" stroke-width="2" stroke-miterlimit="10"/>
<path d="M376.01 278.88C392.64 255.17 411.78 219.1 411.78 178.68C411.78 141.83 395.85 108.58 380.43 85.0204C365.99 62.9404 351.98 49.3804 351.98 49.3804C351.98 49.3804 337.98 62.9404 323.53 85.0204C308.1 108.58 292.18 141.83 292.18 178.68C292.18 219.09 311.33 255.17 327.95 278.88H376.01V278.88Z" fill="#9EC0FD" stroke="#404041" stroke-width="2" stroke-miterlimit="10"/>
<path d="M351.99 151.87C362.887 151.87 371.72 143.037 371.72 132.14C371.72 121.244 362.887 112.41 351.99 112.41C341.093 112.41 332.26 121.244 332.26 132.14C332.26 143.037 341.093 151.87 351.99 151.87Z" fill="#E6E7E8" stroke="#404041" stroke-width="2" stroke-miterlimit="10"/>
<path d="M351.99 147.38C360.407 147.38 367.23 140.557 367.23 132.14C367.23 123.724 360.407 116.9 351.99 116.9C343.573 116.9 336.75 123.724 336.75 132.14C336.75 140.557 343.573 147.38 351.99 147.38Z" fill="#FAFBFB" stroke="#404041" stroke-width="2" stroke-miterlimit="10"/>
<path d="M380.43 85.0204H323.54C337.98 62.9404 351.99 49.3804 351.99 49.3804C351.99 49.3804 365.99 62.9404 380.43 85.0204ZM351.99 326.98C350.65 326.98 349.54 325.93 349.47 324.59L344.82 235.05C344.77 234.078 344.918 233.105 345.255 232.191C345.593 231.277 346.113 230.442 346.783 229.735C347.454 229.029 348.262 228.467 349.157 228.082C350.052 227.698 351.016 227.5 351.99 227.5C356.1 227.5 359.37 230.95 359.16 235.05L354.51 324.59C354.474 325.235 354.193 325.842 353.725 326.286C353.256 326.73 352.636 326.979 351.99 326.98V326.98Z" fill="#326CE5" stroke="#404041" stroke-width="2" stroke-miterlimit="10"/>
<path d="M685.94 284.76V218.12H698.32L657.66 176.45L617 218.12H629.39V272.32" stroke="#404041" stroke-width="2" stroke-miterlimit="10"/>
<path d="M663.78 250.81H651.66L651.6 221.56L639.53 221.57L657.62 200.91L675.79 221.54L663.72 221.55L663.78 250.81Z" fill="#FFEAB3"/>
<path d="M675.79 98.19V65.27" stroke="#404041" stroke-width="2" stroke-miterlimit="10"/>
<path d="M683.97 71.9001L682.51 73.2601L675.79 66.0401L669.08 73.2601L667.61 71.9001L675.79 63.1001L683.97 71.9001Z" fill="#404041"/>
<path d="M48 121.82V93.3003" stroke="#404041" stroke-width="2" stroke-miterlimit="10"/>
<path d="M56.1801 99.9304L54.7101 101.29L48.0001 94.0704L41.2901 101.29L39.8201 99.9304L48.0001 91.1304L56.1801 99.9304Z" fill="#404041"/>
<path d="M274.3 67.2003V38.0703" stroke="#404041" stroke-width="2" stroke-miterlimit="10"/>
<path d="M282.48 44.7004L281.01 46.0604L274.3 38.8404L267.59 46.0604L266.12 44.7004L274.3 35.9004L282.48 44.7004Z" fill="#404041"/>
</svg>
