<svg width="650" height="450" viewBox="0 0 650 450" fill="none" xmlns="http://www.w3.org/2000/svg">
<path d="M333.78 33.7999C333.62 32.8999 333.54 31.9699 333.54 31.0299C333.54 22.1199 340.76 14.8999 349.67 14.8999C350.39 14.8999 351.11 14.9499 351.8 15.0399C354.94 9.42988 360.94 5.62988 367.83 5.62988C376.32 5.62988 383.46 11.3999 385.56 19.2299C388.74 20.1999 391.19 22.7899 391.99 26.0299C396.77 26.1199 400.77 29.3799 401.98 33.7999H333.78ZM96.37 271.17H178.17V301.43H96.37V271.17ZM54.75 318.11H140.03V348.37H54.75V318.11ZM54.75 412H140.03V442.26H54.75V412ZM29.37 365.06H82.92V395.32H29.37V365.06Z" fill="#E6E7E8"/>
<path d="M165.41 395.31H111.86V365.05H165.41V395.31Z" fill="#E6E7E8"/>
<path d="M83.92 318.11H81.92V285.3H94.08V287.3H83.92V318.11Z" fill="#404041"/>
<path d="M90.1001 289.69L93.4901 286.3L90.1001 282.91H92.9801L96.3701 286.3L92.9801 289.69H90.1001ZM66.1901 350.66H68.1901V365.06H66.1901V350.66Z" fill="#404041"/>
<path d="M63.8 354.64L67.1901 351.25L70.5801 354.64V351.76L67.1901 348.37L63.8 351.76V354.64ZM123.21 350.66H125.21V365.06H123.21V350.66Z" fill="#404041"/>
<path d="M120.82 354.64L124.21 351.25L127.6 354.64V351.76L124.21 348.37L120.82 351.76V354.64ZM54.7501 428.13H16.3201V332.24H52.4701V334.24H18.3201V426.13H54.7501V428.13Z" fill="#404041"/>
<path d="M48.48 336.63L51.88 333.24L48.48 329.85H51.36L54.75 333.24L51.36 336.63H48.48ZM524.1 427.49H530.68V429.49H526.54V431.95H530.41V433.93H526.54V438.26H524.1V427.49ZM533.96 435.49L533.19 438.25H530.67L533.96 427.48H537.16L540.5 438.25H537.88L537.05 435.49H533.96ZM536.69 433.67L536.02 431.38C535.83 430.74 535.64 429.94 535.48 429.3H535.45C535.29 429.94 535.13 430.75 534.95 431.38L534.31 433.67H536.69V433.67ZM544.38 427.49V438.26H541.94V427.49H544.38ZM546.49 427.49H548.93V436.21H553.21V438.25H546.48V427.49H546.49ZM556.59 427.49V433.69C556.59 435.54 557.29 436.49 558.54 436.49C559.82 436.49 560.52 435.6 560.52 433.69V427.49H562.95V433.53C562.95 436.85 561.27 438.43 558.46 438.43C555.74 438.43 554.15 436.93 554.15 433.49V427.48H556.59V427.49ZM565.06 427.63C565.84 427.5 567.01 427.41 568.3 427.41C569.9 427.41 571.02 427.65 571.78 428.26C572.42 428.77 572.77 429.52 572.77 430.51C572.77 431.88 571.8 432.83 570.87 433.16V433.21C571.62 433.51 572.04 434.23 572.31 435.22C572.64 436.43 572.98 437.84 573.19 438.26H570.7C570.52 437.96 570.27 437.08 569.95 435.75C569.66 434.41 569.2 434.04 568.21 434.02H567.47V438.25H565.06V427.63V427.63ZM567.47 432.26H568.43C569.64 432.26 570.36 431.65 570.36 430.71C570.36 429.72 569.69 429.22 568.57 429.21C567.98 429.21 567.64 429.26 567.47 429.29V432.26ZM580.94 433.7H576.98V436.26H581.4V438.26H574.53V427.49H581.18V429.49H576.98V431.73H580.94V433.7V433.7Z" fill="#404041"/>
<path d="M583.93 443.84H517.04L483.77 410.57L485.18 409.15L517.86 441.84H583.93V443.84Z" fill="#404041"/>
<path opacity="0.5" d="M410.95 131.17C418.229 131.17 424.13 125.269 424.13 117.99C424.13 110.711 418.229 104.81 410.95 104.81C403.671 104.81 397.77 110.711 397.77 117.99C397.77 125.269 403.671 131.17 410.95 131.17Z" fill="#E6E7E8"/>
<path d="M189.07 431.16H194.07V433.16H189.07V431.16ZM197.5 431.16H202.5V433.16H197.5V431.16Z" fill="#404041"/>
<path d="M191.57 437.46L194.07 433.13L195.802 434.13L193.303 438.46L191.57 437.46Z" fill="#404041"/>
<path d="M195.786 430.169L198.285 425.839L200.017 426.839L197.518 431.169L195.786 430.169Z" fill="#404041"/>
<path d="M195.767 434.136L197.499 433.136L199.999 437.466L198.267 438.466L195.767 434.136Z" fill="#404041"/>
<path d="M191.56 426.845L193.292 425.845L195.792 430.175L194.06 431.175L191.56 426.845Z" fill="#404041"/>
<path d="M149.5 55.4199H154.5V57.4199H149.5V55.4199ZM157.92 55.4199H162.92V57.4199H157.92V55.4199Z" fill="#404041"/>
<path d="M151.981 61.7251L154.48 57.3947L156.212 58.3945L153.713 62.7249L151.981 61.7251Z" fill="#404041"/>
<path d="M156.2 54.4263L158.7 50.0958L160.432 51.0956L157.932 55.4261L156.2 54.4263Z" fill="#404041"/>
<path d="M156.202 58.4014L157.934 57.4014L160.434 61.7315L158.702 62.7315L156.202 58.4014Z" fill="#404041"/>
<path d="M151.98 51.106L153.713 50.106L156.213 54.4361L154.48 55.4361L151.98 51.106Z" fill="#404041"/>
<path d="M445.12 13.1299H450.12V15.1299H445.12V13.1299ZM453.54 13.1299H458.54V15.1299H453.54V13.1299Z" fill="#404041"/>
<path d="M447.599 19.436L450.098 15.1056L451.83 16.1054L449.331 20.4358L447.599 19.436Z" fill="#404041"/>
<path d="M451.818 12.1362L454.317 7.8058L456.049 8.80559L453.55 13.136L451.818 12.1362Z" fill="#404041"/>
<path d="M451.813 16.1143L453.545 15.1143L456.045 19.4444L454.313 20.4444L451.813 16.1143Z" fill="#404041"/>
<path d="M447.596 8.82812L449.328 7.82812L451.828 12.1583L450.096 13.1583L447.596 8.82812Z" fill="#404041"/>
<path d="M579.81 136.47H571.99L570.97 131.91L567.02 134.41L561.49 128.88L563.99 124.93L559.43 123.91V116.09L563.99 115.07L561.49 111.12L567.02 105.59L570.97 108.09L571.99 103.53H579.81L580.83 108.09L584.78 105.59L590.31 111.12L587.81 115.07L592.37 116.09V123.91L587.81 124.93L590.31 128.88L584.78 134.41L580.83 131.91L579.81 136.47ZM573.58 134.47H578.2L579.12 130.36L579.63 130.17C579.9 130.07 580.17 129.96 580.44 129.84L580.94 129.61L584.49 131.86L587.76 128.59L585.51 125.04L585.74 124.55C585.86 124.28 585.97 124.01 586.07 123.74L586.26 123.23L590.37 122.31V117.69L586.26 116.77L586.07 116.26C585.97 115.99 585.86 115.72 585.74 115.45L585.51 114.96L587.76 111.41L584.49 108.14L580.94 110.39L580.44 110.16C580.18 110.04 579.91 109.93 579.63 109.83L579.12 109.64L578.2 105.53H573.58L572.66 109.64L572.15 109.83C571.88 109.93 571.61 110.04 571.34 110.16L570.84 110.39L567.29 108.14L564.02 111.41L566.27 114.96L566.04 115.45C565.92 115.72 565.81 115.99 565.71 116.26L565.52 116.77L561.41 117.69V122.31L565.52 123.23L565.71 123.74C565.81 124.01 565.92 124.28 566.04 124.55L566.27 125.04L564.02 128.59L567.29 131.86L570.84 129.61L571.34 129.84C571.61 129.96 571.88 130.07 572.15 130.17L572.66 130.36L573.58 134.47Z" fill="#404041"/>
<path d="M575.89 126.08C574.33 126.08 572.77 125.49 571.59 124.3C570.452 123.159 569.813 121.612 569.813 120C569.813 118.388 570.452 116.842 571.59 115.7C572.732 114.562 574.278 113.923 575.89 113.923C577.502 113.923 579.048 114.562 580.19 115.7C581.328 116.842 581.968 118.388 581.968 120C581.968 121.612 581.328 123.159 580.19 124.3C579.626 124.865 578.955 125.313 578.217 125.618C577.479 125.924 576.689 126.081 575.89 126.08V126.08ZM575.89 115.92C574.84 115.92 573.8 116.32 573 117.11C572.236 117.876 571.808 118.914 571.808 119.995C571.808 121.077 572.236 122.114 573 122.88C573.768 123.644 574.807 124.073 575.89 124.073C576.973 124.073 578.012 123.644 578.78 122.88C579.544 122.114 579.973 121.077 579.973 119.995C579.973 118.914 579.544 117.876 578.78 117.11C577.99 116.31 576.94 115.92 575.89 115.92ZM242.19 15.1301H231.31C230.95 15.1301 230.62 14.9401 230.44 14.6301C230.26 14.3201 230.26 13.9401 230.44 13.6301L235.88 4.21012C236.24 3.59012 237.26 3.59012 237.61 4.21012L243.05 13.6301C243.138 13.7817 243.184 13.9536 243.184 14.1286C243.184 14.3036 243.139 14.4757 243.052 14.6275C242.965 14.7794 242.839 14.9057 242.688 14.9939C242.537 15.0821 242.365 15.1291 242.19 15.1301V15.1301ZM233.04 13.1301H240.45L236.74 6.71012L233.04 13.1301ZM246.61 394.43C243.96 394.43 241.8 392.27 241.8 389.62C241.8 386.97 243.96 384.81 246.61 384.81C249.26 384.81 251.42 386.97 251.42 389.62C251.43 392.27 249.27 394.43 246.61 394.43ZM246.61 386.81C245.06 386.81 243.8 388.07 243.8 389.62C243.8 391.17 245.06 392.43 246.61 392.43C248.16 392.43 249.42 391.17 249.42 389.62C249.43 388.07 248.16 386.81 246.61 386.81Z" fill="#404041"/>
<path d="M584.54 238.82C586.644 238.82 588.35 237.114 588.35 235.01C588.35 232.906 586.644 231.2 584.54 231.2C582.436 231.2 580.73 232.906 580.73 235.01C580.73 237.114 582.436 238.82 584.54 238.82Z" fill="#E6E7E8"/>
<path d="M584.54 184.61C581.89 184.61 579.73 182.45 579.73 179.8C579.73 177.15 581.89 174.99 584.54 174.99C587.19 174.99 589.35 177.15 589.35 179.8C589.35 182.45 587.19 184.61 584.54 184.61ZM584.54 176.98C582.99 176.98 581.73 178.24 581.73 179.79C581.73 181.34 582.99 182.6 584.54 182.6C586.09 182.6 587.35 181.34 587.35 179.79C587.35 178.24 586.09 176.98 584.54 176.98Z" fill="#404041"/>
<path d="M36.04 262.28C38.0669 262.28 39.71 260.637 39.71 258.61C39.71 256.583 38.0669 254.94 36.04 254.94C34.0131 254.94 32.37 256.583 32.37 258.61C32.37 260.637 34.0131 262.28 36.04 262.28Z" fill="#E6E7E8"/>
<path d="M96.37 90.0002C98.3968 90.0002 100.04 88.357 100.04 86.3302C100.04 84.3033 98.3968 82.6602 96.37 82.6602C94.3431 82.6602 92.7 84.3033 92.7 86.3302C92.7 88.357 94.3431 90.0002 96.37 90.0002Z" fill="#E6E7E8"/>
<path d="M346.67 426.23C348.697 426.23 350.34 424.587 350.34 422.56C350.34 420.533 348.697 418.89 346.67 418.89C344.643 418.89 343 420.533 343 422.56C343 424.587 344.643 426.23 346.67 426.23Z" fill="#E6E7E8"/>
<path d="M569.27 285.29H578.06V287.29H569.27V285.29Z" fill="#404041"/>
<path d="M572.67 281.89H574.67V290.68H572.67V281.89ZM66.21 223.04H75V225.04H66.21V223.04Z" fill="#404041"/>
<path d="M69.6 219.64H71.6V228.43H69.6V219.64Z" fill="#404041"/>
<path d="M308.81 141.62L313.08 164.26L313.42 164.2L336.55 105.78L293.74 59.79L293.4 59.85L297.78 83.11C251.6 97.31 213.73 132.11 195.78 177.23L250.55 199.03C261.1 172.53 282.47 151.67 308.81 141.62Z" fill="#326CE5"/>
<path d="M344.98 338.13C335.92 338.13 327.02 336.95 318.41 334.62L328.26 313.77L327.95 313.62L274.92 347.31L282.56 409.68L282.87 409.83L292.98 388.44C309.69 394.17 327.15 397.07 344.99 397.07C375.5 397.07 405.19 388.47 430.84 372.2L399.27 322.42C383.06 332.7 364.29 338.13 344.98 338.13V338.13ZM505.51 236.56C505.51 223.11 503.84 209.76 500.55 196.86L443.43 211.43C445.5 219.57 446.56 228.02 446.56 236.56C446.56 256.63 440.87 275.63 430.04 292.1L413.29 276.3L413.05 276.55L428.66 337.41L490.32 349.46L490.56 349.21L473.33 332.95C494.12 305.29 505.51 271.3 505.51 236.56V236.56Z" fill="#E6E7E8"/>
<path d="M243.54 241.6L266.36 244.52L266.4 244.18L217.97 204.15L161.01 230.68L160.97 231.02L184.49 234.03C184.48 234.87 184.46 235.72 184.46 236.56C184.46 284.44 205.6 329.46 242.46 360.08L280.13 314.73C258.09 296.43 244.93 270 243.54 241.6V241.6Z" fill="#326CE5"/>
<path d="M424.11 172.9L403.91 184L404.08 184.3L466.8 188.12L497.2 133.13L497.03 132.83L476.29 144.23C463.3 125.8 446.37 110.08 427.02 98.5601C405.32 85.6401 380.51 77.9701 355.27 76.3701L351.55 135.2C379.9 136.99 406.34 150.88 424.11 172.9V172.9Z" fill="#9EC0FD"/>
<path d="M251.09 200.32L194.46 177.78L194.83 176.85C212.65 132.08 250.66 96.8402 296.62 82.4102L292.22 59.0502L294.09 58.7002L337.7 105.55L314.13 165.07L312.26 165.42L308.03 142.97C282.28 153.16 261.7 173.65 251.46 199.38L251.09 200.32V200.32ZM197.06 176.67L249.98 197.73C260.69 171.56 281.95 150.8 308.44 140.69L309.56 140.26L313.51 161.22L335.37 106L294.9 62.5202L298.91 83.8002L298.06 84.0602C252.6 98.0402 214.92 132.62 197.06 176.67V176.67ZM283.31 411.17L281.59 410.36L281.52 409.81L273.81 346.81L327.84 312.48L329.55 313.29L319.78 333.96C327.95 336.06 336.41 337.13 344.94 337.13C364.06 337.13 382.65 331.75 398.68 321.58L399.52 321.04L432.17 372.51L431.33 373.05C405.52 389.42 375.64 398.08 344.94 398.08C327.34 398.08 310.02 395.25 293.45 389.68L283.31 411.17V411.17ZM275.95 347.82L283.17 406.78L292.41 387.21L293.26 387.5C309.87 393.19 327.26 396.08 344.94 396.08C374.93 396.08 404.11 387.72 429.41 371.9L398.91 323.81C382.75 333.84 364.11 339.14 344.94 339.14C335.83 339.14 326.8 337.95 318.11 335.59L316.96 335.28L326.08 315.98L275.95 347.82V347.82ZM490.65 350.56L427.83 338.28L411.92 276.27L413.22 274.89L429.82 290.56C440.1 274.51 445.53 255.87 445.53 236.58C445.53 228.13 444.49 219.76 442.43 211.7L442.18 210.73L501.24 195.67L501.49 196.64C504.8 209.62 506.48 223.06 506.48 236.59C506.48 271.05 495.18 305.21 474.64 332.87L491.95 349.2L490.65 350.56V350.56ZM429.45 336.55L487.74 347.94L471.98 333.06L472.52 332.35C493.14 304.91 504.49 270.89 504.49 236.56C504.49 223.53 502.91 210.59 499.81 198.08L444.63 212.16C446.57 220.08 447.55 228.29 447.55 236.57C447.55 256.66 441.78 276.05 430.86 292.65L430.2 293.65L414.7 279.02L429.45 336.55ZM242.56 361.49L241.79 360.85C204.7 330.04 183.43 284.74 183.43 236.56C183.43 236.01 183.44 235.46 183.45 234.91L159.83 231.89L160.07 230.01L218.1 202.98L267.44 243.76L267.2 245.64L244.57 242.74C246.26 270.34 259.4 296.24 280.73 313.96L281.5 314.6L242.56 361.49V361.49ZM163.96 230.4L185.48 233.16L185.46 234.71C185.45 235.33 185.44 235.95 185.44 236.56C185.44 283.81 206.16 328.26 242.32 358.67L278.71 314.86C257.09 296.54 243.92 269.91 242.53 241.64L242.47 240.45L263.6 243.16L217.82 205.32L163.96 230.4V230.4ZM467.34 189.16L403.44 185.27L402.52 183.61L422.55 172.6C404.84 151.19 378.99 137.94 351.44 136.19L350.44 136.13L354.29 75.3002L355.29 75.3602C380.69 76.9702 405.66 84.6902 427.49 97.6902C446.6 109.07 463.55 124.7 476.55 142.91L497.38 131.46L498.29 133.12L467.34 189.16V189.16ZM406.91 183.48L466.2 187.09L494.93 135.11L475.96 145.54L475.44 144.81C462.53 126.51 445.6 110.81 426.47 99.4202C405.19 86.7502 380.9 79.1602 356.16 77.4302L352.56 134.27C380.68 136.33 406.98 150.14 424.86 172.27L425.61 173.2L406.91 183.48V183.48Z" fill="#404041"/>
<path d="M344.98 301.96C381.028 301.96 410.25 272.738 410.25 236.69C410.25 200.642 381.028 171.42 344.98 171.42C308.932 171.42 279.71 200.642 279.71 236.69C279.71 272.738 308.932 301.96 344.98 301.96Z" fill="#FFEAB3"/>
<path d="M344.98 293.45C313.68 293.45 288.22 267.99 288.22 236.69C288.22 205.39 313.68 179.93 344.98 179.93C376.28 179.93 401.74 205.39 401.74 236.69C401.74 267.99 376.28 293.45 344.98 293.45ZM344.98 181.93C314.78 181.93 290.22 206.5 290.22 236.69C290.22 266.88 314.79 291.45 344.98 291.45C375.17 291.45 399.74 266.88 399.74 236.69C399.74 206.5 375.18 181.93 344.98 181.93ZM384.67 100.7C385.46 100.82 386.6 101.08 387.83 101.48C389.35 101.97 390.35 102.54 390.89 103.35C391.34 104.03 391.45 104.86 391.14 105.8C390.72 107.11 389.5 107.71 388.52 107.75L388.5 107.8C389.12 108.32 389.3 109.13 389.25 110.16C389.2 111.42 389.09 112.86 389.16 113.32L386.78 112.56C386.71 112.22 386.73 111.3 386.83 109.94C386.97 108.57 386.64 108.08 385.7 107.76L385 107.54L383.7 111.58L381.4 110.84L384.67 100.7V100.7ZM385.56 105.86L386.47 106.15C387.63 106.52 388.5 106.16 388.79 105.26C389.09 104.32 388.61 103.64 387.54 103.28C386.98 103.1 386.64 103.04 386.47 103.02L385.56 105.86ZM393.1 111.51C392.8 112.48 393.55 113.29 394.6 113.71C395.37 114.02 396.04 114.16 396.73 114.21L396.42 115.86C395.56 115.86 394.59 115.65 393.61 115.26C391.14 114.28 390.3 112.29 391.2 110.02C391.93 108.18 393.88 106.59 396.41 107.6C398.76 108.53 398.93 110.71 398.21 112.51C398.06 112.9 397.88 113.22 397.78 113.37L393.1 111.51V111.51ZM396.37 111.02C396.59 110.47 396.72 109.45 395.67 109.04C394.72 108.66 393.99 109.37 393.69 109.96L396.37 111.02ZM398.78 114.92C399.07 115.36 399.78 116.04 400.43 116.34C401.1 116.65 401.48 116.54 401.65 116.18C401.82 115.82 401.68 115.54 400.98 114.88C399.74 113.71 399.54 112.65 399.95 111.81C400.56 110.49 402.16 110.01 403.92 110.82C404.75 111.2 405.4 111.74 405.74 112.15L404.64 113.49C404.4 113.17 403.9 112.65 403.29 112.37C402.75 112.12 402.35 112.2 402.18 112.56C402.03 112.89 402.22 113.2 402.95 113.91C404.08 115 404.34 115.95 403.87 117C403.26 118.32 401.76 118.81 399.73 117.87C398.8 117.44 398.07 116.85 397.67 116.31L398.78 114.92V114.92ZM404.05 119.78L407.63 112.83L409.79 113.94L406.21 120.89L404.05 119.78ZM410.86 112.05C410.55 112.65 409.85 112.9 409.14 112.53C408.46 112.18 408.25 111.46 408.57 110.87C408.88 110.24 409.58 110 410.27 110.36C410.97 110.72 411.17 111.41 410.86 112.05V112.05ZM408.89 119.9C409.15 120.36 409.79 121.1 410.42 121.45C411.06 121.81 411.45 121.74 411.65 121.4C411.85 121.05 411.74 120.77 411.09 120.05C409.96 118.78 409.85 117.7 410.32 116.91C411.04 115.65 412.67 115.3 414.35 116.26C415.14 116.71 415.75 117.3 416.05 117.74L414.84 118.99C414.63 118.65 414.17 118.09 413.59 117.76C413.07 117.47 412.66 117.51 412.46 117.86C412.28 118.18 412.45 118.5 413.11 119.26C414.15 120.44 414.32 121.4 413.76 122.41C413.04 123.67 411.51 124.04 409.56 122.93C408.67 122.42 407.99 121.78 407.63 121.21L408.89 119.9V119.9ZM421.45 118.16L420.25 120.05L421.72 120.99L420.76 122.5L419.29 121.56L417.77 123.95C417.26 124.75 417.22 125.23 417.84 125.63C418.1 125.79 418.31 125.89 418.48 125.96L417.51 127.52C417.17 127.46 416.64 127.21 416.06 126.85C415.4 126.43 414.99 125.85 414.88 125.3C414.75 124.67 414.97 123.91 415.56 122.98L417.28 120.28L416.4 119.72L417.36 118.21L418.24 118.77L419.15 117.34L421.45 118.16V118.16ZM422.19 130.86L422.53 130.14L422.49 130.11C421.71 130.32 420.86 130.13 420.11 129.59C418.82 128.67 418.73 127.18 419.45 126.17C420.63 124.52 422.68 124.78 424.93 126.41L424.99 126.32C425.23 125.98 425.39 125.37 424.42 124.67C423.77 124.21 422.92 123.93 422.32 123.9L422.87 122.36C423.49 122.43 424.59 122.74 425.74 123.57C427.86 125.09 427.65 126.82 426.58 128.32L425 130.53C424.56 131.14 424.17 131.75 423.98 132.15L422.19 130.86V130.86ZM424.1 127.69C423.07 126.93 422.08 126.6 421.54 127.37C421.18 127.88 421.34 128.37 421.78 128.68C422.27 129.03 422.91 129 423.33 128.69C423.43 128.6 423.53 128.5 423.61 128.38L424.1 127.69V127.69ZM428.68 129.02C429.3 128.27 429.8 127.6 430.22 127.05L431.85 128.39L431.25 129.29L431.29 129.32C431.85 129.14 432.95 129.07 433.95 129.89C435.19 130.91 435.44 132.48 433.98 134.27L431.03 137.85L429.15 136.3L431.91 132.95C432.55 132.17 432.71 131.42 432.04 130.86C431.52 130.43 430.92 130.54 430.51 130.78C430.37 130.85 430.19 131.02 430.05 131.19L427.18 134.67L425.3 133.13L428.68 129.02V129.02ZM436.76 142.9C436.31 142.75 435.61 142.31 434.93 141.67C433.08 139.95 432.95 137.72 434.63 135.92C436.19 134.25 438.61 133.95 440.75 135.93C441.22 136.37 441.66 136.93 441.9 137.42L440.39 138.48C440.27 138.19 440.03 137.81 439.56 137.38C438.62 136.51 437.39 136.61 436.53 137.55C435.55 138.6 435.74 139.81 436.6 140.62C437.02 141.01 437.41 141.25 437.78 141.39L436.76 142.9V142.9ZM440.92 142.95C440.25 143.7 440.58 144.75 441.37 145.57C441.94 146.17 442.49 146.58 443.09 146.91L442.12 148.28C441.34 147.92 440.55 147.33 439.82 146.56C437.99 144.64 438.05 142.48 439.82 140.79C441.25 139.42 443.69 138.8 445.57 140.76C447.31 142.59 446.55 144.64 445.15 145.98C444.85 146.27 444.55 146.49 444.4 146.58L440.92 142.95V142.95ZM444.1 143.87C444.53 143.46 445.07 142.59 444.3 141.78C443.59 141.04 442.63 141.38 442.12 141.79L444.1 143.87Z" fill="#404041"/>
<path d="M241.09 145.95L233.2 138.61L235.14 136.53L239.56 137.58C240.83 137.88 242.25 138.33 243.46 138.81L243.49 138.77C242.34 137.92 241.24 136.96 240.06 135.86L237.75 133.71L239.28 132.07L247.17 139.41L245.43 141.28L240.82 140.14C239.54 139.82 238.04 139.39 236.76 138.92L236.74 138.97C237.83 139.89 238.96 140.9 240.25 142.1L242.63 144.31L241.09 145.95V145.95ZM251.41 129.95C253.36 132.05 252.77 134.39 251.23 135.82C249.55 137.38 247.24 137.48 245.52 135.63C243.8 133.78 243.91 131.46 245.75 129.75C247.51 128.12 249.8 128.23 251.41 129.95V129.95ZM247.31 133.87C248.23 134.85 249.32 135.21 250.08 134.5C250.77 133.86 250.57 132.75 249.61 131.72C248.81 130.86 247.68 130.3 246.87 131.06C246.03 131.86 246.53 133.03 247.31 133.87ZM251.83 127.98C251.09 127.1 250.59 126.54 250.13 126.04L251.74 124.7L252.73 125.75L252.78 125.71C252.36 124.58 252.79 123.6 253.37 123.12C253.54 122.98 253.63 122.9 253.78 122.82L255.25 124.58C255.09 124.67 254.91 124.78 254.7 124.95C254.01 125.52 253.85 126.28 254.21 126.96C254.29 127.1 254.4 127.26 254.52 127.41L257.06 130.46L255.19 132.02L251.83 127.98V127.98ZM256.56 123.85C255.99 123.06 255.48 122.4 255.05 121.86L256.71 120.66L257.42 121.45L257.46 121.42C257.44 120.82 257.57 119.82 258.66 119.04C259.48 118.45 260.43 118.4 261.18 118.86L261.21 118.84C261.21 118.35 261.31 117.88 261.48 117.49C261.68 117.03 262 116.65 262.46 116.31C263.68 115.43 265.22 115.62 266.59 117.52L269.29 121.26L267.37 122.64L264.88 119.19C264.22 118.27 263.53 117.95 262.9 118.41C262.45 118.74 262.35 119.28 262.49 119.75C262.54 119.93 262.67 120.16 262.78 120.31L265.45 124.02L263.53 125.4L260.97 121.84C260.39 121.04 259.71 120.7 259.09 121.15C258.58 121.51 258.57 122.12 258.68 122.53C258.73 122.73 258.85 122.92 258.96 123.08L261.63 126.78L259.71 128.16L256.56 123.85V123.85ZM274.59 118.08L274.06 117.48L274.02 117.51C273.91 118.31 273.39 119.01 272.6 119.49C271.24 120.31 269.84 119.82 269.19 118.75C268.13 117.01 269.19 115.23 271.57 113.81L271.51 113.71C271.3 113.35 270.8 112.96 269.77 113.59C269.08 114.01 268.5 114.68 268.23 115.22L267.03 114.11C267.34 113.57 268.06 112.68 269.27 111.94C271.5 110.59 273.01 111.47 273.96 113.04L275.37 115.37C275.76 116.01 276.16 116.61 276.45 116.94L274.59 118.08V118.08ZM272.43 115.07C271.33 115.72 270.64 116.49 271.13 117.3C271.45 117.83 271.97 117.88 272.43 117.6C272.95 117.28 273.17 116.68 273.05 116.18C273.01 116.05 272.95 115.92 272.88 115.8L272.43 115.07ZM272.5 106.19L274.63 105.03L280.06 115.01L277.92 116.17L272.5 106.19ZM246.92 155.02C249.72 157.17 250.12 160.17 248.21 162.67C246.27 165.21 243.21 165.23 240.77 163.36C238.2 161.4 237.54 158.29 239.48 155.76C241.49 153.14 244.56 153.21 246.92 155.02ZM242.3 161.29C243.98 162.57 245.76 162.69 246.75 161.4C247.75 160.09 247.08 158.39 245.42 157.12C243.88 155.94 242 155.67 240.98 157C239.97 158.3 240.63 160.01 242.3 161.29V161.29ZM248.37 153.85C247.61 153.16 246.94 152.59 246.39 152.13L247.81 150.57L248.69 151.22L248.71 151.2C248.48 150.21 248.76 149.26 249.53 148.42C250.68 147.15 252.82 147.02 254.66 148.7C256.77 150.62 256.55 152.86 255.37 154.15C254.74 154.85 253.96 155.14 253.34 155.05L253.32 155.07L256.2 157.69L254.56 159.49L248.37 153.85V153.85ZM251.36 153.29C251.5 153.42 251.64 153.53 251.77 153.6C252.36 153.92 253.11 153.84 253.58 153.32C254.29 152.54 254.06 151.48 253.08 150.59C252.16 149.75 251.08 149.53 250.35 150.34C249.89 150.85 249.86 151.64 250.28 152.25C250.35 152.36 250.46 152.48 250.57 152.58L251.36 153.29V153.29ZM257.83 146.85C258.58 147.52 259.63 147.19 260.46 146.41C261.06 145.84 261.47 145.29 261.8 144.69L263.17 145.66C262.81 146.44 262.21 147.23 261.45 147.96C259.53 149.79 257.37 149.72 255.68 147.95C254.31 146.51 253.7 144.08 255.67 142.2C257.5 140.46 259.55 141.22 260.88 142.62C261.17 142.92 261.39 143.22 261.48 143.37L257.83 146.85ZM258.76 143.67C258.35 143.24 257.48 142.7 256.67 143.47C255.93 144.18 256.27 145.13 256.67 145.65L258.76 143.67V143.67ZM261.31 140.76C260.56 139.88 260.05 139.33 259.6 138.83L261.2 137.48L262.19 138.53L262.24 138.49C261.81 137.36 262.23 136.38 262.81 135.89C262.98 135.75 263.07 135.67 263.22 135.58L264.7 137.33C264.54 137.42 264.36 137.53 264.16 137.71C263.48 138.29 263.32 139.05 263.69 139.73C263.77 139.87 263.88 140.03 264.01 140.18L266.57 143.21L264.71 144.78L261.31 140.76V140.76ZM272.66 138.38L272.07 137.84L272.03 137.87C271.99 138.68 271.56 139.43 270.82 139.98C269.55 140.93 268.11 140.58 267.36 139.58C266.14 137.96 267.01 136.08 269.23 134.43L269.16 134.34C268.91 134.01 268.37 133.67 267.42 134.39C266.78 134.87 266.27 135.6 266.05 136.16L264.75 135.18C265 134.61 265.63 133.66 266.77 132.8C268.85 131.23 270.44 131.96 271.55 133.43L273.18 135.6C273.63 136.2 274.09 136.76 274.41 137.05L272.66 138.38V138.38ZM270.2 135.6C269.17 136.36 268.56 137.2 269.13 137.95C269.51 138.45 270.02 138.44 270.45 138.11C270.94 137.74 271.09 137.13 270.92 136.63C270.87 136.51 270.79 136.38 270.71 136.27L270.2 135.6V135.6ZM272.36 126.32L273.6 128.18L275.05 127.21L276.04 128.7L274.59 129.67L276.16 132.03C276.68 132.82 277.11 133.05 277.72 132.64C277.97 132.47 278.16 132.31 278.28 132.19L279.31 133.71C279.12 133.99 278.68 134.38 278.11 134.76C277.46 135.2 276.76 135.33 276.22 135.21C275.59 135.07 274.99 134.57 274.37 133.65L272.59 130.99L271.72 131.57L270.73 130.08L271.6 129.5L270.66 128.09L272.36 126.32V126.32ZM277.45 123.21C277.8 123.78 277.64 124.51 276.96 124.93C276.3 125.33 275.58 125.13 275.25 124.55C274.87 123.96 275.03 123.24 275.7 122.83C276.37 122.42 277.07 122.61 277.45 123.21ZM280.5 133.05L276.43 126.37L278.51 125.11L282.58 131.79L280.5 133.05V133.05ZM289.04 123.65C290.39 126.17 289.22 128.29 287.37 129.28C285.35 130.36 283.09 129.87 281.9 127.64C280.71 125.41 281.41 123.2 283.62 122.02C285.74 120.89 287.93 121.58 289.04 123.65V123.65ZM284.09 126.4C284.72 127.58 285.69 128.21 286.61 127.72C287.44 127.27 287.53 126.16 286.87 124.92C286.32 123.89 285.36 123.06 284.39 123.58C283.36 124.12 283.55 125.38 284.09 126.4V126.4ZM289.95 121.75C289.55 120.86 289.19 120.11 288.88 119.49L290.81 118.63L291.35 119.57L291.39 119.55C291.48 118.97 291.91 117.95 293.1 117.43C294.56 116.78 296.09 117.26 297.02 119.37L298.9 123.61L296.68 124.6L294.92 120.64C294.51 119.72 293.91 119.23 293.11 119.59C292.5 119.86 292.32 120.45 292.35 120.92C292.35 121.08 292.42 121.31 292.51 121.51L294.34 125.64L292.12 126.62L289.95 121.75V121.75Z" fill="white"/>
<path d="M314.77 363.51L313.41 366.04L310.94 365.49L316.52 355.69L319.65 356.39L320.55 367.65L317.99 367.07L317.78 364.19L314.77 363.51V363.51ZM317.84 362.32L317.68 359.94C317.63 359.27 317.62 358.45 317.61 357.79L317.58 357.78C317.28 358.37 316.95 359.13 316.64 359.7L315.51 361.79L317.84 362.32ZM331.29 357.72L330 366.66C329.87 367.53 329.77 368.45 329.73 368.98L327.59 368.67L327.64 367.51H327.61C326.99 368.31 325.99 368.62 325 368.48C323.16 368.21 321.91 366.43 322.26 364.02C322.62 361.4 324.47 360.14 326.32 360.4C327.27 360.54 327.97 360.98 328.24 361.57H328.27L328.87 357.37L331.29 357.72V357.72ZM327.91 364.16C327.93 364.03 327.94 363.86 327.94 363.73C327.89 363.06 327.45 362.45 326.7 362.34C325.61 362.18 324.9 363.08 324.72 364.3C324.53 365.61 325.06 366.53 326.06 366.68C326.76 366.78 327.38 366.38 327.62 365.72C327.69 365.55 327.74 365.38 327.76 365.18L327.91 364.16V364.16ZM336.52 369.54L336.43 368.75H336.38C335.83 369.33 335 369.61 334.08 369.54C332.5 369.42 331.64 368.21 331.73 366.96C331.88 364.93 333.77 364.09 336.52 364.31L336.53 364.2C336.56 363.79 336.38 363.18 335.18 363.09C334.38 363.03 333.52 363.24 332.98 363.52L332.65 361.92C333.21 361.66 334.31 361.35 335.73 361.45C338.33 361.64 339.05 363.23 338.91 365.07L338.71 367.78C338.66 368.53 338.64 369.25 338.68 369.69L336.52 369.54ZM336.5 365.83C335.22 365.72 334.21 365.95 334.14 366.89C334.1 367.51 334.49 367.84 335.03 367.88C335.64 367.92 336.16 367.56 336.35 367.08C336.39 366.95 336.42 366.81 336.43 366.67L336.5 365.83V365.83ZM340.99 364.6C340.99 363.58 340.96 362.7 340.93 361.98H343.04L343.15 363.07H343.18C343.76 362.24 344.65 361.81 345.79 361.81C347.5 361.81 349.04 363.3 349.03 365.8C349.03 368.65 347.22 369.99 345.47 369.99C344.53 369.99 343.79 369.6 343.44 369.09H343.41L343.4 372.98H340.97L340.99 364.6V364.6ZM343.42 366.44C343.42 366.63 343.44 366.81 343.47 366.95C343.63 367.61 344.19 368.1 344.89 368.11C345.94 368.11 346.57 367.23 346.57 365.9C346.57 364.65 346.01 363.71 344.93 363.71C344.24 363.71 343.63 364.22 343.47 364.94C343.44 365.07 343.42 365.23 343.42 365.37V366.44V366.44ZM353.06 359.48L353.19 361.72L354.93 361.62L355.04 363.41L353.3 363.51L353.47 366.34C353.52 367.28 353.77 367.7 354.51 367.66C354.81 367.64 355.05 367.6 355.22 367.55L355.35 369.39C355.04 369.54 354.47 369.65 353.78 369.69C353 369.74 352.33 369.5 351.92 369.13C351.45 368.69 351.18 367.95 351.11 366.85L350.92 363.65L349.88 363.71L349.78 361.92L350.82 361.86L350.72 360.17L353.06 359.48V359.48ZM361.6 368.78L361.37 368.02L361.32 368.03C360.88 368.71 360.13 369.14 359.2 369.24C357.63 369.42 356.56 368.39 356.41 367.15C356.18 365.13 357.87 363.95 360.63 363.65L360.62 363.54C360.57 363.13 360.28 362.56 359.09 362.7C358.3 362.79 357.48 363.16 357.01 363.54L356.38 362.03C356.89 361.66 357.91 361.16 359.32 361C361.91 360.7 362.91 362.13 363.12 363.96L363.43 366.66C363.52 367.41 363.63 368.12 363.76 368.54L361.6 368.78ZM360.89 365.14C359.62 365.27 358.67 365.69 358.77 366.62C358.84 367.24 359.29 367.5 359.83 367.43C360.43 367.36 360.88 366.91 360.98 366.39C361 366.26 361 366.11 360.98 365.97L360.89 365.14ZM366.74 357.83L367.12 360.04L368.84 359.75L369.14 361.51L367.42 361.8L367.9 364.59C368.06 365.52 368.36 365.91 369.08 365.78C369.38 365.73 369.61 365.66 369.78 365.6L370.11 367.41C369.82 367.59 369.26 367.77 368.58 367.88C367.81 368.01 367.12 367.86 366.67 367.53C366.15 367.15 365.8 366.45 365.62 365.36L365.08 362.21L364.06 362.39L363.76 360.63L364.79 360.45L364.5 358.78L366.74 357.83V357.83ZM372.18 356.8C372.32 357.46 371.93 358.09 371.15 358.26C370.4 358.42 369.78 358 369.66 357.34C369.5 356.66 369.89 356.03 370.65 355.87C371.42 355.7 372.02 356.11 372.18 356.8V356.8ZM371.82 367.1L370.18 359.45L372.56 358.94L374.2 366.59L371.82 367.1ZM382.87 360.22C383.62 362.98 382 364.78 379.98 365.33C377.77 365.93 375.68 364.94 375.02 362.5C374.36 360.06 375.54 358.06 377.97 357.41C380.28 356.78 382.26 357.95 382.87 360.22V360.22ZM377.43 361.78C377.78 363.08 378.59 363.9 379.59 363.63C380.5 363.38 380.84 362.31 380.47 360.95C380.17 359.82 379.42 358.8 378.36 359.08C377.23 359.4 377.13 360.67 377.43 361.78ZM384.05 358.45C383.73 357.53 383.42 356.75 383.16 356.12L385.15 355.42L385.61 356.39L385.65 356.38C385.79 355.8 386.29 354.83 387.51 354.4C389.02 353.87 390.5 354.47 391.27 356.64L392.81 361.02L390.52 361.83L389.08 357.74C388.75 356.79 388.19 356.26 387.36 356.55C386.73 356.77 386.5 357.34 386.5 357.82C386.49 357.98 386.54 358.21 386.61 358.43L388.11 362.69L385.82 363.5L384.05 358.45V358.45Z" fill="#404041"/>
<path d="M222.9 265.33L233.3 262.5L234.05 265.25L230.83 268.45C229.9 269.37 228.77 270.34 227.72 271.12L227.73 271.17C229.06 270.64 230.45 270.21 232.02 269.79L235.06 268.96L235.65 271.12L225.25 273.95L224.58 271.48L227.99 268.17C228.93 267.25 230.09 266.21 231.17 265.36L231.14 265.32C229.78 265.75 228.32 266.19 226.62 266.65L223.49 267.5L222.9 265.33V265.33ZM229.65 277.04C228.73 277.46 228.61 278.56 229 279.62C229.28 280.4 229.62 281 230.04 281.54L228.6 282.4C228.03 281.76 227.54 280.89 227.18 279.9C226.28 277.4 227.21 275.45 229.51 274.62C231.38 273.95 233.86 274.36 234.78 276.91C235.64 279.29 234.12 280.86 232.3 281.52C231.91 281.66 231.55 281.74 231.37 281.77L229.65 277.04V277.04ZM232.19 279.17C232.75 278.97 233.59 278.39 233.21 277.34C232.86 276.38 231.85 276.3 231.21 276.46L232.19 279.17ZM236.93 282.98L234.29 284.89C233.62 285.38 232.9 285.88 232.14 286.38L232.15 286.41C233.03 286.18 233.94 286.01 234.71 285.86L237.98 285.27L238.79 287.01L236.28 289.03C235.57 289.59 234.86 290.15 234.11 290.67L234.12 290.7C234.98 290.43 235.85 290.2 236.73 289.99L239.83 289.3L240.83 291.46L232.72 292.56L231.76 290.48L233.95 288.66C234.57 288.16 235.15 287.74 235.95 287.19L235.94 287.16C234.99 287.44 234.27 287.59 233.52 287.71L230.69 288.15L229.73 286.07L235.88 280.73L236.93 282.98V282.98ZM205.49 261.04C205.2 260.63 204.82 259.67 204.63 258.37C204.1 254.68 206.12 252.45 209.16 252.01C212.8 251.48 215.2 253.79 215.67 257.01C215.85 258.26 215.73 259.25 215.58 259.71L213.59 259.5C213.72 258.98 213.82 258.27 213.69 257.42C213.41 255.5 212.04 254.18 209.67 254.53C207.53 254.84 206.37 256.3 206.68 258.45C206.79 259.18 207.06 259.96 207.32 260.41L205.49 261.04V261.04ZM206.46 267.19L207.2 266.89L207.19 266.84C206.47 266.47 205.98 265.76 205.79 264.85C205.46 263.3 206.39 262.14 207.62 261.88C209.61 261.46 210.94 263.04 211.5 265.75L211.61 265.73C212.02 265.64 212.55 265.3 212.3 264.13C212.13 263.35 211.69 262.57 211.27 262.14L212.71 261.38C213.12 261.85 213.72 262.82 214.01 264.21C214.55 266.76 213.22 267.9 211.42 268.28L208.76 268.84C208.02 269 207.33 269.18 206.92 269.34L206.46 267.19V267.19ZM210.02 266.14C209.77 264.88 209.27 263.98 208.34 264.17C207.73 264.3 207.52 264.77 207.63 265.3C207.76 265.89 208.25 266.3 208.77 266.35C208.9 266.35 209.05 266.34 209.19 266.31L210.02 266.14V266.14ZM212.45 270.13C213.44 269.85 214.27 269.58 214.96 269.35L215.53 271.38L214.51 271.78L214.52 271.81C215.48 272.14 216.14 272.88 216.44 273.98C216.91 275.63 215.89 277.51 213.49 278.19C210.75 278.97 208.97 277.59 208.49 275.91C208.23 275 208.4 274.19 208.8 273.71L208.79 273.68L205.05 274.74L204.39 272.4L212.45 270.13V270.13ZM211.34 272.97C211.174 273.016 211.013 273.08 210.86 273.16C210.27 273.49 209.95 274.17 210.14 274.84C210.43 275.86 211.44 276.22 212.72 275.86C213.92 275.52 214.68 274.72 214.38 273.68C214.19 273.02 213.53 272.57 212.8 272.61C212.67 272.61 212.51 272.64 212.37 272.68L211.34 272.97ZM211.73 285.3L212.42 284.9L212.4 284.85C211.64 284.58 211.06 283.93 210.75 283.06C210.22 281.57 210.99 280.29 212.16 279.88C214.08 279.2 215.6 280.59 216.51 283.21L216.61 283.17C217 283.03 217.49 282.62 217.08 281.49C216.81 280.74 216.27 280.03 215.8 279.65L217.13 278.7C217.6 279.11 218.32 279.99 218.8 281.33C219.67 283.79 218.5 285.08 216.77 285.7L214.21 286.61C213.5 286.86 212.83 287.13 212.46 287.35L211.73 285.3V285.3ZM215.12 283.8C214.71 282.59 214.09 281.76 213.2 282.07C212.61 282.28 212.46 282.77 212.65 283.28C212.85 283.85 213.4 284.19 213.92 284.17C214.05 284.16 214.19 284.13 214.33 284.08L215.12 283.8ZM213.26 289.43C213.74 289.26 214.62 288.91 215.43 288.56L223.72 284.98L224.68 287.21L220.58 288.98L220.59 289.01C221.39 289.17 222.11 289.75 222.54 290.75C223.28 292.47 222.4 294.35 220.19 295.28C217.6 296.4 215.6 295.31 214.89 293.66C214.53 292.82 214.49 291.88 215.12 291L215.11 290.97L214.07 291.31L213.26 289.43V289.43ZM217.31 290.4C217.16 290.46 217.04 290.54 216.93 290.62C216.39 291.03 216.16 291.74 216.43 292.38C216.84 293.34 217.83 293.61 219.12 293.05C220.24 292.57 220.9 291.69 220.45 290.64C220.19 290.04 219.49 289.68 218.78 289.81C218.64 289.84 218.5 289.88 218.35 289.94L217.31 290.4V290.4ZM217.32 298.51L224.34 295.05L225.42 297.23L218.4 300.69L217.32 298.51ZM227.39 296.34C226.79 296.64 226.07 296.42 225.72 295.7C225.38 295.01 225.64 294.31 226.25 294.03C226.87 293.7 227.57 293.93 227.92 294.63C228.27 295.34 228.02 296.02 227.39 296.34ZM229.42 297.28L230.57 299.42L220.55 304.78L219.4 302.63L229.42 297.28ZM221.6 306.68L228.38 302.77L229.6 304.88L222.82 308.79L221.6 306.68ZM231.51 303.86C230.93 304.2 230.2 304.02 229.8 303.33C229.42 302.66 229.63 301.95 230.22 301.63C230.82 301.26 231.54 301.44 231.93 302.12C232.32 302.8 232.12 303.49 231.51 303.86V303.86ZM233.9 307.62L232 308.81L232.93 310.29L231.41 311.24L230.48 309.76L228.08 311.27C227.28 311.77 227.03 312.19 227.43 312.82C227.59 313.08 227.75 313.26 227.87 313.4L226.32 314.39C226.04 314.19 225.67 313.74 225.3 313.16C224.88 312.5 224.76 311.8 224.9 311.26C225.05 310.63 225.57 310.04 226.51 309.46L229.22 307.76L228.67 306.88L230.19 305.93L230.74 306.81L232.18 305.91L233.9 307.62V307.62ZM234.76 312.97L232.3 316.14C232 316.51 231.62 316.97 231.33 317.29L231.36 317.33C231.76 317.18 232.32 316.94 232.75 316.78L236.44 315.35L237.94 317.48L232.68 318.96C229.5 319.84 228.05 319.94 226.9 319.68C226.045 319.476 225.269 319.023 224.67 318.38L226.06 316.77C226.27 316.99 226.61 317.22 227.01 317.39C227.38 317.58 227.92 317.69 228.39 317.65C228.53 317.65 228.66 317.62 228.75 317.55C228.81 317.5 228.91 317.42 229.01 317.23L233.2 310.76L234.76 312.97V312.97Z" fill="white"/>
<path d="M445.88 306.25C446.24 305.42 446.8 304.39 447.46 303.35C448.56 301.62 449.58 300.7 450.8 300.24C452.1 299.74 453.6 299.86 455.21 300.88C456.95 301.99 457.75 303.39 457.94 304.74C458.13 306.21 457.58 307.9 456.45 309.69C455.77 310.76 455.22 311.47 454.83 311.94L445.88 306.25ZM454.62 308.9C454.77 308.75 454.95 308.47 455.12 308.21C456.32 306.35 456.06 304.49 453.89 303.11C452.01 301.9 450.31 302.37 449.18 304.14C448.89 304.6 448.74 304.92 448.67 305.12L454.62 308.9V308.9ZM459.05 298.99C459.98 299.39 460.87 298.74 461.4 297.74C461.79 297.01 462.01 296.36 462.13 295.68L463.74 296.17C463.65 297.03 463.33 297.96 462.83 298.9C461.58 301.24 459.51 301.87 457.35 300.72C455.6 299.79 454.24 297.67 455.52 295.27C456.71 293.04 458.89 293.12 460.6 294.02C460.97 294.21 461.27 294.43 461.41 294.54L459.05 298.99ZM458.92 295.68C458.4 295.4 457.4 295.16 456.88 296.15C456.4 297.05 457.02 297.86 457.57 298.22L458.92 295.68ZM460.95 284.2C461.39 284.43 461.98 284.73 463.04 285.2L467.03 286.97C468.4 287.58 469.41 288.36 469.77 289.48C470.09 290.57 469.82 291.73 469.35 292.78C468.93 293.72 468.3 294.63 467.65 295.11L466.16 293.92C466.62 293.58 467.25 292.92 467.62 292.09C468.09 291.04 467.88 289.98 466.56 289.39L466.09 289.18L466.08 289.21C466.49 289.9 466.52 290.74 466.16 291.56C465.37 293.33 463.38 293.95 461.32 293.03C459.02 292.01 458.23 289.87 459 288.12C459.44 287.14 460.13 286.71 460.88 286.61L460.89 286.58L460.07 286.13L460.95 284.2V284.2ZM462.85 287.78C462.7 287.71 462.55 287.66 462.42 287.64C461.76 287.54 461.18 287.79 460.91 288.4C460.55 289.2 460.99 290.19 462.29 290.77C463.36 291.24 464.42 291.09 464.84 290.15C465.09 289.58 464.92 288.96 464.45 288.58C464.32 288.45 464.09 288.33 463.9 288.25L462.85 287.78ZM464 283.41C462.92 283.01 462.21 282.77 461.56 282.57L462.3 280.61L463.68 281.04L463.7 280.98C462.78 280.21 462.66 279.14 462.93 278.44C463.01 278.23 463.05 278.13 463.14 277.97L465.28 278.77C465.19 278.92 465.09 279.11 464.99 279.36C464.68 280.2 464.91 280.94 465.56 281.35C465.7 281.44 465.87 281.52 466.05 281.59L469.77 282.98L468.92 285.26L464 283.41V283.41ZM472.41 275.12L471.62 275.02L471.61 275.07C472.05 275.74 472.14 276.61 471.86 277.49C471.39 279 470.01 279.56 468.82 279.19C466.88 278.59 466.49 276.55 467.33 273.92L467.22 273.89C466.82 273.77 466.19 273.8 465.84 274.95C465.6 275.71 465.61 276.6 465.76 277.19L464.13 277.15C464 276.54 463.95 275.4 464.38 274.04C465.16 271.55 466.87 271.21 468.63 271.76L471.22 272.57C471.94 272.79 472.63 272.98 473.07 273.03L472.41 275.12V275.12ZM468.8 274.3C468.4 275.52 468.4 276.55 469.3 276.83C469.9 277.02 470.31 276.71 470.47 276.19C470.555 275.926 470.554 275.641 470.468 275.377C470.382 275.113 470.214 274.883 469.99 274.72C469.88 274.65 469.74 274.59 469.61 274.55L468.8 274.3V274.3ZM464.37 260.85L473.15 262.92C474 263.12 474.92 263.3 475.44 263.4L474.94 265.5L473.79 265.34L473.78 265.37C474.52 266.05 474.74 267.08 474.51 268.06C474.08 269.86 472.2 270.95 469.83 270.39C467.26 269.8 466.16 267.85 466.59 266.02C466.81 265.09 467.31 264.43 467.92 264.21L467.93 264.18L463.8 263.21L464.37 260.85V260.85ZM470.47 264.79C470.34 264.76 470.17 264.74 470.04 264.72C469.37 264.71 468.72 265.1 468.55 265.83C468.3 266.9 469.13 267.69 470.33 267.98C471.62 268.29 472.58 267.84 472.81 266.86C472.97 266.18 472.63 265.52 472 265.22C471.84 265.13 471.67 265.08 471.47 265.03L470.47 264.79ZM476.59 256.68L475.79 256.7L475.78 256.75C476.31 257.36 476.52 258.2 476.37 259.12C476.12 260.68 474.83 261.43 473.6 261.23C471.59 260.9 470.92 258.95 471.38 256.22L471.27 256.2C470.86 256.13 470.24 256.26 470.05 257.45C469.92 258.24 470.05 259.12 470.29 259.68L468.67 259.87C468.46 259.28 468.25 258.16 468.48 256.76C468.9 254.18 470.55 253.61 472.36 253.9L475.05 254.34C475.79 254.46 476.51 254.54 476.95 254.53L476.59 256.68V256.68ZM472.89 256.37C472.67 257.63 472.81 258.66 473.74 258.81C474.36 258.91 474.72 258.55 474.81 258.01C474.91 257.41 474.59 256.86 474.13 256.62C474.01 256.57 473.87 256.53 473.73 256.51L472.89 256.37V256.37ZM467.45 248.72L469.68 248.95L469.86 247.22L471.64 247.41L471.46 249.15L474.28 249.45C475.22 249.55 475.67 249.37 475.75 248.64C475.78 248.34 475.78 248.1 475.76 247.92L477.59 248.1C477.68 248.43 477.7 249.01 477.63 249.7C477.55 250.48 477.21 251.1 476.77 251.44C476.26 251.84 475.49 251.98 474.39 251.86L471.21 251.52L471.1 252.56L469.32 252.37L469.43 251.33L467.74 251.15L467.45 248.72ZM467.95 243.22C468.62 243.26 469.13 243.81 469.08 244.61C469.03 245.38 468.45 245.85 467.79 245.79C467.09 245.76 466.59 245.22 466.64 244.43C466.69 243.64 467.24 243.19 467.95 243.22V243.22ZM477.76 246.37L469.95 245.86L470.11 243.43L477.91 243.94L477.76 246.37V246.37ZM474.15 233.87C477.01 233.9 478.3 235.95 478.28 238.04C478.25 240.33 476.73 242.07 474.2 242.04C471.67 242.01 470.07 240.33 470.1 237.82C470.14 235.43 471.8 233.85 474.15 233.87ZM474.17 239.54C475.51 239.56 476.53 239.01 476.54 237.97C476.55 237.02 475.61 236.41 474.21 236.39C473.04 236.38 471.85 236.81 471.84 237.92C471.82 239.08 473.02 239.53 474.17 239.54ZM472.77 232.24C471.79 232.3 470.97 232.39 470.28 232.46L470.15 230.35L471.21 230.17V230.12C470.803 229.877 470.462 229.537 470.218 229.131C469.973 228.724 469.833 228.264 469.81 227.79C469.71 226.19 470.69 224.93 472.99 224.78L477.62 224.49L477.77 226.92L473.44 227.19C472.43 227.25 471.77 227.65 471.82 228.53C471.86 229.2 472.35 229.57 472.81 229.7C472.96 229.75 473.2 229.77 473.42 229.76L477.92 229.48L478.07 231.91L472.77 232.24ZM344.1 447.16C343.43 447.16 342.76 447.15 342.09 447.14L342.12 445.14C342.78 445.15 343.45 445.15 344.11 445.16L344.1 447.16ZM348.12 447.14L348.09 445.14C348.75 445.13 349.42 445.12 350.08 445.1L350.13 447.1C349.45 447.12 348.79 447.13 348.12 447.14V447.14ZM338.07 447.05C337.4 447.03 336.73 447 336.06 446.98L336.15 444.98C336.81 445.01 337.47 445.03 338.14 445.05L338.07 447.05ZM354.13 446.97L354.05 444.97L356.04 444.88L356.15 446.88L354.13 446.97V446.97ZM332.05 446.77C331.38 446.73 330.71 446.69 330.04 446.64L330.18 444.65C330.84 444.7 331.5 444.74 332.16 444.78L332.05 446.77ZM360.14 446.62L360 444.63L361.98 444.48L362.14 446.47C361.48 446.53 360.81 446.58 360.14 446.62V446.62ZM326.04 446.32C325.37 446.26 324.7 446.2 324.04 446.13L324.24 444.14C324.9 444.21 325.56 444.27 326.22 444.33L326.04 446.32ZM366.15 446.11L365.95 444.12L367.93 443.91L368.15 445.9L366.15 446.11V446.11ZM320.05 445.7L318.06 445.46L318.31 443.48L320.29 443.72L320.05 445.7ZM372.14 445.43L371.88 443.45C372.54 443.36 373.2 443.28 373.85 443.19L374.13 445.17C373.47 445.25 372.8 445.34 372.14 445.43ZM314.07 444.91L312.08 444.61L312.39 442.63L314.36 442.93L314.07 444.91ZM378.11 444.57L377.8 442.6C378.46 442.5 379.11 442.39 379.76 442.28L380.09 444.25C379.43 444.36 378.77 444.47 378.11 444.57V444.57ZM308.12 443.94L306.14 443.58L306.51 441.61C307.16 441.73 307.81 441.85 308.47 441.97L308.12 443.94V443.94ZM384.05 443.54L383.68 441.58C384.33 441.46 384.98 441.33 385.64 441.2L386.03 443.16C385.36 443.29 384.7 443.42 384.05 443.54V443.54ZM302.2 442.81C301.54 442.67 300.89 442.54 300.23 442.39L300.65 440.43C301.3 440.57 301.95 440.71 302.6 440.84L302.2 442.81V442.81ZM389.95 442.35L389.52 440.4C390.17 440.26 390.82 440.11 391.46 439.97L391.9 441.92C391.26 442.06 390.61 442.2 389.95 442.35ZM296.32 441.51C295.67 441.36 295.02 441.2 294.37 441.04L294.85 439.1C295.49 439.26 296.14 439.41 296.78 439.57L296.32 441.51V441.51ZM395.82 440.98L395.34 439.04C395.98 438.88 396.63 438.72 397.27 438.55L397.77 440.49C397.12 440.65 396.47 440.82 395.82 440.98ZM290.47 440.03C289.82 439.86 289.18 439.68 288.53 439.5L289.06 437.57C289.7 437.75 290.34 437.92 290.98 438.09L290.47 440.03ZM401.65 439.44L401.11 437.51C401.75 437.33 402.39 437.15 403.02 436.97L403.58 438.89C402.94 439.08 402.3 439.27 401.65 439.44ZM284.67 438.39C284.03 438.2 283.39 438 282.75 437.81L283.34 435.9C283.97 436.1 284.61 436.29 285.24 436.48L284.67 438.39V438.39ZM407.43 437.74L406.84 435.83C407.47 435.63 408.11 435.43 408.74 435.23L409.35 437.13C408.71 437.34 408.07 437.54 407.43 437.74V437.74ZM278.9 436.58C278.26 436.37 277.62 436.16 276.99 435.94L277.63 434.05C278.26 434.26 278.89 434.48 279.53 434.69L278.9 436.58V436.58ZM413.16 435.87L412.51 433.98C413.14 433.77 413.76 433.55 414.39 433.33L415.06 435.22C414.43 435.44 413.8 435.65 413.16 435.87V435.87ZM273.19 434.6C272.56 434.37 271.93 434.14 271.3 433.9L272 432.02C272.63 432.25 273.25 432.48 273.88 432.71L273.19 434.6ZM418.84 433.84L418.14 431.97C418.76 431.74 419.38 431.5 420 431.26L420.72 433.13C420.09 433.36 419.47 433.6 418.84 433.84V433.84ZM267.53 432.45C266.9 432.2 266.28 431.95 265.66 431.7L266.42 429.85C267.04 430.1 267.65 430.35 268.27 430.59L267.53 432.45ZM424.45 431.64L423.7 429.79C424.31 429.54 424.92 429.29 425.53 429.03L426.31 430.87C425.69 431.13 425.07 431.39 424.45 431.64V431.64ZM261.94 430.15C261.32 429.88 260.71 429.62 260.09 429.34L260.9 427.51C261.51 427.78 262.12 428.04 262.73 428.31L261.94 430.15V430.15ZM429.98 429.29L429.17 427.46C429.77 427.19 430.38 426.92 430.98 426.65L431.81 428.47C431.2 428.75 430.59 429.02 429.98 429.29ZM256.42 427.68C255.81 427.4 255.2 427.11 254.6 426.82L255.46 425.02C256.06 425.31 256.66 425.59 257.26 425.87L256.42 427.68V427.68ZM435.44 426.79L434.58 424.99C435.18 424.7 435.77 424.42 436.37 424.13L437.25 425.93C436.64 426.21 436.04 426.5 435.44 426.79ZM250.98 425.06C250.38 424.76 249.78 424.46 249.18 424.15L250.09 422.37C250.68 422.67 251.28 422.97 251.87 423.27L250.98 425.06ZM440.82 424.12L439.91 422.34C440.5 422.04 441.09 421.73 441.67 421.43L442.6 423.2C442.01 423.51 441.42 423.82 440.82 424.12ZM245.62 422.28L243.85 421.32L244.81 419.57C245.39 419.89 245.98 420.21 246.56 420.52L245.62 422.28ZM446.13 421.31L445.17 419.56L446.91 418.6L447.89 420.34C447.3 420.66 446.72 420.98 446.13 421.31V421.31ZM240.34 419.34C239.76 419.01 239.18 418.67 238.6 418.33L239.61 416.6C240.19 416.94 240.76 417.27 241.34 417.6L240.34 419.34V419.34ZM451.36 418.34L450.34 416.62C450.91 416.28 451.48 415.95 452.05 415.61L453.08 417.32C452.51 417.66 451.94 418 451.36 418.34V418.34ZM235.14 416.26C234.57 415.91 234 415.56 233.43 415.2L234.49 413.5C235.05 413.85 235.62 414.2 236.18 414.55L235.14 416.26ZM456.5 415.22L455.44 413.52C456 413.17 456.56 412.81 457.12 412.46L458.2 414.15C457.63 414.51 457.07 414.87 456.5 415.22ZM230.04 413.03L228.36 411.92L229.47 410.26C230.02 410.63 230.58 411 231.13 411.36L230.04 413.03ZM461.56 411.95L460.45 410.29L462.1 409.18L463.23 410.83C462.67 411.21 462.11 411.58 461.56 411.95V411.95ZM225.04 409.66C224.49 409.28 223.94 408.89 223.39 408.5L224.55 406.87L226.18 408.02L225.04 409.66V409.66ZM466.51 408.55L465.36 406.92C465.9 406.54 466.44 406.15 466.97 405.77L468.14 407.39C467.6 407.77 467.06 408.16 466.51 408.55V408.55ZM220.13 406.15C219.59 405.75 219.05 405.35 218.52 404.95L219.73 403.35C220.26 403.75 220.79 404.15 221.33 404.54L220.13 406.15ZM471.37 405L470.17 403.4C470.7 403 471.23 402.6 471.75 402.2L472.97 403.79C472.44 404.19 471.91 404.6 471.37 405V405ZM215.33 402.5C214.8 402.09 214.28 401.67 213.75 401.25L215 399.69C215.52 400.1 216.04 400.52 216.56 400.93L215.33 402.5ZM476.13 401.31L474.88 399.75C475.4 399.34 475.91 398.92 476.43 398.5L477.69 400.05C477.18 400.47 476.66 400.89 476.13 401.31ZM210.64 398.71C210.13 398.28 209.61 397.85 209.1 397.42L210.39 395.89C210.9 396.32 211.41 396.75 211.92 397.17L210.64 398.71ZM480.79 397.49L479.5 395.96C480.01 395.53 480.51 395.1 481.01 394.67L482.31 396.19C481.81 396.62 481.3 397.06 480.79 397.49ZM206.05 394.8C205.55 394.36 205.04 393.91 204.55 393.46L205.89 391.97C206.38 392.41 206.88 392.85 207.38 393.29L206.05 394.8ZM485.33 393.54L484 392.05L485.48 390.72L486.83 392.2C486.33 392.64 485.83 393.09 485.33 393.54V393.54ZM201.58 390.75C201.09 390.29 200.6 389.83 200.12 389.37L201.5 387.92C201.98 388.38 202.46 388.83 202.95 389.28L201.58 390.75V390.75ZM489.76 389.45L488.38 388L489.82 386.62L491.21 388.06C490.73 388.53 490.25 388.99 489.76 389.45ZM197.23 386.58C196.75 386.11 196.28 385.64 195.81 385.16L197.23 383.75C197.7 384.22 198.17 384.69 198.64 385.15L197.23 386.58V386.58ZM494.07 385.25L492.65 383.84C493.12 383.37 493.58 382.9 494.05 382.42L495.48 383.82C495.02 384.3 494.55 384.77 494.07 385.25V385.25ZM193 382.29C192.54 381.81 192.08 381.32 191.62 380.83L193.08 379.46C193.53 379.94 193.99 380.42 194.45 380.9L193 382.29V382.29ZM498.27 380.92L496.81 379.55C497.26 379.07 497.72 378.58 498.17 378.09L499.64 379.45C499.18 379.94 498.73 380.43 498.27 380.92V380.92ZM188.89 377.88C188.44 377.38 187.99 376.88 187.55 376.38L189.05 375.05C189.49 375.55 189.93 376.04 190.38 376.53L188.89 377.88V377.88ZM502.34 376.47L500.84 375.14L502.16 373.64L503.67 374.95C503.22 375.47 502.78 375.97 502.34 376.47ZM184.92 373.36C184.49 372.85 184.05 372.34 183.62 371.83L185.15 370.54C185.58 371.05 186 371.55 186.44 372.06L184.92 373.36V373.36ZM506.28 371.91L504.74 370.63C505.17 370.12 505.59 369.61 506.01 369.1L507.55 370.37C507.14 370.88 506.71 371.39 506.28 371.91V371.91ZM181.07 368.73C180.65 368.21 180.23 367.69 179.82 367.16L181.39 365.92C181.8 366.44 182.22 366.96 182.63 367.47L181.07 368.73ZM510.09 367.23L508.52 365.99C508.93 365.47 509.34 364.95 509.75 364.42L511.33 365.65C510.92 366.18 510.5 366.71 510.09 367.23ZM177.36 363.99C176.95 363.46 176.55 362.92 176.15 362.39L177.76 361.2C178.15 361.73 178.55 362.26 178.95 362.78L177.36 363.99V363.99ZM513.76 362.45L512.16 361.25C512.56 360.72 512.95 360.18 513.34 359.65L514.96 360.83C514.56 361.37 514.17 361.91 513.76 362.45V362.45ZM173.78 359.14C173.388 358.597 173.001 358.051 172.62 357.5L174.26 356.35C174.64 356.89 175.02 357.43 175.41 357.97L173.78 359.14V359.14ZM517.3 357.56L515.66 356.41C516.04 355.87 516.42 355.32 516.8 354.77L518.45 355.9C518.07 356.47 517.69 357.02 517.3 357.56V357.56ZM170.35 354.2C169.98 353.65 169.6 353.09 169.24 352.53L170.91 351.43C171.27 351.98 171.64 352.53 172.01 353.08L170.35 354.2V354.2ZM520.7 352.58L519.03 351.48C519.4 350.93 519.76 350.37 520.12 349.81L521.8 350.9C521.44 351.46 521.07 352.02 520.7 352.58V352.58ZM167.05 349.17C166.69 348.61 166.34 348.04 165.98 347.47L167.68 346.42L168.73 348.1L167.05 349.17ZM523.96 347.49L522.26 346.44C522.61 345.87 522.96 345.31 523.3 344.74L525.01 345.78L523.96 347.49ZM163.91 344.04C163.57 343.47 163.23 342.89 162.89 342.31L164.62 341.3C164.95 341.87 165.29 342.44 165.63 343.01L163.91 344.04V344.04ZM527.07 342.32L525.34 341.32C525.67 340.75 526.01 340.17 526.33 339.59L528.07 340.58C527.74 341.16 527.4 341.74 527.07 342.32ZM160.91 338.83C160.59 338.25 160.26 337.66 159.94 337.07L161.7 336.11C162.02 336.69 162.33 337.27 162.66 337.85L160.91 338.83V338.83ZM530.03 337.05L528.27 336.1C528.59 335.52 528.9 334.93 529.21 334.34L530.98 335.28C530.66 335.87 530.35 336.46 530.03 337.05ZM158.07 333.53C157.76 332.94 157.46 332.34 157.16 331.75L158.94 330.85C159.24 331.44 159.54 332.03 159.85 332.62L158.07 333.53V333.53ZM532.83 331.71L531.05 330.8C531.35 330.21 531.65 329.61 531.94 329.02L533.73 329.91C533.44 330.51 533.14 331.11 532.83 331.71ZM155.37 328.16C155.08 327.56 154.79 326.96 154.51 326.35L156.32 325.49C156.6 326.09 156.89 326.69 157.18 327.28L155.37 328.16ZM535.49 326.28L533.68 325.43C533.96 324.83 534.24 324.22 534.52 323.62L536.34 324.46C536.06 325.06 535.77 325.67 535.49 326.28V326.28ZM152.84 322.72L152.03 320.89L153.86 320.09C154.12 320.7 154.39 321.3 154.66 321.9L152.84 322.72V322.72ZM537.98 320.77L536.15 319.97C536.42 319.36 536.68 318.75 536.94 318.14L538.78 318.92C538.52 319.54 538.25 320.16 537.98 320.77ZM150.46 317.2C150.2 316.58 149.95 315.96 149.7 315.34L151.55 314.59C151.8 315.21 152.05 315.82 152.3 316.43L150.46 317.2V317.2ZM540.32 315.2L538.46 314.46C538.71 313.84 538.95 313.22 539.2 312.6L541.06 313.33C540.82 313.95 540.57 314.57 540.32 315.2ZM148.23 311.6C147.99 310.97 147.76 310.35 147.52 309.72L149.4 309.02C149.63 309.64 149.86 310.26 150.1 310.88L148.23 311.6V311.6ZM542.5 309.55L540.62 308.86C540.85 308.23 541.08 307.61 541.3 306.98L543.18 307.65C542.96 308.29 542.73 308.92 542.5 309.55ZM146.17 305.94C145.95 305.31 145.73 304.68 145.52 304.04L147.41 303.4C147.62 304.03 147.84 304.66 148.06 305.28L146.17 305.94V305.94ZM544.51 303.85L542.62 303.21C542.83 302.58 543.04 301.95 543.25 301.31L545.15 301.93C544.94 302.57 544.72 303.21 544.51 303.85V303.85ZM144.27 300.22L143.67 298.3L145.58 297.72C145.77 298.35 145.97 298.99 146.17 299.62L144.27 300.22ZM546.36 298.08L544.45 297.5L545.02 295.59L546.94 296.15C546.74 296.8 546.55 297.44 546.36 298.08ZM142.53 294.45C142.35 293.81 142.17 293.16 141.99 292.51L143.92 291.98C144.09 292.62 144.27 293.26 144.46 293.9L142.53 294.45V294.45ZM548.03 292.29L546.1 291.76C546.27 291.12 546.45 290.48 546.62 289.84L548.55 290.35C548.38 291 548.2 291.64 548.03 292.29ZM140.97 288.63C140.8 287.98 140.64 287.33 140.48 286.68L142.42 286.21C142.58 286.86 142.74 287.5 142.9 288.14L140.97 288.63V288.63ZM549.53 286.45L547.59 285.98C547.75 285.33 547.9 284.69 548.05 284.04L550 284.49C549.84 285.15 549.69 285.8 549.53 286.45V286.45ZM139.57 282.76C139.42 282.11 139.28 281.45 139.14 280.8L141.1 280.38C141.24 281.03 141.38 281.68 141.52 282.32L139.57 282.76ZM550.87 280.58L548.91 280.16C549.05 279.51 549.18 278.86 549.31 278.21L551.27 278.6C551.14 279.27 551.01 279.92 550.87 280.58ZM138.34 276.86C138.21 276.2 138.09 275.55 137.97 274.89L139.94 274.53C140.06 275.18 140.18 275.84 140.31 276.49L138.34 276.86V276.86ZM552.03 274.66L550.06 274.3C550.18 273.65 550.29 272.99 550.41 272.34L552.38 272.68C552.27 273.34 552.15 274 552.03 274.66ZM137.28 270.93C137.17 270.27 137.07 269.61 136.97 268.95L138.95 268.65C139.05 269.31 139.16 269.96 139.26 270.62L137.28 270.93ZM553.03 268.72L551.05 268.42C551.15 267.76 551.25 267.11 551.34 266.45L553.32 266.73C553.23 267.39 553.13 268.05 553.03 268.72V268.72ZM136.39 264.97C136.3 264.31 136.21 263.64 136.13 262.98L138.11 262.73C138.19 263.39 138.28 264.05 138.37 264.7L136.39 264.97ZM553.85 262.75L551.87 262.5L552.11 260.53L554.1 260.75C554.01 261.42 553.94 262.08 553.85 262.75ZM135.68 258.98C135.61 258.31 135.54 257.65 135.48 256.98L137.47 256.79C137.53 257.45 137.6 258.11 137.67 258.77L135.68 258.98ZM554.51 256.76L552.52 256.57L552.7 254.59L554.69 254.76L554.51 256.76ZM135.13 252.98C135.08 252.31 135.03 251.64 134.99 250.97L136.99 250.84C137.03 251.5 137.08 252.16 137.13 252.82L135.13 252.98ZM554.99 250.75L552.99 250.62L553.11 248.63L555.11 248.74L554.99 250.75ZM134.76 246.96L134.67 244.95L136.67 244.88C136.69 245.54 136.72 246.2 136.76 246.87L134.76 246.96V246.96ZM555.3 244.73L553.3 244.65C553.33 243.99 553.35 243.33 553.37 242.66L555.37 242.71C555.35 243.39 555.32 244.06 555.3 244.73ZM134.55 240.95L134.52 238.94L136.52 238.92L136.55 240.91L134.55 240.95ZM555.44 238.7L553.44 238.68C553.45 238.02 553.45 237.35 553.45 236.69H555.45C555.45 237.36 555.45 238.03 555.44 238.7V238.7ZM553.45 236.22C553.45 235.56 553.44 234.89 553.44 234.23L555.44 234.21C555.45 234.88 555.45 235.55 555.45 236.22H553.45V236.22ZM136.52 234.94L134.52 234.92C134.53 234.25 134.53 233.58 134.55 232.91L136.55 232.95C136.53 233.61 136.53 234.27 136.52 234.94ZM553.35 230.25C553.33 229.59 553.31 228.93 553.28 228.27L555.28 228.19C555.31 228.86 555.33 229.52 555.35 230.19L553.35 230.25ZM136.65 228.97L134.65 228.9C134.67 228.23 134.7 227.56 134.73 226.89L136.73 226.98C136.7 227.64 136.68 228.31 136.65 228.97V228.97ZM553.09 224.29C553.05 223.63 553.01 222.96 552.96 222.3L554.96 222.17C555 222.84 555.05 223.5 555.09 224.17L553.09 224.29ZM136.95 223.01L134.95 222.88C134.99 222.21 135.04 221.54 135.09 220.87L137.08 221.02C137.04 221.68 137 222.34 136.95 223.01V223.01ZM552.65 218.34L552.47 216.36L554.46 216.17C554.53 216.84 554.59 217.5 554.64 218.17L552.65 218.34ZM137.43 217.06L135.44 216.87C135.5 216.2 135.57 215.54 135.64 214.87L137.63 215.08C137.55 215.73 137.49 216.39 137.43 217.06ZM552.05 212.4L551.81 210.42L553.79 210.17L554.03 212.16L552.05 212.4V212.4ZM138.07 211.12L136.09 210.88C136.17 210.21 136.26 209.55 136.34 208.89L138.32 209.15C138.23 209.8 138.15 210.46 138.07 211.12V211.12ZM551.28 206.48C551.18 205.82 551.09 205.17 550.98 204.51L552.96 204.21L553.26 206.2L551.28 206.48ZM138.88 205.2L136.9 204.9C137 204.24 137.1 203.58 137.21 202.91L139.18 203.23C139.08 203.89 138.97 204.55 138.88 205.2V205.2ZM550.33 200.58C550.22 199.93 550.1 199.27 549.98 198.62L551.95 198.26L552.31 200.24L550.33 200.58V200.58ZM139.85 199.31L137.88 198.95C138 198.29 138.12 197.63 138.25 196.98L140.21 197.35C140.09 198.01 139.97 198.66 139.85 199.31ZM549.22 194.72C549.09 194.07 548.95 193.42 548.81 192.77L550.77 192.35C550.91 193 551.05 193.66 551.18 194.32L549.22 194.72V194.72ZM141 193.45L139.04 193.04C139.18 192.38 139.32 191.73 139.46 191.08L141.41 191.51C141.28 192.16 141.14 192.81 141 193.45V193.45ZM547.94 188.89C547.79 188.24 547.63 187.6 547.48 186.95L549.42 186.48C549.58 187.13 549.73 187.78 549.89 188.43L547.94 188.89ZM142.32 187.63L140.38 187.16L140.86 185.21L142.8 185.7C142.63 186.34 142.47 186.99 142.32 187.63V187.63ZM546.5 183.1C546.33 182.46 546.16 181.82 545.98 181.18L547.91 180.65C548.09 181.3 548.26 181.94 548.43 182.59L546.5 183.1ZM143.8 181.85L141.87 181.33C142.05 180.68 142.22 180.04 142.41 179.39L144.33 179.93C144.15 180.57 143.98 181.21 143.8 181.85V181.85ZM544.88 177.35C544.69 176.71 544.5 176.08 544.3 175.44L546.21 174.85C546.41 175.49 546.6 176.13 546.79 176.77L544.88 177.35ZM145.45 176.11L143.54 175.53C143.74 174.89 143.93 174.24 144.13 173.6L146.04 174.2C145.84 174.84 145.65 175.47 145.45 176.11V176.11ZM543.1 171.65L542.47 169.76L544.36 169.12C544.57 169.75 544.79 170.39 545 171.03L543.1 171.65V171.65ZM147.27 170.4L145.37 169.76C145.58 169.12 145.8 168.49 146.02 167.85L147.91 168.5C147.7 169.14 147.49 169.77 147.27 170.4V170.4ZM541.16 166C540.94 165.38 540.71 164.75 540.48 164.13L542.36 163.43L543.05 165.32L541.16 166V166ZM149.26 164.75L147.38 164.06C147.61 163.43 147.85 162.8 148.09 162.17L149.96 162.88C149.72 163.5 149.49 164.12 149.26 164.75V164.75ZM539.06 160.42C538.82 159.8 538.57 159.19 538.32 158.57L540.17 157.82C540.42 158.44 540.67 159.06 540.92 159.69L539.06 160.42ZM151.41 159.15L149.55 158.41C149.8 157.79 150.05 157.16 150.31 156.54L152.16 157.3C151.91 157.92 151.66 158.54 151.41 159.15V159.15ZM536.79 154.9C536.53 154.29 536.27 153.69 536 153.08L537.83 152.28C538.1 152.89 538.36 153.5 538.62 154.12L536.79 154.9ZM153.72 153.63L151.89 152.83C152.16 152.21 152.43 151.6 152.7 150.98L154.52 151.8C154.25 152.41 153.98 153.02 153.72 153.63V153.63ZM534.38 149.47L533.54 147.67L535.35 146.81C535.64 147.41 535.92 148.02 536.2 148.63L534.38 149.47V149.47ZM156.18 148.17L154.37 147.32C154.66 146.71 154.94 146.11 155.24 145.5L157.04 146.37C156.75 146.97 156.47 147.57 156.18 148.17V148.17ZM531.81 144.11C531.52 143.52 531.22 142.93 530.92 142.34L532.7 141.43C533 142.02 533.3 142.62 533.6 143.22L531.81 144.11V144.11ZM158.81 142.79L157.02 141.89C157.32 141.29 157.63 140.69 157.94 140.1L159.72 141.02C159.41 141.61 159.11 142.2 158.81 142.79ZM529.09 138.81C528.78 138.23 528.47 137.64 528.15 137.06L529.91 136.1C530.23 136.69 530.55 137.27 530.86 137.86L529.09 138.81V138.81ZM161.58 137.49L159.82 136.54C160.14 135.95 160.46 135.36 160.79 134.77L162.54 135.74C162.22 136.32 161.9 136.91 161.58 137.49ZM526.21 133.6C525.88 133.03 525.55 132.45 525.22 131.88L526.95 130.87C527.29 131.45 527.62 132.03 527.95 132.61L526.21 133.6V133.6ZM164.51 132.27L162.78 131.27L163.8 129.53L165.52 130.55C165.18 131.13 164.84 131.7 164.51 132.27V132.27ZM523.19 128.46C522.85 127.89 522.5 127.33 522.15 126.77L523.85 125.72L524.9 127.43L523.19 128.46ZM167.58 127.15L165.88 126.1C166.23 125.53 166.59 124.96 166.95 124.39L168.64 125.46C168.28 126.02 167.93 126.58 167.58 127.15ZM520.02 123.42C519.66 122.86 519.3 122.31 518.93 121.76L520.6 120.66C520.97 121.22 521.33 121.78 521.7 122.34L520.02 123.42V123.42ZM170.8 122.11L169.13 121.01C169.5 120.45 169.87 119.89 170.25 119.33L171.91 120.45C171.53 121 171.17 121.55 170.8 122.11ZM516.71 118.47C516.33 117.93 515.96 117.38 515.58 116.84L517.21 115.69C517.59 116.24 517.98 116.79 518.36 117.34L516.71 118.47ZM174.16 117.16L172.52 116.01C172.9 115.46 173.29 114.91 173.68 114.37L175.31 115.54C174.93 116.08 174.54 116.62 174.16 117.16ZM513.25 113.61L512.07 112.01L513.67 110.81C514.07 111.35 514.47 111.88 514.86 112.42L513.25 113.61V113.61ZM177.66 112.32L176.06 111.12C176.46 110.58 176.86 110.05 177.27 109.51L178.86 110.72C178.46 111.26 178.06 111.79 177.66 112.32V112.32ZM509.66 108.85L508.43 107.29L510 106.05C510.41 106.57 510.83 107.1 511.24 107.63L509.66 108.85ZM181.3 107.58L179.73 106.34C180.15 105.81 180.56 105.29 180.98 104.77L182.54 106.03C182.12 106.54 181.71 107.06 181.3 107.58V107.58ZM505.94 104.19C505.52 103.68 505.09 103.17 504.67 102.66L506.2 101.37C506.63 101.88 507.06 102.4 507.48 102.91L505.94 104.19V104.19ZM185.07 102.94L183.53 101.66C183.96 101.15 184.39 100.63 184.83 100.12L186.35 101.42C185.92 101.93 185.49 102.43 185.07 102.94V102.94ZM502.07 99.65C501.63 99.15 501.19 98.65 500.75 98.16L502.24 96.83C502.68 97.33 503.13 97.83 503.57 98.34L502.07 99.65V99.65ZM188.97 98.42L187.47 97.09C187.91 96.59 188.36 96.09 188.81 95.59L190.29 96.93C189.85 97.43 189.41 97.92 188.97 98.42ZM498.09 95.21C497.64 94.72 497.19 94.24 496.73 93.76L498.19 92.39C498.65 92.88 499.11 93.37 499.56 93.86L498.09 95.21V95.21ZM192.99 94.01L191.53 92.64C191.99 92.15 192.45 91.66 192.91 91.18L194.36 92.56C193.9 93.04 193.45 93.52 192.99 94.01V94.01ZM493.97 90.88C493.51 90.41 493.04 89.93 492.57 89.46L493.99 88.05C494.46 88.52 494.93 89 495.4 89.48L493.97 90.88V90.88ZM197.14 89.72L195.72 88.31L197.14 86.89L198.54 88.31C198.08 88.78 197.61 89.24 197.14 89.72ZM489.74 86.68L488.3 85.3L489.68 83.85C490.17 84.31 490.65 84.77 491.13 85.24L489.74 86.68ZM201.41 85.54L200.03 84.09C200.52 83.63 201 83.17 201.49 82.71L202.85 84.17C202.37 84.63 201.89 85.09 201.41 85.54V85.54ZM485.38 82.59C484.89 82.14 484.4 81.7 483.9 81.26L485.23 79.77C485.73 80.22 486.23 80.67 486.72 81.12L485.38 82.59ZM205.79 81.5L204.45 80.01C204.95 79.56 205.45 79.12 205.95 78.68L207.27 80.18C206.78 80.61 206.29 81.05 205.79 81.5ZM480.91 78.63C480.41 78.2 479.9 77.77 479.39 77.34L480.68 75.81C481.19 76.24 481.7 76.68 482.21 77.11L480.91 78.63V78.63ZM210.29 77.57L209 76.04C209.51 75.61 210.02 75.18 210.54 74.75L211.82 76.29C211.3 76.72 210.79 77.14 210.29 77.57V77.57ZM476.33 74.8C475.81 74.38 475.29 73.97 474.78 73.55L476.03 71.99L477.59 73.25L476.33 74.8ZM214.89 73.78L213.64 72.22C214.16 71.8 214.69 71.39 215.21 70.97L216.44 72.54C215.93 72.96 215.41 73.37 214.89 73.78V73.78ZM471.64 71.1C471.11 70.7 470.58 70.29 470.05 69.9L471.25 68.3C471.79 68.7 472.32 69.11 472.85 69.52L471.64 71.1V71.1ZM219.6 70.13L218.4 68.53C218.93 68.13 219.47 67.73 220.01 67.33L221.2 68.94C220.66 69.33 220.13 69.73 219.6 70.13V70.13ZM466.85 67.53C466.31 67.14 465.77 66.76 465.23 66.37L466.39 64.74C466.94 65.13 467.48 65.52 468.03 65.91L466.85 67.53V67.53ZM224.41 66.61L223.25 64.98C223.79 64.59 224.34 64.21 224.89 63.83L226.03 65.47C225.49 65.84 224.95 66.22 224.41 66.61V66.61ZM461.95 64.11C461.4 63.74 460.85 63.37 460.29 63L461.4 61.34C461.96 61.71 462.51 62.09 463.07 62.46L461.95 64.11ZM229.32 63.22L228.21 61.56C228.77 61.19 229.32 60.82 229.88 60.45L230.97 62.12C230.42 62.49 229.87 62.86 229.32 63.22V63.22ZM456.96 60.82C456.4 60.46 455.84 60.11 455.28 59.76L456.34 58.06C456.91 58.42 457.48 58.77 458.04 59.14L456.96 60.82V60.82ZM234.32 59.98L233.26 58.29C233.83 57.93 234.39 57.58 234.96 57.23L236.01 58.93C235.45 59.28 234.88 59.63 234.32 59.98ZM451.87 57.68C451.3 57.34 450.73 57 450.15 56.66L451.16 54.94C451.74 55.28 452.32 55.62 452.89 55.96L451.87 57.68ZM239.41 56.89L238.4 55.17C238.98 54.83 239.55 54.5 240.13 54.16L241.13 55.89C240.56 56.22 239.98 56.56 239.41 56.89ZM446.69 54.68C446.11 54.35 445.53 54.03 444.94 53.71L445.9 51.96C446.49 52.28 447.07 52.61 447.66 52.93L446.69 54.68V54.68ZM244.59 53.94L243.63 52.19C244.21 51.87 244.8 51.55 245.39 51.23L246.34 52.99C245.75 53.31 245.17 53.63 244.59 53.94V53.94ZM441.43 51.83C440.84 51.52 440.25 51.22 439.66 50.91L440.57 49.13C441.17 49.43 441.77 49.74 442.36 50.05L441.43 51.83V51.83ZM249.85 51.15L248.94 49.37C249.53 49.07 250.13 48.76 250.73 48.46L251.63 50.25C251.02 50.55 250.43 50.85 249.85 51.15ZM436.09 49.14L434.29 48.27L435.15 46.46C435.76 46.75 436.36 47.04 436.96 47.33L436.09 49.14ZM255.18 48.5L254.32 46.7C254.92 46.41 255.52 46.13 256.13 45.85L256.98 47.66C256.37 47.94 255.77 48.22 255.18 48.5V48.5ZM430.67 46.59C430.06 46.32 429.46 46.05 428.84 45.78L429.65 43.95C430.26 44.22 430.88 44.49 431.49 44.77L430.67 46.59ZM260.58 46.02L259.77 44.19C260.38 43.92 260.99 43.65 261.6 43.39L262.39 45.23C261.79 45.48 261.18 45.75 260.58 46.02V46.02ZM425.18 44.21C424.56 43.96 423.95 43.7 423.33 43.45L424.08 41.6C424.7 41.85 425.32 42.11 425.94 42.37L425.18 44.21V44.21ZM266.05 43.68L265.29 41.83L267.15 41.08L267.89 42.94C267.28 43.18 266.66 43.43 266.05 43.68V43.68ZM419.62 41.98C419 41.74 418.37 41.51 417.75 41.27L418.45 39.39C419.08 39.63 419.71 39.86 420.34 40.1L419.62 41.98V41.98ZM271.61 41.5L270.91 39.63C271.54 39.39 272.16 39.16 272.79 38.93L273.48 40.81C272.85 41.04 272.23 41.27 271.61 41.5ZM413.99 39.92C413.36 39.7 412.73 39.48 412.1 39.27L412.74 37.38C413.38 37.6 414.01 37.82 414.65 38.04L413.99 39.92ZM277.23 39.48L276.58 37.59C277.21 37.37 277.85 37.16 278.49 36.95L279.12 38.85C278.48 39.05 277.85 39.27 277.23 39.48V39.48ZM408.31 38.02C407.68 37.82 407.04 37.62 406.4 37.42L406.99 35.51L408.92 36.11L408.31 38.02V38.02ZM282.9 37.62L282.3 35.71C282.94 35.51 283.58 35.31 284.22 35.12L284.8 37.04C284.17 37.23 283.53 37.43 282.9 37.62ZM402.59 36.28L400.67 35.74L401.2 33.81C401.85 33.99 402.49 34.17 403.13 34.35L402.59 36.28V36.28ZM288.62 35.93L288.09 34C288.73 33.82 289.38 33.64 290.03 33.47L290.55 35.4C289.9 35.58 289.26 35.75 288.62 35.93ZM396.82 34.72C396.18 34.56 395.53 34.39 394.89 34.24L395.37 32.3C396.02 32.46 396.67 32.62 397.32 32.79L396.82 34.72V34.72ZM294.4 34.4L293.92 32.46L295.87 31.98L296.33 33.93C295.68 34.08 295.04 34.24 294.4 34.4V34.4ZM391.02 33.32C390.37 33.17 389.73 33.03 389.08 32.89L389.5 30.93C390.16 31.07 390.81 31.22 391.46 31.36L391.02 33.32ZM300.21 33.04L299.78 31.09L301.74 30.67L302.15 32.63C301.51 32.76 300.86 32.9 300.21 33.04V33.04ZM385.18 32.1C384.53 31.97 383.88 31.85 383.22 31.73L383.59 29.76C384.25 29.88 384.91 30.01 385.56 30.14L385.18 32.1V32.1ZM306.06 31.85L305.69 29.89C306.35 29.77 307.01 29.64 307.67 29.53L308.02 31.5C307.36 31.61 306.71 31.73 306.06 31.85V31.85ZM379.3 31.03C378.65 30.92 377.99 30.82 377.34 30.71L377.65 28.73C378.31 28.83 378.97 28.94 379.63 29.05L379.3 31.03V31.03ZM311.94 30.83L311.63 28.86C312.29 28.75 312.95 28.65 313.62 28.55L313.92 30.53C313.25 30.62 312.6 30.72 311.94 30.83V30.83ZM373.4 30.14C372.74 30.05 372.09 29.96 371.43 29.88L371.68 27.9C372.35 27.98 373.01 28.07 373.67 28.16L373.4 30.14ZM317.85 29.97L317.59 27.99C318.25 27.9 318.92 27.82 319.58 27.74L319.82 29.73L317.85 29.97V29.97ZM367.47 29.42C366.81 29.35 366.15 29.28 365.49 29.22L365.69 27.23C366.36 27.29 367.02 27.36 367.69 27.43L367.47 29.42V29.42ZM323.78 29.29L323.58 27.3C324.25 27.23 324.91 27.17 325.58 27.11L325.76 29.1C325.1 29.16 324.44 29.22 323.78 29.29ZM361.53 28.87L359.55 28.72L359.69 26.72L361.69 26.87L361.53 28.87V28.87ZM329.73 28.77L329.59 26.77C330.26 26.72 330.93 26.68 331.6 26.63L331.73 28.63C331.05 28.68 330.39 28.73 329.73 28.77ZM355.57 28.49L353.58 28.4L353.66 26.4L355.67 26.49L355.57 28.49V28.49ZM335.69 28.43L335.6 26.43C336.27 26.4 336.93 26.37 337.6 26.35L337.67 28.35C337.01 28.37 336.35 28.4 335.69 28.43ZM349.6 28.27C348.94 28.26 348.27 28.24 347.61 28.24L347.64 26.24L349.65 26.27L349.6 28.27V28.27ZM341.64 28.25L341.61 26.25C342.28 26.24 342.95 26.23 343.62 26.23L343.63 28.23C342.97 28.23 342.31 28.24 341.64 28.25ZM305.71 223.85C306.49 223.72 307.66 223.63 308.96 223.63C310.56 223.63 311.68 223.87 312.45 224.48C313.09 224.99 313.44 225.74 313.44 226.74C313.44 228.12 312.46 229.06 311.54 229.4V229.45C312.29 229.75 312.71 230.47 312.98 231.47C313.32 232.69 313.65 234.1 313.86 234.51H311.36C311.18 234.21 310.93 233.33 310.61 232C310.32 230.66 309.86 230.29 308.87 230.27H308.13V234.51H305.71V223.85V223.85ZM308.13 228.49H309.09C310.31 228.49 311.03 227.88 311.03 226.94C311.03 225.95 310.36 225.45 309.24 225.44C308.65 225.44 308.31 225.49 308.14 225.52V228.49H308.13ZM321.62 229.93H317.65V232.49H322.08V234.49H315.2V223.7H321.86V225.7H317.65V227.94H321.62V229.93V229.93ZM323.82 231.98C324.48 232.32 325.48 232.65 326.53 232.65C327.65 232.65 328.24 232.19 328.24 231.48C328.24 230.81 327.73 230.42 326.43 229.96C324.64 229.34 323.47 228.34 323.47 226.78C323.47 224.94 325.01 223.53 327.55 223.53C328.77 223.53 329.66 223.79 330.3 224.07L329.76 226.04C329.33 225.83 328.56 225.53 327.5 225.53C326.44 225.53 325.93 226.01 325.93 226.57C325.93 227.26 326.54 227.56 327.93 228.09C329.84 228.79 330.73 229.79 330.73 231.31C330.73 233.12 329.34 234.66 326.38 234.66C325.15 234.66 323.93 234.34 323.32 234L323.82 231.98V231.98ZM334.83 223.7V234.49H332.38V223.7H334.83ZM336.95 223.7H339.4V232.44H343.69V234.49H336.95V223.7ZM347.57 223.7V234.49H345.12V223.7H347.57ZM356.1 229.93H352.13V232.49H356.56V234.49H349.68V223.7H356.34V225.7H352.13V227.94H356.1V229.93V229.93ZM358.22 234.49V223.7H361.07L363.31 227.65C363.95 228.79 364.59 230.13 365.07 231.35H365.12C364.96 229.93 364.91 228.47 364.91 226.85V223.7H367.15V234.49H364.59L362.29 230.33C361.65 229.18 360.95 227.79 360.42 226.52L360.37 226.54C360.43 227.96 360.47 229.49 360.47 231.25V234.5H358.22V234.49ZM377.19 234.19C376.74 234.41 375.73 234.65 374.42 234.65C370.69 234.65 368.77 232.33 368.77 229.26C368.77 225.58 371.4 223.53 374.66 223.53C375.92 223.53 376.89 223.79 377.32 224.01L376.82 225.95C376.32 225.74 375.64 225.55 374.77 225.55C372.83 225.55 371.33 226.72 371.33 229.12C371.33 231.28 372.61 232.64 374.79 232.64C375.53 232.64 376.34 232.48 376.82 232.29L377.19 234.19V234.19ZM385.2 229.93H381.23V232.49H385.66V234.49H378.78V223.7H385.44V225.7H381.23V227.94H385.2V229.93V229.93ZM332.06 253.39C331.61 253.61 330.6 253.85 329.29 253.85C325.56 253.85 323.64 251.53 323.64 248.46C323.64 244.78 326.27 242.73 329.53 242.73C330.79 242.73 331.76 242.99 332.19 243.21L331.69 245.15C331.19 244.94 330.51 244.75 329.64 244.75C327.7 244.75 326.2 245.92 326.2 248.32C326.2 250.48 327.48 251.84 329.66 251.84C330.4 251.84 331.21 251.68 331.69 251.49L332.06 253.39V253.39ZM336.27 253.69V249.27L332.86 242.9H335.64L336.74 245.49C337.08 246.27 337.3 246.85 337.57 247.55H337.6C337.84 246.88 338.1 246.25 338.42 245.49L339.51 242.9H342.25L338.7 249.19V253.69H336.27V253.69ZM350.59 253.39C350.14 253.61 349.13 253.85 347.82 253.85C344.09 253.85 342.17 251.53 342.17 248.46C342.17 244.78 344.8 242.73 348.06 242.73C349.32 242.73 350.29 242.99 350.72 243.21L350.22 245.15C349.72 244.94 349.04 244.75 348.17 244.75C346.23 244.75 344.73 245.92 344.73 248.32C344.73 250.48 346.01 251.84 348.19 251.84C348.93 251.84 349.74 251.68 350.22 251.49L350.59 253.39V253.39ZM352.18 242.9H354.63V251.64H358.92V253.69H352.18V242.9V242.9ZM366.78 249.13H362.81V251.69H367.24V253.69H360.36V242.9H367.02V244.9H362.81V247.14H366.78V249.13V249.13ZM34.3101 114.01H36.75V122.73H41.03V124.77H34.3V114.01H34.3101ZM48.89 120.23H44.93V122.79H49.35V124.79H42.48V114.02H49.1301V116.02H44.93V118.26H48.89V120.23ZM53.5201 122.02L52.75 124.78H50.23L53.5201 114.01H56.7201L60.0601 124.78H57.44L56.6101 122.02H53.5201V122.02ZM56.25 120.19L55.5801 117.9C55.3901 117.26 55.2001 116.46 55.0401 115.82H55.01C54.85 116.46 54.69 117.27 54.51 117.9L53.87 120.19H56.25ZM61.5 114.15C62.28 114.02 63.45 113.93 64.74 113.93C66.34 113.93 67.4601 114.17 68.2201 114.78C68.8601 115.29 69.21 116.04 69.21 117.03C69.21 118.4 68.24 119.35 67.31 119.68V119.73C68.06 120.03 68.48 120.75 68.75 121.74C69.08 122.95 69.42 124.36 69.63 124.78H67.14C66.96 124.48 66.71 123.6 66.39 122.27C66.1 120.93 65.6401 120.56 64.6501 120.54H63.91V124.77H61.5V114.15ZM63.91 118.79H64.8701C66.0801 118.79 66.8001 118.18 66.8001 117.24C66.8001 116.25 66.1301 115.75 65.0101 115.74C64.4201 115.74 64.08 115.79 63.91 115.82V118.79V118.79ZM70.9701 124.78V114.01H73.81L76.0501 117.96C76.6901 119.09 77.33 120.44 77.81 121.65H77.8601C77.7001 120.23 77.6501 118.77 77.6501 117.16V114.01H79.89V124.78H77.3301L75.03 120.63C74.39 119.48 73.6901 118.09 73.1601 116.83L73.1101 116.85C73.1701 118.27 73.21 119.79 73.21 121.55V124.79H70.9701V124.78ZM84.4401 114.01V124.78H82V114.01H84.4401ZM86.5501 124.78V114.01H89.39L91.63 117.96C92.27 119.09 92.91 120.44 93.39 121.65H93.4401C93.2801 120.23 93.2301 118.77 93.2301 117.16V114.01H95.4701V124.78H92.9101L90.6101 120.63C89.9701 119.48 89.27 118.09 88.74 116.83L88.6901 116.85C88.7501 118.27 88.7901 119.79 88.7901 121.55V124.79H86.5501V124.78ZM106.57 124.28C105.82 124.54 104.4 124.89 102.98 124.89C101.02 124.89 99.5901 124.39 98.6001 123.44C97.6101 122.51 97.0701 121.11 97.0801 119.53C97.1001 115.95 99.7001 113.91 103.23 113.91C104.62 113.91 105.69 114.18 106.22 114.44L105.71 116.39C105.12 116.13 104.38 115.93 103.2 115.93C101.17 115.93 99.64 117.08 99.64 119.41C99.64 121.63 101.03 122.94 103.03 122.94C103.59 122.94 104.04 122.88 104.23 122.78V120.53H102.57V118.63H106.58V124.28H106.57ZM129 157.28L106.25 134.53H34.7701V132.53H107.08L130.41 155.86L129 157.28Z" fill="#404041"/>
<path d="M477.11 433.27C496.075 433.27 511.45 417.896 511.45 398.93C511.45 379.965 496.075 364.59 477.11 364.59C458.145 364.59 442.77 379.965 442.77 398.93C442.77 417.896 458.145 433.27 477.11 433.27Z" fill="#E6E7E8"/>
<path d="M146.1 205.77C165.065 205.77 180.44 190.396 180.44 171.43C180.44 152.465 165.065 137.09 146.1 137.09C127.135 137.09 111.76 152.465 111.76 171.43C111.76 190.396 127.135 205.77 146.1 205.77Z" fill="#326CE5"/>
<path d="M132.67 185.96V187.96H137.71V185.96H137L140.78 182.18V179.35L134.17 185.96H132.67ZM148.09 179.35V182.18L151.86 185.96H151.87H151.16V187.96H156.21V185.96H154.71L148.09 179.35Z" fill="white"/>
<path d="M159.43 175.88V159.38H160.41V157.38H145.44V155.86H143.44V157.38H128.47V159.38H129.45V175.88H128.47V177.88H141.8V181.88H143.44V185.96H141.92V187.96H146.96V185.96H145.44V181.88H147.08V177.88H160.41V175.88H159.43V175.88ZM131.45 175.88V159.38H157.43V175.88H131.45ZM143.79 179.88V177.88H145.08V179.88H143.79Z" fill="white"/>
<path d="M478.33 399.81H476.07V392.44H478.33V399.81ZM478.33 403.69H476.07V401.71H478.33V403.69Z" fill="#404041"/>
<path d="M477.11 423.56C463.52 423.56 452.47 412.51 452.47 398.92C452.47 385.33 463.52 374.28 477.11 374.28C490.7 374.28 501.75 385.33 501.75 398.92C501.75 412.51 490.7 423.56 477.11 423.56ZM477.11 376.29C464.63 376.29 454.47 386.45 454.47 398.93C454.47 411.41 464.63 421.57 477.11 421.57C489.59 421.57 499.75 411.41 499.75 398.93C499.75 386.45 489.59 376.29 477.11 376.29Z" fill="#404041"/>
<path d="M490.91 408.82H463.31C462.95 408.82 462.62 408.63 462.44 408.32C462.26 408.01 462.26 407.63 462.44 407.32L476.24 383.42C476.6 382.8 477.62 382.8 477.97 383.42L491.77 407.32C491.95 407.63 491.95 408.01 491.77 408.32C491.59 408.63 491.27 408.82 490.91 408.82ZM465.04 406.82H489.17L477.1 385.92L465.04 406.82ZM535.41 17.8902C535.36 16.6002 535.31 15.0302 535.31 13.4702H535.26C534.93 14.8402 534.48 16.3802 534.06 17.6402L532.75 21.8402H530.85L529.7 17.6702C529.35 16.4102 528.98 14.8702 528.73 13.4702H528.7C528.64 14.9202 528.59 16.5902 528.51 17.9302L528.32 22.0202H526.07L526.76 11.2502H530L531.05 14.8402C531.39 16.0902 531.72 17.4302 531.96 18.6902H532.01C532.31 17.4402 532.68 16.0202 533.03 14.8202L534.18 11.2402H537.36L537.95 22.0102H535.57L535.41 17.8902V17.8902ZM542.28 19.2502L541.51 22.0102H538.99L542.28 11.2402H545.48L548.82 22.0102H546.2L545.37 19.2502H542.28ZM545.02 17.4302L544.35 15.1402C544.16 14.5002 543.97 13.7002 543.81 13.0602H543.78C543.62 13.7002 543.46 14.5102 543.28 15.1402L542.64 17.4302H545.02V17.4302ZM555.55 22.0102L554.58 20.0602C554.18 19.3102 553.93 18.7502 553.62 18.1302H553.59C553.37 18.7502 553.09 19.3102 552.76 20.0602L551.87 22.0102H549.09L552.21 16.5602L549.21 11.2402H552.01L552.95 13.2002C553.27 13.8602 553.51 14.3802 553.77 14.9902H553.8C554.06 14.3002 554.26 13.8202 554.54 13.2002L555.45 11.2402H558.23L555.19 16.5002L558.39 22.0102H555.55ZM562.12 11.2502V22.0202H559.68V11.2502H562.12V11.2502ZM573.33 17.8902C573.28 16.6002 573.23 15.0302 573.23 13.4702H573.18C572.85 14.8402 572.4 16.3802 571.98 17.6402L570.67 21.8402H568.77L567.62 17.6702C567.27 16.4102 566.9 14.8702 566.65 13.4702H566.62C566.56 14.9202 566.51 16.5902 566.43 17.9302L566.24 22.0202H563.99L564.68 11.2502H567.92L568.97 14.8402C569.31 16.0902 569.64 17.4302 569.88 18.6902H569.93C570.23 17.4402 570.6 16.0202 570.95 14.8202L572.1 11.2402H575.28L575.87 22.0102H573.49L573.33 17.8902V17.8902ZM580.17 11.2502V17.4502C580.17 19.3002 580.87 20.2502 582.12 20.2502C583.4 20.2502 584.1 19.3602 584.1 17.4502V11.2502H586.53V17.2902C586.53 20.6102 584.85 22.1902 582.04 22.1902C579.32 22.1902 577.73 20.6902 577.73 17.2502V11.2402H580.17V11.2502ZM597.75 17.8902C597.7 16.6002 597.65 15.0302 597.65 13.4702H597.6C597.27 14.8402 596.82 16.3802 596.4 17.6402L595.09 21.8402H593.19L592.04 17.6702C591.69 16.4102 591.32 14.8702 591.07 13.4702H591.04C590.98 14.9202 590.93 16.5902 590.85 17.9302L590.66 22.0202H588.41L589.1 11.2502H592.34L593.39 14.8402C593.73 16.0902 594.06 17.4302 594.3 18.6902H594.35C594.65 17.4402 595.02 16.0202 595.37 14.8202L596.52 11.2402H599.7L600.29 22.0102H597.91L597.75 17.8902V17.8902ZM526.31 30.5602C527.06 30.4302 528.11 30.3402 529.6 30.3402C531.1 30.3402 532.17 30.6302 532.89 31.2002C533.58 31.7402 534.04 32.6402 534.04 33.6902C534.04 34.7402 533.69 35.6402 533.05 36.2502C532.22 37.0302 530.99 37.3802 529.55 37.3802C529.23 37.3802 528.94 37.3602 528.72 37.3302V41.1802H526.31V30.5602V30.5602ZM528.72 35.4502C528.93 35.5002 529.18 35.5102 529.53 35.5102C530.82 35.5102 531.62 34.8602 531.62 33.7502C531.62 32.7602 530.93 32.1702 529.72 32.1702C529.22 32.1702 528.89 32.2202 528.71 32.2702V35.4502H528.72ZM542 36.6402H538.04V39.2002H542.46V41.2002H535.59V30.4202H542.24V32.4202H538.04V34.6602H542V36.6402ZM544.12 30.5602C544.9 30.4302 546.07 30.3402 547.36 30.3402C548.96 30.3402 550.08 30.5802 550.84 31.1902C551.48 31.7002 551.83 32.4502 551.83 33.4402C551.83 34.8102 550.86 35.7602 549.93 36.0902V36.1402C550.68 36.4402 551.1 37.1602 551.37 38.1502C551.7 39.3602 552.04 40.7702 552.25 41.1902H549.76C549.58 40.8902 549.33 40.0102 549.01 38.6802C548.72 37.3402 548.26 36.9702 547.27 36.9502H546.53V41.1802H544.12V30.5602V30.5602ZM546.53 35.2002H547.49C548.7 35.2002 549.42 34.5902 549.42 33.6502C549.42 32.6602 548.75 32.1602 547.63 32.1502C547.04 32.1502 546.7 32.2002 546.53 32.2302V35.2002ZM553.6 30.4202H560.18V32.4202H556.04V34.8802H559.91V36.8602H556.04V41.1902H553.6V30.4202ZM571.88 35.6902C571.88 39.2202 569.74 41.3602 566.59 41.3602C563.4 41.3602 561.53 38.9502 561.53 35.8802C561.53 32.6502 563.59 30.2402 566.77 30.2402C570.07 30.2502 571.88 32.7202 571.88 35.6902V35.6902ZM564.1 35.8402C564.1 37.9502 565.09 39.4302 566.72 39.4302C568.37 39.4302 569.31 37.8602 569.31 35.7702C569.31 33.8402 568.38 32.1802 566.71 32.1802C565.06 32.1802 564.1 33.7402 564.1 35.8402V35.8402ZM573.48 30.5602C574.26 30.4302 575.43 30.3402 576.72 30.3402C578.32 30.3402 579.44 30.5802 580.2 31.1902C580.84 31.7002 581.19 32.4502 581.19 33.4402C581.19 34.8102 580.22 35.7602 579.29 36.0902V36.1402C580.04 36.4402 580.46 37.1602 580.73 38.1502C581.06 39.3602 581.4 40.7702 581.61 41.1902H579.12C578.94 40.8902 578.69 40.0102 578.37 38.6802C578.08 37.3402 577.62 36.9702 576.63 36.9502H575.89V41.1802H573.48V30.5602V30.5602ZM575.89 35.2002H576.85C578.06 35.2002 578.78 34.5902 578.78 33.6502C578.78 32.6602 578.11 32.1602 576.99 32.1502C576.4 32.1502 576.06 32.2002 575.89 32.2302V35.2002ZM592.06 37.0702C592.01 35.7802 591.96 34.2102 591.96 32.6402H591.91C591.58 34.0102 591.13 35.5502 590.71 36.8102L589.4 41.0102H587.5L586.35 36.8402C586 35.5802 585.63 34.0402 585.38 32.6402H585.35C585.29 34.0902 585.24 35.7602 585.16 37.1002L584.97 41.1902H582.72L583.41 30.4202H586.65L587.7 34.0102C588.04 35.2602 588.37 36.6002 588.61 37.8602H588.66C588.96 36.6102 589.33 35.1902 589.68 33.9902L590.83 30.4102H594.01L594.6 41.1802H592.22L592.06 37.0702V37.0702ZM598.93 38.4302L598.16 41.1902H595.64L598.93 30.4202H602.13L605.47 41.1902H602.85L602.02 38.4302H598.93ZM601.66 36.6002L600.99 34.3102C600.8 33.6702 600.61 32.8702 600.45 32.2302H600.42C600.26 32.8702 600.1 33.6802 599.92 34.3102L599.28 36.6002H601.66V36.6002ZM606.91 41.1902V30.4202H609.75L611.99 34.3702C612.63 35.5002 613.27 36.8502 613.75 38.0602H613.8C613.64 36.6402 613.59 35.1802 613.59 33.5702V30.4202H615.83V41.1902H613.27L610.97 37.0402C610.33 35.8902 609.63 34.5002 609.1 33.2402L609.05 33.2602C609.11 34.6802 609.15 36.2002 609.15 37.9602V41.2002H606.91V41.1902ZM625.84 40.8902C625.39 41.1102 624.39 41.3502 623.08 41.3502C619.36 41.3502 617.44 39.0302 617.44 35.9602C617.44 32.2902 620.06 30.2402 623.32 30.2402C624.58 30.2402 625.54 30.5002 625.97 30.7202L625.47 32.6502C624.97 32.4402 624.29 32.2502 623.43 32.2502C621.5 32.2502 620 33.4202 620 35.8102C620 37.9702 621.28 39.3302 623.45 39.3302C624.18 39.3302 625 39.1702 625.48 38.9802L625.84 40.8902V40.8902ZM633.85 36.6402H629.89V39.2002H634.31V41.2002H627.44V30.4202H634.09V32.4202H629.89V34.6602H633.85V36.6402V36.6402ZM490.93 82.0402L489.52 80.6202L522.79 47.3502H636.86V49.3502H523.62L490.93 82.0402Z" fill="#404041"/>
<path d="M486.17 118.31C505.135 118.31 520.51 102.935 520.51 83.9699C520.51 65.0044 505.135 49.6299 486.17 49.6299C467.205 49.6299 451.83 65.0044 451.83 83.9699C451.83 102.935 467.205 118.31 486.17 118.31Z" fill="#9EC0FD"/>
<path d="M503.77 65.9101C503.677 65.8174 503.568 65.7439 503.447 65.6937C503.326 65.6435 503.196 65.6177 503.065 65.6177C502.934 65.6177 502.804 65.6435 502.683 65.6937C502.562 65.7439 502.452 65.8174 502.36 65.9101L500.64 67.6301C496.94 65.6001 489.53 69.9201 483.98 75.4701C483.67 75.7801 483.37 76.1001 483.07 76.4101L481.22 75.8101C480.93 75.7201 480.62 75.7601 480.36 75.9201L466.8 84.7801C466.43 85.0201 466.26 85.4801 466.39 85.9001C466.52 86.3201 466.9 86.6101 467.35 86.6201L477.19 86.6501L483.04 92.5001L483.07 102.34C483.071 102.605 483.177 102.859 483.364 103.046C483.552 103.233 483.805 103.339 484.07 103.34C484.4 103.34 484.72 103.17 484.91 102.89L493.77 89.3301C493.854 89.2051 493.907 89.0624 493.926 88.9131C493.946 88.7638 493.93 88.6122 493.88 88.4701L493.28 86.6201C493.6 86.3201 493.91 86.0201 494.22 85.7101C499.77 80.1601 504.1 72.7501 502.06 69.0501L503.78 67.3301C504.16 66.9401 504.16 66.3101 503.77 65.9101V65.9101ZM500.04 69.6501C500.49 70.1001 500.64 70.8801 500.51 71.8901C499.379 71.2821 498.472 70.3293 497.92 69.1701C498.87 69.0601 499.61 69.2101 500.04 69.6501V69.6501ZM481.05 77.8701L481.6 78.0501C479.71 80.2601 478.19 82.5301 477.14 84.6601L470.69 84.6401L481.05 77.8701V77.8701ZM491.82 88.6401L485.05 99.0001L485.03 92.5501C487.16 91.5001 489.43 89.9701 491.64 88.0901L491.82 88.6401V88.6401ZM492.8 84.3001C489.96 87.1401 486.91 89.4101 484.13 90.7801L478.91 85.5601C480.27 82.7801 482.55 79.7301 485.39 76.8901C489.15 73.1301 493.05 70.6501 495.94 69.6401C496.718 71.5075 498.166 73.0164 500 73.8701C498.97 76.7601 496.51 80.5901 492.8 84.3001Z" fill="#404041"/>
<path d="M487.85 77.0903C487.536 77.4014 487.288 77.7723 487.119 78.1811C486.951 78.5899 486.866 79.0282 486.87 79.4703C486.868 79.9121 486.954 80.3499 487.122 80.7584C487.29 81.167 487.537 81.5382 487.85 81.8506C488.162 82.163 488.533 82.4104 488.942 82.5785C489.35 82.7467 489.788 82.8322 490.23 82.8303C491.09 82.8303 491.95 82.5003 492.61 81.8503C493.24 81.2203 493.6 80.3703 493.59 79.4703C493.59 78.5703 493.24 77.7303 492.61 77.0903C491.29 75.7803 489.16 75.7703 487.85 77.0903ZM491.19 80.4303C490.93 80.6903 490.59 80.8303 490.23 80.8303C489.87 80.8303 489.52 80.6903 489.27 80.4303C489.01 80.1703 488.87 79.8303 488.87 79.4703C488.87 79.1103 489.01 78.7603 489.27 78.5103C489.53 78.2503 489.88 78.1103 490.23 78.1103C490.58 78.1103 490.93 78.2403 491.19 78.5103C491.45 78.7703 491.59 79.1103 491.59 79.4703C491.59 79.8303 491.45 80.1703 491.19 80.4303Z" fill="#404041"/>
<path d="M471.57 96.7031L475.247 93.0261L476.661 94.4403L472.985 98.1173L471.57 96.7031Z" fill="#404041"/>
<path d="M475.95 97.3018L479.627 93.6247L481.041 95.0389L477.364 98.7159L475.95 97.3018Z" fill="#404041"/>
<path d="M470.968 92.3252L474.645 88.6482L476.059 90.0624L472.382 93.7394L470.968 92.3252Z" fill="#404041"/>
<path d="M13.14 50.6103H118.9C119.13 49.3603 119.27 48.0803 119.27 46.7603C119.27 35.0803 109.8 25.6203 98.13 25.6203C96.9 25.6203 95.7 25.7503 94.53 25.9503C93.19 13.5203 82.67 3.84033 69.88 3.84033C58.63 3.84033 49.13 11.3403 46.1 21.6103C44.4609 20.9882 42.7232 20.6664 40.97 20.6603C32.89 20.6603 26.34 27.2103 26.34 35.2903C26.34 35.3903 26.35 35.4903 26.35 35.5803C19.13 36.9503 13.59 43.0903 13.14 50.6103V50.6103ZM545.7 358.91H557.15V391.84H545.7V358.91ZM562.22 370.68H573.67V391.84H562.22V370.68ZM577.96 380.39H589.41V391.84H577.96V380.39Z" fill="#E6E7E8"/>
<path d="M550.307 347.381L552.525 342.9L580.864 356.927L578.645 361.408L550.307 347.381Z" fill="#E6E7E8"/>
<path d="M574.48 364.88L589.41 363.93L581.12 351.48L574.48 364.88Z" fill="#E6E7E8"/>
</svg>
