<svg width="56" height="66" viewBox="0 0 56 66" fill="none" xmlns="http://www.w3.org/2000/svg">
<path d="M48.4151 29.0798C45.5449 25.2811 45.2917 17.5571 45.2917 17.5571C45.2917 8.22918 37.7787 0.716187 28.4508 0.716187C19.1228 0.716187 11.6521 8.22918 11.6521 17.5571C11.6521 17.5571 11.441 25.2811 8.52868 29.0798C5.65855 32.8785 -0.883661 52.2097 28.4508 52.3785C57.8274 52.2097 51.2852 32.8785 48.4151 29.0798Z" fill="#40454F"/>
<path d="M23.8076 37.0571L22.668 51.2811H34.2329L32.629 36.8461L23.8076 37.0571Z" fill="#FFEBD4"/>
<path d="M23.7227 38.0701L33.2194 42.7552L32.6285 36.8461L23.7227 38.0701Z" fill="black" fill-opacity="0.1"/>
<path d="M16.8821 29.3868C18.389 27.9949 18.4823 25.645 17.0905 24.1381C15.6986 22.6312 13.3487 22.5379 11.8418 23.9297C10.3349 25.3216 10.2416 27.6715 11.6334 29.1784C13.0253 30.6853 15.3752 30.7786 16.8821 29.3868Z" fill="#FFEBD4"/>
<path d="M13.0039 26.1254C13.0039 26.1254 15.0299 26.1254 16.2539 27.7715" stroke="#0D0D0D" stroke-opacity="0.1" stroke-width="1.0254" stroke-miterlimit="10" stroke-linecap="round" stroke-linejoin="round"/>
<path d="M44.9748 29.2911C46.4253 27.8406 46.4253 25.4889 44.9748 24.0384C43.5243 22.5879 41.1726 22.5879 39.7221 24.0384C38.2716 25.4889 38.2716 27.8406 39.7221 29.2911C41.1726 30.7416 43.5243 30.7416 44.9748 29.2911Z" fill="#FFEBD4"/>
<path d="M43.6035 26.1252C43.6035 26.1252 41.5775 26.1252 40.3535 27.7713" stroke="black" stroke-opacity="0.1" stroke-width="1.0254" stroke-miterlimit="10" stroke-linecap="round" stroke-linejoin="round"/>
<path d="M44.3209 16.2909C44.3209 24.6903 37.1456 32.0344 28.3241 32.0344C19.5027 32.0344 12.2852 24.6903 12.2852 16.2909C12.2852 7.89156 19.4605 1.05389 28.2819 1.05389C37.1033 1.05389 44.3209 7.89156 44.3209 16.2909Z" fill="#40454F"/>
<path d="M14.7759 15.2779C14.7759 15.2779 14.0584 38.9143 27.8603 38.9143C42.8863 38.9143 41.9155 15.2779 41.9155 15.2779C41.9155 15.2779 41.8733 4.43054 28.2402 4.43054C15.7467 4.43054 14.7759 15.2779 14.7759 15.2779Z" fill="#FFEBD4"/>
<path d="M40.1846 8.77787C40.1846 8.77787 33.6002 5.94995 29.3794 10.2973C25.3697 14.4759 20.8957 17.7259 14.7755 15.2779C14.7755 15.2779 13.1294 6.16098 24.3989 3.20644C35.7106 0.2941 40.1846 8.77787 40.1846 8.77787Z" fill="#40454F"/>
<path d="M37.1875 6.28761C37.1875 6.28761 37.8628 16.5441 43.8985 16.2909C43.8985 16.2909 42.2946 6.2454 37.1875 6.28761Z" fill="#40454F"/>
<path d="M25.2852 30.3883C25.2852 30.3883 26.0027 32.1611 27.9865 32.1611C29.9702 32.1611 30.6878 30.2617 30.6878 30.2617L25.2852 30.3883Z" fill="#5A89F7"/>
<path d="M25.2852 30.3883C25.2852 30.3883 26.4248 29.3753 27.9865 30.0084C27.9865 30.0084 29.5059 29.2909 30.6878 30.2617C30.6878 30.3039 28.0287 31.3591 25.2852 30.3883Z" fill="#5A89F7"/>
<path d="M23.8515 23.3819C23.8515 24.015 23.345 24.5215 22.7119 24.5215C22.0788 24.5215 21.5723 24.015 21.5723 23.3819C21.5723 22.7488 22.0788 22.2423 22.7119 22.2423C23.345 22.2423 23.8515 22.7488 23.8515 23.3819Z" fill="#40454F"/>
<path d="M35.0781 23.3819C35.0781 24.015 34.5716 24.5215 33.9384 24.5215C33.3053 24.5215 32.7988 24.015 32.7988 23.3819C32.7988 22.7488 33.3053 22.2423 33.9384 22.2423C34.5716 22.2423 35.0781 22.7488 35.0781 23.3819Z" fill="#40454F"/>
<path d="M27.2695 26.0409V27.3493H28.4936" stroke="#40454F" stroke-width="1.0254" stroke-miterlimit="10" stroke-linecap="round" stroke-linejoin="round"/>
<path d="M20.9802 17.2195C20.9802 17.2195 17.9835 17.5993 18.3634 18.9078C18.3634 18.9078 18.6588 19.7941 21.2335 19.4143C23.8082 19.0344 24.779 18.6967 24.7367 17.7682C24.6945 16.924 22.3309 16.924 20.9802 17.2195Z" fill="#40454F"/>
<path d="M34.8672 17.2195C34.8672 17.2195 37.8639 17.5993 37.4841 18.9078C37.4841 18.9078 37.1886 19.7941 34.6139 19.4143C32.0393 19.0344 31.0685 18.6967 31.1107 17.7682C31.1529 16.924 33.5165 16.924 34.8672 17.2195Z" fill="#40454F"/>
<path d="M24.8203 30.0507C24.8203 30.0507 27.4794 31.739 30.9404 30.0507" stroke="#40454F" stroke-width="1.0254" stroke-miterlimit="10" stroke-linecap="round" stroke-linejoin="round"/>
<path d="M42.8425 52.3785L28.3652 47.4824L13.4236 52.5896C9.40556 54.0163 6.03023 56.9494 3.57475 60.5437C1.9857 62.8698 3.88923 65.7162 6.70626 65.7162H49.2978C52.0826 65.7162 53.9896 62.9281 52.4752 60.5912C50.1037 56.9319 46.7986 53.9024 42.8425 52.3785Z" fill="#88ABFE"/>
<path d="M28.3232 47.0181L13.4238 52.5474C13.4238 52.5474 27.268 58.7519 42.8427 52.3363L28.3232 47.0181Z" fill="#FFEBD4"/>
</svg>
