<?xml version="1.0" encoding="utf-8"?>
<!-- Generator: Adobe Illustrator 27.3.1, SVG Export Plug-In . SVG Version: 6.00 Build 0)  -->
<svg version="1.1" id="Layer_1" xmlns:bx="https://boxy-svg.com"
	 xmlns="http://www.w3.org/2000/svg" xmlns:xlink="http://www.w3.org/1999/xlink" x="0px" y="0px" viewBox="0 0 500 500"
	 style="enable-background:new 0 0 500 500;" xml:space="preserve">
<style type="text/css">
	.st0{fill:#316BE5;}
	.st1{fill:none;}
	.st2{fill:#326CE5;}
</style>
<path bx:origin="0.492308 0.5" class="st0" d="M374,174.8c-13.7-13.8-31.9-21.3-51.3-21.3c-19.3,0-37.6,7.6-51.3,21.3l-21.9,21.9
	l-21.9-21.9c-13.7-13.8-31.9-21.3-51.3-21.3c-19.4,0-37.6,7.6-51.3,21.3c-13.7,13.7-21.3,31.9-21.3,51.3c0,4,0.3,7.9,0.9,11.7h17.8
	c1.9,0,5.2-1.8,6.2-3.4l0.2-0.3l7.2-9.2c3.9-5.9,8.9-5.9,10.8-5.7c2,0.3,7,1.7,9.1,8.8l13.7,45.7l32.6-73.7
	c3.1-7.1,8.2-7.6,10.3-7.5c2,0.1,7.1,1.2,9.3,8.6l36.8,122.6l33.3-74c3-6.8,10.9-11.9,18.4-11.9h46.2c4.1,0,7.5,3.4,7.5,7.5
	c0,4.1-3.3,7.5-7.5,7.5h-46.2c-1.6,0-4.1,1.6-4.8,3.1l-38.2,84.8c-2.9,6.5-7.5,7.4-9.8,7.4c-0.2,0-0.4-0.1-0.6-0.1
	c-2-0.1-7.1-1.2-9.3-8.6l-36.8-122.4l-32.6,73.8c-3.1,7.1-8.2,7.6-10.3,7.5c-2-0.2-7.1-1.3-9.3-8.7l-15-50.3l-2.7,3.6
	c-3.8,5.8-11.8,10-18.6,10h-13.6c3.6,9.1,9.1,17.5,16.2,24.6l124.5,124.5L374,277.4c13.8-13.7,21.3-31.9,21.3-51.3
	C395.3,206.7,387.7,188.5,374,174.8z"/>
<path class="st1" d="M260.9,31.4c0-6.2-5-11.3-11.3-11.3s-11.3,5.1-11.3,11.3c0,6.2,5,11.3,11.3,11.3S260.9,37.6,260.9,31.4z"/>
<circle class="st1" cx="152.1" cy="458.7" r="11.3"/>
<path class="st1" d="M346.7,470.2c6.2,0,11.3-5.1,11.3-11.3c0-6.2-5.1-11.3-11.3-11.3c-6.2,0-11.3,5.1-11.3,11.3
	C335.4,465.1,340.5,470.2,346.7,470.2z"/>
<path class="st1" d="M30.5,295.4c-6.2,0-11.3,5-11.3,11.3c0,6.2,5.1,11.3,11.3,11.3c6.2,0,11.3-5.1,11.3-11.3
	C41.8,300.5,36.8,295.4,30.5,295.4z"/>
<path class="st1" d="M425.3,127.3c6.2,0,11.3-5.1,11.3-11.3c0-6.2-5.1-11.3-11.3-11.3c-6.2,0-11.3,5-11.3,11.3
	C414,122.3,419.1,127.3,425.3,127.3z"/>
<ellipse transform="matrix(0.8507 -0.5257 0.5257 0.8507 -91.2183 292.1841)" class="st1" cx="468.7" cy="306.6" rx="11.3" ry="11.3"/>
<ellipse transform="matrix(0.7071 -0.7071 0.7071 0.7071 -60.6813 86.1316)" class="st1" cx="73.6" cy="116.3" rx="11.3" ry="11.3"/>
<path class="st2" d="M153.4,434.1l-1.3,0c-13.6,0-24.7,11-24.7,24.6c0,13.6,11,24.7,24.7,24.7c13.6,0,24.6-11,24.6-24.7
	c0-6.2-2.3-11.9-6.1-16.2l46.9-97.4c-5.9-2.4-11.1-6.5-16.6-9.6L153.4,434.1z M152.1,470c-6.2,0-11.3-5-11.3-11.3
	c0-6.2,5-11.3,11.3-11.3c6.2,0,11.3,5.1,11.3,11.3C163.4,465,158.3,470,152.1,470z"/>
<path class="st2" d="M50.5,292.3c-4.5-6.2-11.8-10.3-20-10.3c-13.6,0-24.6,11-24.6,24.7c0,13.6,11,24.6,24.6,24.6
	c12.2,0,22.3-8.8,24.3-20.4l87.4-20c-1.8-6.1-5.9-11.6-6.9-18L50.5,292.3z M30.5,318c-6.2,0-11.3-5.1-11.3-11.3
	c0-6.2,5.1-11.3,11.3-11.3c6.2,0,11.3,5,11.3,11.3C41.8,312.9,36.8,318,30.5,318z"/>
<path class="st2" d="M314.2,458.9c0-5.3,1.3-10.4,3.6-15H181.1c2.3,4.6,3.6,9.6,3.6,14.8c0,9.5-4,17.9-10.5,23.9h150.3
	C318.1,476.7,314.2,468.3,314.2,458.9z"/>
<path class="st2" d="M106.2,116.3c0,0.8,0,1.6-0.1,2.4l125.3-60.4c-8.9-6-14.4-16-14.4-27c0-3.4,0.5-6.7,1.5-9.7L85.2,85.9
	C97.5,90.6,106.2,102.4,106.2,116.3z"/>
<path class="st2" d="M267.7,58.4l125.2,60.3c-0.1-0.9-0.1-1.8-0.1-2.6c0-13.8,8.6-25.6,20.8-30.3l-132.9-64c0.9,3.1,1.5,6.3,1.5,9.7
	C282.1,42.4,276.6,52.5,267.7,58.4z"/>
<path class="st2" d="M425.3,148.6c-3.1,0-6.2-0.4-9.1-1.3L447,282.4c5.9-5.3,13.6-8.3,21.7-8.3c6.3,0,12.3,1.8,17.3,5l-33.2-145.5
	C446.9,142.6,436.8,148.6,425.3,148.6z"/>
<path class="st2" d="M328.3,442.5c-3.9,4.3-6.3,10.1-6.3,16.4c0,13.6,11,24.7,24.6,24.7c13.6,0,24.6-11,24.6-24.7
	c0-13.6-11-24.6-24.6-24.6l-1.1,0l-46.8-97.2c-5.5,3.1-10.9,6.7-16.9,9.1L328.3,442.5z M346.7,447.6c6.2,0,11.3,5.1,11.3,11.3
	c0,6.2-5.1,11.3-11.3,11.3c-6.2,0-11.3-5.1-11.3-11.3C335.4,452.7,340.5,447.6,346.7,447.6z"/>
<path class="st2" d="M438.8,319.5L353.1,427c14.1,2.8,24.9,14.7,26.1,29.3l93.6-117.4c-1.3,0.2-2.7,0.3-4.1,0.3
	C455.4,339.2,443.8,331.2,438.8,319.5z"/>
<path class="st2" d="M97.3,123.1c0.6-2.1,1-4.4,1-6.8c0-13.6-11-24.7-24.7-24.7c-13.6,0-24.6,11-24.6,24.7c0,13.6,11,24.6,24.6,24.6
	c4.2,0,8.2-1,11.7-2.9l48.6,38.8c3.7-5.2,7.8-10.2,12-14.9L97.3,123.1z M73.6,127.6c-6.2,0-11.3-5-11.3-11.3c0-6.2,5-11.3,11.3-11.3
	s11.3,5,11.3,11.3C84.9,122.6,79.9,127.6,73.6,127.6z"/>
<path class="st2" d="M52.1,282.3l30.8-134.8c-3,0.9-6.1,1.3-9.3,1.3c-11.4,0-21.5-5.9-27.3-14.9L13.2,279.2c5-3.2,11-5,17.4-5
	C38.6,274.2,46.2,277.1,52.1,282.3z"/>
<path class="st2" d="M145.9,426.8L60.4,319.6c-5.1,11.7-16.7,19.6-29.9,19.6c-1.4,0-2.8-0.1-4.1-0.3l93.3,117
	C120.9,441.4,131.7,429.6,145.9,426.8z"/>
<path class="st2" d="M259,197.9V54.2c8.9-3.7,15.2-12.5,15.2-22.7c0-13.6-11-24.7-24.6-24.7c-13.6,0-24.6,11-24.6,24.7
	c0,10.2,6.2,18.9,15,22.7V198c3.3-0.2,6.6-0.3,9.9-0.3C252.9,197.6,256,197.7,259,197.9z M238.3,31.4c0-6.2,5-11.3,11.3-11.3
	s11.3,5.1,11.3,11.3c0,6.2-5,11.3-11.3,11.3S238.3,37.6,238.3,31.4z"/>
<path class="st2" d="M468.7,282c-8.3,0-15.6,4.1-20.1,10.3L363,273.1c-1,6.3-7.1,11.3-8.9,17.3l90.3,20.6
	c2,11.5,12.1,20.3,24.3,20.3c13.6,0,24.6-11,24.6-24.6C493.3,293,482.3,282,468.7,282z M468.7,317.9c-6.2,0-11.3-5-11.3-11.3
	c0-6.2,5-11.3,11.3-11.3c6.2,0,11.3,5.1,11.3,11.3C479.9,312.9,474.9,317.9,468.7,317.9z"/>
<path class="st2" d="M413.8,137.9c3.4,1.8,7.4,2.8,11.5,2.8c13.6,0,24.7-11,24.7-24.6c0-13.6-11-24.7-24.7-24.7
	c-13.6,0-24.6,11-24.6,24.7c0,2.4,0.4,4.8,1,7l-50.6,40.4c4.3,4.7,10.2,8.2,13.8,13.4L413.8,137.9z M425.3,104.8
	c6.2,0,11.3,5,11.3,11.3c0,6.2-5.1,11.3-11.3,11.3c-6.2,0-11.3-5.1-11.3-11.3C414,109.8,419.1,104.8,425.3,104.8z"/>
</svg>
