<svg xmlns="http://www.w3.org/2000/svg" xmlns:xlink="http://www.w3.org/1999/xlink" viewBox="0 0 528 208"><defs><style>.cls-1{fill:none;}.cls-2{fill:url(#Безымянный_градиент_6);}.cls-3{fill:url(#Безымянный_градиент_6-2);}.cls-4{fill:url(#Безымянный_градиент_6-3);}.cls-5{fill:url(#Безымянный_градиент_6-4);}.cls-6{fill:url(#Безымянный_градиент_6-5);}.cls-7{fill:url(#Безымянный_градиент_6-6);}.cls-8{isolation:isolate;}.cls-9{fill:#2980f3;}.cls-10{fill:#fff;}</style><linearGradient id="Безымянный_градиент_6" x1="261.39" y1="371.66" x2="357.75" y2="371.66" gradientTransform="translate(-361.28 -17.35) rotate(-29.89)" gradientUnits="userSpaceOnUse"><stop offset="0" stop-color="#2980f3"/><stop offset="1" stop-color="#2652d9"/></linearGradient><linearGradient id="Безымянный_градиент_6-2" x1="279.17" y1="331.87" x2="343.8" y2="331.87" xlink:href="#Безымянный_градиент_6"/><linearGradient id="Безымянный_градиент_6-3" x1="297.91" y1="294.3" x2="331.26" y2="294.3" xlink:href="#Безымянный_градиент_6"/><linearGradient id="Безымянный_градиент_6-4" x1="8282.71" y1="2855.13" x2="8182.43" y2="2855.13" gradientTransform="translate(8677.52 -1565.75) rotate(150.11)" xlink:href="#Безымянный_градиент_6"/><linearGradient id="Безымянный_градиент_6-5" x1="8268.58" y1="2814.4" x2="8199.74" y2="2814.4" gradientTransform="translate(8677.52 -1565.75) rotate(150.11)" xlink:href="#Безымянный_градиент_6"/><linearGradient id="Безымянный_градиент_6-6" x1="8254.65" y1="2774.65" x2="8216.41" y2="2774.65" gradientTransform="translate(8677.52 -1565.75) rotate(150.11)" xlink:href="#Безымянный_градиент_6"/></defs><g id="Слой_2" data-name="Слой 2"><g id="Слой_1-2" data-name="Слой 1"><g id="Слой_2-2" data-name="Слой 2"><g id="Слой_1-2-2" data-name="Слой 1-2"><rect class="cls-1" width="528" height="208"/><path class="cls-2" d="M129.77,135.07l9.81,9.6a1.53,1.53,0,0,1,0,2.15,1.58,1.58,0,0,1-.62.37L50.32,173.45,38,161.39Z"/><path class="cls-3" d="M96,104.48l9.85,9.73a1.51,1.51,0,0,1-.66,2.53l-58,16.08-12.13-12Z"/><path class="cls-4" d="M65.05,75,74,84a1.51,1.51,0,0,1,0,2.14,1.53,1.53,0,0,1-.69.39L45.74,93.71l-11-11.13Z"/><path class="cls-5" d="M68.23,78.8,49.44,60a1.51,1.51,0,0,1,0-2.14,1.57,1.57,0,0,1,.71-.4L142,34.55l20,20Z"/><path class="cls-6" d="M101.45,110.29,85.36,94a1.51,1.51,0,0,1,0-2.14,1.54,1.54,0,0,1,.67-.38l60.58-16.1,17.54,17.53Z"/><path class="cls-7" d="M136.46,142.06l-17.33-17.47a1.51,1.51,0,0,1,0-2.14,1.47,1.47,0,0,1,.65-.38l29.06-8.45L168,132.73Z"/><g class="cls-8"><g class="cls-8"><path class="cls-9" d="M216.77,84l.17,1.6a5.78,5.78,0,0,1-1.26.17q-3.56,0-3.55-4.32V66.92a13.19,13.19,0,0,0-2.72-.31,3.57,3.57,0,0,0-2.56.74,3,3,0,0,0-.74,2.2v1.74h3.69v1.65h-3.69V85.4h-2V72.94H202V71.29h2.13V69.58q0-4.68,5-4.68a17.89,17.89,0,0,1,4.93.76V81.4a3.76,3.76,0,0,0,.42,2,1.6,1.6,0,0,0,1.45.65A6.35,6.35,0,0,0,216.77,84Z"/><path class="cls-9" d="M224.5,85.74a6,6,0,0,1-3.92-1.14,3.71,3.71,0,0,1-1.37-3,3.63,3.63,0,0,1,1.51-3.2,6.9,6.9,0,0,1,3.92-1.08,15.76,15.76,0,0,1,3.39.39V76.08q0-3.42-3.67-3.42a9.34,9.34,0,0,0-3.78.73l-.45-1.63A11,11,0,0,1,224.5,71a5.7,5.7,0,0,1,4.09,1.33A5.18,5.18,0,0,1,230,76.16v8.26A10.56,10.56,0,0,1,224.5,85.74ZM228,83.38V79.13a15.8,15.8,0,0,0-3.19-.39q-3.68,0-3.67,2.8a2.28,2.28,0,0,0,.91,2,4.36,4.36,0,0,0,2.59.67A6.14,6.14,0,0,0,228,83.38Z"/><path class="cls-9" d="M234.75,85.4v-13A12.91,12.91,0,0,1,240.69,71a5.84,5.84,0,0,1,4.18,1.36,5,5,0,0,1,1.42,3.79v9.3h-2V76.22a3.24,3.24,0,0,0-3.64-3.56,8.39,8.39,0,0,0-4,1V85.4Z"/><path class="cls-9" d="M260.37,85.4l-4.31-6.27A31.73,31.73,0,0,1,253.15,81V85.4h-2V65.27l2-.11V79a18.32,18.32,0,0,0,4.55-3.52,8.57,8.57,0,0,0,1.91-4.23h1.94A10.57,10.57,0,0,1,257.49,78l5.12,7.36Z"/><path class="cls-9" d="M273.28,73.3a11.75,11.75,0,0,0-3.59-.64c-2,0-3,.75-3,2.24a2.25,2.25,0,0,0,.21,1,1.67,1.67,0,0,0,.73.71,7.14,7.14,0,0,0,.92.46,10.82,10.82,0,0,0,1.22.42,11.23,11.23,0,0,1,3.58,1.66,3.08,3.08,0,0,1,1.12,2.57,3.43,3.43,0,0,1-1.43,3,6.38,6.38,0,0,1-3.75,1,13.48,13.48,0,0,1-2.62-.27,11.16,11.16,0,0,1-2.06-.57l.34-1.68a12.34,12.34,0,0,0,4.31.81,4.21,4.21,0,0,0,2.38-.59,1.9,1.9,0,0,0,.87-1.68,1.74,1.74,0,0,0-.84-1.55A11.85,11.85,0,0,0,268.8,79a8.39,8.39,0,0,1-3-1.49,3.26,3.26,0,0,1-1.06-2.62A3.58,3.58,0,0,1,266,72a5.63,5.63,0,0,1,3.6-1,10.59,10.59,0,0,1,4,.7Z"/><path class="cls-9" d="M283.41,85.74a5.77,5.77,0,0,1-4.66-2,8.08,8.08,0,0,1-1.69-5.38A8.05,8.05,0,0,1,278.75,73a6.44,6.44,0,0,1,9.37,0,8.1,8.1,0,0,1,1.68,5.37,8.13,8.13,0,0,1-1.68,5.38A5.81,5.81,0,0,1,283.41,85.74Zm0-1.71a3.8,3.8,0,0,0,3.28-1.51,7,7,0,0,0,1.09-4.18,7,7,0,0,0-1.09-4.17,3.78,3.78,0,0,0-3.28-1.51,3.73,3.73,0,0,0-3.23,1.53,8.33,8.33,0,0,0,0,8.31A3.73,3.73,0,0,0,283.41,84Z"/><path class="cls-9" d="M299,85.74q-5.3,0-5.29-5V71.29h2v9.38Q295.65,84,299,84a8.3,8.3,0,0,0,4-1V71.29h2v13A13.15,13.15,0,0,1,299,85.74Z"/></g><g class="cls-8"><path class="cls-9" d="M316,71a9.14,9.14,0,0,1,1.56.14l-.28,1.71a4.1,4.1,0,0,0-1.17-.14,8.09,8.09,0,0,0-4,1V85.4h-2v-13A11.75,11.75,0,0,1,316,71Z"/></g><g class="cls-8"><path class="cls-9" d="M330.12,71.79l-.42,1.6a9.47,9.47,0,0,0-3.5-.73,4.35,4.35,0,0,0-3.6,1.54,6.56,6.56,0,0,0-1.25,4.23,5.93,5.93,0,0,0,1.32,4.17A5,5,0,0,0,326.51,84a7.68,7.68,0,0,0,3.36-.81l.39,1.62a8.12,8.12,0,0,1-3.84.9,6.94,6.94,0,0,1-5.23-1.91,7.36,7.36,0,0,1-1.85-5.37A8,8,0,0,1,321.12,73a6.21,6.21,0,0,1,5-2A9.41,9.41,0,0,1,330.12,71.79Z"/></g><g class="cls-8"><path class="cls-9" d="M344.79,77.08a14.21,14.21,0,0,1-.09,1.66H334.62a5.57,5.57,0,0,0,1.53,4A5.42,5.42,0,0,0,340,84a10.8,10.8,0,0,0,4.23-.93l.36,1.66a11.11,11.11,0,0,1-4.73,1,7.21,7.21,0,0,1-5.31-1.94,7.39,7.39,0,0,1-1.94-5.48A7.86,7.86,0,0,1,334.36,73a5.87,5.87,0,0,1,4.72-2,5.28,5.28,0,0,1,4.2,1.74A6.48,6.48,0,0,1,344.79,77.08Zm-2,.26a3.75,3.75,0,0,0,0-.54,4.59,4.59,0,0,0-1-3,3.35,3.35,0,0,0-2.82-1.21A3.93,3.93,0,0,0,336,73.91a5.71,5.71,0,0,0-1.35,3.43Z"/></g></g><g class="cls-8"><g class="cls-8"><path class="cls-10" d="M236.43,96.25v30.3h-5.67V112.09a44.27,44.27,0,0,1,.31-5.54,126.25,126.25,0,0,1-8.18,14.76H218a126.51,126.51,0,0,1-8.27-14.84,44,44,0,0,1,.35,5.62v14.46h-5.71V96.25h6.36a123.27,123.27,0,0,0,9.69,18.87,122.34,122.34,0,0,0,9.61-18.87Z"/><path class="cls-10" d="M242.88,100.58a3.28,3.28,0,0,1-.91-2.42,3.32,3.32,0,0,1,.91-2.43,3.48,3.48,0,0,1,2.55-.9,3.44,3.44,0,0,1,2.52.9,3.32,3.32,0,0,1,.9,2.43,3.28,3.28,0,0,1-.9,2.42,3.4,3.4,0,0,1-2.52.91A3.44,3.44,0,0,1,242.88,100.58Zm5.54,26h-6V104.43h6Z"/><path class="cls-10" d="M267.68,110a22.29,22.29,0,0,0-6-1.17c-2,0-3,.59-3,1.77a1.51,1.51,0,0,0,.73,1.37,13.43,13.43,0,0,0,2.86,1.06,14.18,14.18,0,0,1,5.65,2.62,5.67,5.67,0,0,1,1.7,4.43,6,6,0,0,1-2.48,5.17,11,11,0,0,1-6.6,1.8,19.64,19.64,0,0,1-7.84-1.43l.82-4.89a19.23,19.23,0,0,0,6.89,1.39,5.18,5.18,0,0,0,2.44-.5,1.54,1.54,0,0,0,.93-1.41,1.6,1.6,0,0,0-.89-1.49,21.26,21.26,0,0,0-3.74-1.32,10.52,10.52,0,0,1-4.76-2.38,5.7,5.7,0,0,1-1.6-4.29,6.08,6.08,0,0,1,2.23-5.06,9.73,9.73,0,0,1,6.21-1.78,19.17,19.17,0,0,1,7.14,1.26Z"/><path class="cls-10" d="M286.72,110a22.3,22.3,0,0,0-6-1.17q-3,0-3,1.77a1.51,1.51,0,0,0,.73,1.37,13.66,13.66,0,0,0,2.86,1.06,14.18,14.18,0,0,1,5.65,2.62,5.64,5.64,0,0,1,1.71,4.43,6,6,0,0,1-2.49,5.17,11,11,0,0,1-6.6,1.8,19.67,19.67,0,0,1-7.84-1.43l.83-4.89a19.18,19.18,0,0,0,6.88,1.39,5.18,5.18,0,0,0,2.44-.5,1.54,1.54,0,0,0,.93-1.41,1.6,1.6,0,0,0-.88-1.49,21.47,21.47,0,0,0-3.75-1.32,10.57,10.57,0,0,1-4.76-2.38,5.74,5.74,0,0,1-1.6-4.29,6.08,6.08,0,0,1,2.23-5.06,9.76,9.76,0,0,1,6.21-1.78,19.09,19.09,0,0,1,7.14,1.26Z"/><path class="cls-10" d="M292.74,100.58a3.24,3.24,0,0,1-.91-2.42,3.28,3.28,0,0,1,.91-2.43,3.45,3.45,0,0,1,2.55-.9,3.4,3.4,0,0,1,2.51.9,3.28,3.28,0,0,1,.91,2.43,3.24,3.24,0,0,1-.91,2.42,3.36,3.36,0,0,1-2.51.91A3.41,3.41,0,0,1,292.74,100.58Zm5.54,26h-6V104.43h6Z"/><path class="cls-10" d="M321.52,123.91a11.4,11.4,0,0,1-15.78,0,13.57,13.57,0,0,1,0-16.82,11.43,11.43,0,0,1,15.78,0,12,12,0,0,1,2.9,8.4A12,12,0,0,1,321.52,123.91Zm-11.36-3.55a4,4,0,0,0,3.48,1.78,3.94,3.94,0,0,0,3.46-1.78,8.54,8.54,0,0,0,1.22-4.89,8.45,8.45,0,0,0-1.22-4.87,3.94,3.94,0,0,0-3.46-1.75,4,4,0,0,0-3.48,1.77,10.18,10.18,0,0,0,0,9.74Z"/><path class="cls-10" d="M328.92,126.55V105.82a24.62,24.62,0,0,1,9.78-1.91c3.17,0,5.63.77,7.36,2.3a8.32,8.32,0,0,1,2.6,6.58v13.76h-6V113.22q0-4.36-4-4.37a9,9,0,0,0-3.81.78v16.92Z"/></g><g class="cls-8"><path class="cls-10" d="M353.9,111.75q0-7.19,3.44-11.6t10.06-4.42a19.07,19.07,0,0,1,7.4,1.52L374,99.93a19.87,19.87,0,0,0-6.58-1.38q-5.24,0-7.77,3.66a16.38,16.38,0,0,0-2.53,9.54q0,5.81,2.64,9.15t7.87,3.36a16.68,16.68,0,0,0,6.71-1.56l.65,2.68a16,16,0,0,1-7.44,1.69q-6.58,0-10.13-4.13T353.9,111.75Z"/></g><g class="cls-8"><path class="cls-10" d="M388.18,127.07A8.91,8.91,0,0,1,381,124a12.5,12.5,0,0,1-2.62-8.31,12.54,12.54,0,0,1,2.62-8.31,10,10,0,0,1,14.48,0,12.58,12.58,0,0,1,2.6,8.31,12.54,12.54,0,0,1-2.6,8.31A8.94,8.94,0,0,1,388.18,127.07Zm0-2.64a5.82,5.82,0,0,0,5.06-2.34,10.79,10.79,0,0,0,1.69-6.45,10.81,10.81,0,0,0-1.69-6.45,5.84,5.84,0,0,0-5.06-2.33,5.77,5.77,0,0,0-5,2.36,10.73,10.73,0,0,0-1.71,6.42,10.74,10.74,0,0,0,1.71,6.43A5.8,5.8,0,0,0,388.18,124.43Z"/><path class="cls-10" d="M404.28,126.55V106.43a19.79,19.79,0,0,1,9.17-2.21q4.29,0,6.47,2.1a7.73,7.73,0,0,1,2.19,5.86v14.37h-3v-14.2a5.54,5.54,0,0,0-1.41-4,5.61,5.61,0,0,0-4.22-1.45,12.86,12.86,0,0,0-6.14,1.47v18.22Z"/><path class="cls-10" d="M439.29,124.08l.22,2.56a12.68,12.68,0,0,1-3.25.43q-6.36,0-6.36-6.93V107.29h-3.29v-2.55h3.29V99.59l3-.22v5.37h5.88v2.55h-5.88v12.85a4.74,4.74,0,0,0,.93,3.29,3.62,3.62,0,0,0,2.79,1A9.32,9.32,0,0,0,439.29,124.08Z"/></g><g class="cls-8"><path class="cls-10" d="M453.53,104.22a14,14,0,0,1,2.42.21l-.43,2.64a6.45,6.45,0,0,0-1.82-.21,12.46,12.46,0,0,0-6.23,1.47v18.22h-3V106.43A18.05,18.05,0,0,1,453.53,104.22Z"/></g><g class="cls-8"><path class="cls-10" d="M468.6,127.07a8.91,8.91,0,0,1-7.21-3.12,12.5,12.5,0,0,1-2.62-8.31,12.54,12.54,0,0,1,2.62-8.31,10,10,0,0,1,14.48,0,12.58,12.58,0,0,1,2.6,8.31,12.54,12.54,0,0,1-2.6,8.31A8.94,8.94,0,0,1,468.6,127.07Zm0-2.64a5.82,5.82,0,0,0,5.06-2.34,10.79,10.79,0,0,0,1.69-6.45,10.81,10.81,0,0,0-1.69-6.45,5.84,5.84,0,0,0-5.06-2.33,5.77,5.77,0,0,0-5,2.36,10.73,10.73,0,0,0-1.71,6.42,10.74,10.74,0,0,0,1.71,6.43A5.8,5.8,0,0,0,468.6,124.43Z"/><path class="cls-10" d="M487.68,120.36a5.9,5.9,0,0,0,.65,3.12,2.5,2.5,0,0,0,2.25,1,10,10,0,0,0,1.26-.13l.26,2.47a9,9,0,0,1-2,.26q-5.49,0-5.5-6.67v-25l3-.21Z"/></g></g></g></g></g></g></svg>